<?xml version="1.0" encoding="utf-8"?>
<!-- Generator: Adobe Illustrator 18.1.1, SVG Export Plug-In . SVG Version: 6.00 Build 0)  -->
<svg version="1.1" id="Layer_1" xmlns="http://www.w3.org/2000/svg" xmlns:xlink="http://www.w3.org/1999/xlink" x="0px" y="0px"
	 viewBox="0 0 512 512" enable-background="new 0 0 512 512" xml:space="preserve">
<polygon fill="#FFFFFF" points="255.1,21.3 196.2,123.3 314,327.3 431.8,327.3 "/>
<g>
	<path fill="#FFFFFF" d="M70.8,488.1c-0.6-2.6-1.1-5.4-1.4-8.6c-7.6,7.6-16,11.2-26.3,11.2c-16.2,0-25.8-9.6-25.8-24.3
		c0-13.8,7.3-22.3,21.9-25.7c19.2-4.5,29.5-3.3,29.5-9.7v-2c0-4.8-3.7-7.3-10.8-7.3c-7.8,0-12.3,3.3-13.4,9.3H19.5
		c2.6-18.8,15.4-27.7,38.9-27.7c14.5,0,24.6,3.4,30.4,10.7c5.1,6.7,5.5,15.1,5.5,26.5v31.3c0,7.3,1.2,11.7,4,13.1v3.1H70.8z
		 M51.7,454.1c-6.1,1.7-8.9,4.2-8.9,9.2c0,5.8,3.9,9.8,9.9,9.8c9.2,0,15.7-5.7,15.7-14.5v-9.5C63.9,452.1,57.8,452.4,51.7,454.1z"/>
	<path fill="#FFFFFF" d="M106.6,405.4h26v11.4c5.4-9,13.4-13.4,24.6-13.4c12,0,19.8,4.4,23.8,13.4c5.5-9,13.7-13.4,24.8-13.4
		c17.8,0,27,10,27,29.3v55.4h-26.5v-47.2c0-11.9-2.7-17-11.8-17c-8.9,0-12.8,6.5-12.8,19.9v44.2h-24v-47.2c0-11.9-2.6-17-11.9-17
		c-8.9,0-12.7,6.5-12.7,19.9v44.2h-26.5V405.4z"/>
	<path fill="#FFFFFF" d="M293.8,488.1c-0.6-2.6-1.1-5.4-1.4-8.6c-7.6,7.6-16,11.2-26.3,11.2c-16.2,0-25.8-9.6-25.8-24.3
		c0-13.8,7.3-22.3,22-25.7c19.1-4.5,29.4-3.3,29.4-9.7v-2c0-4.8-3.7-7.3-10.7-7.3c-7.8,0-12.3,3.3-13.4,9.3h-24.9
		c2.7-18.8,15.4-27.7,38.9-27.7c14.5,0,24.6,3.4,30.4,10.7c5.1,6.7,5.4,15.1,5.4,26.5v31.3c0,7.3,1.2,11.7,4.1,13.1v3.1H293.8z
		 M274.8,454.1c-6.1,1.7-8.9,4.2-8.9,9.2c0,5.8,3.9,9.8,9.9,9.8c9.2,0,15.7-5.7,15.7-14.5v-9.5C286.9,452.1,280.9,452.4,274.8,454.1
		z"/>
	<path fill="#FFFFFF" d="M329.3,468.2l41.1-43.3H332v-19.5h72.2v19.5l-40.8,43.3h42.2v19.9h-76.3V468.2z"/>
	<path fill="#FFFFFF" d="M493.4,462.1c-4.8,18.1-19.6,28.5-40.8,28.5c-25.5,0-41.6-16.5-41.6-43.4c0-27.7,16.4-44.6,41.6-44.6
		c26,0,42.2,17,42.2,45.8c0,1.6,0,3.3-0.2,4.8h-55.9c0,11.7,5.2,17.9,14.8,17.9c7.3,0,12-3.1,13.8-9.1L493.4,462.1z M468.8,438
		c-0.2-10.7-6.1-17-15.4-17c-8.7,0-14.3,5.9-15.4,17H468.8z"/>
</g>
</svg>
