<svg xmlns="http://www.w3.org/2000/svg" viewBox="0 0 194.8 29.4" enable-background="new 0 0 194.8 29.4"><g fill="#ffffff"><path d="m25.9 15.3l3.8-.4c.2 1.3.7 2.2 1.4 2.8.7.6 1.7.9 2.8.9 1.3 0 2.2-.3 2.9-.8s1-1.2 1-1.9c0-.5-.1-.9-.4-1.2-.3-.3-.7-.6-1.4-.8-.5-.2-1.5-.4-3.1-.8-2.1-.5-3.6-1.2-4.4-1.9-1.2-1.1-1.8-2.4-1.8-3.9 0-1 .3-1.9.8-2.8.6-.9 1.4-1.5 2.4-2 1.1-.5 2.3-.7 3.8-.7 2.4 0 4.3.5 5.5 1.6s1.9 2.5 1.9 4.3l-3.8.3c-.2-1-.5-1.7-1.1-2.2-.6-.4-1.4-.7-2.5-.7-1.1 0-2 .2-2.7.7-.4.3-.6.7-.6 1.2 0 .5.2.9.6 1.2.5.4 1.7.9 3.6 1.3 1.9.4 3.3.9 4.2 1.4.9.5 1.6 1.1 2.1 2 .5.8.8 1.9.8 3.1 0 1.1-.3 2.2-.9 3.1-.6 1-1.5 1.7-2.6 2.2-1.2.5-2.6.7-4.3.7-2.5 0-4.3-.6-5.7-1.7-1.2-1.1-2-2.8-2.3-5"/><path d="m51 7.6v3h-2.5v5.7c0 1.2 0 1.8.1 2 0 .2.2.3.3.5.2.1.4.2.6.2.3 0 .8-.1 1.5-.4l.3 2.9c-.9.4-1.8.6-2.9.6-.7 0-1.3-.1-1.8-.3-.5-.2-.9-.5-1.2-.9-.2-.4-.4-.8-.5-1.5-.1-.4-.1-1.3-.1-2.6v-6.2h-1.8v-3h1.7v-2.8l3.7-2.2v5h2.6"/><path d="m60 2.2h3.9v19.5h-3.9z"/><path d="m70.9 21.7l-5.7-14.1h3.9l2.7 7.2.8 2.4c.2-.6.3-1 .4-1.2.1-.4.3-.8.4-1.2l2.6-7.2h3.8l-5.6 14.1h-3.3"/><path d="m90.1 13.4c0-1.1-.3-1.9-.8-2.5-.5-.6-1.2-.9-1.9-.9-.8 0-1.5.3-2 .9s-.8 1.4-.8 2.4h5.5zm-.3 3.8l3.7.6c-.5 1.4-1.2 2.4-2.3 3.1-1 .7-2.3 1.1-3.9 1.1-2.5 0-4.3-.8-5.4-2.4-.9-1.3-1.4-2.9-1.4-4.9 0-2.3.6-4.2 1.8-5.5 1.2-1.3 2.8-2 4.6-2 2.1 0 3.8.7 5 2.1 1.2 1.4 1.8 3.5 1.7 6.4h-9.4c0 1.1.3 2 .9 2.6.6.6 1.3.9 2.1.9.6 0 1.1-.2 1.5-.5s.9-.8 1.1-1.5"/><path d="m94.9 17.7l3.7-.6c.2.7.5 1.3 1 1.6.5.4 1.2.6 2 .6 1 0 1.7-.2 2.2-.5.3-.2.5-.6.5-1 0-.3-.1-.5-.3-.7-.2-.2-.6-.3-1.3-.5-3-.7-4.9-1.3-5.7-1.8-1.1-.8-1.7-1.8-1.7-3.2 0-1.2.5-2.2 1.4-3.1 1-.8 2.5-1.2 4.5-1.2 1.9 0 3.4.3 4.3.9.9.6 1.6 1.5 1.9 2.8l-3.5.6c-.1-.6-.4-1-.9-1.3-.4-.3-1-.4-1.8-.4-1 0-1.7.1-2.1.4-.3.2-.4.5-.4.8 0 .3.1.5.4.7.3.2 1.5.6 3.5 1.1 2 .5 3.4 1 4.2 1.7.8.7 1.2 1.6 1.2 2.8 0 1.3-.5 2.4-1.6 3.4s-2.7 1.4-4.8 1.4c-1.9 0-3.4-.4-4.6-1.2-1-.9-1.7-2-2.1-3.3"/><path d="m125 14.5v-3.3h8.5v7.8c-.8.8-2 1.5-3.6 2.1-1.6.6-3.1.9-4.7.9-2 0-3.8-.4-5.3-1.3-1.5-.9-2.7-2.1-3.4-3.7-.8-1.6-1.1-3.3-1.1-5.2 0-2 .4-3.8 1.3-5.4.9-1.6 2.1-2.8 3.7-3.6 1.2-.6 2.8-1 4.7-1 2.4 0 4.3.5 5.7 1.5 1.4 1 2.2 2.4 2.6 4.2l-3.9.7c-.3-1-.8-1.7-1.5-2.3-.8-.6-1.7-.8-2.8-.8-1.7 0-3.1.5-4.1 1.6-1 1.1-1.5 2.7-1.5 4.9 0 2.3.5 4.1 1.6 5.2 1 1.2 2.4 1.7 4.1 1.7.8 0 1.7-.2 2.5-.5.8-.3 1.5-.7 2.1-1.2v-2.5h-4.9z"/><path d="m140.1 21.7h-3.7v-14.1h3.5v2c.6-.9 1.1-1.6 1.6-1.9.5-.3 1-.5 1.6-.5.8 0 1.7.2 2.4.7l-1.1 3.3c-.6-.4-1.2-.6-1.7-.6-.5 0-1 .1-1.3.4-.4.3-.6.8-.9 1.6-.2.8-.3 2.3-.3 4.7v4.4z"/><path d="m149.5 14.6c0 1.4.3 2.5 1 3.2.7.7 1.5 1.1 2.5 1.1 1 0 1.8-.4 2.5-1.1.7-.7 1-1.8 1-3.2 0-1.4-.3-2.4-1-3.2-.7-.7-1.5-1.1-2.5-1.1-1 0-1.8.4-2.5 1.1-.6.7-1 1.8-1 3.2m-3.8-.2c0-1.2.3-2.4.9-3.6.6-1.2 1.5-2.1 2.6-2.7s2.4-.9 3.8-.9c2.1 0 3.9.7 5.2 2.1 1.4 1.4 2 3.1 2 5.3 0 2.1-.7 3.9-2.1 5.3-1.4 1.4-3.1 2.1-5.2 2.1-1.3 0-2.5-.3-3.7-.9-1.2-.6-2.1-1.4-2.7-2.6-.5-1.1-.8-2.5-.8-4.1"/><path d="m172 21.7v-2.1c-.5.8-1.2 1.4-2 1.8-.8.4-1.7.7-2.7.7-.9 0-1.8-.2-2.5-.6-.8-.4-1.3-1-1.6-1.8-.3-.8-.5-1.8-.5-3.1v-9h3.7v6.5c0 2 .1 3.2.2 3.7.1.4.4.8.8 1.1.4.3.8.4 1.4.4.6 0 1.2-.2 1.7-.5.5-.3.8-.8 1-1.3.2-.5.3-1.8.3-3.8v-6h3.7v14.1h-3.5z"/><path d="m182.3 14.4c0 1.6.3 2.8.9 3.5.6.8 1.4 1.1 2.3 1.1.9 0 1.6-.3 2.2-1 .6-.7.9-1.8.9-3.4 0-1.5-.3-2.6-.9-3.3-.6-.7-1.3-1.1-2.2-1.1-.9 0-1.7.4-2.3 1.1-.6.7-.9 1.7-.9 3.1m-3.7-6.8h3.5v2.1c.5-.7 1.1-1.3 1.8-1.7.8-.5 1.6-.7 2.6-.7 1.6 0 3 .6 4.2 1.9 1.1 1.3 1.7 3.1 1.7 5.4 0 2.4-.6 4.2-1.7 5.5-1.2 1.3-2.6 2-4.2 2-.8 0-1.5-.2-2.1-.5-.6-.3-1.3-.8-2-1.6v7.1h-3.7v-19.5z"/></g><path fill="#5d5d62" d="m1 1h21.3v21.3h-21.3z"/><path fill="#59595e" d="m1.1 1.2h21.1v21h-21.1z"/><path fill="#fff" d="m1.1 1.2v10.5 10.5l12-10.5z"/><path fill="#000" d="m22.2 11.7l-21.1-10.6 12 10.6-12 10.5z"/></svg>