<?xml version="1.0" encoding="utf-8"?>
<!-- Generator: Adobe Illustrator 18.1.1, SVG Export Plug-In . SVG Version: 6.00 Build 0)  -->
<svg version="1.1" id="Layer_1" xmlns="http://www.w3.org/2000/svg" xmlns:xlink="http://www.w3.org/1999/xlink" x="0px" y="0px"
	 viewBox="0 0 512 512" enable-background="new 0 0 512 512" xml:space="preserve">
<g>
	<rect x="244" y="203" transform="matrix(0.7071 0.7071 -0.7071 0.7071 227.0086 -118.0473)" width="24" height="24"/>
	<rect x="304" y="203" transform="matrix(0.7071 0.7071 -0.7071 0.7071 244.5822 -160.4737)" width="24" height="24"/>
	<rect x="184" y="203" transform="matrix(0.7071 0.7071 -0.7071 0.7071 209.435 -75.6209)" width="24" height="24"/>
	<path fill="#1D1D1B" d="M399.8,112v210.2l-99.4-0.1l-9.2,0l-4.6,8l-31,53.7l-30.8-54.1l-4.6-8.1h-9.3h-98.7V112H399.8 M415.8,96
		H96.2v241.6h114.7l44.6,78.4l45-77.9l115.4,0.1V96L415.8,96z"/>
</g>
</svg>
