<?xml version="1.0" encoding="utf-8"?>
<!-- Generator: Adobe Illustrator 18.1.1, SVG Export Plug-In . SVG Version: 6.00 Build 0)  -->
<svg version="1.1" id="Layer_1" xmlns="http://www.w3.org/2000/svg" xmlns:xlink="http://www.w3.org/1999/xlink" x="0px" y="0px"
	 viewBox="0 0 512 512" enable-background="new 0 0 512 512" xml:space="preserve">
<g>
	<path d="M108.4,147.8c0-9.5,3.3-17.3,9.9-23.5c6.6-6.2,15.2-9.3,25.9-9.3c10.6,0,19.2,3.1,25.6,9.3c6.4,6.2,9.7,14.1,9.8,23.5
		c0.1,9.4-3.1,17.2-9.7,23.5c-6.6,6.3-15.3,9.4-26,9.4h-0.4c-10.5,0-19-3.1-25.4-9.4C111.6,164.9,108.4,157.1,108.4,147.8z
		 M112,397.1V206.6h63.4v190.5H112z M210.4,397.1c0.3-51.1,0.4-92.6,0.4-124.4c0-31.8-0.1-50.7-0.2-56.9l-0.2-9.2h63.2v27.7h-0.4
		c2.6-4.1,5.2-7.7,7.9-10.8c2.7-3.1,6.3-6.4,10.9-10c4.5-3.6,10.1-6.4,16.7-8.4c6.6-2,13.9-3,22-3c21.9,0,39.5,7.3,52.9,21.8
		c13.3,14.5,20,35.8,20,63.9v109.2h-63.2V295.2c0-13.5-2.6-24-7.8-31.6c-5.2-7.6-13.3-11.4-24.3-11.4c-8.1,0-14.8,2.2-20.3,6.6
		c-5.4,4.4-9.5,9.9-12.2,16.4c-1.4,3.8-2.1,9-2.1,15.6v106.3H210.4z"/>
</g>
</svg>
