<?xml version="1.0" encoding="utf-8"?>
<!-- Generator: Adobe Illustrator 18.1.1, SVG Export Plug-In . SVG Version: 6.00 Build 0)  -->
<svg version="1.1" id="Layer_1" xmlns="http://www.w3.org/2000/svg" xmlns:xlink="http://www.w3.org/1999/xlink" x="0px" y="0px"
	 viewBox="0 0 512 512" enable-background="new 0 0 512 512" xml:space="preserve">
<g>
	<g>
		<polygon fill="#1D1D1B" points="400,295.9 400,400 296.6,400 296.6,416 416,416 416,295.9 		"/>
		<polygon fill="#1D1D1B" points="112,215.9 112,112 216.6,112 216.6,96 96,96 96,215.9 		"/>
	</g>
	<polygon fill="#1D1D1B" points="216.7,307.2 205.4,295.9 112,388.7 112,295.9 96,295.9 96,416 216.6,416 216.6,400 123.3,400 	"/>
	<polygon fill="#1D1D1B" points="296.6,96 296.6,112 389.3,112 295.6,205.1 306.9,216.4 400,123.9 400,215.9 416,215.9 416,96 	"/>
</g>
</svg>
