<?xml version="1.0" encoding="utf-8"?>
<!-- Generator: Adobe Illustrator 18.1.1, SVG Export Plug-In . SVG Version: 6.00 Build 0)  -->
<svg version="1.1" id="Layer_1" xmlns="http://www.w3.org/2000/svg" xmlns:xlink="http://www.w3.org/1999/xlink" x="0px" y="0px"
	 viewBox="0 0 512 512" enable-background="new 0 0 512 512" xml:space="preserve">
<g>
	<g>
		<polygon fill="#1D1E1C" points="400,295.9 400,400 296.6,400 296.6,416 416,416 416,295.9 		"/>
		<polygon fill="#1D1E1C" points="112,215.9 112,112 216.6,112 216.6,96 96,96 96,215.9 		"/>
	</g>
	<polygon fill="#1D1E1C" points="96,404.7 107.3,416 200.7,323.2 200.7,416 216.7,416 216.7,295.9 96.1,295.9 96.1,311.9 
		189.4,311.9 	"/>
	<polygon fill="#1D1E1C" points="415,216.4 415,200.4 322.3,200.4 416,107.3 404.7,96 311.6,188.5 311.6,96.5 295.6,96.5 
		295.6,216.4 	"/>
</g>
</svg>
