<?xml version="1.0" encoding="utf-8"?>
<!-- Generator: Adobe Illustrator 18.1.1, SVG Export Plug-In . SVG Version: 6.00 Build 0)  -->
<svg version="1.1" id="Layer_1" xmlns="http://www.w3.org/2000/svg" xmlns:xlink="http://www.w3.org/1999/xlink" x="0px" y="0px"
	 viewBox="0 0 512 512" enable-background="new 0 0 512 512" xml:space="preserve">
<path fill="#1D1D1B" d="M351.7,171l39.2-39.2l-11.3-11.3l-27.9,27.9V96.6l-106.5,61.5h-75.4l-37.3-37.3l-11.3,11.3l26,26h-18.8
	v195.8h17.8l-24.9,24.9l11.3,11.3l36.2-36.2h76.4l106.5,61.5v-52.8l27.8,27.8l11.3-11.3L351.7,340V171z M335.7,324l-68.5-68.5
	l68.5-68.5V324z M245.2,174.1h4.3l3.7-2.1l82.5-47.6v40l-79.8,79.8l-70.1-70.1H245.2z M144.3,337.9V174.1h18.8l81.4,81.4l-82.4,82.4
	H144.3z M335.7,387.6L253.2,340l-3.7-2.1h-4.3h-60.4l71.1-71.1l79.8,79.8V387.6z"/>
</svg>
