<?xml version="1.0" encoding="utf-8"?>
<!-- Generator: Adobe Illustrator 19.0.0, SVG Export Plug-In . SVG Version: 6.00 Build 0)  -->
<svg version="1.1" id="Layer_1" xmlns="http://www.w3.org/2000/svg" xmlns:xlink="http://www.w3.org/1999/xlink" x="0px" y="0px"
	 viewBox="0 0 512 512" enable-background="new 0 0 512 512" xml:space="preserve">
<path d="M365.5,189.6c-4.6-23.8-17.2-42.5-36.5-56.8c-17.8-13.2-38.2-19.6-60.2-20.5c-31.7-1.2-60.5,7.2-85.7,27
	c-14.2,11.1-25,24.7-31.4,41.7c-9.5,25.5-8.3,50.7,3,75.3c4.8,10.5,12.5,18.4,23.8,22.2c4.4,1.5,6.6,0.8,8.4-3.4
	c1.6-3.9,2.6-8,3.8-12c1-3.4,0.1-6.5-1.7-9.4c-2.3-3.7-4.6-7.5-6.5-11.4c-6-12.3-6.1-25.3-3.7-38.4c4.7-25.2,19-43.6,41.8-55
	c20.1-10,41.4-11,62.9-4.9c25.1,7.1,40.5,25.9,42.9,51.8c1,10.2,0,20.3-1.4,30.3c-2.4,16-6.9,31.2-15.7,44.9
	c-8,12.5-18.7,20.4-34,20.9c-11.9,0.4-22.7-6.8-26.1-17.4c-2-6.4-1.4-12.9,0.3-19.1c2.7-9.8,5.8-19.4,8.8-29.1
	c2.6-8.8,5.3-17.6,4.9-26.9c-1-20.8-18.4-27.2-33.4-20.4c-9,4.1-14,11.9-17.4,20.7c-5.6,14.3-3.7,28.7,1.1,42.8c0.7,2,1,3.6,0.5,5.7
	c-5.8,22.9-11.7,45.9-17.1,68.9c-3.8,16-6.7,32.3-6.3,48.8c0.2,10.4,1.5,20.7,2.4,31c0.1,1.1,1,2.1,1.5,3.1c1.1-0.6,2.5-0.9,3.2-1.8
	c2.1-2.6,4.1-5.4,6-8.2c8.4-11.7,15.9-24.1,20.4-37.8c3.7-11.2,6.4-22.8,9.4-34.2c1.6-5.9,3-11.9,4.6-18.5
	c4.6,8.1,11.1,12.9,18.8,16.2c9.8,4.3,20,5.2,30.5,4.1c17-1.8,31.9-8.4,44.4-20c11.7-10.9,19.6-24.4,25.4-39.1
	c5.3-13.3,8.1-27.2,9.2-41.5C367.3,209.3,367.4,199.4,365.5,189.6z"/>
</svg>
