<?xml version="1.0" encoding="utf-8"?>
<!-- Generator: Adobe Illustrator 18.1.1, SVG Export Plug-In . SVG Version: 6.00 Build 0)  -->
<svg version="1.1" id="Layer_1" xmlns="http://www.w3.org/2000/svg" xmlns:xlink="http://www.w3.org/1999/xlink" x="0px" y="0px"
	 viewBox="0 0 512 512" enable-background="new 0 0 512 512" xml:space="preserve">
<path fill="#1D1D1B" d="M256,103.5l35.5,109.2l3.6,11.1h11.6h114.8l-92.9,67.5l-9.4,6.8l3.6,11.1l35.5,109.2l-92.9-67.5L256,344
	l-9.4,6.8l-92.9,67.5l35.5-109.2l3.6-11.1l-9.4-6.8l-92.9-67.5h114.8h11.6l3.6-11.1L256,103.5 M256,51.7l-50.7,156H41.2L174,304.2
	l-50.7,156L256,363.8l132.7,96.4l-50.7-156l132.7-96.4H306.7L256,51.7L256,51.7z"/>
</svg>
