<?xml version="1.0" encoding="utf-8"?>
<!-- Generator: Adobe Illustrator 18.1.1, SVG Export Plug-In . SVG Version: 6.00 Build 0)  -->
<svg version="1.1" id="Layer_1" xmlns="http://www.w3.org/2000/svg" xmlns:xlink="http://www.w3.org/1999/xlink" x="0px" y="0px"
	 viewBox="0 0 512 512" enable-background="new 0 0 512 512" xml:space="preserve">
<g>
	<path d="M80.8,366.1c5.2,0.6,11,0.9,17.3,0.9c33.4,0,63.1-10.2,89.2-30.7c-15.6-0.3-29.5-5.1-41.8-14.3
		c-12.3-9.3-20.8-21.1-25.4-35.5c4.9,0.7,9.4,1.1,13.6,1.1c6.4,0,12.7-0.8,18.9-2.4c-16.6-3.4-30.4-11.7-41.3-24.8
		C100.5,247.2,95,232,95,214.6v-0.9c10.1,5.6,20.9,8.7,32.5,9.1c-9.8-6.5-17.6-15-23.3-25.6c-5.8-10.5-8.7-21.9-8.7-34.2
		c0-13,3.3-25.1,9.8-36.2c17.9,22.1,39.8,39.8,65.5,53c25.7,13.3,53.3,20.6,82.6,22.1c-1.2-5.6-1.8-11.1-1.8-16.5
		c0-19.9,7-36.8,21-50.8c14-14,30.9-21,50.8-21c20.8,0,38.2,7.6,52.5,22.7c16.2-3.1,31.4-8.9,45.6-17.3c-5.5,17-16,30.2-31.6,39.6
		c13.8-1.5,27.6-5.2,41.4-11.1c-9.9,14.5-21.9,26.9-36,37.1c0.1,2.1,0.2,5.2,0.2,9.3c0,19.3-2.8,38.5-8.5,57.7
		c-5.6,19.2-14.2,37.6-25.7,55.3c-11.5,17.6-25.2,33.2-41,46.8c-15.9,13.6-35,24.4-57.4,32.5c-22.4,8.1-46.3,12.1-71.8,12.1
		C150.9,398.3,114.1,387.6,80.8,366.1z"/>
</g>
</svg>
