<?xml version="1.0" encoding="utf-8"?>
<!-- Generator: Adobe Illustrator 18.1.1, SVG Export Plug-In . SVG Version: 6.00 Build 0)  -->
<svg version="1.1" id="Layer_1" xmlns="http://www.w3.org/2000/svg" xmlns:xlink="http://www.w3.org/1999/xlink" x="0px" y="0px"
	 viewBox="0 0 512 512" enable-background="new 0 0 512 512" xml:space="preserve">
<g>
	<g>
		<path d="M308.6,264.4c-8.4,15.3-15.4,25-20.9,29.1c-8.6,6.3-17.2,4.9-25.6-4.1c-4.5-4.7-8.2-11-11-19c-2.9-7.9-4.7-15.1-5.6-21.5
			c-0.9-6.4-1.9-14.6-2.9-24.7c-1.1-10.1-1.9-17.1-2.5-21.1c-4.5-25.3-7.9-41.4-10-48.3c-2.4-7.3-5.8-14-10.4-20.3
			c-4.6-6.3-9.6-10.2-14.9-11.8c-11.2-3.1-23.7-0.7-37.4,7.4c-10.6,6.3-25.5,16.7-41.7,31.2c-16.2,14.5-21.6,24.5-37.6,30v2.1
			c0,1.6,7.1,4.1,9,7.7c1.9,3.5,4.7,5.5,7.1,5.9c4.1,0.6,9.8-0.2,16.4-2.5c6.6-2.3,12.5-3.3,17.3-3.1c4.8,0.2,9,3.1,12.3,8.8
			c2.2,3.5,4,7.3,5.5,11.3c1.5,4,3,8.7,4.4,14.1s2.7,9.4,3.7,11.9c3.3,9,8.5,27.4,15.6,55.1c7.1,28.7,12.7,48,16.8,58
			c8.2,19.4,18.4,31.7,30.3,36.8c8.4,2.4,16.8,2.5,25,0.4c8.2-2.1,15.7-5.2,22.4-9.3c25.7-15.1,50.2-38.4,73.6-69.8
			c20.4-27.3,37.3-56,50.8-86.1c13.4-30.1,21.5-52.4,24.3-66.7c3.1-16.7,1.1-29.6-6.2-38.9c-10.2-12.8-28.6-17.2-55.1-13.2
			c-3.3,0.6-7.4,1.8-12.1,3.7s-10.4,4.9-16.9,9c-6.6,4.1-12.9,8.9-19,14.3c-6.1,5.4-11.9,12.3-17.5,20.6c-5.6,8.3-10,17.3-13.1,26.9
			c15.7-1.4,26.8,0.2,33.4,4.7c6.6,4.5,9.2,14.2,7.8,29.2C322.9,232.5,317.8,246.6,308.6,264.4z"/>
	</g>
</g>
</svg>
