<?xml version="1.0" encoding="utf-8"?>
<!-- Generator: Adobe Illustrator 18.1.1, SVG Export Plug-In . SVG Version: 6.00 Build 0)  -->
<svg version="1.1" id="Layer_1" xmlns="http://www.w3.org/2000/svg" xmlns:xlink="http://www.w3.org/1999/xlink" x="0px" y="0px"
	 viewBox="0 0 512 512" enable-background="new 0 0 512 512" xml:space="preserve">
<path fill="#646469" d="M107.6,275l16.4-26.2h9.1L138,275h-8.5l-0.7-5.1h-11L115,275H107.6z M128.2,264.8l-1.1-10.9H127l-6.1,10.9
	H128.2z"/>
<path fill="#646469" d="M141,275l4-18.2h7.1l-4,18.2H141z M145.7,253.6l1.1-4.9h7.2l-1.1,4.9H145.7z"/>
<path fill="#646469" d="M163.6,260.2L163.6,260.2c1.6-3,4.1-4,7.2-4l-1.3,5.8c-0.5,0-1,0-1.5,0c-3.7,0-5.5,2.2-6.1,5.7l-1.6,7.3
	h-7.1l3-13.6c0.4-1.6,0.6-2.7,0.8-4.7h7.2L163.6,260.2z"/>
<path fill="#646469" d="M203.5,257c0.3-2.4-1.2-3.7-4.3-3.7c-4.3,0-6.2,4.9-7,8.8c-0.8,3.8-1,8.3,3.3,8.3c3.1,0,5.2-1.3,5.9-3.9h7.9
	c-1.3,6.6-8.4,8.9-14.9,8.9c-8.4,0-11.9-4.9-9.9-13.7c1.9-8.8,7.5-13.6,15.9-13.6c6.5,0,12.6,2.2,11,8.8H203.5z"/>
<path fill="#646469" d="M211.4,275l5.7-26.2h7.1l-2.2,10c2-1.8,4-2.5,6.4-2.5c4,0,6.5,2.5,5.6,6.6l-2.7,12.2h-7.1l2.3-10.7
	c0.3-1.8,0.3-3.7-1.9-3.7c-3.5,0-3.9,3.7-3.9,4l-2.3,10.5H211.4z"/>
<path fill="#646469" d="M248,275c0-0.6,0.1-1.2,0.4-2.5h-0.1c-1.1,1.3-3.1,3-6.6,3c-4.4,0-6.3-2.3-5.4-6.1c1-4.4,5.6-6.2,11.8-6.2
	h2.2c0.3-1.6,1.2-3.9-1.6-3.8c-1.7,0.1-2.7,1.7-2.9,2.8h-6.7c0.5-2.6,2.2-4.1,4.3-4.9c2.1-0.9,4.6-1.1,6.7-1.1
	c3.8,0,8.1,1.6,7.1,5.7l-2,9.4c-0.2,0.8-0.2,1.6-0.4,3.7H248z M245.2,271.5c3.1,0,3.9-2.8,4.5-5.2c-1.5,0-2.9-0.1-4,0.4
	c-1.2,0.5-2.1,1.2-2.4,2.4C243,270.5,243.8,271.5,245.2,271.5"/>
<path fill="#646469" d="M269.6,260.2L269.6,260.2c1.6-3,4.1-4,7.2-4l-1.3,5.8c-0.5,0-1,0-1.5,0c-3.7,0-5.5,2.2-6.1,5.7l-1.6,7.3
	h-7.1l3-13.6c0.4-1.6,0.6-2.7,0.8-4.7h7.2L269.6,260.2z"/>
<path fill="#646469" d="M282.4,256.8l0.6-2.8l7.7-2.6l-1.2,5.4h4.1l-1,4.4h-4.1l-1.6,7.2c-0.1,0.5-0.9,2.8,0.7,2.8
	c0.9,0,1.9,0,2.8-0.1l-0.9,4.1c-1.7,0.3-2.8,0.4-3.9,0.4c-4.8,0-7.6-0.7-6-6.3l1.8-8.2H278l1-4.4H282.4z"/>
<path fill="#646469" d="M300.5,267.3c-0.6,2.4-0.4,4.4,2.3,4.4c2,0,3.4-0.9,4.1-2.6h6.6c-0.7,2.4-2.6,4.1-4.7,5.1
	c-1.9,1-4.1,1.4-6.3,1.4c-7.5,0-9.8-3.1-8.3-10.3c1.3-5.8,6.4-9.1,12.1-9.1c7.6,0,9.1,4.3,7.6,11H300.5z M308.1,263.6
	c0.2-1,0.1-2-0.3-2.7c-0.4-0.8-1.1-1.2-2.2-1.2c-2.5,0.1-3.5,1.8-4.1,3.9H308.1z"/>
<path fill="#646469" d="M326.6,260.2L326.6,260.2c1.6-3,4.1-4,7.2-4l-1.3,5.8c-0.5,0-1,0-1.5,0c-3.7,0-5.5,2.2-6.1,5.7l-1.6,7.3
	h-7.1l3-13.6c0.4-1.6,0.6-2.7,0.8-4.7h7.2L326.6,260.2z"/>
<path fill="#646469" d="M363.8,256.5c0.3-1,0.1-1.8-0.5-2.3c-0.5-0.5-1.4-0.8-2.7-0.8c-1.7,0-3.5,1.1-3.7,2.4
	c-0.4,1.9,1.8,2.5,3.7,3.1c4.3,1.1,10.8,1.6,9.2,8.6c-1.2,5.5-7.4,8.1-13.6,8.1c-6.3,0-11.4-1.8-10-8.9h7.5c-0.6,2.5,1,3.8,3.7,3.8
	c1.7,0,4.1-0.9,4.5-2.6c0.8-3.6-4.9-2.8-10.2-5.3c-2.5-1.2-3.3-3.6-2.7-6.4c1.7-6.2,7.6-7.9,13.3-7.9c5.6,0,10.9,1.9,9,8.3H363.8z"
	/>
<path fill="#646469" d="M379.5,267.3c-0.6,2.4-0.4,4.4,2.3,4.4c2,0,3.4-0.9,4-2.6h6.6c-0.7,2.4-2.6,4.1-4.7,5.1
	c-1.9,1-4,1.4-6.3,1.4c-7.5,0-9.8-3.1-8.3-10.3c1.3-5.8,6.4-9.1,12.1-9.1c7.6,0,9.1,4.3,7.6,11H379.5z M387,263.6
	c0.2-1,0.1-2-0.3-2.7c-0.4-0.8-1.1-1.2-2.2-1.2c-2.5,0.1-3.5,1.8-4.1,3.9H387z"/>
<path fill="#646469" d="M405.5,260.2L405.5,260.2c1.6-3,4.1-4,7.2-4l-1.3,5.8c-0.5,0-1,0-1.5,0c-3.7,0-5.4,2.2-6.1,5.7l-1.6,7.3
	h-7.1l3-13.6c0.4-1.6,0.6-2.7,0.8-4.7h7.2L405.5,260.2z"/>
<polygon fill="#646469" points="417.8,275 414.7,256.8 422.2,256.8 423.1,269.6 423.2,269.6 429.9,256.8 436.6,256.8 425.5,275 "/>
<path fill="#646469" d="M435.7,275l4-18.2h7.1l-4,18.2H435.7z M440.4,253.6l1.1-4.9h7.2l-1.1,4.9H440.4z"/>
<path fill="#646469" d="M462.4,263.2c0.2-0.9,0.2-1.6-0.1-2.1c-0.3-0.5-0.9-0.8-2-0.8c-2.6,0-3.6,3.8-4,5.7
	c-0.4,1.9-1.1,5.7,1.5,5.7c2.5-0.2,3.2-2,3.6-3.7h7.1c-0.6,2.6-2.1,4.5-4.2,5.7c-2.1,1.2-4.6,1.9-7.1,1.9c-7.1,0-9.6-3.3-8.2-9.7
	c1.5-6.6,6.8-9.7,12.4-9.7c4.8-0.1,8.9,1.7,8.1,6.9H462.4z"/>
<path fill="#646469" d="M478,267.3c-0.6,2.4-0.4,4.4,2.3,4.4c2,0,3.4-0.9,4-2.6h6.6c-0.7,2.4-2.6,4.1-4.7,5.1c-1.9,1-4,1.4-6.3,1.4
	c-7.5,0-9.8-3.1-8.3-10.3c1.3-5.8,6.4-9.1,12.1-9.1c7.6,0,9.1,4.3,7.6,11H478z M485.5,263.6c0.2-1,0.1-2-0.3-2.7
	c-0.4-0.8-1.1-1.2-2.2-1.2c-2.5,0.1-3.5,1.8-4.1,3.9H485.5z"/>
<path fill="#646469" d="M20.5,291.7c-2.8,0-5-2.3-5-5v-62.3c0-2.8,2.3-5.1,5-5.1h67.4c2.8,0,5,2.3,5,5.1v62.3c0,2.8-2.3,5-5,5H20.5z
	 M17.2,224.3v62.3c0,1.8,1.5,3.3,3.3,3.3h67.4c1.8,0,3.3-1.5,3.3-3.3v-62.3c0-1.8-1.5-3.3-3.3-3.3H20.5
	C18.6,221,17.2,222.5,17.2,224.3"/>
<g>
	<defs>
		<path id="SVGID_1_" d="M47.5,232.1c3.6,1.3,7.4,2.2,11.5,2.2c4,0,7.9-0.8,11.5-2c-3.5-1.6-7.5-2.5-11.6-2.5
			C54.8,229.7,51,230.5,47.5,232.1"/>
	</defs>
	<use xlink:href="#SVGID_1_"  overflow="visible" fill="#646469"/>
	<clipPath id="SVGID_2_">
		<use xlink:href="#SVGID_1_"  overflow="visible"/>
	</clipPath>
	<rect x="47.5" y="229.7" clip-path="url(#SVGID_2_)" fill="#646469" width="22.9" height="4.6"/>
</g>
<g>
	<path fill="#646469" d="M70.5,232.2c-3.5-1.6-7.5-2.5-11.6-2.5c-4,0-7.8,0.8-11.3,2.4c3.6,1.3,7.4,2.2,11.5,2.2
		C63,234.3,66.9,233.5,70.5,232.2z"/>
</g>
<g>
	<defs>
		<path id="SVGID_3_" d="M31.4,263.1c0.3,1.3,0.6,2.5,1,3.8c9-0.6,22.6-1,26.5-1c3,0,16.6,0.3,26.2,0.9c0.4-1.2,0.7-2.4,1-3.7
			c-7.1-0.2-17.6-0.3-27.2-0.3C53.9,262.8,39.9,262.8,31.4,263.1"/>
	</defs>
	<use xlink:href="#SVGID_3_"  overflow="visible" fill="#646469"/>
	<clipPath id="SVGID_4_">
		<use xlink:href="#SVGID_3_"  overflow="visible"/>
	</clipPath>
	<rect x="31.4" y="262.8" clip-path="url(#SVGID_4_)" fill="#646469" width="54.8" height="4.1"/>
</g>
<g>
	<path fill="#646469" d="M31.4,263.1c0.3,1.3,0.6,2.5,1,3.8c9-0.6,22.6-1,26.5-1c3,0,16.6,0.3,26.2,0.9c0.4-1.2,0.7-2.4,1-3.7
		c-7.1-0.2-17.6-0.3-27.2-0.3C53.9,262.8,39.9,262.8,31.4,263.1z"/>
</g>
<g>
	<defs>
		<path id="SVGID_5_" d="M30.9,258.6c0,1,0.1,2,0.3,3c8.5-0.3,22.6-0.3,27.8-0.3c5.1,0,18.6,0,27.4,0.3c0.1-1,0.2-2,0.3-3H30.9z"/>
	</defs>
	<use xlink:href="#SVGID_5_"  overflow="visible" fill="#646469"/>
	<clipPath id="SVGID_6_">
		<use xlink:href="#SVGID_5_"  overflow="visible"/>
	</clipPath>
	<rect x="30.9" y="258.6" clip-path="url(#SVGID_6_)" fill="#646469" width="55.8" height="3"/>
</g>
<g>
	<path fill="#646469" d="M30.9,258.6c0,1,0.1,2,0.3,3c8.5-0.3,22.6-0.3,27.8-0.3c5.1,0,18.6,0,27.4,0.3c0.1-1,0.2-2,0.3-3H30.9z"/>
</g>
<g>
	<defs>
		<path id="SVGID_7_" d="M36.1,273.9c1.1,1.6,2.4,3,3.8,4.3c5.5-1.7,11.9-3,19.1-3c6.2,0,12.6,0.9,19,2.7c1.3-1.3,2.5-2.6,3.6-4.1
			c-7-1-15.5-1.7-22.6-1.7C51.3,272,42.9,272.8,36.1,273.9"/>
	</defs>
	<use xlink:href="#SVGID_7_"  overflow="visible" fill="#646469"/>
	<clipPath id="SVGID_8_">
		<use xlink:href="#SVGID_7_"  overflow="visible"/>
	</clipPath>
	<rect x="36.1" y="272" clip-path="url(#SVGID_8_)" fill="#646469" width="45.5" height="6.1"/>
</g>
<g>
	<path fill="#646469" d="M36.1,273.9c1.1,1.6,2.4,3,3.8,4.3c5.5-1.7,11.9-3,19.1-3c6.2,0,12.6,0.9,19,2.7c1.3-1.3,2.5-2.6,3.6-4.1
		c-7-1-15.5-1.7-22.6-1.7C51.3,272,42.9,272.7,36.1,273.9z"/>
</g>
<g>
	<defs>
		<path id="SVGID_9_" d="M33.1,268.4c0.6,1.4,1.3,2.8,2.1,4c7.3-1.2,16.4-1.9,23.9-1.9c7.4,0,16.3,0.6,23.6,1.7c0.8-1.3,1.5-2.6,2-4
			c-9.4-0.5-22.4-0.9-25.6-0.9C55.2,267.4,42,267.8,33.1,268.4"/>
	</defs>
	<use xlink:href="#SVGID_9_"  overflow="visible" fill="#646469"/>
	<clipPath id="SVGID_10_">
		<use xlink:href="#SVGID_9_"  overflow="visible"/>
	</clipPath>
	<rect x="33.1" y="267.4" clip-path="url(#SVGID_10_)" fill="#646469" width="51.6" height="5"/>
</g>
<g>
	<path fill="#646469" d="M33.1,268.4c0.6,1.4,1.3,2.8,2.1,4c7.3-1.2,16.4-1.9,23.9-1.9c7.4,0,16.3,0.6,23.6,1.7c0.8-1.3,1.5-2.6,2-4
		c-9.4-0.5-22.4-0.9-25.6-0.9C55.2,267.4,42,267.8,33.1,268.4z"/>
</g>
<g>
	<defs>
		<path id="SVGID_11_" d="M32.9,247.1c8.9,0.6,22.3,1,26.1,1c3.2,0,16.3-0.3,25.7-0.9c-0.6-1.4-1.2-2.7-2-4
			c-7.3,1.1-16.3,1.7-23.8,1.7c-7.6,0-16.8-0.7-24-1.9C34.2,244.4,33.5,245.7,32.9,247.1"/>
	</defs>
	<use xlink:href="#SVGID_11_"  overflow="visible" fill="#646469"/>
	<clipPath id="SVGID_12_">
		<use xlink:href="#SVGID_11_"  overflow="visible"/>
	</clipPath>
	<rect x="32.9" y="243.1" clip-path="url(#SVGID_12_)" fill="#646469" width="51.8" height="5.1"/>
</g>
<g>
	<path fill="#646469" d="M84.8,247.3c-0.6-1.4-1.2-2.7-2-4c-7.3,1.1-16.3,1.8-23.8,1.8c-7.6,0-16.8-0.7-24-1.9
		c-0.8,1.3-1.5,2.6-2,4.1c8.9,0.6,22.3,1,26.1,1C62.2,248.2,75.3,247.8,84.8,247.3z"/>
</g>
<g>
	<defs>
		<path id="SVGID_13_" d="M31.4,252.4c8.5,0.3,22.5,0.3,27.6,0.3c9.7,0,20.2-0.1,27.3-0.3c-0.2-1.3-0.6-2.5-1-3.7
			c-9.6,0.6-23.3,0.9-26.3,0.9c-3.9,0-17.7-0.4-26.6-1C32,249.9,31.6,251.1,31.4,252.4"/>
	</defs>
	<use xlink:href="#SVGID_13_"  overflow="visible" fill="#646469"/>
	<clipPath id="SVGID_14_">
		<use xlink:href="#SVGID_13_"  overflow="visible"/>
	</clipPath>
	<rect x="31.4" y="248.7" clip-path="url(#SVGID_14_)" fill="#646469" width="54.9" height="4.1"/>
</g>
<g>
	<path fill="#646469" d="M86.3,252.5c-0.2-1.3-0.6-2.5-1-3.7c-9.6,0.6-23.3,0.9-26.3,0.9c-3.9,0-17.7-0.4-26.6-1
		c-0.4,1.2-0.7,2.5-1,3.8c8.5,0.3,22.5,0.3,27.6,0.3C68.7,252.8,79.2,252.7,86.3,252.5z"/>
</g>
<g>
	<defs>
		<path id="SVGID_15_" d="M30.9,257h55.8c0-1-0.1-2-0.2-3c-8.9,0.3-22.3,0.3-27.5,0.3c-5.2,0-19.4,0-27.9-0.3
			C31,254.9,30.9,255.9,30.9,257"/>
	</defs>
	<use xlink:href="#SVGID_15_"  overflow="visible" fill="#646469"/>
	<clipPath id="SVGID_16_">
		<use xlink:href="#SVGID_15_"  overflow="visible"/>
	</clipPath>
	<rect x="30.9" y="253.9" clip-path="url(#SVGID_16_)" fill="#646469" width="55.8" height="3"/>
</g>
<g>
	<path fill="#646469" d="M86.5,254c-8.9,0.3-22.3,0.3-27.5,0.3c-5.2,0-19.4,0-27.9-0.3c-0.1,1-0.2,2-0.2,3h55.8
		C86.7,256,86.6,255,86.5,254z"/>
</g>
<g>
	<defs>
		<path id="SVGID_17_" d="M35.9,241.6c6.8,1.1,15.3,1.9,23.1,1.9c7.2,0,15.7-0.7,22.8-1.8c-1-1.5-2.2-2.9-3.5-4.2
			c-6.5,1.9-12.9,2.8-19.2,2.8c-7.3,0-13.8-1.3-19.3-3.1C38.3,238.6,37,240.1,35.9,241.6"/>
	</defs>
	<use xlink:href="#SVGID_17_"  overflow="visible" fill="#646469"/>
	<clipPath id="SVGID_18_">
		<use xlink:href="#SVGID_17_"  overflow="visible"/>
	</clipPath>
	<rect x="35.9" y="237.3" clip-path="url(#SVGID_18_)" fill="#646469" width="45.9" height="6.2"/>
</g>
<g>
	<path fill="#646469" d="M81.8,241.7c-1-1.5-2.2-2.9-3.5-4.2c-6.5,1.9-12.9,2.8-19.2,2.8c-7.3,0-13.8-1.4-19.3-3.1
		c-1.4,1.3-2.7,2.8-3.8,4.4c6.8,1.1,15.3,1.9,23.1,1.9C66.2,243.5,74.7,242.8,81.8,241.7z"/>
</g>
<g>
	<defs>
		<path id="SVGID_19_" d="M41.3,279.4c1.5,1.2,3,2.2,4.7,3.1c4-1.6,8.3-2.7,13-2.7c4.6,0,8.9,1,13,2.5c1.6-0.9,3.2-1.9,4.6-3.1
			c-5.2-1.4-11.2-2.5-17.6-2.5C52.4,276.7,46.5,277.8,41.3,279.4"/>
	</defs>
	<use xlink:href="#SVGID_19_"  overflow="visible" fill="#646469"/>
	<clipPath id="SVGID_20_">
		<use xlink:href="#SVGID_19_"  overflow="visible"/>
	</clipPath>
	<rect x="41.3" y="276.7" clip-path="url(#SVGID_20_)" fill="#646469" width="35.3" height="5.7"/>
</g>
<g>
	<path fill="#646469" d="M41.3,279.4c1.5,1.2,3,2.2,4.7,3.1c4-1.6,8.3-2.7,13-2.7c4.6,0,8.9,1,13,2.5c1.6-0.9,3.2-1.9,4.6-3.1
		c-5.2-1.4-11.2-2.5-17.6-2.5C52.4,276.7,46.5,277.8,41.3,279.4z"/>
</g>
<g>
	<defs>
		<path id="SVGID_21_" d="M41,236.1c5.2,1.6,11.3,2.8,18,2.8c6.5,0,12.6-1.1,17.8-2.5c-1.4-1.2-2.9-2.2-4.5-3.1
			c-4.1,1.6-8.6,2.6-13.3,2.6c-4.8,0-9.3-1.1-13.3-2.8C44,233.9,42.5,234.9,41,236.1"/>
	</defs>
	<use xlink:href="#SVGID_21_"  overflow="visible" fill="#646469"/>
	<clipPath id="SVGID_22_">
		<use xlink:href="#SVGID_21_"  overflow="visible"/>
	</clipPath>
	<rect x="41" y="233" clip-path="url(#SVGID_22_)" fill="#646469" width="35.8" height="5.9"/>
</g>
<g>
	<path fill="#646469" d="M76.8,236.3c-1.4-1.2-2.9-2.2-4.5-3.1c-4.1,1.5-8.6,2.6-13.3,2.6c-4.8,0-9.3-1.1-13.3-2.8
		c-1.7,0.9-3.2,1.9-4.6,3.1c5.2,1.6,11.3,2.8,18,2.8C65.5,238.8,71.6,237.8,76.8,236.3z"/>
</g>
<g>
	<defs>
		<path id="SVGID_23_" d="M47.9,283.3c3.4,1.4,7,2.2,10.9,2.2c4,0,7.8-0.8,11.3-2.4c-3.5-1.1-7.2-1.9-11.1-1.9
			C55.1,281.3,51.4,282.1,47.9,283.3"/>
	</defs>
	<use xlink:href="#SVGID_23_"  overflow="visible" fill="#646469"/>
	<clipPath id="SVGID_24_">
		<use xlink:href="#SVGID_23_"  overflow="visible"/>
	</clipPath>
	<rect x="47.9" y="281.3" clip-path="url(#SVGID_24_)" fill="#646469" width="22.2" height="4.3"/>
</g>
<g>
	<path fill="#646469" d="M47.9,283.3c3.4,1.4,7,2.2,10.9,2.2c4,0,7.8-0.8,11.3-2.4c-3.5-1.2-7.2-1.9-11.1-1.9
		C55.1,281.3,51.4,282.1,47.9,283.3z"/>
</g>
<path fill="#646469" d="M43.7,243.5"/>
<path fill="#646469" d="M43.7,272.1"/>
<path fill="#646469" stroke="#FFFFFF" stroke-miterlimit="10" d="M50.1,282.8c-0.3,0-0.9-1.3-0.9-1.3l-0.5-1.1l-11.2,3.2l0-1.7
	c0,0,0.1-0.7,0.3-1c0.2-0.2,0.7-0.7,0.7-0.7l2.4-1.8l4.5-3.4l1.5-1.1c0,0-0.2-2.5-0.3-3.4c0-0.9-0.2-5-0.2-5l0-10.9
	c-5.2,1.5-5.2,1.6-6.6,2.1c-1.3,0.4-6.3,2.2-7.7,2.6c-1.4,0.5-13.7,4.8-13.7,4.8l0.1-1.2c0,0,0-0.8,0.2-1.3c0.1-0.3,0.2-0.6,0.5-1
	c0.3-0.3,1-0.9,1-0.9l1.6-1.1l3.1-1.9c0,0,4.7-2.8,7.8-4.8l0-0.1V250h-0.4v-0.9l-0.2-0.1v-3.1c0,0,0-0.3,0.1-0.4
	c0.1-0.1,0.3-0.2,0.3-0.2h1.5c0,0,0.2,0,0.4,0.2c0.2,0.1,0.2,0.5,0.2,0.5l0,2.9l-0.1,0.2l0,0.3v0.7H34v1.1l0,0.1
	c0.3-0.2,0.5-0.3,0.7-0.4c1-0.7,3.2-2.2,5.4-3.7l0-0.1v-0.6h-0.4v-0.9l-0.2-0.1V242c0,0,0-0.3,0.1-0.4c0.1-0.1,0.3-0.2,0.3-0.2h1.5
	c0,0,0.2,0,0.4,0.2c0.2,0.2,0.2,0.5,0.2,0.5l0,2.9l-0.1,0.2l0,0.3l0,0.2c2.5-1.7,4.6-3.2,4.6-3.2l0-9.5c0,0,0.1-1.5,0.2-2.1
	c0.1-0.6,0.3-1.6,0.7-2.6c0.4-1.1,0.8-1.8,1.2-2.3c0.5-0.6,1.1-0.7,1.6-0.7c0.5,0,1.1,0.1,1.6,0.7c0.5,0.6,0.9,1.3,1.2,2.3
	c0.4,1.1,0.6,2.1,0.7,2.6c0.1,0.6,0.2,2.1,0.2,2.1l0,9.5c0,0,2.1,1.5,4.6,3.2l0-0.2l0-0.3l-0.1-0.2l0-2.9c0,0,0-0.4,0.2-0.5
	c0.2-0.2,0.4-0.2,0.4-0.2h1.5c0,0,0.2,0,0.3,0.2c0.1,0.1,0.1,0.4,0.1,0.4v3.1l-0.2,0.1v0.9h-0.4v0.6l0,0.1c2.2,1.5,4.4,3.1,5.4,3.7
	c0.2,0.1,0.4,0.3,0.7,0.4l0-0.1V250h-0.5v-0.7l0-0.3l-0.1-0.2l0-2.9c0,0,0-0.4,0.2-0.5c0.2-0.2,0.4-0.2,0.4-0.2h1.5
	c0,0,0.2,0,0.3,0.2c0.1,0.1,0.1,0.4,0.1,0.4v3.1l-0.2,0.1v0.9h-0.4v1.8l0,0.1c3.2,2,7.8,4.8,7.8,4.8l3.1,1.9l1.6,1.1
	c0,0,0.7,0.6,1,0.9c0.3,0.4,0.4,0.6,0.5,1c0.1,0.5,0.2,1.3,0.2,1.3l0.1,1.2c0,0-12.3-4.4-13.7-4.8c-1.4-0.5-6.4-2.2-7.7-2.6
	c-1.4-0.5-1.4-0.6-6.6-2.1l0,10.9c0,0-0.1,4.1-0.2,5c0,0.9-0.3,3.4-0.3,3.4l1.5,1.1l4.5,3.4l2.4,1.8c0,0,0.5,0.5,0.7,0.7
	c0.2,0.3,0.3,1,0.3,1l0,1.7l-11.2-3.2l-0.5,1.1C50.9,281.4,50.4,282.7,50.1,282.8"/>
<path fill="#646469" stroke="#FFFFFF" stroke-miterlimit="10" d="M58.8,260.7c-0.1-0.2-11.6-8.5-11.6-8.5l-1.7-1c0-0.8,0-0.6,0-0.7
	c0-0.1,0-5.2-0.1-6.2c-0.2-1.4-1-4.6-1.8-4.6c-0.8,0-1.6,3.2-1.8,4.6c-0.2,1-0.2,6.1-0.2,6.2c0,0.1,0-0.1,0,0.7l-1.7,0.9
	c0,0-11.6,8.2-11.7,8.4c-0.2,0.3-0.1,1.2,0.1,1.4c0.2,0.1,11.5-3.2,11.5-3.2c0.7,0,1.3-0.1,1.8,0c0,0.3,0.1,1,0.3,1.8
	c-0.1,0-1.7-0.1-1.9,0.1c-0.3,0.2-0.2,0.9-0.2,1.9c0,1,0.3,2.6,0.5,3.1c0.1,0.1,1.4,0,1.4,0l0.2-0.8h0.6c0.3,2.1,0.6,4,0.7,4.4
	c-0.9,0.5-5.7,3.8-5.9,4.2c-0.2,0.3,0,1.4,0.1,1.5c0.1,0.1,4.7-1.2,6.1-1.3c0.1,0.2,0.1,0.4,0.2,0.6l0,0.1c0,0,0,0.1,0,0
	c0,0.1,0,0,0,0l0-0.1c0-0.2,0.1-0.4,0.2-0.6c1.3,0.1,5.9,1.4,6,1.3c0.1-0.1,0.3-1.2,0.1-1.5c-0.2-0.3-5-3.8-5.9-4.2
	c0.1-0.4,0.4-2.3,0.7-4.4l0.6,0l0.2,0.8c0,0,1.3,0.1,1.4,0c0.2-0.5,0.5-2.1,0.5-3.1c0-1,0.1-1.6-0.2-1.9c-0.2-0.1-1.8-0.1-1.9-0.1
	c0.1-0.8,0.2-1.5,0.3-1.8c0.5,0,1.1,0.1,1.8,0.1c0,0,11.3,3.4,11.5,3.3C59,261.9,59,261,58.8,260.7"/>
<path fill="#646469" stroke="#FFFFFF" stroke-miterlimit="10" d="M58.5,274.9l-0.3-2h-4l-1.1,2h-2.9v-0.1l0.1,0.1l-0.1-0.1v0.1h-0.2
	l6.3-10.4H60l1.9,10.4H58.5z M55.5,270.7h2.4l-0.4-3.8L55.5,270.7z"/>
<path fill="#646469" stroke="#FFFFFF" stroke-miterlimit="10" d="M66.6,275.1c-2.6,0-4-1.3-4-3.7c0-0.5,0.1-1.1,0.2-1.7
	c0.7-3.4,2.9-5.3,6.1-5.3c2.2,0,4.3,0.7,4.3,2.7c0,0.2,0,0.5-0.1,0.8l0,0.1h-3v-0.1l0.1,0l-0.1,0v0.1h-0.1l0-0.1c0-0.1,0-0.2,0-0.2
	c0-0.7-0.5-1.1-1.5-1.1c-1.5,0-2.2,1.8-2.5,3.3c-0.1,0.5-0.2,1-0.2,1.4c0,1,0.3,1.7,1.3,1.7c1.2,0,1.9-0.5,2.1-1.4l0-0.1h3.2l0,0.1
	C71.8,274.2,69.1,275.1,66.6,275.1L66.6,275.1z"/>
<path fill="#646469" stroke="#FFFFFF" stroke-miterlimit="10" d="M77.3,275.1c-2.1,0-3.9-0.6-3.9-2.7c0-0.3,0-0.6,0.1-0.9l0-0.1h3
	l0,0.1c0,0.1,0,0.2,0,0.3c0,0.7,0.5,1,1.3,1c0.6,0,1.5-0.3,1.6-0.9c0-0.1,0-0.2,0-0.2c0.1-0.9-1.9-0.8-3.8-1.7
	c-0.8-0.4-1.1-1.1-1.1-1.9c0-0.2,0-0.5,0.1-0.7c0.6-2.5,3-3.1,5.1-3.1c1.8,0,3.6,0.6,3.6,2.4c0,0.3,0,0.6-0.1,0.9l0,0.1h-2.9v-0.1
	l0.1,0l-0.1,0v0.1H80l0-0.1c0-0.1,0-0.2,0-0.3c0-0.2-0.1-0.4-0.2-0.5c-0.2-0.2-0.5-0.3-0.9-0.3c-0.6,0-1.2,0.4-1.3,0.8
	c0,0.1,0,0.1,0,0.2c0,0.5,0.7,0.7,1.3,0.9c1.4,0.4,3.6,0.6,3.6,2.7c0,0.2,0,0.5-0.1,0.8C82,274.1,79.7,275.1,77.3,275.1L77.3,275.1z
	"/>
</svg>
