<?xml version="1.0" encoding="utf-8"?>
<!-- Generator: Adobe Illustrator 18.0.0, SVG Export Plug-In . SVG Version: 6.00 Build 0)  -->
<!DOCTYPE svg PUBLIC "-//W3C//DTD SVG 1.1//EN" "http://www.w3.org/Graphics/SVG/1.1/DTD/svg11.dtd">
<svg version="1.1" id="Layer_1" xmlns="http://www.w3.org/2000/svg" xmlns:xlink="http://www.w3.org/1999/xlink" x="0px" y="0px"
	 viewBox="0 0 512 512" enable-background="new 0 0 512 512" xml:space="preserve">
<g>
	<path fill-rule="evenodd" clip-rule="evenodd" fill="#646469" d="M131.1,243.4c4.6-5.1,8.4-10.7,11.6-16.7
		c2.6-4.8,4.6-9.9,5.7-15.3c2.3-10.7-4-17.7-13.1-19.6c-6.7-1.4-13.3-0.5-19.8,1.1c-12.1,3-23.2,8.2-33.8,14.6
		c-2.1,1.3-4.1,2.6-6.2,4c-1.7,1.1-1.7,1.2-3-1.1c4.6-3.3,9.1-6.7,13.8-9.8c11-7.2,22.6-12.9,35.3-16.4c7-1.9,14.1-3.1,21.4-2.9
		c6.7,0.2,13.1,1.7,18.6,5.9c5.2,4,8,9.4,9.2,15.7c1.7,8.9-0.3,17.4-3.2,25.7c-4.7,13.6-12,25.8-20.3,37.5
		c-8.2,11.5-17.5,22.1-27.8,31.7c-10.3,9.6-21.3,18.1-33.8,24.5c-7.7,3.9-15.7,7-24.3,8c-8.5,1.1-16.9,0.4-24.4-4.4
		c-6.4-4-9.9-9.9-10.9-17.3c-1.2-9.2,0.9-17.7,4.8-26c5-10.7,12.5-19.7,21-27.7c9.4-8.7,19.8-16,31.2-21.7
		c7.5-3.7,15.3-6.8,23.6-8.2c5.1-0.9,10.2-1,15.2,0.5c7.7,2.4,11.3,9.4,9.1,17.1C131.2,243,131.2,243.2,131.1,243.4z M100,237.3
		c-12.1,5.2-22.3,13-30.7,23c-3.3,3.9-6.1,8.1-7.5,13.1c-2.1,7.9,2.4,13.9,10.6,13.9c5.2,0,10-1.8,14.5-4.1
		c12.1-6.2,22.3-14.8,31.3-25c3.2-3.7,5.5-7.9,6.5-12.7c1-4.5-0.6-8.5-4.2-10.1C118.4,234.5,112.1,231.7,100,237.3z"/>
	<path fill-rule="evenodd" clip-rule="evenodd" fill="#646469" d="M199.7,234c1.4-5.4,2.9-10.8,4.3-16.1c0.4-1.5,0.9-2,2.5-1.9
		c9.1,0.1,18.2,0,27.3,0c7.7,0,18,5.3,20.3,15.4c1.1,4.8,0.5,9.4-0.8,14.1c-5.3,19.5-10.5,39.1-15.7,58.7c-0.3,1-0.7,1.5-1.8,1.4
		c-11.2,0-22.3,0-33.5,0c-5.7,0-11.2-0.8-16.3-3.4c-6.4-3.3-10-8.6-11.1-15.6c-1.5-9.9,2.3-18.1,9.2-25c7.4-7.3,16.3-11.8,26.6-12.9
		c5.7-0.6,11.5-0.3,17.3-0.4c1.5,0,3.3,0.4,4.2-0.3c0.9-0.6,1-2.5,1.2-3.9c0.3-1.8,0.7-3.7,0.5-5.4c-0.2-2.4-2.1-4-4.5-4.2
		c-1.8-0.2-3.6-0.3-5.4-0.3c-7.8,0-15.7,0-23.5,0C200.4,234.1,200.1,234,199.7,234z M227.7,266.1c-5.2,0-10.1,0-15.1,0
		c-1.2,0-2.5,0-3.7,0.3c-5.9,1.4-10.3,4.7-12,10.7c-1.6,5.5,1.9,10.1,7.6,10.1c5.4,0,10.9,0,16.3,0c0.9,0,1.3-0.3,1.6-1.2
		c1-3.8,2-7.6,3-11.5C226.1,271.9,226.9,269.1,227.7,266.1z"/>
	<path fill-rule="evenodd" clip-rule="evenodd" fill="#646469" d="M318.6,216c-1.6,5.9-3.1,11.6-4.6,17.3c-0.2,0.9-0.9,0.8-1.6,0.8
		c-8.4,0-16.7,0-25.1,0c-3.5,0-6.2,1.6-7.6,4.9c-0.7,1.5-0.6,2.9,0.5,4.3c2,2.6,4.9,4.1,7.7,5.7c4.4,2.6,9.1,5,13.3,8
		c8.4,5.8,11.1,14,8.5,23.9c-1.5,5.6-3.7,10.8-7.7,15.2c-4.4,4.9-9.9,7.8-16.4,8.8c-3.1,0.5-6.3,0.8-9.4,0.8c-9.1,0.1-18.1,0-27.2,0
		c-0.5,0-1-0.1-1.7-0.1c0.6-2,1.1-3.9,1.6-5.7c1-3.6,1.9-7.2,2.8-10.9c0.3-1.2,0.8-1.6,2-1.6c9,0.1,18,0.1,27,0
		c3.1,0,6.3-0.5,8.2-3.3c2.3-3.5,2.6-6.4-0.6-9c-2.8-2.3-6-4.1-9.1-6.1c-3.9-2.5-8.1-4.7-11.7-7.6c-7.5-5.8-9.8-13.7-7-22.8
		c4-13.1,13.4-20,26.6-22.1c2.4-0.4,4.9-0.3,7.4-0.3c7.5,0,15,0,22.5,0C317.4,216,318,216,318.6,216z"/>
	<path fill-rule="evenodd" clip-rule="evenodd" fill="#646469" d="M403.5,305.4c0.5-2,1.1-3.9,1.6-5.8c1-3.7,2-7.3,2.9-11
		c0.3-1.1,0.7-1.3,1.7-1.3c8.9,0,17.7,0.1,26.6,0c1.9,0,3.9-0.3,5.7-1c5-1.9,6.2-8,2.3-11.5c-2.3-2-5.1-3.5-7.7-5.2
		c-4.4-2.8-9-5.3-13.2-8.4c-4-3-6.7-7-7.6-12.1c-0.8-4.7,0.1-9.2,1.9-13.5c4.2-10.7,12.4-16.4,23.3-18.8c2.5-0.6,5.2-0.7,7.8-0.7
		c7.9-0.1,15.8,0,23.7,0c0.8,0,1.5,0,2.4,0c-1.6,5.8-3.1,11.5-4.6,17.2c-0.2,0.9-0.9,0.9-1.6,0.9c-7.5,0-15.1,0-22.6,0
		c-1.8,0-3.7,0.2-5.5,0.6c-2.4,0.6-3.9,2.4-4.8,4.7c-0.6,1.7-0.2,3.4,1.2,4.5c2.2,1.8,4.5,3.5,7,5c4.3,2.6,8.8,4.9,12.9,7.7
		c4.8,3.2,8.3,7.4,9.5,13.2c1.1,5.2,0,10.2-1.8,15c-2.8,7.9-7.6,14.1-15.3,17.7c-4.1,1.9-8.4,2.9-12.8,2.9
		c-10.6,0.1-21.1,0.1-31.7,0.2C404.3,305.5,404,305.5,403.5,305.4z"/>
	<path fill-rule="evenodd" clip-rule="evenodd" fill="#646469" d="M416.7,216.3c-1.5,5.6-3,11.3-4.5,16.9c-0.1,0.4-0.9,0.8-1.4,0.8
		c-3.4,0.1-6.7,0-10.1,0.1c-17.1,0.2-32.4,13.1-35.4,29.9c-0.8,4.8-0.8,9.6,1.7,14.1c3.2,5.9,8.4,8.8,14.9,9.2
		c5,0.3,10.1,0.1,15.1,0.1c0.8,0,1.6,0,2.6,0c-0.5,2.1-1,4.1-1.5,6c-1,3.6-2,7.2-2.9,10.9c-0.3,1.1-0.7,1.4-1.8,1.4
		c-6.3-0.1-12.7,0.2-19-0.3c-14.2-1-25.9-9.2-28.9-24.7c-1.7-8.8-0.2-17.3,2.9-25.5c5.4-14.4,14.6-25.7,28.4-32.7
		c6.7-3.4,13.9-5.6,21.4-5.9C404.3,216,410.5,216.3,416.7,216.3z"/>
	<path fill-rule="evenodd" clip-rule="evenodd" fill="#646469" d="M352.5,216c-1.2,4.4-2.3,8.7-3.4,13c-6.5,25-13,50.1-19.5,75.1
		c-0.2,0.9-0.4,1.4-1.5,1.4c-5.9,0-11.9,0-17.8,0c-0.2,0-0.4-0.1-0.7-0.1c1.3-5.2,2.6-10.3,4-15.5c6.3-24.2,12.6-48.4,18.9-72.6
		c0.3-1.1,0.7-1.4,1.8-1.4c5.6,0.1,11.2,0,16.8,0C351.5,215.9,352,216,352.5,216z"/>
	<path fill-rule="evenodd" clip-rule="evenodd" fill="#646469" d="M486,296.6c0,5-4.1,9.1-9,9c-5.1-0.1-8.9-4-8.9-9.2
		c0-4.8,4.1-8.8,8.9-8.7C482.1,287.6,486,291.6,486,296.6z M477.1,304.3c4.3,0,7.7-3.4,7.7-7.7c0-4.3-3.5-7.8-7.7-7.8
		c-4.2,0-7.7,3.5-7.7,7.8C469.4,300.9,472.7,304.3,477.1,304.3z"/>
	<path fill-rule="evenodd" clip-rule="evenodd" fill="#646469" d="M479.7,297.1c1.5,0.7,1.1,2.5,1.2,4.2c-0.4,0-0.9,0-1.4,0.1
		c-0.1-0.8-0.1-0.9-0.3-2.1c-0.3-0.6-0.3-1.7-1.5-1.6c-2.6-0.3-2.7-0.2-2.7,1.9c0,0.5,0,1.1,0,1.7c-0.5,0-1,0.1-1.5,0.1
		c0-3.2,0-6.4,0-9.9c2.1-0.1,3.9-0.2,5.8,0.3c0.7,0.1,1.3,0.3,1.3,2.3C480.7,296.9,480.2,296,479.7,297.1z M475.2,296.2
		c2.8,0.4,4.1,0.4,4.2-1.4c0.1-2.2-0.7-2-2.8-2C475,292.7,474.9,292.8,475.2,296.2z"/>
</g>
</svg>
