<?xml version="1.0" encoding="utf-8"?>
<!-- Generator: Adobe Illustrator 18.1.1, SVG Export Plug-In . SVG Version: 6.00 Build 0)  -->
<svg version="1.1" id="Layer_1" xmlns="http://www.w3.org/2000/svg" xmlns:xlink="http://www.w3.org/1999/xlink" x="0px" y="0px"
	 viewBox="0 0 512 512" enable-background="new 0 0 512 512" xml:space="preserve">
<g>
	<path fill="#646469" d="M226.2,255.2l-4.5,16.7c-1,0.1-2.2,0.2-4,0.2c-8.9,0-7.9-2.7-4.2-17.2c3.9-15.1,6.2-17.9,11.7-17.9
		c5.3,0,5.4,3.6,4,8.2h13.6c2.2-8.5,0.7-16.1-15.1-16.1c-17.7,0-22.5,3.7-28.2,25.8c-5.3,20.5-3.6,26,15.5,26
		c9.1,0,12.9-0.7,18.4-1.7l6.4-24H226.2L226.2,255.2z"/>
	<path fill="#646469" d="M258.6,271.7c-1.8,0-2.4-0.5-2.1-2l3.1-12.1h18.2l2-7.9h-18.2l2.1-8c0.5-2.1,2-3.9,5-3.9h14.5l2-7.9h-21.1
		c-8.8,0-11.4,1.6-14.8,14.8l-6.3,24.1c-1.9,8.1,0.5,11.6,7.1,11.6h18.2c3.6,0,5.9-1.9,7-4.8l1.5-3.9H258.6L258.6,271.7z"/>
	<path fill="#646469" d="M466.4,271.7c-1.8,0-2.4-0.5-2.1-2l3.1-12.1h18.2l2-7.9h-18.2l2.1-8c0.5-2.1,2-3.9,5-3.9H491l2-7.9h-21.1
		c-8.8,0-11.4,1.6-14.8,14.8l-6.3,24.1c-1.9,8.1,0.5,11.6,7.1,11.6h18.2c3.6,0,5.9-1.9,7-4.8l1.5-3.9H466.4L466.4,271.7z"/>
	<path fill="#646469" d="M167.2,271.7h-3.7l8.8-33.9c1.1,0,1.6,0,4.3,0c7.9,0,7.9,2.6,4.1,17.2C176.9,269.6,174.7,271.7,167.2,271.7
		L167.2,271.7z M178.8,229.8h-18.2l-12.7,49c-0.2,0.8,0.3,1.5,1.1,1.5h16.2c20.3,0,23.8-3.9,29.3-25.5
		C199.5,236.1,196.5,229.8,178.8,229.8L178.8,229.8z"/>
	<path fill="#646469" d="M433.2,229.7c-10.5,0-15.3,0.2-18.2,0.1l-12.7,49c-0.2,0.8,0.3,1.5,1.1,1.5h12.2l11-42.6
		c1.1,0,2.8-0.1,4.6-0.1c5.9,0,6.7,2.1,5.1,8.1l-8.5,33c-0.2,0.8,0.3,1.5,1.1,1.5h12.2l8.9-34.5C453,233.8,447.7,229.7,433.2,229.7
		L433.2,229.7z"/>
	<path fill="#646469" d="M328,229.8l-2.1,8.2h13.5c0.1,0,0.1,0.2,0,0.3c-2.2,1.6-3.5,3.9-4.1,6.4l-8.9,34.2
		c-0.2,0.8,0.3,1.5,1.1,1.5h13l11-42.3h6.7c3.8,0,6-1.6,7.3-4.8l1.3-3.4H328L328,229.8z"/>
	<path fill="#646469" d="M138.8,280.3l12.7-49c0.2-0.8-0.3-1.5-1.1-1.5h-12.8l-12.7,49c-0.2,0.8,0.3,1.5,1.1,1.5H138.8L138.8,280.3z
		"/>
	<path fill="#646469" d="M376.4,272.6c-5.8,0-6.7-2.1-2.6-17.9c3.4-13.1,6.6-17.7,11.8-17.7c5.8,0,6.5,3.1,2.7,17.7
		C384.6,269.1,380.9,272.6,376.4,272.6L376.4,272.6z M387.7,229.1c-15.3,0-21.9,2.7-27.9,26c-5.2,20.1-1,25.9,14.5,25.9
		c15.8,0,22.1-3.3,27.9-25.9C406.4,238.7,405.6,229.1,387.7,229.1L387.7,229.1z"/>
	<path fill="#646469" d="M23.7,255.5l7.9-27.7c0.8-2.9,3.9-5.5,7.1-5.5h24.2c0.4,0,0.5,0.5,0.2,0.7c-12.6,8.6-27.7,21.4-38.7,32.8
		C24.1,256.1,23.6,255.9,23.7,255.5L23.7,255.5z"/>
	<path fill="#646469" d="M42.8,272.1l7.8-27.4c0.1-0.4-0.3-0.7-0.7-0.4c-11.5,9.9-25.4,24.4-34.1,35.3c-0.2,0.3-0.1,0.7,0.3,0.7
		h33.9c14.3,0,22.1-4.4,24.9-15c2.3-8.6-2.2-14.5-9.4-16c-0.1,0-0.2-0.3,0-0.3c6.1-1,12.2-3.5,14.4-12.4c2.4-9.6-5-14.9-13.4-14.4
		l-13,45.3c-0.7,2.5-3.3,4.5-5.8,4.5H42.8L42.8,272.1z"/>
	<path fill="#646469" d="M116.5,260.1c-0.5-1.5-0.9-2.6-1.7-3.5c-0.1-0.1-0.1-0.3,0.1-0.3c5.8-1.8,9.6-5.5,11.2-11.7
		c2.1-8.2-3.1-14.8-16.1-14.8H90.5l-12.7,49c-0.2,0.8,0.3,1.5,1.1,1.5h12.1l11-42.6c1.2,0,2.3,0,5.1,0c4.7,0,6.4,2.9,5.4,6.8
		c-1.3,5.1-5.3,8-10,8h-1.8l5.1,24.4c0.6,2.4,1.8,3.4,4.5,3.4h10.8L116.5,260.1L116.5,260.1z"/>
	<path fill="#646469" d="M281.8,263.2c-5.1,12.3,1.6,17.9,15.2,17.9c12.5,0,19.4-3,22.4-14.4c1-3.9,0.4-8.1-2-10.8
		c-4.7-5.1-13.6-6-16.8-9c-1.6-1.5-1.6-3.6-1.1-5.4c0.9-3.3,3.1-5.1,6.7-5.1c5.6,0,5.8,3.5,4.4,7.6h12.1c2.8-8.6-0.9-15.3-15.1-15.3
		c-12,0-18.5,4.7-20.8,13.7c-0.6,2.5-0.4,6.5,1.1,9c3.3,5.6,12,6.3,16.8,9.7c2.1,1.5,2.2,3.4,1.6,5.6c-1.1,4.2-3.2,6.2-7.4,6.2
		c-4,0-6.5-2.4-4.2-9.7H281.8L281.8,263.2z"/>
</g>
</svg>
