<?xml version="1.0" encoding="utf-8"?>
<!-- Generator: Adobe Illustrator 18.0.0, SVG Export Plug-In . SVG Version: 6.00 Build 0)  -->
<!DOCTYPE svg PUBLIC "-//W3C//DTD SVG 1.1//EN" "http://www.w3.org/Graphics/SVG/1.1/DTD/svg11.dtd">
<svg version="1.1" id="Layer_1" xmlns="http://www.w3.org/2000/svg" xmlns:xlink="http://www.w3.org/1999/xlink" x="0px" y="0px"
	 viewBox="0 0 512 512" enable-background="new 0 0 512 512" xml:space="preserve">
<g>
	<path fill="#646469" d="M200.8,178.2c-0.3-0.5-0.5-0.9-0.7-1.4c-0.2-0.4-0.7-0.6-1.4-0.2c-0.6,0.5-0.6,1.1-0.4,1.5
		c0.2,0.5,0.4,0.9,0.7,1.4c0.3,0.5,0.5,0.9,0.8,1.3c0.2,0.4,0.8,0.6,1.5,0.2c0.6-0.5,0.7-1.1,0.4-1.5
		C201.3,179.1,201.1,178.6,200.8,178.2z"/>
	<path fill="#646469" d="M204.8,153c0.3-0.4,0.3-0.8,0-0.9c-0.4,0-0.9,0.3-1.2,0.7c-0.3,0.4-0.7,0.8-1,1.2c-0.3,0.4-0.6,0.8-0.9,1.3
		c-0.3,0.4-0.4,0.8,0,0.9c0.4,0.1,0.9-0.3,1.2-0.7c0.3-0.4,0.6-0.8,0.9-1.3C204.2,153.8,204.5,153.4,204.8,153z"/>
	<path fill="#646469" d="M208.8,185.4c-0.5-0.3-1-0.6-1.5-0.9c-0.5-0.3-1-0.6-1.4-0.9c-0.4-0.3-1.1-0.3-1.6,0.3
		c-0.5,0.6-0.2,1.1,0.2,1.4c0.5,0.3,0.9,0.6,1.4,0.9c0.5,0.3,1,0.6,1.5,0.8c0.5,0.2,1.2,0.3,1.7-0.2
		C209.4,186.3,209.2,185.7,208.8,185.4z"/>
	<path fill="#646469" d="M198.4,170c0-0.5,0-1,0-1.5c0-0.4-0.3-0.8-0.9-0.6c-0.6,0.3-0.9,0.9-0.9,1.3c0,0.5,0,1,0,1.5
		c0,0.5,0,1,0.1,1.5c0,0.4,0.4,0.9,1,0.6c0.6-0.2,0.9-0.9,0.9-1.3C198.5,171,198.4,170.5,198.4,170z"/>
	<path fill="#646469" d="M198.1,164.2c0.5-0.1,1-0.6,1.1-1c0.2-0.5,0.3-0.9,0.5-1.4c0.2-0.5,0.3-0.9,0.5-1.4c0.1-0.4,0-0.8-0.5-0.7
		c-0.5,0.1-0.9,0.6-1.1,1c-0.2,0.5-0.4,0.9-0.6,1.4c-0.2,0.5-0.3,0.9-0.5,1.4C197.5,163.8,197.6,164.2,198.1,164.2z"/>
	<path fill="#646469" d="M240.2,191c-0.3,0.2-0.6,0.3-0.9,0.5c-0.3,0.1-0.6,0.3-0.9,0.4c-0.3,0.2-0.4,0.8-0.2,1.4
		c0.2,0.6,0.6,1,0.9,0.9c0.3-0.1,0.6-0.2,0.9-0.3c0.3-0.1,0.5-0.3,0.8-0.5c0.3-0.2,0.4-0.8,0.2-1.5
		C240.9,191.3,240.5,190.9,240.2,191z"/>
	<path fill="#646469" d="M247.2,170.4c0,0.5,0.1,1,0.1,1.6c0,0.5,0,1,0,1.6c0,0.5,0.2,1.1,0.6,1.4c0.4,0.3,0.5-0.2,0.5-0.6
		c0-0.5,0-1,0-1.5c0-0.5-0.1-1-0.1-1.5c0-0.4-0.2-1.1-0.6-1.4C247.4,169.6,247.2,170,247.2,170.4z"/>
	<path fill="#646469" d="M234.3,192.8c-0.4,0-0.8,0-1.2,0l-1.3,0c-0.5,0-0.6,0.5-0.3,1c0.3,0.5,0.8,0.9,1.3,0.9
		c0.4,0,0.9,0.1,1.3,0.1c0.4,0,0.8,0,1.2,0c0.4,0,0.5-0.4,0.3-1C235.3,193.2,234.8,192.8,234.3,192.8z"/>
	<path fill="#646469" d="M246.9,179c-0.1,0.5-0.2,1-0.3,1.5c-0.1,0.5-0.2,1-0.4,1.5c-0.1,0.5,0,1.2,0.3,1.7c0.3,0.4,0.6,0.2,0.7-0.2
		c0.1-0.5,0.3-1,0.4-1.5c0.1-0.5,0.2-1,0.3-1.5c0.1-0.5,0-1.1-0.3-1.6C247.3,178.4,247,178.6,246.9,179z"/>
	<path fill="#646469" d="M331.9,173.2c-4.6-2.2-6-7.8-5.1-13.8c0.9-6,1.1-10.4-14.8-8.8c-15.9,1.6-35.6,9.2-47.6,9
		c-12-0.1-20.2-5.1-21.3-13.8c-1.4-11.1-7.9-17.2-30.2-14.8c-18.1,1.9-27.1,12.1-27.1,12.1l-25.4,66.7c0,0,11.3-9.8,29.9-13.2
		c18.6-3.4,21.9,2.9,24.3,12c2.4,9.1,6.2,20.5,32.2,5.3c26-15.1,42.4-24.6,51.2-23.4c8.9,1.2,8.6,5.4,9.7,7.5
		c1,2.1,3.2,11.9,25.4-1.1c22.2-13,58.6-20.1,74.2-15.6c0,0-15.4-10.9-34.4-11.2C353.8,169.8,336.6,175.4,331.9,173.2z M226.3,165.2
		c1.4-5.3,6.8-5.9,11.6-2.7c1.8,1.4,3.4,3,4.6,5c-0.3,1.4-0.6,2.8-0.9,4.2c-1-1.9-2.1-3.4-3.8-4.7c-2.3-1.5-4.7-1.6-5.4,1
		c-0.5,2.7,1.4,5.2,3.8,6.9c1.6,1.1,3,1.6,4.4,1.8c-0.3,1.5-0.6,2.9-0.9,4.4c-1.8-0.3-3.6-1.3-5.6-2.6
		C229.3,175.2,225.4,170.7,226.3,165.2z M219.3,154.1c2.3,0.5,4.2,1.5,6,2.9c-0.4,1.6-0.8,3-1.2,4.6c-1.4-1.4-2.9-2.6-5-3.1
		c-2.8-0.6-5.5,0.3-6.3,3c-0.6,2.8,1.5,4.4,4.4,5.2c2,0.5,3.9,0.4,5.9,0.1c-0.3,1.5-0.6,3-0.9,4.5c-2.5,0.3-4.9,0.1-7.4-0.4
		c-5.8-1.4-9.4-4.6-8.1-10C208.4,155.8,213.7,153.1,219.3,154.1z M249.4,184.9c-1.5,6-4.9,8.5-7.8,10.6c-3,1.8-6.7,2.2-11.3,1.7
		c-6.6-0.7-15.7-2.7-21.3-5.5c-5.9-2.9-11.3-6.1-13.7-11.5c-2.4-5.5-2.3-11.8,0.2-17.9c3.2-6.9,7.8-13.2,15.5-18.7
		c2,0.4,3.9,1.1,5.8,2.1c-6.4,4.1-10.7,9.6-13,15.7c-1.5,5.7-0.6,10.9,2.7,15.1c3.3,4.2,8.9,6.8,15.3,9c12.6,3.5,19.4,2.4,22.1-7.9
		c1.3-6.6,0.7-13-1.8-20c2,1,3.8,2.2,5.5,3.7C250.6,169.6,251.2,176.4,249.4,184.9z"/>
	<path fill="#646469" d="M244.5,186.3c-0.2,0.4-0.4,0.8-0.6,1.1c-0.2,0.4-0.4,0.7-0.7,1.1c-0.2,0.4-0.2,1.1,0,1.8
		c0.3,0.6,0.6,0.7,0.8,0.4c0.2-0.4,0.4-0.7,0.6-1.1c0.2-0.4,0.4-0.8,0.6-1.2c0.2-0.4,0.2-1.1,0-1.7C245,186.1,244.7,186,244.5,186.3
		z"/>
	<path fill="#646469" d="M426.4,189.4c-0.2-0.3-4.2-6.2-12.9-12.6c-8-5.9-21.6-13.1-40.9-14.5c-1.9-0.1-3.8-0.2-5.8-0.2
		c-7.7,0-14,1-19.1,1.8c-3.2,0.5-5.7,0.9-7.7,0.9c-1.9,0-2.9-0.4-3.5-1.2c-1-1.4-0.6-3.5-0.1-5.9c0.8-4.1,1.8-9.1-3.7-12.9
		c-3.4-2.3-8.1-3.5-14.5-3.5c-9.4,0-20.5,2.5-31.3,4.9c-9.3,2.1-18.1,4-24.5,4c-1.9,0-3.6-0.2-4.9-0.6c-4.8-1.3-5.5-4.9-6.4-9.4
		c-1.1-5.5-2.5-12.3-12.8-16c-5.6-2-11.4-3-17.4-3c-22.8,0-40.9,14.7-41.1,14.9l-0.1,0.1l-40.2,103.6l2-2.2
		c0.3-0.3,27.9-31.5,54.8-32.2l0.3,0c6.4,0,8.2,4.9,10.2,10.6c1.6,4.4,3.2,8.9,7.1,11.5c2.9,1.9,6.5,2.8,10.6,2.8
		c11.5,0,25.2-7.4,32.3-11.8c15-9.3,31.8-19.3,39-18.5c2.9,0.3,3.9,2.3,5.2,4.8c1.5,3,3.4,6.8,9.5,8c0.8,0.2,1.6,0.2,2.5,0.2
		c6,0,13.9-4,22.9-8.5c7.5-3.8,16-8.1,25.3-11.2c11.6-3.8,24.3-5.8,37.8-5.8c15.4,0,26.4,2.6,26.5,2.6l1.3,0.3L426.4,189.4z
		 M399.4,186.5c-13.7,0-26.5,2-38.2,5.8c-9.4,3.1-18,7.4-25.5,11.2c-8.9,4.5-16.7,8.4-22.4,8.4c-0.8,0-1.6-0.1-2.3-0.2
		c-5.5-1.2-7.2-4.5-8.7-7.5c-1.3-2.6-2.5-5-6-5.4c-6.8-0.7-20.7,6.9-39.7,18.7c-7,4.4-20.5,11.7-31.8,11.7c-3.9,0-7.3-0.9-10.1-2.7
		c-3.7-2.4-5.2-6.7-6.7-10.9c-2-5.6-4.1-11.3-11.2-11.3l-0.4,0c-23.2,0.6-46.9,23.5-53.6,30.5l38.1-98c1.5-1.2,18.8-14.5,40.3-14.5
		c5.9,0,11.6,1,17.1,3c9.7,3.5,11,9.8,12.1,15.3c0.9,4.5,1.8,8.7,7.1,10.2c1.4,0.4,3.1,0.6,5.2,0.6c6.5,0,15.3-2,24.7-4
		c10.7-2.4,21.8-4.8,31.1-4.8c6.1,0,10.6,1.1,13.9,3.3c5,3.4,4.1,7.9,3.3,11.9c-0.5,2.6-1,5,0.2,6.7c0.8,1.1,2.2,1.6,4.4,1.6
		c2,0,4.6-0.4,7.8-0.9c5-0.8,11.3-1.8,18.9-1.8c1.9,0,3.8,0.1,5.7,0.2c31.9,2.2,48.4,20.7,52.1,25.5
		C421.3,188.2,411.8,186.5,399.4,186.5z"/>
</g>
<g>
	<path fill="#646469" d="M67.4,205.4c0,3.5,0,6.5-0.2,8.1c-0.1,1.1-0.3,1.9-1.1,2.1c-0.3,0.1-0.8,0.2-1.4,0.2
		c-0.5,0-0.6,0.1-0.6,0.3c0,0.3,0.3,0.4,0.8,0.4c1.5,0,3.9-0.1,4.8-0.1c1.1,0,3.5,0.1,6,0.1c0.4,0,0.7-0.1,0.7-0.4
		c0-0.2-0.2-0.3-0.6-0.3c-0.6,0-1.4-0.1-1.9-0.2c-1.1-0.2-1.4-1-1.5-2.1c-0.2-1.6-0.2-4.7-0.2-8.2v-15.7l4.8,0.1
		c3.4,0.1,4.4,1.1,4.5,2.1l0,0.4c0,0.6,0.1,0.8,0.4,0.8c0.2,0,0.3-0.2,0.3-0.6c0-1,0.1-3.6,0.1-4.4c0-0.6,0-0.8-0.3-0.8
		c-0.3,0-1.2,0.4-3.7,0.4H63.3c-1.3,0-2.7-0.1-3.8-0.2c-1-0.1-1.3-0.5-1.6-0.5c-0.2,0-0.3,0.2-0.5,0.7c-0.1,0.3-0.8,3.8-0.8,4.4
		c0,0.4,0.1,0.6,0.3,0.6c0.2,0,0.3-0.2,0.4-0.5c0.1-0.3,0.3-0.8,0.7-1.3c0.6-0.8,1.5-1,3.7-1.1l5.7-0.2V205.4z"/>
</g>
<g>
	<path fill="#646469" d="M92.5,199.8c-0.1,0-0.2-0.1-0.2-0.3v-0.8c0-5.8,0-6.9,0.1-8.1c0.1-1.3,0.4-2,1.4-2.2
		c0.5-0.1,0.8-0.1,1.1-0.1c0.5,0,0.7-0.1,0.7-0.3c0-0.3-0.3-0.3-0.8-0.3c-1.5,0-3.9,0.1-4.8,0.1c-1,0-3.4-0.1-5.5-0.1
		c-0.5,0-0.8,0.1-0.8,0.3c0,0.3,0.2,0.3,0.6,0.3c0.5,0,1.2,0,1.5,0.1c1.3,0.3,1.6,0.9,1.6,2.2c0.1,1.2,0.1,2.3,0.1,8.1v6.7
		c0,3.5,0,6.5-0.2,8.1c-0.2,1.1-0.3,1.9-1.1,2.1c-0.3,0.1-0.8,0.2-1.4,0.2c-0.5,0-0.6,0.1-0.6,0.3c0,0.3,0.3,0.4,0.8,0.4
		c1.5,0,3.9-0.1,4.8-0.1c1.1,0,3.5,0.1,6,0.1c0.5,0,0.8-0.1,0.8-0.4c0-0.2-0.2-0.3-0.6-0.3c-0.6,0-1.4-0.1-1.9-0.2
		c-1.1-0.2-1.4-1-1.5-2.1c-0.2-1.6-0.2-4.7-0.2-8.2v-3.4c0-0.2,0.1-0.2,0.2-0.2h14.6c0.1,0,0.2,0.1,0.2,0.2v3.4c0,3.5,0,6.5-0.2,8.1
		c-0.2,1.1-0.3,1.9-1.1,2.1c-0.3,0.1-0.8,0.2-1.4,0.2c-0.5,0-0.6,0.1-0.6,0.3c0,0.3,0.3,0.4,0.8,0.4c1.5,0,3.9-0.1,4.8-0.1
		c1.1,0,3.5,0.1,6,0.1c0.5,0,0.8-0.1,0.8-0.4c0-0.2-0.2-0.3-0.6-0.3c-0.6,0-1.4-0.1-1.9-0.2c-1.1-0.2-1.4-1-1.5-2.1
		c-0.2-1.6-0.2-4.7-0.2-8.2v-6.7c0-5.8,0-6.9,0.1-8.1c0.1-1.3,0.4-2,1.4-2.2c0.5-0.1,0.8-0.1,1.1-0.1c0.5,0,0.7-0.1,0.7-0.3
		c0-0.3-0.3-0.3-0.8-0.3c-1.5,0-3.9,0.1-4.8,0.1c-1,0-3.4-0.1-5.5-0.1c-0.5,0-0.8,0.1-0.8,0.3c0,0.3,0.2,0.3,0.7,0.3
		c0.5,0,1.2,0,1.5,0.1c1.3,0.3,1.6,0.9,1.6,2.2c0.1,1.2,0.1,2.3,0.1,8.1v0.8c0,0.2-0.1,0.3-0.2,0.3H92.5z"/>
</g>
<g>
	<path fill="#646469" d="M122.7,205.4c0,3.5,0,6.5-0.2,8.1c-0.2,1.1-0.3,1.9-1.1,2.1c-0.3,0.1-0.8,0.2-1.4,0.2
		c-0.5,0-0.6,0.1-0.6,0.3c0,0.3,0.3,0.4,0.8,0.4c1.5,0,3.9-0.1,4.8-0.1c2.3,0,4.8,0.2,10.6,0.2c1.5,0,1.8,0,2.1-1
		c0.2-0.8,0.5-3.4,0.5-4.2c0-0.4,0-0.7-0.3-0.7c-0.3,0-0.3,0.2-0.4,0.6c-0.3,1.6-0.7,2.4-1.7,2.8c-1,0.5-2.6,0.5-3.6,0.5
		c-3.9,0-4.5-0.6-4.6-3.2c0-1.1,0-4.6,0-5.9v-3c0-0.2,0-0.4,0.2-0.4c0.9,0,4.7,0,5.4,0.1c1.4,0.2,1.9,0.7,2.1,1.5
		c0.1,0.5,0.1,1,0.2,1.4c0,0.2,0.1,0.3,0.3,0.3c0.3,0,0.3-0.4,0.3-0.7c0-0.3,0.1-1.8,0.2-2.6c0.1-1.9,0.3-2.6,0.3-2.8
		c0-0.2-0.1-0.3-0.3-0.3c-0.2,0-0.3,0.2-0.6,0.5c-0.3,0.4-0.9,0.5-1.8,0.6c-0.9,0.1-5.3,0.1-6.1,0.1c-0.2,0-0.3-0.2-0.3-0.4V190
		c0-0.3,0.1-0.4,0.3-0.4c0.8,0,4.8,0.1,5.4,0.1c1.9,0.2,2.3,0.7,2.6,1.4c0.2,0.5,0.2,1.1,0.2,1.4c0,0.3,0.1,0.5,0.3,0.5
		c0.3,0,0.3-0.2,0.4-0.4c0.1-0.5,0.2-2.1,0.2-2.5c0.1-1.8,0.3-2.2,0.3-2.5c0-0.2,0-0.3-0.2-0.3c-0.2,0-0.4,0.1-0.6,0.2
		c-0.3,0.1-0.9,0.2-1.6,0.2c-0.7,0-8.3,0-9.5,0c-1.1,0-3.5-0.1-5.5-0.1c-0.6,0-0.8,0.1-0.8,0.3c0,0.3,0.2,0.3,0.7,0.3
		c0.5,0,1.2,0,1.5,0.1c1.3,0.3,1.6,0.9,1.6,2.2c0.1,1.2,0.1,2.3,0.1,8.1V205.4z"/>
</g>
<g>
	<path fill-rule="evenodd" clip-rule="evenodd" fill="#646469" d="M270.3,358.3v1.6c0,13.2,2.6,18.7,7.1,22.3
		c4.1,3.4,8.3,3.7,11.3,3.7c4,0,8.9-1.3,12.5-4.9c5-5,5.3-13.2,5.3-22.5v-0.3h7.9c-0.1,9.7-1.3,19.7-8.6,25.9
		c-6.4,5.5-13,6.5-18.9,6.5c-4.8,0-13.5-0.3-20.1-6.3c-4.6-4.2-8.1-10.9-8.1-24v-2.2H270.3z M343,358.3v17.6c0,6,0.3,7.5,3.2,8.7
		c2.5,1,4.5,1.1,6.6,1.1c4.1,0,11-2.2,11-11.6c0-4.8-1.4-11.1-6.1-15.8l12.8,0c2.6,3.1,4.4,7,4.4,11.7c0,9.7-7.5,19.8-24.2,19.8
		c-2.2,0-10.4-0.5-13.2-0.5c-2.1,0-7.8,0.3-11.4,0.3c-1.2,0-1.8-0.3-1.8-0.9c0-0.5,0.4-0.7,1.5-0.7c1.4,0,2.4-0.2,3.3-0.4
		c1.8-0.4,2.3-2.4,2.6-5c0.5-3.8,0.5-11,0.5-19.3v-4.9H343z"/>
</g>
<g>
	<path fill-rule="evenodd" clip-rule="evenodd" fill="#646469" d="M258.6,358.3v-11.1c0-13.8,0-16.3-0.2-19.2
		c-0.2-3.1-0.9-4.5-3.9-5.2c-0.7-0.2-2.3-0.3-3.5-0.3c-1,0-1.5-0.2-1.5-0.8c0-0.6,0.6-0.8,2-0.8c4.8,0,10.5,0.3,13.2,0.3
		c2.2,0,7.9-0.3,11.2-0.3c1.4,0,2,0.2,2,0.8c0,0.6-0.5,0.8-1.5,0.8c-1,0-1.5,0.1-2.6,0.3c-2.5,0.5-3.2,2-3.4,5.2
		c-0.2,2.9-0.2,5.4-0.2,19.2v11.1H258.6z M306.5,358.3v-11.1c0-13.8,0-16.3-0.2-19.2c-0.2-3.1-0.9-4.5-3.9-5.2
		c-0.7-0.2-2.3-0.3-3.3-0.3c-1,0-1.5-0.2-1.5-0.8c0-0.6,0.6-0.8,1.9-0.8c4.6,0,10.3,0.3,10.4,0.3c1.1,0,9.2-0.3,12.7-0.3
		c4.8,0,12.9,0.3,14.7,0.3c4.4,0,8-0.3,11.1-0.3c16.4,0,19.3,8.8,19.3,13.6c0,7.4-4.3,11.9-9.3,15.9c4.1,1.4,8.8,4,12.1,7.9l-12.8,0
		c-0.8-0.8-1.7-1.6-2.7-2.3c-1.9-1.4-4-2-7.5-2.2c-1.6-0.1-2.5-0.1-3.9-0.1c-0.4,0-0.5,0.2-0.5,0.6v3.9h-10.9v-11.1
		c0-13.8,0-16.3-0.2-19.2c-0.2-3.1-0.9-4.5-3.9-5.2c-0.7-0.2-4.2-0.3-5.4-0.3c-1,0-3.6,0.1-4.7,0.3c-2.5,0.5-3.2,2-3.4,5.2
		c-0.2,2.9-0.2,5.4-0.2,19.2v9.7c0,0.5,0,0.9,0,1.4H306.5z M343,326.4v22.4c0,0.7,0.3,0.9,0.6,1c0.8,0.2,2.2,0.3,4.3,0.3
		c3,0,5-0.4,6.5-1.7c2.4-1.9,3.7-5.2,3.7-9.6c0-6.1-3.5-14.1-11.3-14.1c-1.3,0-2.1,0-3,0.2C343.2,325,343,325.4,343,326.4"/>
</g>
<g>
	<path fill="#646469" d="M176.7,390.8c5.8,0,12.7-0.6,16.3-2.1c1.5-0.6,1.9-1.1,2.4-2.6c0.9-3.1,2-11,2-12.1c0-0.7-0.2-1.4-0.8-1.4
		c-0.7,0-0.9,0.4-1.2,1.8c-0.4,1.6-1.5,4.3-3.1,6c-3.6,4.2-8.5,5.1-16.6,5.1c-12.2,0-28.6-10.7-28.6-32.3c0-8.8,1.7-17.4,8.3-23.5
		c4-3.6,9.2-5.6,17.1-5.6c8.3,0,15.4,2.4,18.4,5.6c2.3,2.4,3.4,5.5,3.5,8.3c0,1.3,0.2,2,0.9,2c0.8,0,1-0.7,1.1-2.1
		c0.2-1.8,0.1-6.8,0.3-9.8c0.2-3.2,0.5-4.3,0.5-5c0-0.5-0.4-1-1.4-1.1c-2.7-0.3-5.6-1.1-9.1-1.5c-4.2-0.5-7.5-0.9-13.2-0.9
		c-13.5,0-22.1,3.6-28.7,9.6c-8.7,8-10.6,18.7-10.6,24.9c0,8.8,2.4,19,11.2,26.8C153.8,388.1,164.2,390.8,176.7,390.8"/>
</g>
<g>
	<path fill="#646469" d="M224.4,347.2c0-13.8,0-16.3,0.2-19.2c0.2-3.2,0.9-4.7,3.4-5.2c1.1-0.2,2.5-0.3,3.5-0.3
		c1.1,0,1.6-0.2,1.6-0.8c0-0.6-0.6-0.8-1.9-0.8c-3.5,0-10.2,0.3-12.3,0.3c-2.4,0-8.2-0.3-12.4-0.3c-1.4,0-2,0.2-2,0.8
		c0,0.6,0.5,0.8,1.5,0.8c1.2,0,2.3,0.1,3,0.3c3,0.6,3.7,2.1,3.9,5.2c0.2,2.9,0.2,5.4,0.2,19.2v16c0,8.3,0,15.5-0.5,19.3
		c-0.4,2.6-0.8,4.6-2.6,5c-0.8,0.2-1.9,0.4-3.3,0.4c-1.1,0-1.5,0.3-1.5,0.7c0,0.6,0.6,0.9,1.8,0.9c3.6,0,9.3-0.3,11.4-0.3
		c7.3,0,15.5,0.5,28.5,0.5c4.7,0,5.2-0.5,5.7-2.4c0.7-2.6,1.4-9.4,1.4-10.4c0-1.1-0.1-1.5-0.7-1.5c-0.7,0-0.9,0.5-1,1.4
		c-0.2,1.7-1.3,4.3-2.4,5.4c-2.3,2.5-5.8,2.5-10.6,2.5c-7.1,0-11.6-0.6-13.1-2c-1.9-1.6-1.9-7.9-1.9-19.5V347.2z"/>
</g>
<g>
	<path fill-rule="evenodd" clip-rule="evenodd" fill="#646469" d="M179.9,239.8v27.6c0,1,0.2,1.4,0.8,1.6c1.9,0.6,4.6,0.9,6.9,0.9
		c3.6,0,4.8-0.4,6.4-1.5c2.7-2,5.4-6.2,5.4-13.6c0-12.9-8.5-16.6-13.9-16.6c-2.3,0-3.9,0.1-4.8,0.4
		C180.1,238.7,179.9,239.1,179.9,239.8 M169.2,276.2v-16c0-13.8,0-16.3-0.2-19.2c-0.2-3.1-0.9-4.5-3.9-5.2c-0.7-0.2-2.3-0.3-3.5-0.3
		c-1,0-1.5-0.2-1.5-0.8c0-0.6,0.6-0.8,2-0.8c4.8,0,10.5,0.3,12.4,0.3c3.1,0,10-0.3,12.8-0.3c5.7,0,11.8,0.5,16.7,3.9
		c2.5,1.7,6.2,6.4,6.2,12.4c0,6.7-2.8,12.9-12,20.3c8.1,10.2,14.3,18.2,19.7,23.9c5.1,5.3,8.8,5.9,10.2,6.2c1,0.2,1.8,0.2,2.5,0.2
		c0.7,0,1.1,0.3,1.1,0.7c0,0.7-0.6,0.9-1.7,0.9l-8.6,0.1c-5.1,0-7.4-0.5-9.7-1.7c-3.9-2.1-7.3-6.3-12.4-13.3c-3.6-5-7.8-11.2-9-12.5
		c-0.5-0.5-1-0.6-1.6-0.6l-7.9-0.2c-0.5,0-0.7,0.2-0.7,0.7v1.3c0,8.4,0,15.6,0.5,19.4c0.3,2.6,0.8,4.6,3.5,5
		c1.4,0.2,3.4,0.4,4.4,0.4c0.7,0,1.1,0.3,1.1,0.7c0,0.6-0.6,0.9-1.8,0.9c-5.3,0-12-0.3-13.3-0.3c-1.7,0-9.2,0.3-12.8,0.3
		c-1.2,0-1.8-0.3-1.8-0.9c0-0.5,0.4-0.7,1.5-0.7c1.4,0,4.2-0.2,5-0.4c1.8-0.4,2.3-2.4,2.6-5C169.2,291.7,169.2,284.5,169.2,276.2"/>
</g>
<g>
	<path fill-rule="evenodd" clip-rule="evenodd" fill="#646469" d="M133.2,278.8c0.5,0,0.7,0.2,0.9,0.6l7.3,19.2
		c0.5,1.1-0.2,1.9-0.8,2.1c-0.9,0.1-1.3,0.3-1.3,0.8c0,0.6,1.1,0.6,2.7,0.7c7.3,0.2,13.9,0.2,17.1,0.2c3.4,0,4.2-0.2,4.2-0.9
		c0-0.6-0.5-0.7-1.2-0.7c-1.1,0-2.4-0.1-3.8-0.4c-1.9-0.5-4.5-1.7-8-9.9c-5.8-13.8-20.3-50.8-22.5-55.8c-0.9-2.1-1.5-2.9-2.3-2.9
		c-0.9,0-1.5,1-2.5,3.6l-22.8,57c-1.8,4.5-3.5,7.6-7.7,8.2c-0.7,0.1-2,0.2-2.8,0.2c-0.7,0-1.1,0.2-1.1,0.7c0,0.7,0.5,0.9,1.7,0.9
		c4.7,0,9.7-0.3,10.7-0.3c2.8,0,6.7,0.3,9.6,0.3c1,0,1.5-0.2,1.5-0.9c0-0.5-0.3-0.7-1.4-0.7h-1.4c-2.8,0-3.6-1.2-3.6-2.8
		c0-1.1,0.5-3.3,1.4-5.5l4.9-13c0.2-0.5,0.4-0.7,0.8-0.7H133.2z M114.8,274.3c-0.4,0-0.5-0.3-0.4-0.6l8.3-22.3
		c0.1-0.4,0.3-0.8,0.5-0.8c0.3,0,0.4,0.5,0.5,0.8l8.2,22.4c0.1,0.3,0,0.5-0.5,0.5H114.8z"/>
</g>
<g>
	<path fill-rule="evenodd" clip-rule="evenodd" fill="#646469" d="M266.1,278.8c0.5,0,0.7,0.2,0.9,0.6l7.3,19.2
		c0.5,1.1-0.2,1.9-0.8,2.1c-0.9,0.1-1.3,0.3-1.3,0.8c0,0.6,1.1,0.6,2.7,0.7c7.3,0.2,13.9,0.2,17.1,0.2c3.4,0,4.2-0.2,4.2-0.9
		c0-0.6-0.5-0.7-1.2-0.7c-1.1,0-2.5-0.1-3.8-0.4c-1.9-0.5-4.5-1.7-8-9.9c-5.8-13.8-20.3-50.8-22.5-55.8c-0.9-2.1-1.5-2.9-2.3-2.9
		c-0.9,0-1.5,1-2.5,3.6l-22.8,57c-1.8,4.5-3.5,7.6-7.7,8.2c-0.7,0.1-2,0.2-2.8,0.2c-0.7,0-1.1,0.2-1.1,0.7c0,0.7,0.5,0.9,1.7,0.9
		c4.7,0,9.7-0.3,10.7-0.3c2.8,0,6.7,0.3,9.6,0.3c1,0,1.5-0.2,1.5-0.9c0-0.5-0.3-0.7-1.4-0.7h-1.4c-2.8,0-3.6-1.2-3.6-2.8
		c0-1.1,0.5-3.3,1.4-5.5l4.9-13c0.2-0.5,0.4-0.7,0.8-0.7H266.1z M247.6,274.3c-0.4,0-0.5-0.3-0.4-0.6l8.3-22.3
		c0.1-0.4,0.3-0.8,0.5-0.8c0.3,0,0.4,0.5,0.5,0.8l8.2,22.4c0.1,0.3,0,0.5-0.5,0.5H247.6z"/>
</g>
<g>
	<path fill-rule="evenodd" clip-rule="evenodd" fill="#646469" d="M382.5,278.8c0.5,0,0.7,0.2,0.9,0.6l7.3,19.2
		c0.5,1.1-0.2,1.9-0.8,2.1c-0.9,0.1-1.3,0.3-1.3,0.8c0,0.6,1.1,0.6,2.7,0.7c7.3,0.2,13.9,0.2,17.1,0.2c3.4,0,4.2-0.2,4.2-0.9
		c0-0.6-0.5-0.7-1.2-0.7c-1.1,0-2.4-0.1-3.8-0.4c-1.9-0.5-4.5-1.7-8-9.9c-5.8-13.8-20.3-50.8-22.5-55.8c-0.9-2.1-1.5-2.9-2.3-2.9
		c-0.9,0-1.5,1-2.5,3.6l-22.8,57c-1.8,4.5-3.5,7.6-7.7,8.2c-0.7,0.1-2,0.2-2.8,0.2c-0.7,0-1.1,0.2-1.1,0.7c0,0.7,0.5,0.9,1.7,0.9
		c4.7,0,9.7-0.3,10.7-0.3c2.8,0,6.7,0.3,9.6,0.3c1,0,1.5-0.2,1.5-0.9c0-0.5-0.3-0.7-1.4-0.7h-1.4c-2.8,0-3.6-1.2-3.6-2.8
		c0-1.1,0.5-3.3,1.4-5.5l4.9-13c0.2-0.5,0.4-0.7,0.8-0.7H382.5z M364.1,274.3c-0.4,0-0.5-0.3-0.4-0.6l8.3-22.3
		c0.1-0.4,0.3-0.8,0.5-0.8s0.4,0.5,0.5,0.8l8.2,22.4c0.1,0.3,0,0.5-0.5,0.5H364.1z"/>
</g>
<g>
	<path fill="#646469" d="M312.6,297.7c1.7,4.3,2.3,5.5,3.4,5.5c1.3,0,1.8-1.5,4.2-6.7c2-4.5,6.3-14.4,12.1-27.7
		c4.9-11.2,7.3-16.1,10.9-24.6c2.4-5.8,3.8-7.3,5-8.2c1.6-1.1,3.5-1.1,4.4-1.1c0.9,0,1.5-0.2,1.5-0.8c0-0.6-0.7-0.8-1.9-0.8
		c-2.7,0-7,0.3-8.5,0.3c-1.2,0-5-0.3-9.5-0.3c-1.7,0-2.5,0.2-2.5,0.9c0,0.6,0.7,0.7,1.5,0.7c1.2,0,2.5,0.1,3.6,0.5
		c0.8,0.3,1.2,1,1.2,1.7c0,0.8-0.4,2.2-0.8,3.4c-2.2,6-14,35.2-17.9,45.2h-0.4l-15.6-41.2c-1.3-3.3-2.1-5.8-2.1-7
		c0-0.8,0.3-1.5,0.9-1.9c0.7-0.5,2.1-0.6,3.5-0.6c0.8,0,1.4-0.2,1.4-0.8c0-0.6-1-0.8-2.1-0.8c-4.5,0-8.9,0.3-11.2,0.3
		c-3.2,0-8.3-0.3-13.2-0.3c-1.4,0-2.4,0.1-2.4,0.8c0,0.5,0.3,0.8,1.1,0.8c0.7,0,2.2,0,3.5,0.4c3.3,0.9,4.8,1.9,6.9,6.9L312.6,297.7z
		"/>
</g>
<g>
	<path fill="#646469" d="M424.4,252h0.3c1.6,1.7,11.7,13.1,21.6,22.9c9.4,9.3,21,21.2,26.8,26.7c1,1,2.1,2,3.1,2
		c0.8,0,1.2-0.8,1.2-2.8l1-57.2c0.1-5.1,0.8-7,3.4-7.7c1.1-0.3,1.8-0.3,2.7-0.3c1.1,0,1.6-0.3,1.6-0.8c0-0.7-0.9-0.8-2.1-0.8
		c-4.4,0-7.9,0.3-8.9,0.3c-1.9,0-6.3-0.3-11-0.3c-1.4,0-2.4,0.1-2.4,0.8c0,0.5,0.4,0.8,1.5,0.8c1.3,0,3.4,0,4.8,0.5
		c2.2,0.9,3,2.6,3.1,8.2l0.9,40.7h-0.5c-1.5-1.5-13.8-14.5-20-20.7c-13.2-13.2-27-27.9-28.1-29.1c-1.5-1.6-2.4-2.8-3.4-2.8
		c-0.9,0-1.2,1.3-1.2,3.1l-0.8,53.7c-0.1,7.9-0.5,10.5-2.8,11.2c-1.3,0.4-3.7,0.5-4.9,0.5c-0.9,0-1.5,0.2-1.5,0.7
		c0,0.8,0.8,0.9,2,0.9c4.7,0,9.8-0.3,10.6-0.3c1.7,0,5.4,0.3,11.2,0.3c1.3,0,2.1-0.2,2.1-0.9c0-0.5-0.5-0.7-1.5-0.7
		c-1.5,0-3.2-0.1-4.7-0.6c-1.8-0.6-3-3-3.2-10.1L424.4,252z"/>
</g>
<g>
	<path fill="#646469" d="M68.4,303.8c5.8,0,12.7-0.6,16.3-2.1c1.5-0.6,1.9-1.1,2.4-2.6c0.9-3.1,2-11,2-12.1c0-0.7-0.2-1.4-0.8-1.4
		c-0.7,0-0.9,0.4-1.2,1.8c-0.4,1.6-1.5,4.3-3.1,6c-3.6,4.2-8.5,5.1-16.6,5.1c-12.2,0-28.6-10.7-28.6-32.3c0-8.8,1.7-17.4,8.3-23.5
		c4-3.6,9.2-5.6,17.1-5.6c8.3,0,15.4,2.5,18.4,5.6c2.3,2.4,3.4,5.5,3.5,8.3c0,1.3,0.2,2,0.9,2c0.8,0,1-0.7,1.1-2.1
		c0.2-1.8,0.1-6.8,0.3-9.8c0.2-3.2,0.5-4.3,0.5-5c0-0.5-0.4-1-1.4-1.1c-2.7-0.3-5.6-1.1-9.1-1.5c-4.2-0.5-7.5-0.9-13.2-0.9
		c-13.5,0-22.1,3.6-28.7,9.6c-8.7,8-10.6,18.7-10.6,24.9c0,8.8,2.4,19,11.2,26.8C45.5,301,55.9,303.8,68.4,303.8"/>
</g>
</svg>
