<?xml version="1.0" encoding="utf-8"?>
<!-- Generator: Adobe Illustrator 18.0.0, SVG Export Plug-In . SVG Version: 6.00 Build 0)  -->
<!DOCTYPE svg PUBLIC "-//W3C//DTD SVG 1.1//EN" "http://www.w3.org/Graphics/SVG/1.1/DTD/svg11.dtd">
<svg version="1.1" id="Layer_1" xmlns="http://www.w3.org/2000/svg" xmlns:xlink="http://www.w3.org/1999/xlink" x="0px" y="0px"
	 viewBox="0 0 512 512" enable-background="new 0 0 512 512" xml:space="preserve">
<g>
	<path fill="#656565" d="M482.4,231.5c0-1.4-1.2-2.5-2.9-2.5H476v8h1v-3h1.8l2.1,3h1.6l-2.2-3.4
		C481.1,233.5,482.4,232.9,482.4,231.5z M477,233v-3h2.3c0.9,0,1.6,0.6,1.6,1.5c0,0.9-0.7,1.5-1.6,1.5H477z"/>
	<path fill="#656565" d="M478.9,226.1c-3.9,0-7.1,3.2-7.1,7.1c0,3.9,3.2,7.1,7.1,7.1c3.9,0,7.1-3.2,7.1-7.1
		C486,229.3,482.8,226.1,478.9,226.1z M478.9,239.2c-3.3,0-6-2.7-6-6c0-3.3,2.7-6,6-6c3.3,0,6,2.7,6,6
		C484.9,236.5,482.2,239.2,478.9,239.2z"/>
	<path fill="#656565" d="M135.5,231.3c0,1.1,0.9,2.4,2.4,2.4c1.6,0,1.8-1.1,3-1.1c1,0,2.1,0.6,2.1,1.8v19.4
		c-5,3.7-11.2,9.6-14.5,9.6c-1.8,0-3.5-1.5-3.5-3.3v-27.6c0-0.6,0.3-0.9,0.8-1l2.6-0.9c0.4-0.1,0.6-0.5,0.6-1v-2.5
		c0-0.6,0.3-1.1-0.3-1.1h-16.5c-0.7,0-1.1,0.5-1.2,1.1c-0.3,1.8-1,3.1-2.6,3.1c-2.6,0-5-5.7-15.5-5.7c-12.8,0-23.3,12.2-23.3,27.1
		c0,15,10.5,27.1,23.3,27.1c11.9,0,12.2-7.1,16.5-7.1c4.9,0,4.2,7.1,10.7,7.1c5.9,0,16.9-10.9,22.9-16.7v14.1c0,0.6,0.3,1.9,0.8,1.9
		h19.8c0.6,0,0.4-1.3,0.4-1.9v-2.5c0-0.6-0.3-0.9-0.7-1l-2.7-0.9c-0.4-0.1-0.6-0.5-0.6-1v-31.2c0-2.5,1.8-4.4,4.3-4.4
		c1.5,0,2.6,1.3,2.6,2.7c0,2-1.6,2-1.6,5c0,3.1,2.6,5.8,5.8,5.8c6.7,0,12-5.3,12-12.1c0-6.7-5.3-12-12.1-12c-9.1,0-9.7,7.7-13.1,7.7
		c-3.7,0-2.1-7.7-12.5-7.7C139.4,224.5,135.5,229.2,135.5,231.3z M108,260c0,3.4-4.7,6.8-9,6.8c-8,0-13.1-6.4-13.1-15.3
		c0-8.9,5.1-15.1,13.1-15.1c4.3,0,9,3.4,9,6.8V260z"/>
	<path fill="#656565" d="M184.2,195.8l3.5,0.9c0.4,0.1,1.3,0.5,1.3,1v62.3c0,13.3,9.3,17.9,16,17.9h34.5c7.8,0,15.3-6.1,15.3-15.4
		c0-13.9-21.5-12.9-21.5-20.9c0-3.2,3.2-4.5,7.1-4.5c2.9,0,7,1.3,9.2,2.9c0.8,0.6,1.4,0,1.6-0.5l5.3-12.2c0.2-0.5,0-1.5-0.9-1.5
		h-24.8c-6.8,0-12.8,5.9-12.8,13.1c0,14.4,18.6,11.8,18.6,21.6c0,3.8-3,7-7.2,7c-8.2,0-11.7-5.5-12.1-8.7c-0.1-0.6-0.9-1-1.4-0.8
		l-3.4,1.4c-0.7,0.3-0.8,1.2-0.4,1.6c0.6,0.7,0.9,1.4,0.9,2.6c0,2.2-1.8,4.1-4.1,4.1c-2.4,0-4.1-2-4.1-4.1v-71.5
		c0-0.6-0.4-1.3-1-1.3h-19.8c-0.6,0-1.3,0.7-1.3,1.3v2.5C183,195.4,183.7,195.7,184.2,195.8z"/>
	<path fill="#656565" d="M465.8,226h-16.5c-0.7,0-1.1,0.5-1.2,1.1c-0.3,1.8-1,3.1-2.6,3.1c-2.6,0-5-5.7-15.5-5.7
		c-12.8,0-23.3,12.2-23.3,27.1c0,15,10.5,27.1,23.3,27.1c9.8,0,11.5-4.9,13.2-4.9c1.2,0,1.8,0.7,1.8,1.8v10c0,7.1-5,12.3-11.7,12.3
		c-6.7,0-12.1-4.7-12.1-11.2c0-0.7-0.6-0.8-1-0.8h-3.9c-0.5,0-1,0.1-1,0.8c0,6.5-11.2,25.7-49.9,25.7c-45.8,0-84.7-27.7-140.5-27.7
		c-28.5,0-68.9,12.2-96.7,35.8c-0.6,0.5-0.3,1.3,0.2,1.6l42.1,23c0.7,0.4,1.1,0.2,1.6-0.3c22.6-22.7,44.3-31.7,77.3-31.7
		c24,0,70.1,13.4,97.3,13.4c49.3,0,66.3-20,71.5-29.4c3.9,6.6,11.6,10.6,20.2,10.6c12.7,0,23.5-10.2,23.5-23v-52.4
		c0-0.6,0.4-0.9,0.8-1l3.1-0.9c0.4-0.1,1.1-0.5,1.1-1v-2.5C467,226.6,466.3,226,465.8,226z M445,260c0,3.4-4.7,6.8-9,6.8
		c-8,0-13.1-6.4-13.1-15.3c0-8.9,5.1-15.1,13.1-15.1c4.3,0,9,3.4,9,6.8V260z"/>
	<path fill="#656565" d="M257,195.8l3.1,0.9c0.5,0.1,0.9,0.5,0.9,1v62.2c0,10.5,7.5,18.1,19.6,18.1h8.2c8.7,0,14.3-6.9,14.3-15v-9.5
		c2,1.5,5.5,3,8.6,3.9c2.6,12.3,13.5,21.3,26.4,21.3c13.7,0,20.5-9.3,22-12.7c1.5-3.5-1.7-4.2-3.1-2.5c-3,3.9-7.2,5.9-12.9,5.9
		c-9.7,0-14.5-8-14.5-10.1c15.6,0,25.7-8.5,25.9-19.7c2.9-2,5.8-3.9,7.9-3.9c2.3,0,3.7,1.3,3.7,4.1v36.2c0,0.6,1.3,1.9,1.8,1.9h19.8
		c0.6,0,1.4-1.3,1.4-1.9v-2.5c0-0.6-0.8-0.9-1.2-1l-3.5-0.9c-0.4-0.1-1.3-0.5-1.3-1v-31.2c0-2.5,2.6-4.4,5.1-4.4
		c4.2,0,3.5,4.4,9.9,4.4c5.5,0,12.1-5.6,12.1-16.1c0-6.4-3.1-12.1-9.4-15.8c-2.5-1.4-4.6,1.6-2.7,3.2c2.9,2.4,5.9,6.5,5.9,9.1
		c0,2.7-2.2,4.6-4,4.6c-4.2,0-7-5.1-11.9-5.1c-2.7,0-5.2,2.3-5.2,4.8c0,1.3,0.7,2.4,0.7,3.8c0,1.1-0.9,2.2-2,2.2
		c-3.3,0-3.3-5.6-10.1-5.6c-6,0-13.5,4.9-18.4,8.7c-2.4-4.8-7.6-8.7-15.9-8.7c-14.8,0-26.6,11.6-27.1,26.2c-2.8-1.2-6-2.9-8-4.3
		v-19.3c0-0.6-0.4-1.1-1-1.1h-14.8c-0.6,0-0.3,0.6-0.3,1.1v14.2c0,1.4,0.5,2.1,1.4,2.6l6.6,4.1v13.7c0,5.4-4.6,6.8-8.5,6.8
		c-3.5,0-8.5-2.2-8.5-7.2v-69.1c0-0.6-0.6-1.3-1.2-1.3H257c-0.6,0-1,0.7-1,1.3v2.5C256,195.4,256.6,195.7,257,195.8z M340.3,234.7
		c4.8,0,5.2,3.8,5.2,5.2c0,4.3-5.9,13.1-16.9,13.1C328.6,241.5,334.6,234.7,340.3,234.7z"/>
	<path fill="#656565" d="M369.2,176.2c2.1,1.7,3,4.3,2.7,6.8c-0.1,0.7,0,1.4,0.4,2c0.9,1.5,2.8,2,4.2,1.1l4.1-2.4
		c1.1-0.6,2.5-0.3,3.2,0.9c0.6,1.1,0.3,2.5-0.9,3.2l-4.1,2.4c-1.5,0.9-2,2.8-1.1,4.3c0.4,0.6,0.9,1.1,1.5,1.3c2.4,1,4.2,3.1,4.5,5.7
		c0.3,2.2,2.3,4,4.6,4c2.3,0,4.3-1.7,4.6-4c0.4-2.6,2.2-4.8,4.6-5.7c0.6-0.2,1.2-0.7,1.5-1.3c0.9-1.5,0.4-3.4-1.1-4.3l-4.1-2.4
		c-1.1-0.6-1.5-2.1-0.9-3.2c0.6-1.1,2.1-1.5,3.2-0.9l4.1,2.4c1.5,0.9,3.4,0.3,4.2-1.1c0.4-0.6,0.5-1.3,0.4-2
		c-0.4-2.5,0.6-5.2,2.7-6.8c1.8-1.4,2.3-3.9,1.1-6c-1.2-2-3.6-2.8-5.7-2c-2.5,1-5.2,0.5-7.2-1.1c-0.5-0.4-1-0.7-1.8-0.7
		c-1.7,0-3,1.4-3,3.1v4.7c0,1.3-1.2,2.3-2.5,2.3c-1.3,0-2.5-1-2.5-2.3v-4.7c0-1.7-1.4-3.1-3.1-3.1c-0.7,0-1.4,0.3-1.9,0.7
		c-2,1.6-4.8,2-7.2,1.1c-2.1-0.8-4.6,0-5.7,2C366.9,172.3,367.4,174.8,369.2,176.2z"/>
	<path fill="#656565" d="M142.1,283.8c-9.3,8.6-22.6,13.9-36.2,13.9c-28.7,0-52.8-23.7-52.8-52.3c0-23.7,19-47.5,42.8-47.5
		c8.7,0,18,3.5,23.5,9c0.5,0.5,1.2,0.5,1.7-0.1l29.3-38.8c0.6-0.7,0.1-1.8-0.7-1.8H61.8c-0.9,0-1.7,0.6-2.3,1.2
		c-20.2,18.2-33.5,42-33.5,69.3c0,40.4,32.3,71.8,70.3,71.8c19,0,36.9-8.4,49.4-20.9C148.6,284.6,145.1,281,142.1,283.8z"/>
</g>
</svg>
