<?xml version="1.0" encoding="utf-8"?>
<!-- Generator: Adobe Illustrator 18.0.0, SVG Export Plug-In . SVG Version: 6.00 Build 0)  -->
<!DOCTYPE svg PUBLIC "-//W3C//DTD SVG 1.1//EN" "http://www.w3.org/Graphics/SVG/1.1/DTD/svg11.dtd">
<svg version="1.1" id="Layer_1" xmlns="http://www.w3.org/2000/svg" xmlns:xlink="http://www.w3.org/1999/xlink" x="0px" y="0px"
	 viewBox="0 0 512 512" enable-background="new 0 0 512 512" xml:space="preserve">
<g>
	<path fill="#646469" d="M249,307.2c0,9.9,0,19.9,0,29.8c0,9.9,0,19.7,0,29.6c0-9.9,0-19.7,0-29.6C249,327,249,317.1,249,307.2z"/>
	<path fill="#646469" d="M485.6,320.2c-2.1-8.7-10.2-15-19.3-15c-9.4,0-18.4,0-27.8,0c-1.7,0-1.5,0.1-1.5,1.8c0,20,0,40,0,60
		c0,0.3-0.3,0.5-0.3,0.8c0.1,0.8,0.1,1.1,0.9,1.1c2.3,0,4.5,0,6.7,0c0.7,0,1.2-0.3,1.3-1c0-0.3,0.3-0.6,0.3-0.9c0-7.7,0-15.4,0-23.1
		c0-9.8-0.4-19.6-0.4-29.4c0-0.4-0.1-0.9-0.1-1.3c0.3,0,0.3-0.1,0.5-0.1c6.2,0,12.3,0,18.5,0c3.2,0,6.1,1.2,8.5,3.2
		c5.6,4.7,5.5,12.8-0.1,17.4c-2.5,2.1-5.4,3.1-8.7,3.2c-3.4,0-6.7,0-10.1,0c-0.4,0-0.7,0-1.2,0.1c0.3,0.4,0.5,0.8,0.7,1.1
		c1.9,2.7,3.8,5.5,5.7,8.2c4.9,7.1,9.8,14.2,14.6,21.3c0.6,0.9,1.4,1.4,2.6,1.4c2.4-0.1,4.8,0,7.1,0c0.4,0,0.8,0,1.2-0.1
		c0.4-0.8-0.1-1.3-0.5-1.8c-4.9-7.1-9.8-14.2-14.7-21.2c-0.3-0.4-0.5-0.7-0.8-1.2c1.2-0.3,2.4-0.5,3.4-0.9c6.9-2.4,11.4-7,13.4-14.1
		c0.2-0.6,0.3-1.2,0.4-1.7c0-2,0-4,0-6C485.9,321.3,485.7,320.7,485.6,320.2z"/>
	<path fill="#646469" d="M68.8,259.5c3.7-1.1,7.1-2.7,10.1-5.1c0.9-0.7,1-1.1,0.3-2c-1.1-1.6-2.2-3.2-3.3-4.8
		c-0.5-0.7-0.9-0.8-1.7-0.4c-0.8,0.5-1.6,1-2.4,1.5c-5,3.1-10.5,4.1-16.3,3.2c-13.2-2.1-22.1-14.6-20-27.6
		c2.7-16.5,21.4-26.3,36.8-16.6c0.6,0.4,1.3,0.9,1.9,1.3c0.7,0.5,1.2,0.4,1.7-0.3c1.2-1.8,2.4-3.6,3.5-5.4c0.4-0.6,0.3-1-0.3-1.5
		c-0.8-0.6-1.7-1.1-2.6-1.7c-7.2-4.5-15.1-5.8-23.4-4.3c-13.8,2.5-24.8,14.2-26.6,28.1c-0.1,0.5-0.3,1-0.4,1.5c0,1.7,0,3.4,0,5.1
		c0.1,0.5,0.3,1,0.4,1.5c0.3,1.5,0.5,3,0.9,4.4C31.9,253.9,50.2,264.9,68.8,259.5z"/>
	<path fill="#646469" d="M263.6,111.1c2.5-3.2,3-6.9,1.8-10.8c-1.2-3.9-3.7-6.5-7.9-7.2c-0.1,0-0.3-0.2-0.4-0.2c-0.5,0-0.9,0-1.4,0
		c-0.2,0-0.4,0.2-0.6,0.2c-2.2,0.4-4.1,1.5-5.5,3.3c-3.5,4.1-3.5,10.7,0,14.9C253.4,116,259.9,115.9,263.6,111.1z"/>
	<path fill="#646469" d="M87.6,397.4c-6-0.5-11.1,3.9-11.8,9.5c-0.7,5,2.5,10.6,8.6,11.9c0.3,0.1,0.5,0.3,0.8,0.3c1,0,2,0,3,0
		c0.3,0,0.6-0.2,0.9-0.3c5.3-1.2,8.9-6,8.5-11.4C97.1,402.2,92.8,397.8,87.6,397.4z M86.7,416.2c-4.4,0-8.1-3.6-8.1-8
		c0-4.4,3.6-8.1,8-8.1c4.3,0,7.9,3.6,7.9,8C94.6,412.5,91.1,416.2,86.7,416.2z"/>
	<path fill="#646469" d="M380.6,397.5c-4.9,0.9-8.7,5.1-8.9,9.9c-0.3,5.1,2.9,9.6,7.8,11.1c0.5,0.2,1.1,0.5,1.7,0.5c1,0,2,0,3,0
		c0.3,0,0.6-0.2,0.9-0.3c4.8-1.1,8.6-5.3,8.5-10.7C393.3,401.3,387.2,396.4,380.6,397.5z M382.6,416.2c-4.4,0-8.1-3.7-8-8.1
		c0.1-4.4,3.7-8,8-8c4.4,0,8,3.7,8,8.1C390.6,412.6,387,416.2,382.6,416.2z"/>
	<path fill="#646469" d="M298.9,409.1c0-1.1-0.1-1.1-1.1-1.1c-2.3,0-4.6,0-6.8,0c-0.3,0-1,0.1-1,0.1c0,0.9,0,1.9,0,2.9c2,0,4,0,6,0
		c0,0,0,1.4,0,2.1c0.1,0.7-0.2,1.1-0.8,1.5c-2.2,1.5-4.6,2-7.2,1.3c-3.1-0.9-5-3.1-5.6-6.2c-0.6-3.3,0.6-6.1,3.4-8
		c2.7-1.8,5.5-1.8,8.4-0.3c0.4,0.2,0.8,0.5,1.3,0.8c0.5-0.8,1-1.6,1.5-2.4c-2.7-2-5.4-2.7-8.6-2.2c-5.1,0.8-8.9,5-9.1,10.3
		c-0.2,5.8,3.8,9.6,7.9,10.7c0.5,0.1,0.9,0.4,1.4,0.4c1,0,2,0,3,0c0.3,0,0.5-0.2,0.8-0.2c1.6-0.3,3-1,4.3-1.9
		c1.5-1.1,2.3-2.5,2.3-4.4C298.9,411.3,298.9,410.2,298.9,409.1z"/>
	<path fill="#646469" d="M438.8,398c-0.9,0-1.8,0-2.8,0c0,0-0.1,0.8-0.1,1.2c0,3.4,0,6.8,0,10.3c0,0.7,0,1.3-0.1,1.9
		c-0.3,2.7-1.9,4.3-4.5,4.7c-0.8,0.1-1.7,0.1-2.5-0.1c-2-0.3-3.4-1.5-3.9-3.4c-0.3-0.9-0.3-1.8-0.3-2.7c0-3.6,0-7.1,0-10.7
		c0-0.4,0-1.2-0.1-1.2c-1,0-2.5,0-3.5,0c0,0,0,0.6,0,1c0,2.3,0.3,4.5,0.3,6.8c0,1.8,0.1,3.6,0.2,5.4c0.2,4,2.5,6.7,6.5,7.6
		c0.2,0,0.4,0.2,0.6,0.2c1.2,0,2.3,0,3.5,0c0.3,0,0.6-0.2,1-0.3c3-0.8,4.9-2.6,5.6-5.6c0.2-0.9,0.3-1.9,0.3-2.8c0-3.8,0-7.5,0-11.2
		C438.9,398.6,438.8,398,438.8,398z"/>
	<path fill="#646469" d="M430.6,259.9c1.6,0,3.1,0,4.7,0c2.2,0,2.2,0,2.2-2.2c0-15.1,0-30.2,0-45.3c0-0.4,0-0.8,0-1.4
		c0.4,0.5,0.7,0.8,0.9,1c8,10.1,16,20.1,23.9,30.2c4.4,5.6,8.9,11.2,13.3,16.8c0.6,0.7,1.2,1.1,2.1,1c1.5-0.1,2.8,0,4.2,0
		c2.1,0,2,0,2-2.1c0-19.9,0-39.7,0-59.6c0-0.3,0.1-0.5,0.1-0.8c0-1.1-0.2-1.3-1.3-1.3c-1.6,0-3.2,0-4.8,0c-2,0-2,0-2,2
		c0,15,0,30,0,45.1c0,0.5,0,0.9,0,1.4c0,0-0.2,0.1-0.3,0.1c-0.3-0.3-0.6-0.7-0.9-1c-6.1-7.6-12.1-15.2-18.2-22.9
		c-6.2-7.9-12.5-15.7-18.7-23.6c-0.6-0.8-1.3-1.2-2.3-1.1c-1.5,0.1-3.2,0-4.7,0c-1.7,0-1.9,0.1-1.9,1.8c0,0.1,0,0.2,0,0.3
		c0,19.9,0,39.7,0,59.6c0,0.2,0.1,0.5,0.1,0.7C429.1,259.7,429.5,259.9,430.6,259.9z"/>
	<path fill="#646469" d="M337.4,325.8c-4.7-12.2-17.1-20.6-30.5-20.7c-7.5,0-15.3,0-22.8,0c-1.8,0-2.2,0.1-2.2,2c0,10,0,19.9,0,29.9
		c0,9.9,0,19.8,0,29.8c0,0.3,0.2,0.6,0.3,0.9c0.1,0.9,0.4,1.1,1.3,1.2c0.2,0,0.4,0,0.6,0c7.5,0,15.1,0,22.6,0
		c5.4,0,10.6-1.3,15.4-3.7C337.4,357.2,342.9,340.1,337.4,325.8z M313.6,359.4c-2.1,0.6-4.2,1-6.4,1c-4.9,0-10.1,0-15,0
		c-0.3,0-0.1,0-1.1-0.1c0-15.6,0-31.1,0-46.6c1,0,0.8-0.1,1.1-0.1c4.9,0,10,0,14.9,0c11.5,0.1,21.6,8.9,23.1,20.3
		C331.7,345.6,324.5,356.1,313.6,359.4z"/>
	<path fill="#646469" d="M378.1,260.8c1.9,0,4.2-0.2,6.5-0.7c17.4-3.7,29.1-20.6,25.5-38.4c-2.9-14.6-15.7-25.7-30.5-26.4
		c-7.3-0.4-14,1.4-20.1,5.4c-11.8,7.7-17.5,22.2-13.9,35.6C349.5,250.7,362.6,260.7,378.1,260.8z M377.7,203.7
		c13.3,0,24.3,11,24.3,24.3c0,13.4-11,24.4-24.3,24.4c-13.4,0-24.4-11-24.4-24.4C353.3,214.7,364.3,203.7,377.7,203.7z"/>
	<path fill="#646469" d="M389.2,304.2c-8.3-0.5-15.8,1.8-22.4,6.9c-13.4,10.2-16.8,28.8-8,43c7.2,11.6,21,17.7,34.7,15
		c15.3-2.9,26.6-16.5,26.7-32c-0.2-2-0.3-4-0.7-5.9C416.9,316.5,404.1,305.1,389.2,304.2z M387.1,361.3c-13.4,0-24.4-10.9-24.4-24.2
		c0-13.5,11-24.5,24.4-24.5c13.3,0,24.2,11,24.3,24.4C411.4,350.3,400.4,361.3,387.1,361.3z"/>
	<path fill="#646469" d="M164.8,259.9c1.8,0,3.5,0,5.3,0c2,0,1.9,0,1.9-2.1c0-17.4,0-34.8,0-52.2c0-0.5,0-1,0-1.5c0,0,0.7-0.1,1-0.1
		c6.1,0,12.2,0,18.2,0c3.5,0,6.6,1.3,9.2,3.7c4.8,4.5,4.9,11.6,0.2,16.2c-2.6,2.6-5.7,3.9-9.4,3.9c-3.4,0-6.9,0-10.3,0
		c-0.3,0-0.6,0-1.1,0.1c0.2,0.4,0.4,0.6,0.5,0.9c6.8,9.9,13.7,19.9,20.5,29.8c0.6,0.9,1.3,1.3,2.4,1.3c2.5,0,4.9,0,7.4,0
		c0.2,0,0.5,0,0.7,0c0.5-0.1,0.7-0.4,0.5-0.8c-0.2-0.4-0.4-0.7-0.7-1.1c-4.9-7.1-9.8-14.1-14.7-21.1c-0.2-0.3-0.5-0.7-0.7-1.1
		c1.4-0.4,2.6-0.6,3.8-1c11.6-3.9,17.1-17.1,11.4-27.8c-3.8-7.1-9.9-10.6-17.9-10.8c-9.2-0.1-18.6,0-27.8,0c-2,0-2.2,0.1-2.2,2.1
		c0,19.4,0,38.7,0,58.1c0,0.7,0.2,1.5,0.2,2.2C163.2,259.7,163.6,259.9,164.8,259.9z"/>
	<path fill="#646469" d="M77.6,368.8c0.8-0.1,1-0.4,0.6-1.1c-0.2-0.3-0.4-0.6-0.6-1c-4.9-7-9.7-14-14.6-21.1
		c-0.2-0.3-0.4-0.7-0.7-1.1c0.7-0.1,1.2-0.2,1.8-0.4c11.5-2.4,18.4-14.5,14.6-25.6c-2.7-8-10.3-13.5-18.8-13.5c-9.3,0-18.6,0-27.9,0
		c-1.9,0-1.9,0-1.9,2c0,19.9,0,39.8,0,59.7c0,0.2,0,0.5,0,0.7c0,1.1,0.2,1.3,1.3,1.4c1.8,0,3.7,0,5.5,0c2.1,0,2.2,0,2.2-2.1
		c0-17.4,0-34.8,0-52.2c0-0.5,0-1,0-1.5c0,0,0.3-0.1,0.5-0.1c6.2,0,12.4-0.1,18.6,0c3.2,0,6,1.2,8.5,3.3c5.6,4.8,5.5,12.8-0.2,17.4
		c-2.5,2-5.4,3.2-8.6,3.2c-3.4,0-6.8,0.1-10.1,0.1c-0.4,0-0.7,0-1.4,0c0.4,1,0.6,0.9,0.9,1.2c2.8,4.1,5.7,8.2,8.5,12.3
		c3.9,5.7,7.8,11.3,11.7,17c0.6,0.9,1.4,1.4,2.6,1.4c2.4-0.1,4.8,0,7.1,0C77.2,368.8,77.4,368.9,77.6,368.8z"/>
	<path fill="#646469" d="M148.9,361c-11.4,0-22.8,0-34.1,0c-0.4,0-0.8,0-1.8,0c0-7,0-13,0-21c1,0,1.4,0,1.8,0c3.3,0,6.7,0,10,0
		c6.4,0,12.8,0,19.2,0c1.9,0,1,0.8,1-1.2c0-1.3,0-2.6,0-3.9c0-2,0.9-1.9-1.2-1.9c-9.7,0-19.3,0-29,0c-0.4,0-0.9,0-1.9,0
		c0-7,0-13,0-20c1,0,1.4,0,1.9,0c8.4,0,16.7,0,25.1,0c3.1,0,6.2,0,9.3,0c1.5,0,1.6-0.1,1.6-1.5c0-1.6,0-3.2,0-4.8
		c0-1.3-0.2-1.5-1.5-1.5c-0.2,0-0.5-0.1-0.7-0.1c-14.1,0-28.1,0-42.2,0c-2,0-2.5,0.2-2.5,2.2c0,19.9,0,39.7,0,59.6
		c0,0.3,0.2,0.6,0.3,0.9c0.1,0.9,0.4,1.2,1.3,1.3c0.3,0,0.7,0.1,1,0.1c7.7,0,15.5,0,23.2,0c6.5,0,13-0.1,19.5-0.1
		c1.3,0,1.5-0.2,1.5-1.5c0-1.5,0-3,0-4.5C150.9,361,150.9,361,148.9,361z"/>
	<path fill="#646469" d="M222.9,361c-11.2,0-22.3,0-33.5,0c-0.4,0-0.8,0-1.4,0c0.3-0.5,0.6-0.9,0.8-1.2
		c11.3-17.3,22.5-34.6,33.8-51.9c0.3-0.4,0.5-0.8,0.7-1.2c0.5-0.9,0.1-1.5-0.9-1.6c-0.3,0-0.5-0.1-0.8-0.1c-15.1,0-30.3,0-45.4,0
		c-0.2,0-0.5,0.1-0.7,0.1c-1,0-1.3,0.3-1.3,1.4c0,1.7,0,3.4,0,5.1c0,1.3,0.2,1.5,1.5,1.5c0.3,0,0.5,0,0.8,0c10.2,0,20.3,0,30.5,0
		c0.5,0,0.9,0,1.7,0c-0.4,1-0.7,1.1-1,1.5c-11.2,17.3-22.4,34.6-33.6,51.9c-0.2,0.3-0.4,0.6-0.6,1c-0.4,0.8-0.1,1.5,0.8,1.5
		c0.3,0,0.7,0.1,1,0.1c15.8,0,31.6,0,47.4,0c0.2,0,0.5-0.1,0.7-0.1c1.1,0,1.3-0.3,1.3-1.3c0-1.6,0-3.2,0-4.7
		C224.8,361,224.7,361,222.9,361z"/>
	<path fill="#646469" d="M284.2,211.1c-0.4,5.2,1.2,9.6,5.3,13c1.4,1.2,3.1,2.2,4.7,3.1c3.3,1.8,6.9,3,10.5,4.1
		c2.8,0.9,5.5,1.8,8.3,2.7c1.5,0.5,2.8,1.2,4,2.2c1.4,1.1,2.3,2.5,2.6,4.3c0.6,4.3-1.1,8.6-5.9,10.5c-1.6,0.7-3.4,1-5.1,1.2
		c-6.3,0.6-12.1-0.8-17.1-4.9c-0.2-0.2-0.5-0.4-0.7-0.6c-0.6-0.4-1-0.3-1.5,0.2c-1.4,1.7-2.7,3.4-4.1,5.1c-0.6,0.8-0.5,1.2,0.3,1.8
		c1.4,1,2.8,1.9,4.2,2.8c5.1,2.9,10.6,3.9,16.7,3.9c2.1,0,4.6-0.1,7-0.7c1.7-0.4,3.4-0.9,5-1.6c7-3.2,10.4-8.8,10.5-16.4
		c0-5-2-9.2-5.9-12.3c-1.3-1-2.7-2-4.2-2.7c-2.2-1.1-4.5-2-6.8-2.8c-3.6-1.3-7.4-2.4-11-3.7c-1.6-0.6-3.1-1.4-4.5-2.3
		c-1.4-0.9-2.4-2.2-2.8-3.8c-0.9-3.8,0.4-6.9,3.4-8.5c0.8-0.5,1.7-0.9,2.6-1.1c4.4-1.2,8.8-1.4,13.3-0.2c2.6,0.7,5,1.9,7.2,3.4
		c0.8,0.6,1.2,0.5,1.7-0.2c1.2-1.8,2.4-3.6,3.6-5.5c0.5-0.8,0.4-1.1-0.4-1.6c-0.2-0.1-0.4-0.2-0.6-0.4c-5.8-3.6-12.1-5.1-18.9-4.8
		c-4.1,0.1-8.1,0.7-11.9,2.4C288,200.4,284.6,204.7,284.2,211.1z"/>
	<path fill="#646469" d="M92.8,259.9c2,0,4.1,0,6.1,0c0.7,0,1.2-0.3,1.4-1c0.2-0.4,0.3-0.7,0.4-1.1c1.5-4.1,3-8.4,4.6-12.5
		c0.1-0.4,0.3-0.3,0.4-1.3c8.7,0,17.3,0,26,0c0.4,1,0.7,2.2,1.1,3.2c1.4,3.7,2.7,7.4,4.1,11.1c0.5,1.4,0.8,1.6,2.2,1.6
		c1.2,0,2.5,0,3.7,0c0.8,0,1.5,0,2.3,0c1.1-0.1,1.5-0.7,1.2-1.7c-0.1-0.3-0.2-0.6-0.3-0.9c-6.6-17.2-13.3-34.4-19.9-51.5
		c-1.1-2.9-2.2-5.7-3.3-8.6c-0.5-1.3-0.8-1.5-2.2-1.5c-1.1,0-2.1,0-3.2,0c-1.3,0-1.5,0.1-2,1.4c-6.8,17.6-13.7,35.3-20.5,52.9
		c-1,2.6-2,5.2-3,7.8C91.2,259.1,91.6,259.9,92.8,259.9z M118.5,210.1c0.1,0,0.1,0,0.2,0c3.4,9.1,6.8,18.2,10.2,27.3
		c-0.9,0.3-18.8,0.3-20.6,0.1C111.8,228.3,115.1,219.2,118.5,210.1z"/>
	<path fill="#646469" d="M483.2,283.7c0.7-0.1,1.1-0.7,1.1-1.4c0-0.6-0.5-1.2-1.1-1.2c-0.4,0-0.8-0.1-1.3-0.1
		c-74.9,0-149.7,0-224.6,0c-74.9,0-149.8,0-224.7,0c-0.4,0-0.8,0.1-1.3,0.1c-0.7,0-1.2,0.5-1.2,1.2c0,0.7,0.5,1.4,1.2,1.5
		c0.5,0,0.9,0.3,1.4,0.3c76.2,0,152.5,0,228.7,0c73.4,0,146.9,0,220.3,0C482.3,284,482.8,283.8,483.2,283.7z"/>
	<path fill="#646469" d="M234.6,260c0.3,0,0.5,0,0.8,0c11,0,22,0,33,0c0.3,0,0.5,0,0.8,0c1.1,0,1.3-0.2,1.4-1.4c0-1.7,0-3.5,0-5.2
		c0-1.1-0.2-1.4-1.3-1.4c-0.3,0-0.6,0-0.9,0c-8.2,0-16.5,0-24.7,0c-0.4,0-0.6,0-0.6,0s0-1.2,0-1.7c0-17.3,0-34.6,0-51.8
		c0-0.3-0.4-0.7-0.5-1c0-1.1-0.5-1.3-1.5-1.3c-1.8,0-3.4,0-5.2,0c-2,0-1.8,0-1.8,2.1c0,19.9,0,39.8,0,59.7c0,0.2-0.4,0.5-0.4,0.7
		C233.6,259.7,233.5,259.9,234.6,260z"/>
	<path fill="#646469" d="M256.3,305.1c-1.8,0-3.6,0-5.4,0c-2,0-1.9,0-1.9,2.1c0,9.9,0,19.9,0,29.8c0,9.9,0,19.7,0,29.6
		c0,0.3-0.1,0.7-0.1,1c0,1.1,0.2,1.3,1.2,1.3c1.8,0,3.8,0,5.7,0c2,0,2.2,0,2.2-2.1c0-19.9,0-39.7,0-59.6c0-0.3-0.2-0.5-0.2-0.8
		C257.8,305.4,257.4,305.1,256.3,305.1z"/>
	<path fill="#646469" d="M287.4,155.4c0-0.1,0.1-0.1,0.1-0.2c-1.6-0.7-2.4-2.1-3.2-3.5c-2.7-4.5-5.4-8.9-8.2-13.3
		c-2.1-3.3-5.1-5.2-9.1-5.4c-1.6-0.1-3.3-0.1-4.9,0c-0.8,0-1.6,0.2-2.3,0.5c-1.3,0.5-1.8,1.5-1.4,2.9c0.2,0.5,0.4,1.1,0.7,1.6
		c2.5,4.1,4.9,8.3,7.5,12.4c1.9,3,4.6,4.9,8.2,5C279,155.5,283.2,155.4,287.4,155.4z"/>
	<path fill="#646469" d="M252.6,133.6c-0.7-0.3-1.5-0.4-2.3-0.5c-1.7-0.1-3.4,0-5.2,0c-0.5,0-1,0.1-1.5,0.1
		c-3.3,0.6-5.7,2.5-7.5,5.3c-2.7,4.4-5.4,8.8-8.1,13.2c-0.8,1.4-1.6,2.8-3.1,3.7c0.4,0,0.7,0,1.1,0c3.4,0,6.9,0,10.3,0
		c4.3,0,7.4-1.9,9.6-5.4c2.4-3.9,4.7-7.8,7-11.7c0.4-0.6,0.7-1.3,0.9-2C254.4,135.1,253.9,134,252.6,133.6z"/>
	<path fill="#646469" d="M259.2,125.1c-0.4,0.6-0.7,1.2-0.8,1.9c-0.3,1.2,0.1,2.2,1.3,2.6c0.7,0.3,1.5,0.4,2.3,0.5
		c1.1,0.1,2.3,0,3.4,0c0.9,0,1.8,0,2.7-0.2c3.3-0.6,5.8-2.4,7.6-5.2c2.5-3.9,5-7.9,7.5-11.8c0.9-1.4,1.7-2.9,3.3-3.5
		c0-0.1-0.1-0.1-0.1-0.2c-3.6,0-7.3,0-10.9,0c-4.2,0-7.4,1.8-9.6,5.2C263.5,117.9,261.4,121.5,259.2,125.1z"/>
	<path fill="#646469" d="M228.9,112.6c2.6,4.1,5.1,8.2,7.8,12.2c1.7,2.7,4.1,4.5,7.3,5.1c2.5,0.5,5,0.3,7.6,0.1c0.5,0,1-0.3,1.4-0.5
		c1-0.5,1.4-1.4,1.1-2.5c-0.2-0.7-0.5-1.4-0.9-2c-2.2-3.5-4.3-7.1-6.6-10.5c-2.2-3.4-5.4-4.9-9.5-4.9c-3.3,0-6.6,0.3-9.9,0.3
		c-0.3,0-0.7,0-1,0c0,0-0.1-0.2-0.1-0.1C227.4,110.6,228.2,111.4,228.9,112.6z"/>
	<path fill="#646469" d="M281.2,137.1c2.3,2.3,5.1,3.3,8.3,3.3c2.8,0,5.3-0.9,7.4-2.5c4.6-3.7,4.6-10.1,0.1-13.8
		c-4.4-3.6-11.3-3.4-15.4,0.5C277.8,128.1,277.7,133.5,281.2,137.1z"/>
	<path fill="#646469" d="M249.9,168c3.7,4,9.5,4,13.2-0.1c2-2.2,2.9-4.8,2.9-7.3c0-3.5-0.9-6.1-2.9-8.3c-3.6-4-9.4-4-13.1,0
		C246,156.6,246,163.8,249.9,168z"/>
	<path fill="#646469" d="M231.5,137.5c3.5-3.6,3.5-8.8,0-12.4c-2.2-2.2-5-3.2-8.1-3.3c-3.1,0.1-5.9,1-8.2,3.2
		c-3.6,3.5-3.7,8.9-0.1,12.5C219.4,141.9,227.2,141.9,231.5,137.5z"/>
	<path fill="#646469" d="M344.3,402c-0.9-2.6-3.4-4.3-6.4-4.4c-2.8,0-5.8,0-8.7,0c-0.3,0-0.2,0.1-1.2,0.1c0,7,0,13.9,0,20.9
		c2,0.1,3,0.2,3-0.1c0-2.6,0-5.1,0-7.8c1,0,2.3,0,3.3,0c0.7,0,1.2,0.2,1.7,0.8c1.4,2.1,2.9,4.2,4.4,6.4c0.2,0.3,0.4,0.7,0.7,0.7
		c1,0.1,2.1,0.2,3.4,0c-1.9-2.7-3.6-5.2-5.4-7.8c0.5-0.1,0.8-0.2,1.1-0.3C343.6,409.3,345.5,405.4,344.3,402z M337.6,408.1
		c-2.1,0-4.6,0-6.6,0c0-2.6,0-5.1,0-7.7c0,0,0.6-0.1,0.8-0.1c1.8,0,3.7,0,5.6,0c1,0,1.9,0.3,2.7,0.9c2,1.5,2,4.3,0.1,5.9
		C339.4,407.7,338.5,408.1,337.6,408.1z"/>
	<path fill="#646469" d="M167.3,416c-0.2-2-0.2-5,0.1-6c1.1,0,2.3,0,3.4,0c1.2,0,2.5-0.2,3.6-0.3c1.1,0,2.5-0.1,3.5-0.4
		c0-0.8,0-1.3,0-2.3c-1,0-2.6,0-3.8,0c-1.1,0-2.4-0.1-3.6-0.1c-1.2,0-1.6-0.1-3.6-0.1c0-2.2,0-4.8,0-5.8c2,0,3,0,4.3,0
		c1.4,0,3-0.3,4.4-0.4c1.3,0,2.3-0.3,4.3-0.4c0-0.9,0-1.2,0-2.2c-2,0-3.1,0-4.4,0c-1.3,0-2.5,0-3.8,0c-1.3,0-2.7-0.2-4-0.2
		c-1.2,0-2.9-0.3-3.9-0.1c0,7,0,13.3,0,21.3c6,0,10.4,0,15.4,0c0.2-1,0.3-2-0.1-3C175.3,416,171.3,416,167.3,416z"/>
	<path fill="#646469" d="M44,397.8c0,3,0,5.2,0,9.2c-4,0-7,0-11,0c0-4,0-6,0-9c-1,0-1.8,0-2.7,0c-0.2,2-0.2,19.9,0,20.8
		c0.9,0.1,1.7,0.1,2.7-0.2c0-3,0-6,0-8.9c2-0.3,11-0.2,11,0.1c0,1.4,0,2.9,0,4.3c0,1.5,0,3,0,4.6c2,0.1,3,0.2,4-0.1
		c0-6.9,0-13.8,0-20.8C47,397.6,46,397.6,44,397.8z"/>
	<path fill="#646469" d="M477.2,397.7c-2.7-0.1-5.4,0-8.2,0c-0.2,0-0.5,0.3-0.7,0.3c-0.3,2-0.2,20,0.1,21c0.8,0,1.6,0,2.6,0
		c0-3,0-5,0-7.3c1,0,1,0,1.4,0c1.7,0,3.5,0,5.2,0c4.6-0.3,7.7-4.6,6.3-9.1C483.1,399.6,480.5,397.7,477.2,397.7z M477.9,408.9
		c-0.1,0,0.1,0.1,0,0.1c-2.1,0-4.8,0-5.8,0c0-2.9,0-5.7,0-8.6c1,0,3.9-0.1,5.9,0c2.2,0.2,3.5,1.9,3.6,4.1
		C481.6,406.6,480.1,408.4,477.9,408.9z"/>
	<path fill="#646469" d="M122,397.8c0,0.8,0,2.2,0,3.2c3,0,5,0,6,0c0,2,0,5.5,0,8.5c0,3,0.5,6,0.5,9.1c1.1,0.1,2.5,0.2,3.5-0.1
		c0-6.1,0-12.5,0-17.5c2,0,5,0,6,0c0-1,0-2.4,0-3.2C137,397.6,124,397.6,122,397.8z"/>
	<path fill="#646469" d="M210,397.8c-1-0.3-1.9,0-2.7,0.2c-0.2,1.3-0.1,20,0.2,21c4,0,8.5,0,11.5,0c0-1,0-2,0-3c-3,0-5,0-9,0
		C210,410,210,403.8,210,397.8z"/>
</g>
</svg>
