<?xml version="1.0" encoding="utf-8"?>
<!-- Generator: Adobe Illustrator 18.0.0, SVG Export Plug-In . SVG Version: 6.00 Build 0)  -->
<!DOCTYPE svg PUBLIC "-//W3C//DTD SVG 1.1//EN" "http://www.w3.org/Graphics/SVG/1.1/DTD/svg11.dtd">
<svg version="1.1" id="Layer_1" xmlns="http://www.w3.org/2000/svg" xmlns:xlink="http://www.w3.org/1999/xlink" x="0px" y="0px"
	 viewBox="0 0 512 512" enable-background="new 0 0 512 512" xml:space="preserve">
<g>
	<rect x="153.1" y="227.4" fill="#646469" width="10.5" height="8.5"/>
	<polygon fill="#646469" points="11.9,206.2 0,206.2 0,202.7 27.9,202.7 27.9,206.2 16,206.2 16,249.3 11.9,249.3 	"/>
	<path fill="#646469" d="M30.3,202.7h3.9v17h0.1c1-3.5,4.3-5.6,8.4-5.6c5.2,0,8.8,2.7,8.8,9.2v25.9h-3.9v-24.8c0-4.7-1.9-7-5.9-7
		c-4.5,0-7.6,3.5-7.6,8.8v23h-3.9V202.7z"/>
	<path fill="#646469" d="M77.9,237.9c-0.6,7.3-4.6,12.1-11,12.1c-7.2,0-11.5-5-11.5-18c0-11.9,4.3-17.9,11.8-17.9
		c7.6,0,11,5.2,11,16.7v1.4H59.5v1.6c0,9.9,3.5,12.9,7.3,12.9c4.1,0,6.6-2.9,7.2-8.9H77.9z M74.1,229.1c-0.1-8.5-2.5-11.6-7.3-11.6
		c-4.8,0-7.2,3.1-7.3,11.6H74.1z"/>
	<path fill="#646469" d="M110.7,227.5c0-5.1-1.2-7.2-3.9-7.2c-3.5,0-3.9,4.4-3.9,11.6c0,7.9,0.5,11.5,3.9,11.5
		c3.1,0,3.8-2.1,3.9-8.3h9.7c-0.1,10.8-4.3,15.1-13.8,15.1c-13.2,0-14.2-9.2-14.2-19.6c0-9.8,2.8-17.1,14.2-17.1
		c11,0,13.8,5.7,13.8,14.1H110.7z"/>
	<path fill="#646469" d="M122.7,231.9c0-10.5,2.3-18.5,14.4-18.5c12.8,0,14.4,7.8,14.4,18.3c0,10.5-2.3,18.5-14.4,18.5
		C124.3,250.2,122.7,242.4,122.7,231.9 M137.2,220.3c-3.1,0-4,3-4,11.5c0,8.5,0.9,11.6,4,11.6c3.2,0,3.9-2.9,3.9-11.5
		C141.1,223.2,140.4,220.3,137.2,220.3"/>
	<path fill="#646469" d="M165.3,231.9c0-10.5,2.3-18.5,14.4-18.5c12.8,0,14.4,7.8,14.4,18.3c0,10.5-2.3,18.5-14.4,18.5
		C166.9,250.2,165.3,242.4,165.3,231.9 M179.8,220.3c-3.1,0-4,3-4,11.5c0,8.5,0.9,11.6,4,11.6c3.2,0,3.9-2.9,3.9-11.5
		C183.6,223.2,183,220.3,179.8,220.3"/>
	<path fill="#646469" d="M196.2,214.4h10.1v4.3h0.1c0.8-2.4,2.9-5.2,7.6-5.2c7,0,10.8,5,10.8,18.1c0,10.8-1.5,18.7-10.1,18.7
		c-2.9,0-6.1-1-7.8-4.7h-0.1v15.2h-10.5V214.4z M210.3,242.6c3.8,0,4-4.2,4-10.5c0-5.6-0.1-11-4.1-11c-3.1,0-3.7,3.7-3.7,10.5
		C206.5,237.8,206.7,242.6,210.3,242.6"/>
	<path fill="#646469" d="M237.1,233.5v2.1c0,5.4,0.8,8.1,3.8,8.1c2.7,0,3.5-2,3.8-6.4h9.7c-0.2,8.7-4.9,12.9-13.6,12.9
		c-13.2,0-14.2-9.2-14.2-19.6c0-9.8,2.8-17.1,14.2-17.1c13,0,13.9,8.2,13.9,20.1H237.1z M244.7,227.5c0-4.9-0.6-7.6-3.5-7.6
		c-3.4,0-4,2.8-4,7.6H244.7z"/>
	<path fill="#646469" d="M256.9,214.4h10.1v4.9h0.1c1.4-3.1,4-5.8,8.4-5.8c0.5,0,1,0,1.7,0.1v9.8c-1-0.2-1.9-0.3-2.9-0.3
		c-4.2,0-6.9,1.8-6.9,6.3v19.8h-10.5V214.4z"/>
	<path fill="#646469" d="M310.9,221.6h-4.3v-7.2h4.3v-11.6h10.5v11.6h4.8v7.2h-4.8v17.6c0,2.5,0.9,3.2,3.4,3.2c0.5,0,1-0.1,1.5-0.1
		v7c-2,0.3-4,0.4-6,0.4c-7.2,0-9.3-1.3-9.3-9.4V221.6z"/>
	<path fill="#646469" d="M329,202.7h10.5v8H329V202.7z M329,214.4h10.5v34.9H329V214.4z"/>
	<polygon fill="#646469" points="341.7,214.4 352.5,214.4 356.6,240.1 356.7,240.1 360.8,214.4 371.3,214.4 362.6,249.3 
		350.3,249.3 	"/>
	<path fill="#646469" d="M381,233.5v2.1c0,5.4,0.8,8.1,3.8,8.1c2.7,0,3.5-2,3.8-6.4h9.7c-0.2,8.7-4.9,12.9-13.6,12.9
		c-13.2,0-14.2-9.2-14.2-19.6c0-9.8,2.8-17.1,14.2-17.1c13,0,13.9,8.2,13.9,20.1H381z M388.6,227.5c0-4.9-0.6-7.6-3.6-7.6
		c-3.4,0-4,2.8-4,7.6H388.6z"/>
	<path fill="#646469" d="M304.7,241.7v-18c0-7.4-3.8-10.3-12.4-10.3c-4.3,0-7.3,0.6-9.8,2.3c-2.1,1.5-3.5,3.9-3.9,7.6h9.4
		c0.3-2,1.4-3,3.6-3c2.3,0,3.3,1.4,3.3,3.5c0,2.7-0.6,3.2-3.7,4c-2.9,0.8-6.8,1.4-9.4,2.8c-2.6,1.4-4.3,4.9-4.3,8.9
		c0,7.6,3.4,10.7,9.3,10.7c3.5,0,6.8-1.8,8.2-4.9h0.1c0.1,1.4,0.2,2.8,0.6,4h10.1C304.7,247.7,304.7,244.4,304.7,241.7 M294.9,238.2
		c0,3.5-2,4.8-4.2,4.8c-1.9,0-3-1.7-3-4.5c0-1.9,0.5-3,1.6-3.9c1-0.8,2.4-0.8,5.7-2.6C295,233.5,294.9,235.3,294.9,238.2"/>
	<g>
		<path fill="#646469" d="M419.3,217.6h-4.8v-3.3h4.8v-4.1c0-4.8,1-8.4,7.6-8.4c1.2,0,1.8,0.1,2.5,0.2v3.3c-0.6-0.1-1.2-0.2-1.9-0.2
			c-2.9,0-4.3,1.1-4.3,5.1v4.1h6.2v3.3h-6.2v31.6h-3.9V217.6z"/>
		<path fill="#646469" d="M444.2,213.6c7.7,0,12,6.1,12,18.2c0,12.2-4.3,18.3-12,18.3c-7.7,0-12-6.1-12-18.3
			C432.1,219.7,436.5,213.6,444.2,213.6 M444.2,246.8c4.4,0,7.8-3.8,7.8-15c0-11.1-3.4-14.9-7.8-14.9c-4.4,0-7.8,3.8-7.8,14.9
			C436.3,243,439.8,246.8,444.2,246.8"/>
		<path fill="#646469" d="M472.2,213.6c7.7,0,12,6.1,12,18.2c0,12.2-4.3,18.3-12,18.3c-7.7,0-12-6.1-12-18.3
			C460.2,219.7,464.5,213.6,472.2,213.6 M472.2,246.8c4.4,0,7.8-3.8,7.8-15c0-11.1-3.4-14.9-7.8-14.9c-4.4,0-7.8,3.8-7.8,14.9
			C464.4,243,467.8,246.8,472.2,246.8"/>
		<path fill="#646469" d="M508.5,243.5h-0.1c-1.1,4-4.4,6.6-8.5,6.6c-7.7,0-11.2-6.2-11.2-18.3c0-12,3.5-18.2,11.2-18.2
			c4.3,0,7.3,2.4,8.2,6h0.1v-17.3l3.9,0v47l-3.5,0V243.5z M500.4,246.8c4,0,7.6-2,7.6-15c0-12.9-3.6-14.9-7.6-14.9
			c-3.9,0-7.6,2-7.6,14.9C492.8,244.7,496.5,246.8,500.4,246.8"/>
	</g>
	<g>
		<path fill="#646469" d="M244,287.8h-11.7v15h-2.7v-30h2.7v12.8H244v-12.8h2.7v30H244V287.8z"/>
		<path fill="#646469" d="M265.4,295.4c-0.4,4.8-3,7.9-7.2,7.9c-4.7,0-7.5-3.3-7.5-11.7c0-7.7,2.8-11.7,7.7-11.7
			c5,0,7.2,3.4,7.2,10.9v0.9h-12.2v1c0,6.4,2.3,8.4,4.8,8.4c2.7,0,4.3-1.9,4.7-5.8H265.4z M262.9,289.6c-0.1-5.6-1.6-7.6-4.8-7.6
			c-3.1,0-4.7,2-4.8,7.6H262.9z"/>
		<path fill="#646469" d="M269.2,280.5h2.5v3.5h0.1c1-2.5,3-4,5.6-4c0.3,0,0.6,0,0.9,0.1v2.5c-0.4-0.1-0.8-0.1-1.2-0.1
			c-2.8,0-5.4,2-5.4,6.4v14h-2.5V280.5z"/>
		<path fill="#646469" d="M294.2,295.4c-0.4,4.8-3,7.9-7.2,7.9c-4.7,0-7.5-3.3-7.5-11.7c0-7.7,2.8-11.7,7.7-11.7
			c5,0,7.2,3.4,7.2,10.9v0.9h-12.2v1c0,6.4,2.3,8.4,4.8,8.4c2.7,0,4.3-1.9,4.7-5.8H294.2z M291.7,289.6c-0.1-5.6-1.6-7.6-4.8-7.6
			c-3.1,0-4.7,2-4.8,7.6H291.7z"/>
		<path fill="#646469" d="M308.5,282.6h-3.1v-2.1h3.1v-2.6c0-3.1,0.6-5.4,4.9-5.4c0.8,0,1.1,0,1.6,0.1v2.1c-0.4-0.1-0.8-0.1-1.2-0.1
			c-1.8,0-2.7,0.7-2.7,3.3v2.6h4v2.1h-4v20.2h-2.5V282.6z"/>
		<path fill="#646469" d="M323.8,280c4.9,0,7.7,3.9,7.7,11.7c0,7.8-2.8,11.7-7.7,11.7c-4.9,0-7.7-3.9-7.7-11.7
			C316.1,283.9,318.9,280,323.8,280z M323.8,301.2c2.8,0,5-2.4,5-9.6c0-7.1-2.2-9.6-5-9.6c-2.8,0-5,2.4-5,9.6
			C318.8,298.8,321,301.2,323.8,301.2z"/>
		<path fill="#646469" d="M335,280.5h2.5v3.5h0.1c1-2.5,3-4,5.6-4c0.3,0,0.6,0,0.9,0.1v2.5c-0.4-0.1-0.8-0.1-1.2-0.1
			c-2.8,0-5.4,2-5.4,6.4v14H335V280.5z"/>
		<path fill="#646469" d="M352.9,280.5h2.7l5,19.4h0.1l4.5-19.4h2.7l-6.5,24.1c-1.2,4.4-2.5,5.6-5.9,5.6c-0.7,0-1.2,0-1.7-0.1V308
			c0.5,0,1.1,0.1,1.6,0.1c1.6,0,2.6-0.6,3.3-3l0.6-2.1L352.9,280.5z"/>
		<path fill="#646469" d="M376.7,280c4.9,0,7.7,3.9,7.7,11.7c0,7.8-2.8,11.7-7.7,11.7c-4.9,0-7.7-3.9-7.7-11.7
			C369,283.9,371.8,280,376.7,280z M376.7,301.2c2.8,0,5-2.4,5-9.6c0-7.1-2.2-9.6-5-9.6c-2.8,0-5,2.4-5,9.6
			C371.7,298.8,373.9,301.2,376.7,301.2z"/>
		<path fill="#646469" d="M387.9,280.5h2.5v15.7c0,3.6,1.2,5,3.9,5c2.9,0,4.9-2.3,4.9-5.7v-15h2.5v22.3h-2.3v-3.1h-0.1
			c-1.3,2.5-3.5,3.6-5.7,3.6c-3.4,0-5.7-1.8-5.7-6V280.5z"/>
		<path fill="#646469" d="M416.7,282.6h-3.1v-2.1h3.1v-2.6c0-3.1,0.6-5.4,4.9-5.4c0.8,0,1.1,0,1.6,0.1v2.1c-0.4-0.1-0.8-0.1-1.2-0.1
			c-1.8,0-2.7,0.7-2.7,3.3v2.6h4v2.1h-4v20.2h-2.5V282.6z"/>
		<path fill="#646469" d="M432,280c4.9,0,7.7,3.9,7.7,11.7c0,7.8-2.8,11.7-7.7,11.7c-4.9,0-7.7-3.9-7.7-11.7
			C424.3,283.9,427.1,280,432,280z M432,301.2c2.8,0,5-2.4,5-9.6c0-7.1-2.2-9.6-5-9.6c-2.8,0-5,2.4-5,9.6
			C427,298.8,429.2,301.2,432,301.2z"/>
		<path fill="#646469" d="M443.2,280.5h2.5v3.5h0.1c1-2.5,3-4,5.6-4c0.3,0,0.6,0,0.9,0.1v2.5c-0.4-0.1-0.8-0.1-1.2-0.1
			c-2.8,0-5.4,2-5.4,6.4v14h-2.5V280.5z"/>
		<path fill="#646469" d="M464.3,272.8h2.5v30h-2.5V272.8z"/>
		<path fill="#646469" d="M471.3,272.8h2.5v4.3h-2.5V272.8z M471.3,280.5h2.5v22.3h-2.5V280.5z"/>
		<path fill="#646469" d="M479.6,282.6h-3.1v-2.1h3.1v-2.6c0-3.1,0.6-5.4,4.9-5.4c0.8,0,1.1,0,1.6,0.1v2.1c-0.4-0.1-0.8-0.1-1.2-0.1
			c-1.8,0-2.7,0.7-2.7,3.3v2.6h4v2.1h-4v20.2h-2.5V282.6z"/>
		<path fill="#646469" d="M502,295.4c-0.4,4.8-3,7.9-7.2,7.9c-4.7,0-7.5-3.3-7.5-11.7c0-7.7,2.8-11.7,7.7-11.7c5,0,7.2,3.4,7.2,10.9
			v0.9H490v1c0,6.4,2.3,8.4,4.8,8.4c2.7,0,4.3-1.9,4.7-5.8H502z M499.5,289.6c-0.1-5.6-1.6-7.6-4.8-7.6c-3.1,0-4.7,2-4.8,7.6H499.5z
			"/>
	</g>
</g>
</svg>
