<?xml version="1.0" encoding="utf-8"?>
<!-- Generator: Adobe Illustrator 18.0.0, SVG Export Plug-In . SVG Version: 6.00 Build 0)  -->
<!DOCTYPE svg PUBLIC "-//W3C//DTD SVG 1.1//EN" "http://www.w3.org/Graphics/SVG/1.1/DTD/svg11.dtd">
<svg version="1.1" id="Layer_1" xmlns="http://www.w3.org/2000/svg" xmlns:xlink="http://www.w3.org/1999/xlink" x="0px" y="0px"
	 viewBox="0 0 512 512" enable-background="new 0 0 512 512" xml:space="preserve">
<g>
	<path fill="#646469" d="M300.1,310.7c0,0,0.1,0.5,0.1,0.9c0-0.3,0-0.6,0-0.9H300.1z"/>
	<path fill="#646469" d="M323.9,364c1.8,0.1,4.1,0.2,5.1,0.3c0,0,0,0,0,0c0,0,0.3-0.1,0.3-0.1c0,0,0,0-0.1,0
		C327.5,364,325.7,364,323.9,364z"/>
	<path fill="#646469" d="M328.9,338L328.9,338c0,2,0,4.2,0,6.4c0,2.1,0,4,0.1,6c0-2.1,0-4,0-6.1c0-2.2,0-4.4,0-6.6
		c0-6,0-14.5,0.3-19.8c0,0,0,0.1,0,0.1C328.9,323.3,328.9,332,328.9,338z"/>
	<path fill="#646469" d="M345,310.6v0.4c0,0,0,0,0,0c0,0,0-0.2,0-0.2c-0.1,0.9-0.1,1.7-0.2,2.6c0,0.2,0,0.6,0,0.6s0,0,0,0
		c0,0,0-0.3,0-0.6c0-0.8,0.1-1.4,0.2-2.4c-0.1,0-0.1,0-0.1,0c0,0,0,0,0,0c0,0,0,0,0,0s0,0,0,0h0V310.6
		C345,310.7,345,310.7,345,310.6c0,0.1,0.1,0.2,0.1,0.2c0,0,0,0.2,0,0.2c0.1,0,0.1,0,0.1,0l0,0c0,0,0,0,0,0
		C345.2,311,345,310.6,345,310.6L345,310.6C345,310.6,345,310.6,345,310.6C345,310.6,345,310.6,345,310.6z"/>
	<path fill="#646469" d="M345.1,317.3c-0.1-0.9-0.2-1.8-0.2-2.5C344.8,315.5,344.7,316.4,345.1,317.3z"/>
	<path fill="#646469" d="M300.1,317.7c0,0,0.2,0,0.2,0c0,0,0,0,0,0c0.4-0.1,0.8-0.1,1.3-0.2C301.1,317.6,300.6,317.6,300.1,317.7
		C300.1,317.7,300.1,317.7,300.1,317.7z"/>
	<path fill="#646469" d="M329.3,316.7c0,0.3,0,0.6-0.1,0.9C329.2,317.4,329.2,317.1,329.3,316.7z"/>
	<path fill="#646469" d="M316.4,337.6c0-6.4,0-14.1-0.3-20.9C316.4,323.5,316.4,331.2,316.4,337.6c0,0.8-0.1,1.7-0.1,2.5
		C316.4,339.3,316.4,338.5,316.4,337.6L316.4,337.6z"/>
	<path fill="#646469" d="M370,321.4c0,4.3,4.1,6.9,9.2,9.2c2.4,1,4.7,1.9,6.6,2.9c-1.9-0.9-4.1-1.9-6.6-2.9
		C374.1,328.3,370.1,325.7,370,321.4c0.1-1.7,0.7-3.1,1.7-4.3C370.6,318.2,370,319.7,370,321.4C370,321.4,370,321.4,370,321.4z"/>
	<path fill="#646469" d="M379.8,309.5c5.1,0,9.5,1.5,13.6,3.5h0c-1.3,4-2.1,6.4-2.7,8.7c0.6-2.2,1.5-4.9,2.7-8.7c0,0,0,0,0,0
		s0,0.2,0,0.2C389.4,310.8,385,309.6,379.8,309.5c-12.2,0.1-19.8,7.1-19.8,16.2c0,0,0,0,0,0C360,316.6,367.6,309.5,379.8,309.5z"/>
	<path fill="#646469" d="M385.4,352.6C385.4,352.5,385.4,352.5,385.4,352.6c0-4.7-3.5-6.6-9.6-9.6
		C381.9,346,385.3,347.9,385.4,352.6c0,3.4-2,6-5.3,7.1C383.4,358.6,385.4,356,385.4,352.6z"/>
	<path fill="#646469" d="M374.8,365.3c-4.8,0-8.8-0.7-12.1-2.1C366.1,364.7,370,365.4,374.8,365.3c13,0.1,21.2-7,21.2-17.6
		c0,0,0,0,0,0C396,358.3,387.8,365.3,374.8,365.3z"/>
	<polyline fill="#646469" points="345,310.7 345,310.7 345,310.7 	"/>
	<path fill="#646469" d="M256,64C150.3,64,64,150.1,64,256c0,105.7,86.3,192,192,192c105.7,0,192-86.3,192-192
		C448,150.1,361.7,64,256,64z M208.3,107.2c16.4-8.5,34.2-6.9,39.8,3.7c0.6,1.3,1.6,4,4.8,4c2.9-0.2,5.9-0.2,8.8,0
		c3.2,0,4-2.7,4.7-4c5.6-10.6,23.5-12.2,39.8-3.7c13.8,7.4,22.2,19.8,21.1,29.7c-0.5,4.8-10.1,2.6-9.8-2.2
		c0.5-6.3-5.3-14.6-15.3-19.9c-9.6-5-18.8-5-24.6-1.8c-1.3,0.8-1.4,2.7,0.6,4.3c3.5,1,6.7,2.1,10,3.4c0,2.6,0.2,2.2-1.8,4
		c-18-7.6-40.5-7.6-58.5,0c-1.9-1.8-1.8-1.4-1.8-4c3.2-1.3,6.4-2.4,10-3.4c2.1-1.6,1.9-3.5,0.6-4.3c-5.6-3.2-14.9-3.2-24.6,1.8
		c-10,5.3-15.7,13.7-15.3,19.9c0.3,4.8-9.3,7.1-9.8,2.2C186.3,127,194.5,114.6,208.3,107.2z M327.3,214.5c1.3-4.2,2.4-8.5,3.1-13.2
		c2.6-1,2.1-0.6,4.3,1.1c-1.4,11.6-5.6,21.4-11.9,31.2c-1.8,2.6,0,4.8,0.8,6.1c6.1,10.3-1.6,26.3-17.5,35.8
		c-13.3,8-28.3,8.7-36.3,2.6c-3.7-2.9,3.1-10,6.9-7.1c5.3,3.7,15.4,2.9,25.1-2.7c9.3-5.6,14.1-13.7,14.3-20.2c0-1.4-1.6-2.6-4-1.6
		c-2.7,2.6-5.3,4.8-8,6.8c-2.2-1.3-2.1-1.1-2.6-3.5c9.2-6.8,16.9-15.9,22-26c-6.9-5.6-11.6-16.7-11.6-29.6c0-10.9,3.5-20.9,8.8-27
		c2.9-3.1,5.8,7.7,4.5,9.2c-2.9,4.2-4.8,10.6-4.8,17.8C320.4,203,323.2,210.5,327.3,214.5z M306,240.6c-5.1-0.3-11.6,1.4-17.8,5.1
		c-7.4,4.5-12.5,10.8-14,16.2c4.3-1,8.7-2.2,12.9-4c2.2,1.8,1.8,1.4,1.4,4.2c-19.3,8.8-43.1,8.8-62.3,0c-0.3-2.7-0.8-2.4,1.4-4.2
		c4.2,1.8,8.5,3.1,12.9,4c-1.3-5.5-6.4-11.7-14-16.2c-6.1-3.7-12.7-5.5-17.8-5.1c-1.9,0.3-9.5-7.7-5.5-8.5c8-1.4,18.2,0.6,27.6,6.3
		c10.9,6.6,18.2,16.4,19.4,25.1c4.7,0.3,9.5,0.3,14.1,0c1.3-8.7,8.5-18.5,19.4-25.1c9.5-5.6,19.6-7.7,27.6-6.3
		C315.6,232.9,307.9,240.9,306,240.6z M191.9,233.7c-6.4-9.8-10.4-19.6-12.1-31.2c2.2-1.8,1.8-2.1,4.3-1.1c0.6,4.7,1.8,9,3.2,13.2
		c4-4,6.7-11.6,6.7-20.4c0-7.2-1.9-13.7-4.8-17.8c-1.3-1.4,1.8-12.2,4.5-9.2c5.3,6.1,8.8,16.1,8.8,27c0,12.9-4.7,23.9-11.6,29.6
		c5.1,10.1,12.9,19.3,22,26c-0.5,2.4-0.3,2.2-2.4,3.5c-2.9-1.9-5.5-4.2-8-6.8c-2.4-1-4.2,0.2-4,1.6c0.2,6.6,4.8,14.6,14.1,20.2
		c9.6,5.6,19.8,6.4,25.1,2.7c3.9-2.9,10.8,4.2,6.9,7.1c-8,6.1-22.8,5.5-36.3-2.6c-15.7-9.5-23.6-25.5-17.5-35.8
		C191.7,238.5,193.7,236.2,191.9,233.7z M143.2,360.8c5.5,0,11.6-1.9,16.4-5.8l-1,6.9c-5.3,2.4-11.1,3.5-17.5,3.5
		c-19.8,0-31.3-10.4-31.3-28.1c0-16.5,12.5-27.6,32.6-27.6c6.3,0,12.5,1.3,18.6,3.9c-2.1,2.6-4.2,4.3-5.3,5.9
		c-2.7-3.2-7.4-5.1-13.5-5.1c-12.1,0-19.1,8.4-19.1,22.8C123.1,352.6,130.2,360.8,143.2,360.8z M159.3,194.1
		c0-18.3,9.6-33.4,21.7-33.4c1.4,0,4.3,0.5,5.8-2.4c5.8-11.7,13-21.2,23.9-28.9c2.6,1.1,2.6,0.6,2.9,3.4c-3.7,2.7-7.1,5.6-10.1,8.8
		c5.3,1.8,13.3,0.6,21.2-3.4c6.3-3.4,11.1-8,13.7-12.7c0.6-1.8,11.4-4.2,10-0.2c-2.9,7.6-10,15.3-19.8,20.4
		c-11.2,5.9-23.3,6.9-31.5,3.5c-7.4,10.3-12,22.8-13.2,35.5c-2.4,1-2.1,1-4.5-0.2c0.3-3.5,1-6.9,1.8-10.4c-0.5-2.6-2.2-3.4-3.5-2.6
		c-5.5,3.5-9.8,11.7-9.8,22.5c0,11.2,4.5,20.4,10.4,22.8c4.5,1.9,1.9,11.4-2.4,9.8C166.3,222.9,159.3,209.9,159.3,194.1z
		 M202.5,365.4c-20.6,0-31.8-9.8-31.8-27c0-17.8,12-28.8,32.8-28.8c19.9,0,30.7,10.3,30.7,28C234.2,354.5,221.9,365.4,202.5,365.4z
		 M287.2,364.1c-2.6,0-4.8,0-7.2,0.2c-1.8-5.1-3.9-11.4-5.6-15.7c-5.6-0.3-14.3-0.2-19.9,0l1.8-4.2l16.2-0.3
		c-1.8-5.6-5.6-16.2-8.2-22.8c-0.8-0.6-2.4-0.8-2.7,0c-3.7,7.5-7.2,19.6-10.6,27.3c-2.1,5.8-4,10.9-6.1,15.7c-0.8,0-2.2-0.2-3.5-0.2
		s-3.2,0.2-4,0.2c8.7-17.8,16.5-35,23.6-53.7c2.1,0.3,8.8,0.5,10.9,0c6.9,17.8,14,35,22.7,53.7C292,364.1,289.6,364.1,287.2,364.1z
		 M345,310.6c0,0,0.2,0.4,0.2,0.4c0,0,0,0,0,0l0,0c0,0-0.1,0-0.1,0c-0.1,1-0.2,1.6-0.2,2.4c0,0.2,0,0.6,0,0.6c0,0,0.1,0,0.1,0
		c0,1,0,0.6-0.1,0.9c0,0.8,0,1.6,0.1,2.5c0,0.1,0,0.2,0,0.3c0,0,0,0,0,0c-4-0.6-9-0.7-14.1-0.7h-1.6c0,0,0,0.5-0.1,0.8
		c0,0,0,0,0,0.1c-0.3,5.4-0.3,13.8-0.3,19.8c0,2.2,0,4.4,0,6.6c0,2.1,0,4,0,6.1c0.1,4.8,0.3,9.2,0.7,13.7h0c0,0,0,0.2,0,0.2
		c0,0-0.3,0-0.3,0c0,0.1-0.3,0.1-0.3,0.1v0c-1-0.1-3.3-0.2-5.1-0.3c-0.6,0-0.9,0-1.5,0c0,0-0.1,0-0.1,0c-2.4,0-4.3,0.1-7.3,0.3
		c0,0,0,0,0,0c1-6.7,1.1-13.5,1.1-20.3c0-1.3,0.1-2.6,0.2-3.9c0-0.8,0.1-1.5,0.1-2.4c0-6.4,0.1-13.8-0.2-20.8h-1.8
		c-4,0-7.8,0.1-11.4,0.5c-0.5,0.1-1.1,0.1-1.5,0.1c-0.4,0.1-0.4,0.1-1.4,0.1c0,0,0,0,0,0c0,0,0,0,0,0c0,0,0.1,0,0.1,0c0,0,0,0,0,0
		c0,0-0.1,0-0.2,0c0.2-1.4,0.2-2.6,0.2-3.7c0,0,0,0,0,0c0-0.8,0-1.6,0-2.4c0-0.3,0.2-0.6,0.1-0.6H300c0,0,0-0.4,0-0.4v0
		c8,0.5,15.3,0.6,22.7,0.6c3.2,0,6.5,0,9.7-0.1C336.6,311.1,340.8,310.9,345,310.6C345,310.6,345,310.6,345,310.6
		C345,310.6,345,310.6,345,310.6C345,310.6,345,310.6,345,310.6C345,310.6,345,310.6,345,310.6C345,310.6,345,310.6,345,310.6
		L345,310.6z M338.9,226.8c-4.5,1.6-7.1-7.9-2.6-9.8c5.9-2.4,10.6-11.6,10.6-22.8c0-10.8-4.5-19-10-22.5c-1.3-0.8-3.1,0-3.5,2.6
		c0.8,3.5,1.4,6.9,1.8,10.4c-2.2,1.1-2.1,1.1-4.5,0.2c-1.1-12.7-5.8-25.2-13.2-35.5c-8.2,3.4-20.2,2.4-31.5-3.5
		c-9.8-5.1-16.9-12.9-19.8-20.4c-1.4-4,9.3-1.6,10.1,0.2c2.4,4.7,7.2,9.3,13.7,12.7c7.7,4,15.7,5.1,21.2,3.4
		c-3.1-3.2-6.6-6.1-10.3-8.8c0.5-2.7,0.5-2.3,2.9-3.4c11.1,7.7,18.2,17.2,24.1,28.9c1.3,2.9,4.2,2.4,5.6,2.4
		c12.1,0,21.9,15.1,21.9,33.4C355.5,209.9,348.2,222.9,338.9,226.8z M396,347.7c0,10.6-8.1,17.7-21.2,17.7c-4.8,0-8.8-0.7-12.1-2.2
		c-1.1-0.5-2.1-0.8-3-1.4c1.1-3.2,2-6.8,2.9-10.8h1.1c1.4,6,5.9,9,12.2,9c0,0,0,0,0,0c0.2,0,0.5,0.1,0.7,0.1
		c1.2-0.1,2.3-0.2,3.3-0.5c3.4-1.1,5.3-3.7,5.3-7.1c0-4.6-3.6-6.5-9.7-9.6c-10.1-5-15.6-8.5-15.6-17.2c0,0,0,0,0,0c0,0,0,0,0,0
		c0-9.2,7.6-16.1,19.8-16.1c5.1,0,9.5,1.1,13.5,3.5c0,0,0-0.2,0-0.2c0,0,0,0,0,0c-1.3,4-2.1,6.8-2.7,9h-1c-1.8-4.5-6-7-11.3-7
		c0,0,0,0,0,0c-2.9,0-5.2,0.7-6.7,2.3c-1,1.2-1.6,2.5-1.6,4.2c0,4.3,4,6.9,9.2,9.1c2.4,1,4.5,1.9,6.4,2.8
		C392.7,336.9,396,340.2,396,347.7C396,347.7,396,347.7,396,347.7C396,347.7,396,347.7,396,347.7z"/>
	<path fill="#646469" d="M345,310.7C345,310.7,345,310.7,345,310.7L345,310.7c0,0.1,0.1,0.1,0.1,0.1c0,0,0-0.1,0-0.1
		C345.1,310.7,345.1,310.7,345,310.7z"/>
	<path fill="#646469" d="M202.5,314.3c-11.2,0-18.3,8.4-18.3,23.3c0,14.8,7.1,23,18.3,23c11.1,0,18.2-8,18.2-23
		C220.7,322.5,213.6,314.3,202.5,314.3z"/>
	<path fill="#646469" d="M345,310.6C345,310.6,345,310.6,345,310.6C345,310.6,345,310.6,345,310.6C345,310.6,345,310.6,345,310.6
		C345,310.6,345,310.6,345,310.6L345,310.6z"/>
</g>
</svg>
