<?xml version="1.0" encoding="utf-8"?>
<!-- Generator: Adobe Illustrator 18.0.0, SVG Export Plug-In . SVG Version: 6.00 Build 0)  -->
<!DOCTYPE svg PUBLIC "-//W3C//DTD SVG 1.1//EN" "http://www.w3.org/Graphics/SVG/1.1/DTD/svg11.dtd">
<svg version="1.1" id="Layer_1" xmlns="http://www.w3.org/2000/svg" xmlns:xlink="http://www.w3.org/1999/xlink" x="0px" y="0px"
	 viewBox="0 0 512 512" enable-background="new 0 0 512 512" xml:space="preserve">
<g>
	<g>
		<g>
			<g>
				<g>
					<g>
						<path fill="#646469" d="M39.4,243.1c13.2-24.4,36-51.1,63-60c5.5-1.4,12.9-2.9,17.8,0.8c4.4,3.2,5,8.8,4,13.7
							c-1.3,5.9-5.3,13.3-12.1,14.3c-1.2,0-2.2-0.4-3-1.3c-1.8-1.7-1.6-4.2-1.3-6.4c1.1-4.7,5.4-9.6,10.4-10.3
							c0.9-0.5,0.5-1.6,0.3-2.3c-0.7-1-1.5-1.8-2.7-2.1c-5.4-0.6-9.5,2.8-13.6,5.6c-15.7,12.6-27.1,28.9-36.7,45.1
							c-7.8,14.6-14.5,29.6-16.4,46.6c-1,12.3,3,24.4,13.9,30.4c11.9,6.3,27.3,2,39.2-1.2l10.9-3.4l21-6.2
							c19.9-5.8,44.9-7.1,64.4,0.6c11.8,4.9,23.9,11.6,31.6,23.2c0,0.3,0,0.7-0.4,0.6c-16.7-4.6-38.4-9.1-55-1.2l-0.8-0.2
							c-5-8-13.5-12.5-22.2-14.2c-28.1-2.7-51.1,10.6-77.5,13.9c-13.4,1.2-27.7,0.8-37-9.4c-14.7-14.7-13-40.6-6-58.3
							C33.5,255.1,36.3,249.1,39.4,243.1z"/>
						<path fill="#646469" d="M78.1,251.9c7-12.8,17.7-28.4,32.4-33.1c4-0.9,8.2-0.5,11.2,2.1c6.4,6.3,3.9,17.2,1.7,24.7
							c0,0.4,0.4,0.9,0.8,1c5.6-0.2,10.2-2.8,14.3-6.7c8.8-9.8,18.2-22.7,32.4-21.1c2.7,0.4,5.3,2,6.7,4.5
							c3.6,7.2,0.1,15.1-4.9,20.6c-1.9,1.8-4.3,3.2-7,2.3c-1.1-0.4-2-1.5-2.4-2.6c-1-5,1.9-9.7,6-12.4c1.2-1.1,4.7-0.3,3.7-3
							c-0.7-1-1.8-1.2-3-1.2c-6.9,2.9-11.5,10-15.5,15.9c-5.1,7.9-9.2,16.4-11.9,25.3c-0.7,3.2-1.7,7.4,0.2,10.4
							c1.4,1.9,3.7,2.7,6.1,2.1c6.9-2.7,12.9-8.2,18.2-13.9c12-14.4,18.4-32.3,34.5-44c5-3.4,12-6.1,18.1-2.9c1,0.4,1.8,1.6,3,1.2
							c1-1,1.6-3,3.6-2.5c4.4,0.1,9.5-0.1,14.1,0.3l0.3,0.4l-1.3,3.1l-25,50.7c-0.2,0.5-0.3,1.3-0.2,1.9c0.4,0.7,1.3,0.7,2,0.4
							c3.6-2.1,6.4-5.9,8.9-9.1c2.2-3,4.2-6.2,5.7-9.5c0.7-1,1.5-2.2,2.8-2c1.4,0.2,3.2-0.4,4.2,0.6c-1.6,4.2-4.1,8.1-6.3,12.1
							c-6.8,10.4-15.6,22.5-28.1,25.7c-2.1,0.2-4.6,0.4-6.2-1.1c-2.4-1.8-2.5-4.7-3.2-7.4c-0.2-0.3-0.7-0.4-1-0.2
							c-5.3,4.8-10.8,9.6-18.3,8.6c-2.3-0.5-4.5-2.3-5.5-4.5c-1.9-3.7-1-8.5-1.1-12.6c-0.2-0.5-0.8-0.3-1-0.1
							c-8.1,8-16.9,15.2-27.6,17.2c-5,0.6-9.3-0.9-12.6-4.4c-8-10.5-1.7-24.4,2.6-34.6c0.2-0.5,0.1-1.2-0.5-1.3
							c-2.9,0.2-5.7,0.7-8.5,1.1l-1,1.1c-6.5,12.1-13.6,25-25.4,34c-4.9,3.5-12.1,5.9-17.8,2.7c-5.9-4.1-6.5-11.4-5.7-18.1
							C72.1,265.8,74.8,258.7,78.1,251.9z M96.7,251.3c-3.4,6.9-6.9,13.9-7.1,22.1c0.4,1.5,1.3,3.3,3,3.7c1.8,0.5,3.3-0.5,4.7-1.4
							c6.7-5.6,11.3-13.3,15.1-20.7c0.3-0.7,0.9-1.6,0.4-2.4c-4-1.6-7.9-4.3-11-7.8l-0.7-0.1c-0.6,0.1-0.9,0.7-1.3,1.2L96.7,251.3z
							 M107.2,237.2c0.2,3.6,3.6,6.8,6.8,8c0.8,0.2,2.1,0.9,2.7-0.1c1.2-2.3,2-4.9,2.6-7.4c0.6-3.3,1.1-7.8-2.1-10
							c-1.1-0.6-2.7-0.7-3.9-0.1C109.7,229.4,107.1,233.1,107.2,237.2z M189.5,265.5c-0.9,3-2.3,6.3-1.4,9.7c0.3,0.7,1,1.2,1.7,1.3
							c2.7,0.1,4.6-2.4,6.3-4.4c8-11.1,14.1-23,19.6-35.2c0.9-2.5,2.4-4.9,2.3-7.8c-0.1-0.6-0.7-1-1.1-1.3c-1.2-0.5-2.4,0.3-3.3,0.8
							c-10.8,8.3-16.6,20.2-22,31.5L189.5,265.5z"/>
						<path fill="#646469" d="M241.4,234.4c2.4-4.7,4.4-9.6,7.4-14.1c1.2-1.3,3.1-1.3,4.7-1.4l12,0.2l0.5,0.5
							c-2,4.8-4.2,9.5-6.7,14.1c-0.6,1.2-1.9,2.4-3.3,2.5c-4.9,0.1-10,0.4-14.6-0.1C240.8,235.6,241.3,234.9,241.4,234.4z"/>
						<path fill="#646469" d="M253.4,258.6c8.3-17.2,18.3-33.8,32.5-48.5c13.8-13.7,28.7-24.9,46.8-28.3c4.9-0.7,10.5-0.3,14.2,3.1
							c0.7,0.6,1.6,1.2,2.6,0.9c13-5.2,30.9-7,43.9-0.5c7.5,3.7,14.7,8.4,21.9,12.9c0.9,0.5,0.5,1.5,0,2c-4.1,4.6-7.6,9.3-11.3,14.1
							c-0.4,0.4-1.1,0.2-1.5,0l-19.1-13.1c-8.9-6-19.2-10.3-30.8-8.4c-1.3,0.7-0.7,2.2-0.9,3.5c0.3,11.9-4,22.3-9.7,31.7
							c-4.6,6.6-9.9,13.5-17.7,15.7c-3.4,0.7-6.7-0.3-8.7-3.1c-5.7-8.6-0.7-19.2,3.5-26.9c4.8-8.4,12.1-16.2,20.1-22.3
							c0.2-0.3,0.5-0.6,0.3-1c-0.8-0.8-2.1-0.3-3.1-0.1c-13,4.3-23.3,15.8-32.9,26.6c-17.1,21-30,43.8-37.4,68.9
							c-2.3,9.4-5.4,23.9,4.2,30.4c8.4,4.5,16.5-1.3,22.9-6.7c9.6-9.8,16.1-21.1,18.8-34c0.4-3.8,1.5-9-2-11.7
							c-3.2-1.4-5.8,1.2-7.9,3.4c-4.9,5.9-7,13-7.9,20.7c-2.2,1.8-4.8,3-7.1,4.7c-4.4,3-8.7,7.1-12.2,11.1c-0.4,0.1-0.5-0.4-0.6-0.6
							c-0.5-14.1,4.5-26.2,12.3-37c6.2-7.1,14.1-13.3,23.7-11c4.2,1.1,7,5.6,7.7,9.5c1.5,13.2-4,24.8-10,35.6
							c-9.7,15.2-24.9,30.5-44.2,28.6c-7.4-0.5-14.3-5.6-17.5-12.4c-7.3-14.5-2.3-33.2,2.7-47.3L253.4,258.6z M319.1,233.5
							c0.2,1.6,0.8,3.4,2.5,4c3.3,0.9,5.9-1.5,8.3-3.4c8.8-9.3,14.1-20,15.5-32.3c0-1.8,0.6-4.1-0.4-5.7c-0.7-0.1-1.5,0.2-2.1,0.6
							c-5.9,3.9-11.5,9.7-15.5,15.5C323.2,218.7,319.3,225.4,319.1,233.5z"/>
						<path fill="#646469" d="M331.4,274.8c7-9.3,16.3-19.4,28.1-20.1c3,0.1,5.6,1.3,7.4,3.8c5,7.4,0.8,17-1.1,24.5
							c-0.2,0.7,0.3,1.2,0.8,1.3c2.4,0.4,5.2,0,7.4-1.1l0.9-1.2c8.5-24.1,21.1-46.6,36-68c9.3-12.4,21.3-25.1,35.2-31.1
							c3.3-1.1,8-2.5,11.2-0.1c3.5,2.9,2.5,7.8,1.6,11.7c-0.4,3.4-4.1,3.7-6.6,4.5c-0.1-0.1-0.2,0-0.4-0.1c0.1-2.2,1.2-4.1,1.7-6.3
							c0.1-1.2,0.3-2.1-0.2-3.2c-0.6-1.1-1.9-0.7-2.8-0.4c-4.7,2.3-8.5,6.5-12.1,10.5c-13.4,15.6-23.1,32.8-32.1,50.3
							c-2.9,6.1-6,12.1-8.4,18.4c-0.1,0.4,0.1,0.6,0.4,0.9c2.1-0.1,3.3-2.2,4.9-3.3c11.8-10.7,21.4-23,30.3-35.5
							c1.9-0.9,4.1-0.9,6.3-1.1l0.4,0.1c-0.1,1.7-1.6,3-2.4,4.6c-9.9,14.2-21.1,27.9-34.8,40.3l-9.9,8.1c-2.1,1.8-2.1,4.6-3.2,6.9
							c-1.9,6.3-3.8,12.6-4.1,19.5c0.1,1.2,0.5,2.3,1.4,2.9c2.6,1.2,4.7-1.3,6.5-3c13.4-15.4,19.3-34.4,35.6-48.2
							c5.4-4.2,12.4-7.9,19.3-4.7c1.2,0.4,2.1,2,3.6,1.3c1-0.7,1.1-2.4,2.6-2.3c4.8,0,9.9-0.2,14.5,0.2c0.4,0.4,0.1,1,0,1.4
							l-3.3,6.7l-20.4,41.2c-0.9,1.9-2.1,3.9-2,6c0.3,0.9,1.3,1,2.1,0.8c3.8-2.1,6.6-5.6,9.1-9.2c2.5-3.5,4.5-7.2,6.9-10.8
							c1.3-0.6,3-0.4,4.4-0.2c0.8,0.8-0.2,1.8-0.4,2.7c-6,12.4-14.4,26-27.4,32.9c-3,1.5-7.2,2.9-10.6,1.1c-2.7-1.8-2.4-5.2-3.6-7.7
							c-0.2-0.4-0.9-0.3-1.2-0.1c-5.4,4.8-11.3,10.3-18.9,8.2c-4.7-2.2-5.3-7.7-5.6-12.4c-0.2-0.2-0.1-0.5-0.4-0.7l-0.6,0.2
							c-5.3,6.4-12,14.3-20.9,13.5c-3.4-0.3-6.4-3.5-7.4-6.6c-3.1-9.9,0.2-20.8,2.4-30.3c0-0.5-0.6-1.1-1.1-1.2l-7.5,0.1l-1.2,1.4
							c-5.5,10.8-11.6,21.2-21.1,30.2c-5,4.4-11.1,8.1-18,6.1c-5.7-2.4-7.2-8.6-7.2-14.5C316.7,299.1,323.3,286.6,331.4,274.8z
							 M333.3,307.8c0.1,2.1,1.1,4.2,3.3,4.9c1.4,0.5,2.9-0.1,4.1-0.7c7-5.2,11.2-13.2,15-20.5c0.4-0.7,0.7-1.9-0.3-2.4
							c-3.6-1.8-7.2-4.7-10.1-7.9c-0.4-0.4-1-0.4-1.5-0.2c-2.6,3.5-4.3,7.4-6.2,11.3C335.6,297.1,333.4,301.9,333.3,307.8z
							 M350.9,273.7c0.2,3.7,3.2,7.2,6.6,8.4c0.7,0.2,1.9,0.6,2.4-0.3c2.1-4.7,4-10.1,3-15.6c-0.4-1.3-1.5-2.6-2.8-3
							c-1.3-0.4-2.7,0.1-3.9,0.6C352.7,266,351.1,269.7,350.9,273.7z M417.9,306.1c-0.1,1.8-0.6,3.9,0.8,5.3
							c0.7,0.7,1.9,0.8,2.8,0.5c3.6-1.9,5.9-5.7,8.1-8.8c7.3-11.4,12.7-23.6,17.7-36c0.2-1.1,0.5-2.6-0.5-3.3
							c-3-1.4-5.3,1.9-7.5,3.4c-9.7,9.6-14.8,21.3-19.7,33L417.9,306.1z"/>
						<path fill="#646469" d="M432.1,215.5l6.5-8.4l1-0.8c18.7-0.4,33.3-11.5,46.5-24.6c-0.1,1.8-0.9,3.4-1.5,5
							c-8.6,20.3-29.6,38.2-52.3,38.5l-5.3-0.1c-1-0.2-0.3-1.2-0.1-1.7L432.1,215.5z"/>
					</g>
				</g>
			</g>
		</g>
	</g>
	<path fill="#646469" d="M455.7,322.8c0-2.5,1.9-4.5,4.4-4.5c2.4,0,4.3,1.9,4.3,4.5c0,2.6-1.9,4.5-4.3,4.5
		C457.6,327.3,455.7,325.4,455.7,322.8z M460,328.1c2.9,0,5.4-2.3,5.4-5.4c0-3.1-2.5-5.4-5.4-5.4c-3,0-5.5,2.3-5.5,5.4
		C454.6,325.9,457.1,328.1,460,328.1z M458.9,323.2h1.1l1.6,2.7h1l-1.8-2.7c0.9-0.1,1.6-0.6,1.6-1.7c0-1.2-0.7-1.8-2.2-1.8H458v6.2
		h0.9V323.2z M458.9,322.4v-1.9h1.3c0.7,0,1.3,0.1,1.3,0.9c0,1-0.7,1-1.5,1H458.9z"/>
</g>
</svg>
