<?xml version="1.0" encoding="utf-8"?>
<!-- Generator: Adobe Illustrator 18.1.1, SVG Export Plug-In . SVG Version: 6.00 Build 0)  -->
<svg version="1.1" id="Layer_1" xmlns="http://www.w3.org/2000/svg" xmlns:xlink="http://www.w3.org/1999/xlink" x="0px" y="0px"
	 viewBox="0 0 512 512" enable-background="new 0 0 512 512" xml:space="preserve">
<g>
	<path fill-rule="evenodd" clip-rule="evenodd" fill="#646469" d="M108.9,166.5H85.2v43.8c-8,0-16.4,0-21.4,0c-24.9,0-45,20.1-45,45
		c0,24.8,20.1,45,45,45c24.8,0,45.1-20.2,45.1-45c0-12.4,0-45,0-45L108.9,166.5L108.9,166.5z M85.2,255.3c0,11.8-9.6,21.4-21.4,21.4
		c-11.8,0-21.4-9.6-21.4-21.4c0-11.8,9.6-21.4,21.4-21.4l21.4,0L85.2,255.3L85.2,255.3z"/>
	<path fill-rule="evenodd" clip-rule="evenodd" fill="#646469" d="M303.2,255.3c0-24.9,20.1-45,45-45c24.9,0,45,20.1,45,45
		c0,24.8-20.1,45-45,45C323.3,300.3,303.2,280.2,303.2,255.3L303.2,255.3z M348.1,276.8c11.9,0,21.5-9.6,21.5-21.5
		c0-11.9-9.6-21.5-21.5-21.5s-21.5,9.6-21.5,21.5C326.6,267.2,336.2,276.8,348.1,276.8L348.1,276.8z"/>
	<path fill-rule="evenodd" clip-rule="evenodd" fill="#646469" d="M468.9,255.4c0-11.7-9.5-21.3-21.2-21.3
		c-11.8,0-21.3,9.5-21.3,21.3c0,5.8,0,43.1,0,43.1c-12.1,0-23.7,0-23.7,0s0-30.7,0-43.1c0-24.9,20.1-45,45-45
		c24.8,0,44.9,20.1,44.9,45c0,12.7,0,43.1,0,43.1s-11.7,0-23.7,0C468.9,298.5,468.9,261.3,468.9,255.4L468.9,255.4z"/>
	<path fill-rule="evenodd" clip-rule="evenodd" fill="#646469" d="M247.8,239.7c-3.4-2.2-2.3-6.4,3.2-7.9c7.4-2,19.5-0.4,30.3,4.4
		l11.2-15.3c-4.9-4.1-15.3-9.2-30.8-10.2c0,0-25.9-3.2-36.4,16.4c0,0-9.3,18.4,9,29.8c11.1,6.9,30.4,9.4,36.3,12.7
		c5,2.8,3.3,8.1-4.1,9.8c-12.3,2.8-28.8-4.2-34.3-8.4l-11.3,15.6c7.6,5.9,17.4,10.9,32.8,13.4c0,0,24.3,4.2,37.7-12.5
		c2.5-3.1,13.5-23.7-8.6-35.5C272,246.1,253.6,243.5,247.8,239.7L247.8,239.7z"/>
	<path fill-rule="evenodd" clip-rule="evenodd" fill="#646469" d="M137.2,316c1,0.6,12,8.2,22.8,8.4c25.8,0.5,27.4-26.3,27.4-32.6
		c-4.9,5.2-15,8.5-21.3,8.5c-24.9,0-44.8-19.5-44.8-44.3c0-12.3,0-43.9,0-43.9s11.6,0,23.7,0c0,0,0,38.5,0,43.9
		c0,11.7,9.5,21.3,21.3,21.3c11.8,0,21.2-9.5,21.2-21.3c0-4.8,0-43.9,0-43.9c12.1,0,23.7,0,23.7,0l0,43.9c0,38.9,1.9,78.9-36,88
		c-28.6,6.8-48.8-11.1-49.8-11.9L137.2,316L137.2,316z"/>
</g>
</svg>
