<?xml version="1.0" encoding="utf-8"?>
<!-- Generator: Adobe Illustrator 18.1.1, SVG Export Plug-In . SVG Version: 6.00 Build 0)  -->
<svg version="1.1" id="Layer_1" xmlns="http://www.w3.org/2000/svg" xmlns:xlink="http://www.w3.org/1999/xlink" x="0px" y="0px"
	 viewBox="0 0 512 512" enable-background="new 0 0 512 512" xml:space="preserve">
<path fill="#646469" d="M244.5,162c4.6,0,9.3,0,13.8,0c5.5,0.4,11,0.7,16.5,1.2c10.2,1,20.2,2.8,30.1,5.6c17.9,5.1,34.8,12.5,49,25
	c18.5,16.4,25.9,36.8,22.6,61.3c-1.2,8.6-3.6,17-6.8,25.1c0.7,0.3,1.4,0.8,2.1,0.8c12.5,0.1,24.9,0.1,37.5,0c0.8,0,1.6-0.2,2.3-0.3
	c2.2-0.4,3.3-1.8,3.8-3.8c0.8-3.1,1.7-6.1,2.3-9.2c2.6-12,3.2-24.2,0.6-36.3c-3.3-15.5-11.4-28.2-22.8-38.9
	c-11.9-11.2-25.9-18.9-40.9-24.9c-20.9-8.3-42.6-12.7-64.8-14.9c-10.6-1-21.2-1.5-31.8-1.1c-8.1,0.3-16.4,0.4-24.5,1.4
	c-8.3,0.9-16.4,2.8-24.6,4.3c-0.6,0.1-1.5,0.4-1.6,0.9c-1.1,3-1.9,6.1-3,9.5C217.8,164.2,231,162.2,244.5,162z"/>
<path fill="#646469" d="M112.2,214.5c1.1,3.1,0.7,4.2-2.1,6.3c-9.4,7.1-18.9,14.3-28.3,21.4c-9.9,7.5-19.3,15.6-28.2,24.3
	c-2.4,2.3-4.6,4.7-6.8,7.2c-1.7,2-1.3,5.1,0.6,6.8c2.1,1.8,5.6,1.9,7.5,0.1c3.2-3.2,6.5-6.4,9.5-9.8c6-6.6,12.3-12.8,19.2-18.4
	c8.6-7.1,17.3-14.1,25.9-21.1c0.9-0.8,2-1.3,3.1-2.1c0.2,0.6,0.3,0.8,0.3,0.9c0,9.5,0.1,19-0.1,28.5c-0.1,6.1-0.8,12.3-0.9,18.4
	c-0.1,1.9,0.3,3.9,0.8,5.8c0.7,2.5,2.6,3.6,5.3,3.6c2.4,0,4.8-1.4,5.3-3.7c0.4-2.1,0.4-4.3,0.6-6.5c0-0.2-0.1-0.5-0.2-0.6
	c-1.6-0.8-1-1.8-0.6-2.9c0.2-0.4,0.1-1-0.1-1.5c-0.6-1.8-1.6-3.4-0.9-5.5c0.1-0.2-0.1-0.5-0.1-0.8c-0.1-2.7-0.3-5.5-0.2-8.1
	c0.1-2.6,0.5-5.3,0.5-7.9c0.1-8.5,0.1-17,0.2-25.4c0-0.8,0.4-1.7,1.1-2.1c3.9-2.8,7.6-5.9,11.8-8.3c12.8-7.3,25.6-14.5,38.7-21.2
	c5.6-2.9,11.7-4.7,17.7-6.8c3.4-1.2,6.1-3,7.8-6.3c0.3-0.6,0.5-1.5,0.3-1.8c-1.3-1.8-2.1-4.4-5.1-4.1c-1.6,0.2-3.1,0.5-4.5,1.1
	c-2.8,1.3-5.6,2.8-8.3,4.1c-1.4,0.8-2.5,0.3-3.2-1c-0.6-1.1-1.1-2.3-1.1-3.4c-0.1-3.9,0.2-7.9,0.3-11.8c0-3.4,0.2-6.9-0.2-10.3
	c-0.3-3.3-2.8-4.7-6-4c-3.2,0.7-5.3,2.9-7.5,5.2c-1,1.1-2.5,1.8-3.9,2.3c-1.1,0.3-2.4-0.2-3.6-0.1c-4.7,0.2-7.5,2.9-7.7,7.5
	c-0.1,3.1-0.2,6.3-0.3,9.5c-0.1,5-0.1,10-0.1,15c0,1.5,0.8,2.5,2.3,2.8c3,0.4,7.5-3.1,7.6-6.2c0.1-4.4,0-8.7,0.8-13.1
	c0.7-4.2,1.3-8.2,4.4-11.3c1.3-1.3,2.8-2.3,4.8-1.6c1.8,0.7,1.4,2.3,1.4,3.6c-0.1,4.9-0.4,9.7-0.5,14.6c-0.1,3-0.9,6.3,2.3,8.4
	c-16.1,9.4-32,18.6-47.8,27.8c0-1.3-0.1-2.9,0-4.6c0.1-4.3,0.3-8.5,0.5-12.8c0.3-6.6,0.8-13.3,0.9-19.9c0-1-0.8-2.3-1.6-2.9
	c-2.4-1.6-6.6,0.4-7.1,3.3c-0.4,2.5-0.5,5.1-0.8,7.6c-0.7,6.7-1.2,13.4-2.2,20.1c-0.3,1.5-1.6,3.2-2.9,4.1c-2.5,1.8-5.3,0.6-5.5-2.4
	c-0.1-3.9-0.2-7.8,0.5-11.6c0.8-3.9,2.6-7.5,5.2-10.7c0.9-1.1,1.3-2.9,1.5-4.4c0.1-1.3-0.8-2.3-2.3-2c-1.3,0.3-2.6,0.6-3.7,1.3
	c-4,2.6-6.7,6.3-8.2,10.8c-2.5,7.5-2.6,15.2-1.9,22.9c0.3,3.3,1.9,5,5.1,5.6C105.1,217.2,108.7,216.1,112.2,214.5z"/>
<path fill="#646469" d="M395.7,364.1c0.7,0.1,1,0.2,1.3,0.2c8.9,0,17.9,0.1,26.8-0.1c5-0.1,9.8-1.1,14.3-3.6
	c4.9-2.8,7.2-7.6,6.5-13.2c-0.6-4.6-3.4-7.3-7.1-9.5c-4.4-2.6-8.8-5-13.2-7.6c-1.1-0.6-2.2-1.3-3.1-2.1c-1.9-1.8-1.4-4.4,1.1-5.2
	c1.5-0.5,3.1-0.7,4.6-0.8c5.9-0.1,11.8-0.1,17.7-0.1c1.4,0,2.6-0.3,3.1-1.8c0.6-1.9,1.3-3.8,1.8-5.6c0.5-1.8-0.1-2.8-2-2.8
	c-8.5-0.1-17-0.3-25.6,0.2c-3.5,0.2-7.2,1.3-10.4,2.8c-9.1,4.5-9.9,16.5-1.6,22.5c1.2,0.8,2.4,1.5,3.8,2.3c4.1,2.3,8.2,4.5,12.3,6.9
	c2.1,1.3,2.8,3,2.3,4.8c-0.6,2.1-2.4,2.3-4.1,2.5c-2.4,0.2-4.9,0.2-7.3,0.2c-5.1,0-10.3-0.1-15.5,0.1c-1,0-2.6,0.5-2.8,1.2
	C397.3,358.2,396.6,361.1,395.7,364.1z"/>
<path fill="#646469" d="M120,363.9c0.4,0.2,0.5,0.3,0.6,0.3c10.5-0.1,20.9-0.1,31.3-0.6c4.1-0.2,8.1-1.6,11.6-4.3
	c6-4.5,6.6-14,1-18.9c-2.3-2-5-3.5-7.5-5.1c-3.8-2.3-7.7-4.4-11.4-6.8c-0.9-0.6-1.7-2.3-1.5-3.3c0.2-1,1.5-2.1,2.6-2.5
	c1.4-0.6,3.1-0.6,4.7-0.6c5.6-0.1,11.2-0.1,16.9,0c1.8,0,2.9-0.7,3.3-2.4c0.4-1.6,1.1-3.3,1.5-5c0.6-2,0-2.9-2.1-2.9
	c-8.3-0.1-16.5-0.3-24.8,0.1c-3.4,0.2-7.1,1.3-10.3,2.6c-9.6,4.1-10.2,17.9-1.8,22.8c1.1,0.7,2.3,1.4,3.4,2.1
	c3.9,2.3,8,4.4,11.9,6.7c1.1,0.7,2.1,1.9,2.6,3.1c0.9,2.5-0.8,4.3-4.3,4.5c-4.3,0.2-8.6,0.1-12.9,0.2c-3.3,0-6.5-0.1-9.7,0.1
	c-0.9,0.1-2.3,0.8-2.6,1.5C121.4,358.4,120.8,361.1,120,363.9z"/>
<path fill="#646469" d="M262.1,353.4L262.1,353.4c-2.2,0.1-4.4,0.1-6.5,0.1c-5-0.2-7.1-2.6-6.1-7.5c1.1-5.1,2.4-10.3,4.2-15.3
	c2-5.7,6.1-8.3,12.2-8.3c4.1,0.1,8.2,0.3,12.3,0.5c1.9,0.1,3.1-0.6,3.6-2.6c0.3-1.4,0.8-2.8,1.2-4.2c0.8-2.9,0.3-4.1-2.8-4.3
	c-5.7-0.4-11.5-1.1-17.2-0.8c-11.3,0.8-19.4,6.6-23.5,17.2c-2.1,5.5-3.7,11.2-4.8,16.9c-1.8,9.7,4.2,17.7,14,19.2
	c6.5,1,13,0.2,19.6-0.6c2.7-0.3,4.2-1.6,4.7-4.3c0.3-1.3,0.7-2.4,1-3.6c0.7-2.6-0.1-3.5-2.6-3.4C268.2,353,265.1,353.2,262.1,353.4z
	"/>
<path fill="#646469" d="M301.2,271c2.9,0,5.5,0,8.1,0c3.6,0,3.6,0,4.7-3.4c0.3-0.9,0.6-1.9,0.9-2.8c2.1-7.1,4.5-14.2,6.3-21.5
	c1.9-7.7-2.1-12.8-10-13.5c-5.7-0.5-11,0.3-15.9,3.7c0.1-2.9,0.1-2.9-2.8-2.9c-1.9,0-3.8,0.1-5.8,0c-2-0.1-2.9,0.8-3.5,2.7
	c-3.6,12-7.3,23.9-11,35.8c-0.2,0.6-0.3,1.2-0.5,2.1c3.1,0,6-0.1,8.8,0c2.1,0.1,3.2-0.6,3.8-2.8c2.1-7.3,4.4-14.5,6.5-21.8
	c1.4-4.6,4.3-7.3,9-8.1c1.4-0.3,2.8-0.3,4.1-0.4c4.8-0.1,6.4,2,5.2,6.6c-1,3.9-2.3,7.7-3.4,11.6C304.3,260.9,302.8,265.7,301.2,271z
	"/>
<path fill="#646469" d="M321.1,271c6.5,0,12.7,0.1,18.9-0.1c2.6-0.1,5.1-0.3,7.6-0.8c2-0.4,3.9-1.1,5.8-2c6.3-3.1,8.1-12.8,1-17.3
	c-3.9-2.5-8-4.8-12-7.3c-1.3-0.8-2.5-1.8-1.8-3.3c0.5-1,1.9-1.6,3-2.1c0.6-0.3,1.3-0.1,1.9-0.1c3.5,0,7-0.1,10.5-0.1
	c6.2-0.1,5,0.6,6.9-5c0.9-2.6,0.6-3.1-2.1-3.1c-5.4-0.1-10.8-0.2-16.2,0.1c-2.9,0.1-6,0.7-8.7,1.6c-4.5,1.4-7.1,4.6-7.5,9.4
	c-0.4,4.6,1.9,7.8,5.8,10c3,1.7,6,3.3,9,5.1c0.9,0.5,1.8,1.1,2.5,1.9c1.6,1.8,0.9,4-1.4,4.6c-1.3,0.3-2.8,0.4-4.1,0.4
	c-4.8,0.1-9.5,0-14.3,0c-1.2,0-2.3,0.1-2.7,1.4C322.4,266.4,321.8,268.6,321.1,271z"/>
<path fill="#646469" d="M168.1,263.8c-3.6,0-6.8,0.1-10.1,0c-3.3-0.1-4-1.1-3.1-4.3c2-6.6,4.1-13.2,6-19.9c0.3-1.1,0.8-1.5,1.9-1.4
	c2.5,0.1,5,0,7.5,0c5,0,5,0,6.4-4.7c0.8-2.8,0.6-3-2.2-3c-3.5,0-7,0-10.8,0c0.8-2.6,1.6-4.9,2.3-7.2c0.5-1.6-0.1-2.3-1.8-2.1
	c-1.6,0.2-3.1,0.4-4.7,0.6c-6.2,0.8-5.1-0.1-6.8,5.8c-0.7,2.4-1.7,3.3-4.1,2.9c-1.3-0.2-2.6,0-3,1.6c-0.6,1.9-1.2,3.9-1.8,6.1
	c1.9,0,3.6,0,5.5,0c-0.3,1.1-0.5,2-0.8,2.9c-2.1,7-4.4,14-6.3,21.1c-1.4,5.1,0.8,8.4,5.9,8.9c5.2,0.5,10.5,0.3,15.8,0.3
	c0.8,0,1.8-0.8,2.1-1.4C167,268.1,167.4,266.1,168.1,263.8z"/>
<path fill="#646469" d="M172.6,271c3.2,0,6-0.1,8.8,0.1c2.3,0.1,3.3-0.7,3.9-2.9c2.3-7.8,4.8-15.7,7.1-23.4c1.6-5.2,3.7-6.7,9.1-6.5
	c6,0.2,6,0.2,7.5-5.5c0.6-2.2,0.3-2.8-2.1-2.8c-3.9,0-8,0-11.8,0.4c-7.2,0.6-12.1,4.1-13.7,11.5c-0.6,2.6-1.6,5.2-2.4,7.8
	C177,256.7,174.9,263.7,172.6,271z"/>
<path fill="#646469" d="M249.4,270.9c3.8,0,7.2,0.1,10.7-0.1c0.7-0.1,1.6-1.1,1.9-1.9c3.8-12,7.4-23.9,11.1-36
	c0.6-1.9,0.3-2.3-1.8-2.4c-2.2-0.1-4.4,0.1-6.5-0.1c-2.1-0.1-3.1,0.8-3.6,2.8c-2.5,8.3-5.1,16.7-7.7,25
	C252.1,262.3,250.8,266.4,249.4,270.9z"/>
<path fill="#646469" d="M72.6,219.1L72.6,219.1c0.1,1.6,0,3.2,0.1,4.8c0.1,1.6,0.9,2.6,2.7,2.5c3.5-0.2,6.8-3.1,7.1-6.6
	c0.5-5.3,1.1-10.6,1.3-15.9c0.1-3.3,1.5-5.6,3.9-7.5c1.6-1.3,3.3-2.5,4.6-4c1.3-1.4,1.1-3.3-0.2-4.6c-0.6-0.7-2-1.3-2.8-1.1
	c-3.5,0.9-7,2-10.3,3.3c-3.9,1.5-4.8,5-5,8.7C73.5,205.4,73,212.2,72.6,219.1z"/>
<path fill="#646469" d="M63.3,233c0.3-3.4,0.5-6.6,0.8-9.7c0.7-7.3,1.5-14.6,2.1-21.9c0.3-3.4-1.7-4.7-4.8-3.1
	c-0.3,0.1-0.6,0.4-0.8,0.5c-3.3,2.1-4.3,5.4-4.6,9c-0.4,5.2-0.8,10.4-1.1,15.6c-0.2,3.6-0.3,7.3-0.1,10.8c0.1,2.5,1.7,3.3,3.8,2
	C60.4,235.3,61.9,234,63.3,233z"/>
<path fill="#646469" d="M131,196.3c0.1,1.6-0.1,3.3,2.3,3.4c2.9,0.1,7.1-3.7,7.1-6.6c0.1-3.2-0.1-6.4,0.3-9.5
	c0.7-5.3-0.3-10.8,1.4-16c0.3-0.9-0.2-2.6-0.9-3.1c-0.6-0.5-2.3-0.3-3.1,0.1c-2.7,1.4-4.3,3.6-4.6,6.7c-0.6,5.8-1.1,11.7-1.7,17.5
	C131.4,191.1,131.2,193.7,131,196.3z"/>
<path fill="#646469" d="M263.4,225c3.6,0,7,0.1,10.3-0.1c0.8-0.1,1.8-0.9,2.1-1.6c0.8-1.8,1.3-3.7,1.8-5.6c0.4-1.3,0-2.1-1.5-1.9
	c-2.9,0.4-5.8,0.7-8.6,1.3c-0.8,0.2-1.8,0.9-2.1,1.7C264.7,220.6,264.2,222.7,263.4,225z"/>
<path fill="#646469" d="M60.7,183.1c0,2.4,1.9,3.8,3.9,2.5c2.1-1.3,3.9-3.1,5.5-5c1.4-1.7-0.1-4.8-2-4.8
	C65.7,175.9,60.5,179.3,60.7,183.1z"/>
<path fill="#646469" d="M140.2,153.6c2.1,0,5-2.4,5.9-5c0.9-2.4-0.4-4.1-3-3.8c-2.6,0.3-4.6,1.8-5.8,4
	C135.7,151.4,137.2,153.6,140.2,153.6z"/>
<path fill="#646469" d="M510.6,270.3c-0.4,2-0.8,3.9-1.1,6c-0.6,3.2-2.3,4.7-5.6,4.7c-24.2,0-48.4,0-72.6,0c-0.6,0-1.1-0.1-1.8-0.1
	c1-4.2,2.1-8.2,2.9-12.3c3.4-16.7,3.3-33.4-2.6-49.6c-6.1-16.9-17.3-30-31.6-40.5c-14.4-10.7-30.6-17.8-47.6-23.1
	c-20.5-6.4-41.5-9.8-62.9-11.3c-16.4-1.1-32.6-1.1-48.9,0.6c-8.8,0.9-17.5,2.6-26.3,4c-0.6,0.1-1.3,0.3-2.3,0.4
	c0.9-3,1.7-5.8,2.7-8.5c0.1-0.4,1.1-0.8,1.6-0.8c12-2,23.9-4.3,36-5.8c16.5-2.1,33.2-2.3,49.9-1.8c34.3,1.3,67.9,6.1,100.5,17.1
	c28.1,9.5,53.6,23.8,75.4,44.2c13.3,12.5,24.3,26.9,30.2,44.5c1.8,5.2,2.6,10.8,3.9,16.2c0.1,0.5,0.3,0.9,0.4,1.4
	C510.6,260.5,510.6,265.4,510.6,270.3z"/>
<path fill="#646469" d="M2.8,214.4c1.3-3.5,2.7-7,3.9-10.5c2.3-6.8,4.4-13.5,6.5-20.3c0.6-2,1.3-4,2-6c1.1-2.9,2.9-4.2,5.5-3.9
	c2.4,0.3,4.1,1.8,4.5,4.7c1.3,8,2.4,15.9,3.8,23.8c0.8,4.6,2.1,9.1,3.1,13.8c0.1,0.5-0.1,1,0,1.5c0.5,4.2,1,8.5,1.6,12.7
	c0.3,0,0.5,0,0.8,0c0.1-0.6,0.4-1.3,0.4-1.9c2.3-16.9,4.6-33.8,9.4-50.2c1.4-4.9,2.4-9.8,3.9-14.7c1.9-6.1,4.1-12.3,6.2-18.4
	c2.6-7.3,5.3-14.7,8-22c1.9-5.3,4.3-10.1,9.8-12.5c0.7,0,1.3,0,2,0c0.2,0.1,0.4,0.3,0.6,0.4c6.2,2,7.9,6.8,4.8,12.5
	c-1.1,2-3,2.9-4.4,4.4c-3.9,4-6,9-8,13.9c-2.4,6-4.3,12.2-6.5,18.4c-1.6,4.4-3.1,8.9-4.6,13.3c-0.2,0.5-0.4,1-0.4,1.5
	c-0.3,4.6-2.6,8.6-4.2,12.8c-1.3,3.5-1.9,7.4-2.5,11.2c-1.2,7-2.6,13.9-2.9,20.9c-0.1,2.8-1.3,5.2-1.6,7.8
	c-0.8,6.6-1.5,13.2-2.3,19.7c-0.6,5.5-1.3,10.8-2,16.3c-0.3,2.3-1.2,4.3-3.6,5.2c-2.5,0.9-4.8-0.3-5.4-2.8
	c-1.3-5.6-2.6-11.2-3.6-16.8c-2.1-11.2-3.9-22.5-5.9-33.8c-0.6-3.3-0.8-6.6-1.3-10c-0.3-1.7-0.5-3.4-0.9-5.1
	c-0.1-0.6-0.6-1.1-0.9-1.6c-0.3-0.1-0.4-0.1-0.7-0.1c-1.3,2.9-2.6,5.8-3.8,8.8c-1.3,3.1-2.2,6.3-3.7,9.3c-1.4,3-5.6,2.4-7.5-0.9
	C2.8,215.4,2.8,214.9,2.8,214.4z"/>
<path fill="#646469" d="M478.1,365.1c-3.7,0-7.5,0-11.2,0c-2.3-0.4-4.8-0.5-7-1.1c-4.5-1.3-6.6-4.6-5.8-9.2c0.6-3.2,1.4-6.3,2.3-9.4
	c1.9-6.8,4-13.5,6-20.4c0.2-0.7,0.4-1.4,0.6-2.4c-2.4,0-4.6,0-7.2,0c0.9-3.1,1.5-5.9,2.5-8.5c0.3-0.8,1.8-1.3,2.7-1.4
	c4.8-0.3,4.8-0.3,6.2-4.9c1.9-6.5,1-5.2,7.2-6.1c2.3-0.4,4.6-0.6,6.9-0.8c2.9-0.3,3.4,0.4,2.6,3.1c-0.8,2.8-1.6,5.6-2.6,8.6
	c0.9,0.1,1.6,0.1,2.3,0.1c4.3,0,8.5,0,12.7,0c2.2,0,2.7,0.7,2.2,2.8c-0.4,1.8-1,3.4-1.4,5.1c-0.3,1.4-1,1.9-2.4,1.9
	c-4.8-0.1-9.5,0-14.3-0.1c-1.5,0-2.2,0.5-2.6,2c-2.3,8.3-4.8,16.5-7.1,24.8c-1.3,4.7-0.6,5.7,4.2,6c3.4,0.2,6.8,0.1,10.1,0.1
	c0.8,0,1.6,0.1,2.7,0.2c-0.8,2.8-1.5,5.4-2.4,8c-0.2,0.6-1.2,1.1-1.9,1.1C481.7,365,479.9,365,478.1,365.1z"/>
<path fill="#646469" d="M201.2,365.1c-3.6,0-7.2,0-10.8,0c-2.4-0.4-5-0.6-7.4-1.3c-4.1-1.3-6.3-4.4-5.4-8.7c1.1-5.6,2.8-11,4.3-16.5
	c1.3-4.6,2.6-9.1,4-13.7c0.2-0.7,0.3-1.4,0.6-2.4c-2.4,0-4.5,0-7.1,0c0.9-3.1,1.6-6,2.6-8.6c0.3-0.7,1.7-1.2,2.6-1.3
	c4.9-0.3,4.9-0.3,6.2-5.1c1.8-6.3,1.2-5.1,6.7-5.9c2.6-0.4,5.1-0.7,7.6-0.9c2.2-0.2,2.8,0.6,2.3,2.7c-0.6,2.3-1.3,4.6-2,6.8
	c-0.2,0.7-0.3,1.4-0.6,2.3c4.2,0,8.1,0,12.1,0c5.5,0,5.5,0,4.1,5.2c-1.3,4.7-1.3,4.7-6,4.7c-3.8,0-7.6,0.1-11.5,0
	c-1.3,0-1.9,0.4-2.3,1.6c-2.4,8.6-4.9,17.2-7.3,25.8c-1.1,3.9-0.3,5.1,3.9,5.3c3.5,0.2,7,0.1,10.5,0.2c0.8,0,1.6,0.1,2.7,0.1
	c-0.8,2.8-1.5,5.5-2.4,8c-0.2,0.6-1.2,1.1-1.9,1.2C204.9,365,203.1,365,201.2,365.1z"/>
<path fill="#646469" d="M384.9,312.7c-9.7-0.8-19.6-0.6-29.3-0.8c-0.6,0-1.3,0.1-1.8,0.4c-0.6,0.3-1.4,0.8-1.6,1.4
	c-0.9,2.8-1.6,5.5-2.5,8.5c1.2,0.1,2,0.2,2.8,0.2c7.3,0.1,14.7,0,22,0.2c4.6,0.1,6,2.3,4.7,6.7c-0.4,1.6-1.2,2-2.8,2.1
	c-6.3,0.1-12.7,0.1-19,0.8c-12,1.3-18,6.7-20.4,17.9c-1.7,7.6,1.6,12.8,9.1,14.7c0.9,0.3,1.9,0.4,2.9,0.7c2.9,0,5.8,0,8.7,0
	c4.1-1.1,8.1-2.3,12.2-3.4c-0.1,0.8-0.3,1.5-0.5,2.5c4.2,0,8.2-0.1,12.2,0c2,0,3.1-0.9,3.7-2.8c1.1-4.1,2.4-8.3,3.5-12.4
	c2.1-7.5,4.4-15,6.1-22.6C396.9,318.8,393.1,313.4,384.9,312.7z M372.8,352.2c-0.1,0.3-0.5,0.6-0.8,0.8c-4.9,2-9.8,3.4-15.2,2.6
	c-3.3-0.6-4.4-2.2-3.9-5.6c1-6,3.4-8.7,9.4-9.6c4.4-0.6,9-0.6,14.2-0.8C375.1,344.3,373.9,348.2,372.8,352.2z"/>
<path fill="#646469" d="M109.6,312.8c-9.7-0.7-19.6-0.6-29.3-0.8c-0.6,0-1.2,0.1-1.8,0.4c-0.5,0.3-1.2,0.6-1.3,1.1
	c-0.9,2.9-1.7,5.8-2.6,8.9c1.2,0.1,1.9,0.1,2.7,0.1c6.7,0,13.3,0,20.1,0.1c1.6,0,3.2,0.3,4.6,0.8c2,0.6,2.6,2.3,2.1,4.9
	c-0.6,3.1-0.7,3.1-3.4,3.2c-6.1,0.2-12.3,0.1-18.4,0.8c-12.3,1.3-18.9,7.8-20.5,19.5c-0.9,6.4,2.1,11,8.3,12.8
	c1.3,0.4,2.6,0.6,3.8,0.9c2.5,0,5,0,7.5,0c4.4-1.1,8.8-2.2,13.2-3.3c-0.1,0.6-0.3,1.3-0.5,2.4c4.1,0,8.1-0.1,12,0
	c2,0,3.1-0.8,3.7-2.8c1.8-6.6,3.8-13.1,5.5-19.7c1.4-5.3,3.1-10.7,4.1-16.1C120.8,318.5,117.2,313.4,109.6,312.8z M97.3,351.8
	c-0.1,0.5-0.6,1.1-1.1,1.3c-4.8,1.9-9.6,3.4-14.9,2.6c-3.2-0.5-4.3-2-4-5.2c0.5-6,3.7-9.5,10-10.1c4.2-0.4,8.5-0.1,13.1-0.1
	C99.5,344.1,98.5,348,97.3,351.8z"/>
<path fill="#646469" d="M326.3,312.9c-4-1.8-8.3-2.1-12.7-1.8c-9.8,0.6-17.9,4.3-23.4,12.8c-4.1,6.5-6.3,13.9-7.3,21.4
	c-1.4,10.7,3.9,17.4,14.5,19.6c0.4,0.1,0.8,0.3,1.3,0.4c2.3,0,4.5,0,6.8,0c0.6-0.1,1.1-0.3,1.7-0.4c10.8-1.3,18.9-6.7,23.2-16.8
	c2.3-5.4,3.9-11.1,5.1-16.9C337.2,323,333.6,316.2,326.3,312.9z M320.9,331.5c-1.3,4.8-2.4,9.8-4.2,14.4c-1.9,5.1-6.1,7.8-14.3,7.8
	c-3,0-5.6-2.4-4.7-7.9c0.9-5.4,2.4-10.8,4.6-15.9c2.3-5.6,8.1-8,14-6.8c3,0.6,4.6,2.4,4.8,5.5C321.1,329.5,321.2,330.5,320.9,331.5z
	"/>
<path fill="#646469" d="M48.9,312.1c-3.8-0.6-7.8-0.8-11.6-0.4c-11.8,0.9-20.5,6.8-25.1,17.8c-1.9,4.7-3.3,9.7-4.4,14.6
	c-1.6,6.8-0.3,12.9,5.7,17.3c2.8,2.1,6.1,3.3,9.6,3.3c6.7,0,13.4-0.6,20.2-0.7c4.7-0.1,7.3-2,8.3-6.8c0.8-4.2,0.8-4.6-3.6-4.3
	c-6,0.3-11.8,0.8-17.8,0.8c-7.5,0.1-10-3.6-7.8-10.7c0.4-1.5,1.1-2.1,2.8-2.1c5,0.1,10,0.1,15,0.1c5.1,0,10.2-0.1,15.3,0
	c2,0,3.3-0.8,3.8-2.8c0.7-2.5,1.4-5,2-7.5C63.6,320.9,56.2,313.3,48.9,312.1z M46.8,330.7c-0.2,0.3-0.8,0.6-1.1,0.6
	c-6.5,0.1-12.9,0-19.6,0c0.9-4.9,4.4-8.1,9.5-8.6c2.6-0.3,5.5-0.2,8.1,0.3C47.2,323.7,48.6,327.7,46.8,330.7z"/>
<path fill="#646469" d="M228.2,270.9c3.5,0,6.9,0.1,10.2-0.1c0.8-0.1,1.8-1.1,2.1-1.9c1.2-3.3,2.1-6.6,3.1-10
	c1.7-5.8,3.6-11.6,5-17.5c1.4-6.1-1.1-10.2-7.3-10.7c-7.6-0.7-15.4-0.5-23.1-0.6c-0.8,0-2,0.8-2.3,1.5c-0.9,2.1-1.4,4.3-2.1,6.6
	c1,0,1.7,0,2.4,0c5,0,9.9,0,14.9,0.1c1.3,0,2.5,0.2,3.7,0.5c1.9,0.6,2,2.3,1.8,3.9c-0.3,1.5-0.7,2.6-2.8,2.6
	c-4.8,0-9.7,0.1-14.4,0.6c-8.8,0.9-13.7,5.2-15.7,13.3c-1.8,7,0.9,11.1,8,12.3c0.6,0.1,1.2,0.1,1.8,0.2c5.2,0.3,10.2-0.6,15.2-2.9
	C228.4,269.4,228.4,270,228.2,270.9z M233.7,251.6c-1.1,3.6-1.9,6.6-2.8,9.5c-0.1,0.3-0.4,0.7-0.8,0.8c-3.8,1.6-7.6,2.8-11.7,2
	c-2.6-0.4-3.3-1.6-3-4.1c0.5-4.3,2.7-6.8,7-7.5C226,251.8,229.6,251.9,233.7,251.6z"/>
</svg>
