<?xml version="1.0" encoding="utf-8"?>
<!-- Generator: Adobe Illustrator 18.1.1, SVG Export Plug-In . SVG Version: 6.00 Build 0)  -->
<svg version="1.1" id="Layer_1" xmlns="http://www.w3.org/2000/svg" xmlns:xlink="http://www.w3.org/1999/xlink" x="0px" y="0px"
	 viewBox="0 0 512 512" enable-background="new 0 0 512 512" xml:space="preserve">
<g>
	<path fill="#646469" d="M250.5,286c0,2.1-2.5,6.2-7.3,4c-4.7-2.3-4,0.3-3.6,3.5c0,0.4,0,0.7-0.1,0.8h-0.6c-0.2-0.1-0.4-0.2-0.7-0.4
		c-1-0.9-2.1-0.5-3.5,0.2c-0.8,0.4-0.8,0.2-1.3-0.4c-0.5-0.7-1.1-3.5,1-5.4c3.2-3,4.5-2.5,8.6-1.2c2.6,0.9,3.2-0.1,3.8-1.9
		L250.5,286L250.5,286z"/>
	<path fill="#646469" d="M255.7,281.6c2.3-0.5,2.2-1.2,2.9-3.5c0.4-1.4,1.4-1.9,2.1-2.3c0.2,1.2,1.6,4.8-1,4.8c1.4,0,3.1-0.1,2.5-4
		c-0.2-2.1,1-4.4,4.2-6c0.1,3.3,1,6.8-2.5,9.6c2.3,0.2,4.2-0.2,5.4-0.8c1.1-0.5,1.5-1.1,1.2-3.3c-0.2-2.2-1.5-2.7-0.2-6.1
		c1.4-3.5,2.2-3.9,2.9-4.4c-0.2,2.7,0.2,2.6,1.3,4.2c1.1,1.7,0.5,4.1-0.2,4.8c-1.7,2.1-2.1,2.5-2.1,3.5c2-0.4,5-2.6,6-3.8
		c0.9-1.3,1.7-1.8,0-4c-1.8-2.1-4.7-4.9-0.2-11.9c0.6,1.6,4.2,5.8,4.2,8.1c-0.1,2.4-0.7,4.4-1.2,5.4c1.3-1.1,2.8-3.5,3.5-5.4
		c0.5-1.9,0.8-2.5-1.9-4.2c-2.8-1.5-2.4-8.3-2.3-10.2c3,0.2,5.5,1.3,5.4,11.5c2-1.9,3.1-7.3,3.1-7.5c0.3-1.7-0.1-2.6-1.5-2.9
		c-1.2-0.2-6.4-1.8-6.1-8.1c2.4-0.5,5.5,0.8,7.1,6.5c0.1-4.4-0.3-5.8-1-7.5c-0.8-1.6-2.5-1.2-4.8-0.8c-2.4,0.6-6.1-2.4-6.7-3.8
		c2.8-0.9,6.7-1.5,10,2.1c0-2-1.8-4.3-1.7-4.2c-0.8,0-1.2,0.7-2.9,0.6c-1.6-0.3-5.1-1.4-6.7-4.4c3-0.6,6.4-0.6,8.6,1.7
		c-1.5-2.5-4.8-5.8-5.6-5.8c-1.8,0.1-2.9,2.5-4.6,2.3c-1.8-0.1-4.4-1.2-5.2-2.7c3.8-5,7.1,1,8.3-1c-2.9-1.8-4.5-2.7-5.2-2.5
		c-4.8,1.5-9.1-0.9-11.9-6c5.1-0.3,9.5-0.4,12.3,4.6c0.3,0.6,4.6,2,5.8,2.7c-2.8-3.7-4.2-2.8-4.2-8.8c3.4,1.3,8.7,3.4,5.8,9.4
		c-0.2,0.3,5,6.1,6,6.7c0.2-2.1-3.8-6-3.3-8.1c0.6-2.2,1.5-3.1,2.7-3.6c-0.7,3.1,4.2,5.1,3.3,9c-0.8,3.9-1.3,2.3-1.7,3.8
		c-0.4,1.5,2.3,4.7,3.3,7.1c0.7-2.1-1-3-0.8-5.8c0.3-2.7,1.9-2.7,3.3-4.6c-0.5,5.6,2.5,4.7,2.1,8.3c-0.3,3.5-2.6,4.1-3.3,4.6
		c-0.9,0.7-0.9,3.7,0,7.3c0.6,2.2,1.1,1.9,1.2,0.4c-0.1-1.4-0.3-8.4,4.4-9c-0.6,3.2,1.8,8.3-1.2,10.9c-3,2.7-3.8,1.2-4.2,2.3
		c-0.4,1-1.3,4-1.3,4.8c2.6-0.4,2-4.9,7.9-4.4c-0.5,2.9-1.9,8.2-5.8,7.5c-1.9-0.4-3.2-1.4-6.3,4.8c2.8-0.9,3.3,0.1,5-0.4
		c1.8-0.5,2.6-0.7,3.6-1.5c-1.9,4.6-4.1,5.8-6.5,5.8c-2.4-0.1-2-1.1-3.1-1.2c-1.1-0.1-3.9,2.6-5.8,4.6c2.4,1.4,5.8-2.8,8.8-0.4
		c-2.7,0.3-2.7,4.8-6.3,4.6c-3.5-0.2-2.8-2.5-4-2.9c-1.1-0.3-6.5,2-8.4,3.3c2.2-0.5,5.7-1.5,8.3,0.2c-4.8,3.5-6.9,5.1-10.2,0.8
		c-0.5-0.8-1.7-0.4-3.5-0.4c-1.2,0.1-5,0.9-6.3,1.5L255.7,281.6L255.7,281.6z"/>
	<path fill="#646469" d="M254.3,280c0.4,0.2,0.1,3.1,1,4.6c1,1.7,2.5,3,4,2.5c4.1-1.3,5.5-1.8,8.6,1.2c2,1.9,1.4,4.7,1,5.4
		c-0.5,0.6-0.6,0.8-1.3,0.4c-1.4-0.7-2.4-1.1-3.5-0.2c-0.3,0.2-0.5,0.3-0.7,0.4h-0.6c-0.1-0.1-0.1-0.4-0.1-0.8
		c0.4-3.1,1-5.8-3.6-3.5c-4.8,2.1-7.6-0.5-7.7-2.5C251.3,278.1,252,279.1,254.3,280L254.3,280z"/>
	<path fill="#646469" d="M270.3,257.2l4.8-12.9c-1.1-3.3-2.6-1.1-2.5,1.5c-2.6-0.5-4.8,0.2-4.2,2.3c2.1-2.2,4.3,0.5,2.5,1.9
		c-1.7,1.4-3.7,1.9-7.3-1.2c-3.6-3.2,0.9-4.2,2.9-1c0.8-3.6-1.4-4.6-3.1-5c0.6-1.6,0.6-3.6,0-4.8c-0.8,0.3-1.6,1.1-1.9,4
		c-3,0.1-4.3,0.5-4.2,3.5c2.9-2.3,3.9,0.7,1.7,2.3c-2.3,1.6-6.8,1.6-6.7-4.4c0-3.9,2.9-2.5,4.2-0.6c0.2-3.2-1.1-4.3-4.4-4.6
		c0.4-2.3,0.1-3.6-1-5c-1,1.4-1.2,2.7-0.8,5c-3.4,0.3-4.7,1.4-4.4,4.6c1.2-1.9,4.2-3.3,4.2,0.6c0,6.1-4.5,6-6.7,4.4
		c-2.2-1.6-1.2-4.6,1.7-2.3c0-3-1.3-3.4-4.2-3.5c-0.3-3-1.2-3.7-2.1-4c-0.5,1.2-0.4,3.2,0,4.8c-1.6,0.4-3.7,1.4-2.9,5
		c1.9-3.2,6.4-2.2,2.7,1c-3.5,3-5.5,2.5-7.3,1.2c-1.7-1.4,0.5-4.1,2.7-1.9c0.6-2.1-1.7-2.8-4.2-2.3c0.1-2.6-1.5-4.8-2.5-1.5
		l4.8,12.9H270.3L270.3,257.2z"/>
	<polygon fill="#646469" points="268.9,263.9 268.6,259.7 233.8,259.7 233.2,263.9 268.9,263.9 	"/>
	<path fill="#646469" d="M247.6,281c0.3,0.6,2.8,1.6,3.3,0.8c0-2.4,0.8-2.3-1.7-2.9C248,278.7,246.5,278.4,247.6,281L247.6,281z"/>
	<path fill="#646469" d="M219.4,235.3c1.5-2.5,4.8-5.8,5.8-5.8c1.6,0.2,2.8,2.5,4.4,2.3c1.8-0.1,4.4-1.2,5.2-2.7
		c-3.8-4.9-7.1,1-8.3-1c2.9-1.8,4.5-2.7,5.2-2.5c4.8,1.5,9.1-0.9,12.1-6c-5.2-0.3-9.6-0.4-12.5,4.6c-0.3,0.6-4.6,2-5.8,2.7
		c2.8-3.7,4.2-2.8,4.2-8.8c-3.4,1.3-8.7,3.4-5.6,9.4c0,0.3-5.1,6.1-6,6.7c-0.3-2.1,3.6-6,3.1-8.1c-0.6-2.2-1.6-3.1-2.7-3.6
		c0.6,3.1-4.3,5.1-3.5,9c1,3.9,1.4,2.3,1.7,3.8c0.5,1.5-2.2,4.7-3.3,7.1c-0.6-2.1,1.1-3,0.8-5.8c-0.2-2.7-1.8-2.7-3.1-4.6
		c0.4,5.6-2.5,4.7-2.1,8.3c0.3,3.5,2.6,4.1,3.1,4.6c1,0.7,1,3.7,0.2,7.3c-0.6,2.2-1.1,1.9-1.2,0.4c0-1.4,0.2-8.4-4.6-9
		c0.7,3.2-1.7,8.3,1.3,10.9c3,2.7,3.7,1.2,4,2.3c0.5,1,1.4,4,1.5,4.8c-2.7-0.4-2.1-4.9-8.1-4.4c0.6,2.9,2,8.2,6,7.5
		c1.8-0.4,3.1-1.4,6.3,4.8c-2.8-0.9-3.4,0.1-5.2-0.4c-1.7-0.5-2.5-0.7-3.5-1.5c1.8,4.6,4,5.8,6.5,5.8c2.3-0.1,1.9-1.1,3.1-1.2
		c1.1-0.1,3.8,2.6,5.8,4.6c-2.4,1.4-5.9-2.8-8.8-0.4c2.6,0.3,2.7,4.8,6.1,4.6c3.6-0.2,2.9-2.5,4-2.9c1.2-0.3,6.1,2,8.1,3.3
		c-2.2-0.4-5-1.1-7.7,0.2c4.8,3.5,6.9,5.1,10,0.8c0.6-0.8,1.8-0.5,3.6-0.4c3.8,0.5,5.5,2.4,10.8,2.7v-1.7c-1.9-0.3-5.6-0.5-6.9-5
		c-0.5-1.4-1.4-1.9-2.3-2.3c-0.1,1.2-0.4,2.7,1.2,4.8c-1.9,0-3.1-0.1-2.7-4c0.3-2.1-0.9-4.4-4-6c-0.2,3.3-1,6.8,2.5,9.6
		c-2.3,0.2-4.2-0.2-5.4-0.8c-1.2-0.5-1.5-1.1-1.3-3.3c0.4-2.2,1.7-2.7,0.4-6.1c-1.5-3.5-2.2-3.9-3.1-4.4c0.3,2.7-0.1,2.6-1.2,4.2
		c-1.1,1.7-0.6,4.1,0,4.8c1.9,2.1,2.2,2.5,2.3,3.5c-2-0.4-5.1-2.6-6-3.8c-0.9-1.3-1.8-1.8,0-4c1.7-2.1,4.6-4.9,0.2-11.9
		c-0.7,1.6-4.3,5.8-4.2,8.1c0.1,2.4,0.6,4.4,1.2,5.4c-1.4-1.1-2.9-3.5-3.5-5.4c-0.5-1.9-0.9-2.5,1.9-4.2c2.7-1.5,2.3-8.3,2.3-10.2
		c-3.1,0.2-5.6,1.3-5.4,11.5c-2-1.9-3.2-7.3-3.3-7.5c-0.1-1.7,0.3-2.6,1.5-2.9c1.4-0.2,6.6-1.8,6.3-8.1c-2.4-0.5-5.6,0.8-7.1,6.5
		c-0.1-4.4,0.3-5.8,1-7.5c0.7-1.6,2.4-1.2,4.8-0.8c2.3,0.6,6.1-2.4,6.7-3.8c-2.9-0.9-6.8-1.5-10.2,2.1c0.2-2,1.9-4.3,1.9-4.2
		c0.7,0,1.1,0.7,2.7,0.6c1.7-0.3,5.2-1.4,6.7-4.4C225,232.9,221.6,232.9,219.4,235.3L219.4,235.3z"/>
	<polygon fill="#646469" points="198.7,269.5 198.7,266.4 194.4,266 194.4,234.7 198.7,234.5 198.7,231.8 179.8,231.8 179.8,234.5 
		183.9,234.7 183.9,266 179.8,266.4 179.8,269.5 198.7,269.5 	"/>
	<path fill="#646469" d="M73.8,234.7c8.7-0.6,13.7,3.2,16.7,8.8l2.7-1.3l-3.1-11.1c-1.3,0.5-2.7,0.8-4,0.8H59.6v2.7l3.6,0.2V266
		l-3.6,0.4v3.1h24c2.2,0,5.1-0.1,7.1,0.4l3.5-11.1l-3.3-2.1C84,267,81,266.8,73.8,266v-14.8c4.8-0.1,6.4,2,6.9,5.6h3.6V242h-3.6
		c-0.6,3.6-2.1,5.7-6.9,5.6V234.7L73.8,234.7z"/>
	<polygon fill="#646469" points="42.1,251.4 30,251.4 30,266 33.7,266.2 33.7,269.3 15.8,269.3 15.8,266.2 19.5,266 19.5,234.7 
		15.8,234.3 15.8,231.8 33.5,231.8 33.5,234.3 30,234.7 30,247.6 42.1,247.6 42.1,234.7 38.7,234.3 38.7,231.8 56.3,231.8 
		56.3,234.3 52.7,234.7 52.7,266 56.3,266.2 56.3,269.3 38.5,269.3 38.5,266.2 42.1,266 42.1,251.4 	"/>
	<path fill="#646469" d="M101.5,237.8c-1-1.6-2.6-2.7-5.2-3.5v-2.5h13.4l17.9,25.2v-17.1c0-2.1-2-5.2-5.4-5.2v-2.9h13.6v2.9
		c-3.2,0-5.2,3.1-5.2,5.2v29.6h-6.1l-20-28.2v20.2c0,2.1,2,5.2,5.2,5.4v2.7H96.1v-2.7c3.4-0.2,5.4-3.3,5.4-5.4V237.8L101.5,237.8z"
		/>
	<path fill="#646469" d="M321.9,232.2v2.7l-4.2,0.4v31.1c7.3,0.8,9.4,1,16.3-9.4l3.3,2.1l-2.5,11.1c-2.1-0.4-5-0.4-7.3-0.4h-23.8
		v-3.1l3.6-0.4v-31.1l-3.6-0.4v-2.7H321.9L321.9,232.2z"/>
	<path fill="#646469" d="M357.7,232.2v2.7l-4.2,0.4v31.1c7.2,0.8,9.3,1,16.3-9.4l3.1,2.1l-2.5,11.1c-2-0.4-4.9-0.4-7.1-0.4h-24v-3.1
		l3.6-0.4v-31.1l-3.5-0.4v-2.7H357.7L357.7,232.2z"/>
	<path fill="#646469" d="M448.9,234.9v-2.7h-13.8v2.7c4.3,0.4,5.7,2,3.6,5.6l-5.6,9.6l-9-14.8l4.2-0.4v-2.7h-18.6v2.7l3.6,0.4
		l10.9,18.1v13.3l-3.6,0.2v3.1h18.2v-3.1l-4.2-0.4v-12.9l7.9-13.4C444,237.6,444.9,235.6,448.9,234.9L448.9,234.9z"/>
	<path fill-rule="evenodd" clip-rule="evenodd" fill="#646469" d="M153.5,247.6v-12.9c2.9-0.3,10.1-2.1,10.2,6.5
		C163.7,249.9,155.5,248,153.5,247.6L153.5,247.6L153.5,247.6z M164.5,269.5l-9-18.1h-1.9V266l3.6,0.4v3.1h-17.9v-3.1l3.6-0.4v-31.3
		l-3.6-0.2v-2.7h17.9c7.5,0.1,17,0.6,17.1,9.4c-0.1,6.3-6,8.2-8.6,9l7.9,15.7l3.6,0.4v3.1H164.5L164.5,269.5z"/>
	<path fill="#646469" d="M153.5,247.6c2,0.4,10.1,2.4,10.2-6.3c0-8.7-7.3-6.9-10.2-6.5V247.6L153.5,247.6L153.5,247.6z M164.5,269.5
		l-9-18.1h-1.9V266l3.6,0.4v3.1h-17.9v-3.1l3.6-0.4v-31.3l-3.6-0.2v-2.7h17.9c7.5,0.1,17,0.6,17.1,9.4c-0.1,6.3-6,8.2-8.6,9
		l7.9,15.7l3.6,0.4v3.1H164.5L164.5,269.5z"/>
	<path fill-rule="evenodd" clip-rule="evenodd" fill="#646469" d="M393.4,267.9c4.8-0.1,8.8-5.1,8.8-16.9c0-11.5-4-16.5-8.8-16.5
		c-4.9,0.1-8.9,5-8.8,16.5C384.5,262.7,388.4,267.9,393.4,267.9L393.4,267.9L393.4,267.9z M393.4,271c10.9,0,19.4-8.9,19.4-20
		c0-10.9-8.5-19.8-19.4-19.8c-11,0-19.6,9-19.6,20C373.8,262.2,382.4,271,393.4,271L393.4,271z"/>
	<path fill="#646469" d="M393.4,267.9c4.8-0.1,8.8-5.1,8.8-16.9c0-11.5-4-16.5-8.8-16.5c-4.9,0.1-8.9,5-8.8,16.5
		C384.5,262.7,388.4,267.9,393.4,267.9L393.4,267.9L393.4,267.9z M393.4,271c-11,0-19.6-8.8-19.6-19.8c0-11,8.6-20,19.6-20
		c10.9,0,19.4,8.9,19.4,19.8C412.8,262.1,404.3,271,393.4,271L393.4,271z"/>
	<path fill-rule="evenodd" clip-rule="evenodd" fill="#646469" d="M466.7,267.2v-31.9c10.1-1.5,12.7,4.4,12.7,16.3
		C479.6,264.5,476.8,268.6,466.7,267.2L466.7,267.2L466.7,267.2z M452.5,269.9v-3.1l3.6-0.4v-31.1l-3.5-0.4v-2.7h19.8
		c6.3,0.1,18.4,4.2,18.4,19.6c0,15.5-13.5,18-17.5,18.1H452.5L452.5,269.9z"/>
	<path fill="#646469" d="M466.7,267.2c10,1.5,12.8-2.6,12.7-15.6c0-11.9-2.6-17.8-12.7-16.3V267.2L466.7,267.2L466.7,267.2z
		 M452.5,269.9v-3.1l3.6-0.4v-31.1l-3.5-0.4v-2.7h19.8c6.3,0.1,18.4,4.2,18.4,19.6c0,15.5-13.5,18-17.5,18.1H452.5L452.5,269.9z"/>
</g>
</svg>
