<?xml version="1.0" encoding="utf-8"?>
<!-- Generator: Adobe Illustrator 18.0.0, SVG Export Plug-In . SVG Version: 6.00 Build 0)  -->
<!DOCTYPE svg PUBLIC "-//W3C//DTD SVG 1.1//EN" "http://www.w3.org/Graphics/SVG/1.1/DTD/svg11.dtd">
<svg version="1.1" id="Layer_1" xmlns="http://www.w3.org/2000/svg" xmlns:xlink="http://www.w3.org/1999/xlink" x="0px" y="0px"
	 viewBox="0 0 512 512" enable-background="new 0 0 512 512" xml:space="preserve">
<g>
	<path fill-rule="evenodd" clip-rule="evenodd" fill="#646469" d="M352.5,367.8c-17.3-0.5-31.3-6.5-40.5-21.1
		c-16.2-25.7-3.4-62.3,30.6-68.3c12.9-2.3,25.3-0.7,36.5,6.4c13.8,8.7,20.4,21.7,20.4,37.9c0.1,23.2-16.7,41.8-39.7,44.5
		C357.2,367.5,354.6,367.7,352.5,367.8z M352.4,289c-1.5,0.1-3,0.2-4.5,0.4c-27.6,3.2-36.6,32.4-24.7,51.3
		c7.7,12.2,19.4,16.7,33.4,15.2c20.9-2.2,33.9-20.9,29.1-41.4C382,299.2,368.9,289.2,352.4,289z"/>
	<path fill-rule="evenodd" clip-rule="evenodd" fill="#646469" d="M90.8,316.9c0-12.7,0-25.3,0-38c4.1,0,8.1,0,12.3,0
		c0,29.1,0,58.3,0,87.5c-4,0-8,0-12.2,0c0-12.6,0-25.2,0-38c-17.6,0-34.9,0-52.5,0c0,12.7,0,25.3,0,38c-4.2,0-8.2,0-12.3,0
		c0-29.1,0-58.3,0-87.6c4,0,8,0,12.2,0c0,12.6,0,25.2,0,38C55.7,316.9,73.1,316.9,90.8,316.9z"/>
	<path fill-rule="evenodd" clip-rule="evenodd" fill="#646469" d="M486,366.6c-5.1,0-9.8,0-14.5,0c-0.5,0-1.2-0.6-1.5-1.1
		c-9.1-11-18.2-22.1-27.2-33.1c-0.5-0.6-1.1-1.3-1.8-2.1c-0.8,0.9-1.5,1.7-2.2,2.6c-9,10.8-18.1,21.7-27.1,32.5
		c-0.7,0.9-1.4,1.3-2.6,1.3c-3.9-0.1-7.8,0-11.7,0c-0.5,0-1-0.1-1.9-0.1c12.7-15.2,25.1-30.2,37.7-45.3c-11.6-14-23.2-28-35-42.2
		c0.8-0.1,1.3-0.2,1.8-0.2c3.9,0,7.8,0,11.7,0c1.2,0,2,0.4,2.8,1.3c8.5,10.3,17,20.7,25.5,31c0.3,0.3,0.6,0.6,1,1.1
		c0.5-0.5,0.9-1,1.3-1.5c8.2-10,16.4-19.9,24.5-29.9c1.2-1.5,2.3-2.1,4.3-2.1c4,0.2,8,0,12.6,0c-11.8,14.3-23.4,28.3-35,42.4
		C460.9,336.1,473.3,351.1,486,366.6z"/>
	<path fill-rule="evenodd" clip-rule="evenodd" fill="#646469" d="M300.2,355.5c-5.9,5.4-12.7,9-20.3,10.7
		c-14.2,3.2-27.9,2-40.2-6.2c-13.5-9-20.1-22-19.7-38.1c0.5-25.2,18.8-43,44.7-44.2c12.6-0.6,24.2,2.6,34.1,10.8
		c0.2,0.2,0.4,0.4,0.8,0.8c-2.1,3.6-4.2,7.2-6.4,10.9c-0.4-0.3-0.7-0.5-1-0.8c-7.8-7.8-17.3-10.9-28.1-10c-11.7,0.9-21.1,6-27,16.4
		c-11,19.6-1.2,47.1,25.4,50.3c10.1,1.2,22.4-1.7,31.1-11.4C295.7,348.2,297.9,351.7,300.2,355.5z"/>
	<path fill-rule="evenodd" clip-rule="evenodd" fill="#646469" d="M203.6,294.9c-0.8-0.6-1.3-0.9-1.9-1.3c-8.1-5.4-17-6.9-26.5-4.8
		c-2.1,0.5-4.1,1.5-5.9,2.8c-4.8,3.5-5.6,9.7-1.6,14c2.4,2.5,5.4,4.5,8.4,6.2c6.1,3.5,12.5,6.4,18.7,9.8c4.1,2.2,7.6,5.2,10.6,8.8
		c7.3,9,7.1,25.5-6.7,32.9c-5.1,2.7-10.5,4.1-16.2,4.4c-10,0.5-19.6-1.1-28.4-6.3c-1.2-0.7-1.6-1.5-1.6-2.9c0.1-3.4,0-6.8,0-10.3
		c2.7,1.4,5.1,2.8,7.6,3.9c8.8,4,18,5.5,27.5,3.1c1.8-0.5,3.6-1.2,5.2-2.2c5.5-3.4,6.7-10.4,2.8-15.5c-2.5-3.3-6-5.5-9.6-7.4
		c-5.6-2.9-11.4-5.5-16.9-8.5c-3.4-1.9-6.8-4.1-9.8-6.6c-10.2-8.5-7.5-21.7-1.1-28.6c4.7-4.9,10.6-7.5,17.2-8.4
		c9.2-1.1,18.2,0.1,26.5,4.5c1.1,0.6,1.6,1.2,1.5,2.5C203.6,288.2,203.6,291.4,203.6,294.9z"/>
	<path fill-rule="evenodd" clip-rule="evenodd" fill="#646469" d="M254.8,144.2c8,9.2,15.5,18.4,17.1,30.9c0.8,6-0.1,11.8-2.3,17.3
		c-1.9,4.9-4,9.8-6,14.6c-4.1,9.7-7.5,19.6-8.8,30.1c-1.5-12.3-6-23.6-10.8-34.8c-1.7-4-3.3-8.1-4.8-12.2
		c-2.6-7.4-2.4-14.9,0.1-22.3C242.4,158.6,248.4,151.4,254.8,144.2z"/>
	<path fill-rule="evenodd" clip-rule="evenodd" fill="#646469" d="M123,278.8c3.4,0,6.8,0,10.1,0c0.7,0,1.3,0,2.1,0
		c0,29.3,0,58.4,0,87.6c-4,0-8,0-12.2,0C123,337.3,123,308.2,123,278.8z"/>
	<path fill-rule="evenodd" clip-rule="evenodd" fill="#646469" d="M235.4,250c3.8-3.1,5.5-7,5.4-11.7c-0.1-3.7-1.2-7.1-3.7-9.8
		c-2.6-3-6-4-9.9-3.2c-2.6,0.5-4.6,2.5-5,4.7c-0.4,2.2,0.7,4.1,3.2,5.5c-3.3,3.1-9.3,3.3-13.6,0.3c-4.6-3.2-6.2-7.9-6.1-13.3
		c0.1-6.9,5.7-13.3,13.2-15c5.7-1.3,11.1-0.4,15.8,3c8.6,6.2,13.1,14.7,12.9,25.3c-0.1,6.5-4,11.9-9.3,13.5
		C237.3,249.7,236.3,249.8,235.4,250z"/>
	<path fill-rule="evenodd" clip-rule="evenodd" fill="#646469" d="M284,235.6c2.6-1.5,3.8-3.4,3.4-5.6c-0.4-2.2-2.4-4.2-5-4.7
		c-4-0.8-7.4,0.3-10,3.4c-5.4,6.4-4.6,16.5,1.6,20.8c0.1,0.1,0.2,0.3,0.3,0.4c-6.3-0.6-10.7-4.8-12-11.6c-1.6-8.8,1.8-16.1,7-22.8
		c3.5-4.5,8.1-7.2,13.7-8.3c8.8-1.6,18.3,3.8,20.4,12c1.8,6.9-1.2,15.8-8.9,18.1C290.8,238.5,287.3,238,284,235.6z"/>
</g>
</svg>
