<?xml version="1.0" encoding="utf-8"?>
<!-- Generator: Adobe Illustrator 18.0.0, SVG Export Plug-In . SVG Version: 6.00 Build 0)  -->
<!DOCTYPE svg PUBLIC "-//W3C//DTD SVG 1.1//EN" "http://www.w3.org/Graphics/SVG/1.1/DTD/svg11.dtd">
<svg version="1.1" id="Layer_1" xmlns="http://www.w3.org/2000/svg" xmlns:xlink="http://www.w3.org/1999/xlink" x="0px" y="0px"
	 viewBox="0 0 512 512" enable-background="new 0 0 512 512" xml:space="preserve">
<path fill="#64646A" d="M288.3,272.2h-59.7c0.5-4.8,5.6-9.6,11.6-9.6h35.2v-9.2h-48.2c0.5-4.8,5.6-9.6,11.6-9.6c5,0,40.2,0,40.2,0
	v-6.7l27.9,22.4L288.3,272.2z M490.7,253.5h-37.5c0.5-4.8,3.8-9.6,9.8-9.6c5,0,44.3,0,44.3,0v-10.6h-46.3c-18.4,0-26,15.6-26,29.3
	c0,0,49.9,0,51.7,0c1.8,0,5.9,0.4,5.9,4.7c0,4.3-3.6,4.7-9.8,4.9h-53.9v-38.9h-15.9v38.9h-30.3c-9.1,0-10.1-6.8-10.1-10.5
	c0-4,0-28.4,0-28.4h-28.9l-23.5,17.3l-21.2-17.3H237c-18.4,0-29.5,14.4-31.1,25.7h12.8c-5.1,3.5-8.7,8.2-10.7,13.1l-36,0
	c-9.1,0-10.1-6.8-10.1-10.5c0-4,0-28.4,0-28.4H146v27c0,17.6,12.2,21.1,18.1,21.1c8.6,0,126.8,0,126.8,0l23.7-16.1l21.5,16.1h25
	l-33.3-24.9l27.4-20v26c0,15.9,15.3,18.9,19.6,18.9h115.8c5.7,0,21.5-0.7,21.5-13.5C512,255.2,500.4,253.5,490.7,253.5z"/>
<path fill="#64646A" d="M62.9,301.9c20.8,0,39.3-7.4,50.8-18.8l-10.3,0.1c-9.8,8.3-24,13.6-40.2,13.6C33,296.8,9.5,278.5,9.5,256
	c0-26,23.5-40.8,53.7-40.8c1.9,0,3.5,0.9,2.3,2.6c-6.3,7.7-24.1,32.3-27.4,37.7c-6.4,10.5-6.3,23.5,9.5,24.4h66.1
	c3.4,0,4.2-1.6,5.5-3.3c4.4-6.1,6.7-13.2,6.7-20.6c0-19.4-13.4-33.9-33.1-41l-3.1,4.6c16.4,6.1,27.2,18.6,27.2,36.4
	c0,3.1-0.4,6.1-1.3,9c-0.7,2.5-2.2,4.6-4.9,4.6H57.9c-6.8,0-4.1-7.1-1.6-10.5c3.6-6.6,23.5-34.2,28.3-39.3c1.2-1.9,4.6-5.8-0.1-7.3
	c-6.7-1.6-14-2.5-21.6-2.5C28.2,210.1,0,228.2,0,256C0,284.1,28.2,301.9,62.9,301.9z"/>
</svg>
