<?xml version="1.0" encoding="utf-8"?>
<!-- Generator: Adobe Illustrator 18.0.0, SVG Export Plug-In . SVG Version: 6.00 Build 0)  -->
<!DOCTYPE svg PUBLIC "-//W3C//DTD SVG 1.1//EN" "http://www.w3.org/Graphics/SVG/1.1/DTD/svg11.dtd">
<svg version="1.1" id="Layer_1" xmlns="http://www.w3.org/2000/svg" xmlns:xlink="http://www.w3.org/1999/xlink" x="0px" y="0px"
	 viewBox="0 0 512 512" enable-background="new 0 0 512 512" xml:space="preserve">
<path fill="#646469" d="M198.4,254.9c-2.9-2.6-6.3-4.8-10-6.4c-3.7-1.6-7.6-2.9-11.4-3.9c-6.6-1.5-11.8-3.3-15.6-5.5
	c-3.8-2.2-5.7-5.1-5.7-8.7c0-1.4,0.4-2.7,1.2-3.9c0.8-1.2,1.8-2.3,3.2-3.2c1.3-0.9,2.8-1.6,4.4-2.1c1.6-0.5,3.3-0.8,5-0.8
	c2.5,0,4.9,0.3,7.2,1c2.3,0.6,4.3,1.4,6.2,2.4c1.9,1,3.6,2,5.1,3.1c1.5,1.1,2.9,2.1,4,3.1l9.9-18.7c-0.1-0.1-0.2-0.2-0.3-0.3
	c-1.8-1.6-4.2-3.2-7.1-4.7c-2.9-1.5-6.4-2.8-10.5-3.9c-4.1-1.1-8.8-1.7-14.2-1.7c-6.5,0-12.2,0.9-17,2.6c-4.8,1.7-8.8,4.1-12,7.1
	c-3.2,3-5.6,6.5-7.2,10.3c-1.6,3.9-2.4,8.1-2.4,12.5c0,4,0.7,7.6,2,10.9c1.4,3.3,3.3,6.2,5.8,8.7c2.5,2.5,5.4,4.7,8.8,6.5
	c3.4,1.8,7.1,3.2,11.1,4.1c8.2,2.1,14.2,4.2,18,6.4c3.8,2.2,5.7,5.2,5.7,9.1c0,1.8-0.4,3.4-1.3,4.8c-0.9,1.4-2.1,2.6-3.6,3.6
	c-1.5,1-3.1,1.8-4.9,2.3c-1.8,0.5-3.6,0.8-5.4,0.8c-3.1,0-5.9-0.4-8.6-1.2c-2.7-0.8-5.2-1.8-7.4-3.1c-1.2-0.7-2.4-1.4-3.5-2.1
	c-1.8-1.2-4.8-3.1-8.1-5.5l-10.5,19.7c0.9,0.8,1.8,1.5,2.9,2.3c2.8,2.1,5.9,4,9.4,5.6c3.5,1.6,7.4,2.9,11.7,3.9
	c4.3,1,9.1,1.5,14.4,1.5c5.7,0,11-0.8,15.9-2.4c4.9-1.6,9.2-3.9,12.8-6.9c3.6-2.9,6.5-6.4,8.6-10.4c2.1-4,3.2-8.4,3.2-13.1
	c0-5.5-0.9-10.1-2.7-14C203.7,260.8,201.4,257.5,198.4,254.9 M94.4,271.8l-45.6-68.4H26v105.3h23.5v-69.6l46.7,69.6h21.6V203.4H94.4
	V271.8z M284.8,213.8c-3-3.1-6.8-5.6-11.4-7.5c-4.6-1.9-10.2-2.8-16.7-2.8h-38.4v105.3h23.2v-37.1h16.3c4.7,0,9.3-0.7,13.6-2.2
	c4.3-1.5,8.1-3.6,11.4-6.5c3.3-2.8,5.9-6.4,7.9-10.7c1.9-4.3,2.9-9.2,2.9-14.9c0-4.4-0.7-8.7-2.1-12.8
	C290,220.5,287.8,216.9,284.8,213.8 M265.8,248.3c-2.6,2.7-6.1,4-10.5,4h-13.9v-29.5h13.7c4.4,0,7.9,1.4,10.6,4.2
	c2.6,2.8,3.9,6.4,3.9,10.8C269.7,242.2,268.4,245.7,265.8,248.3 M461.4,286c-1.3,0.6-2.7,1.1-4.1,1.5c-2.8,0.8-6.1,1.2-9.9,1.2
	c-4.6,0-8.8-0.8-12.5-2.5c-3.7-1.7-6.8-4-9.5-7c-2.6-2.9-4.7-6.4-6.1-10.4c-1.4-4-2.1-8.3-2.1-13c0-4.5,0.7-8.8,2.1-12.9
	c1.4-4.1,3.4-7.6,6.1-10.7c2.6-3.1,5.8-5.5,9.6-7.2c3.8-1.7,8.1-2.6,12.8-2.6c4.9,0,9.2,0.9,13,2.7c0.9,0.4,7.7,3.4,14.6,10.5
	l10.6-19.9c-3.9-3.9-8.4-7.2-13.4-9.7c-7.3-3.6-15.9-5.4-25.7-5.4c-8.1,0-15.5,1.4-22.2,4.3c-6.7,2.9-12.4,6.8-17.2,11.8
	c-4.8,5-8.5,10.9-11.1,17.7c-2.6,6.8-3.9,14.1-3.9,21.9c0,8,1.3,15.3,3.9,22c2.6,6.7,6.3,12.5,11.1,17.4c4.8,4.9,10.5,8.7,17.1,11.5
	c6.6,2.7,13.9,4.1,22,4.1c4.8,0,9.5-0.6,14-1.7c4.5-1.2,8.6-2.7,12.5-4.7c3.8-2,7.3-4.3,10.5-7c0.6-0.5,1.1-1,1.7-1.5l-9.4-18.3
	C473.2,280.1,468.3,283.4,461.4,286 M368.5,286c-1.3,0.6-2.7,1.1-4.1,1.5c-2.8,0.8-6.1,1.2-9.9,1.2c-4.6,0-8.8-0.8-12.5-2.5
	c-3.7-1.7-6.8-4-9.5-7c-2.6-2.9-4.7-6.4-6.1-10.4c-1.4-4-2.1-8.3-2.1-13c0-4.5,0.7-8.8,2.1-12.9c1.4-4.1,3.4-7.6,6.1-10.7
	c2.6-3.1,5.8-5.5,9.6-7.2c3.8-1.7,8.1-2.6,12.8-2.6c4.9,0,9.2,0.9,13,2.7c0.9,0.4,7.7,3.4,14.6,10.5l10.6-19.9
	c-3.9-3.9-8.3-7.2-13.4-9.7c-7.3-3.6-15.9-5.4-25.7-5.4c-8.1,0-15.5,1.4-22.2,4.3c-6.7,2.9-12.4,6.8-17.2,11.8
	c-4.8,5-8.5,10.9-11.1,17.7c-2.6,6.8-3.9,14.1-3.9,21.9c0,8,1.3,15.3,3.9,22c2.6,6.7,6.3,12.5,11.1,17.4c4.8,4.9,10.5,8.7,17.1,11.5
	c6.6,2.7,14,4.1,21.9,4.1c4.8,0,9.5-0.6,14-1.7c4.5-1.2,8.6-2.7,12.5-4.7c3.8-2,7.3-4.3,10.5-7c0.6-0.5,1.1-1,1.7-1.5l-9.4-18.3
	C380.3,280.1,375.3,283.4,368.5,286"/>
</svg>
