<?xml version="1.0" encoding="utf-8"?>
<!-- Generator: Adobe Illustrator 18.1.1, SVG Export Plug-In . SVG Version: 6.00 Build 0)  -->
<svg version="1.1" id="Layer_1" xmlns="http://www.w3.org/2000/svg" xmlns:xlink="http://www.w3.org/1999/xlink" x="0px" y="0px"
	 viewBox="0 0 512 512" enable-background="new 0 0 512 512" xml:space="preserve">
<g>
	<rect x="33.5" y="150.5" fill="#646469" width="439.7" height="211.5"/>
	<polygon fill="#FFFFFF" points="84.1,304.9 73.8,304.9 73.8,313.1 81.5,313.1 81.5,315.2 73.8,315.2 73.8,326.4 71.4,326.4 
		71.4,302.9 84.1,302.9 	"/>
	<path fill="#FFFFFF" d="M101.1,326.4h-2.7l-2.1-6.9h-7.2l-2.1,6.9h-2.8l8.3-25.6L101.1,326.4z M89.6,317.4h6l-3-9.6L89.6,317.4z"/>
	<polygon fill="#FFFFFF" points="107,302.9 109.7,302.9 117,320.5 117.1,320.5 117.1,302.9 119.5,302.9 119.5,326.6 117.2,326.6 
		109.5,307.6 109.4,307.7 109.4,326.4 107,326.4 	"/>
	<path fill="#FFFFFF" d="M142.4,326.4h-2.7l-2.1-6.9h-7.2l-2.1,6.9h-2.7l8.3-25.6L142.4,326.4z M131.1,317.4h6l-3-9.6L131.1,317.4z"
		/>
	<polygon fill="#FFFFFF" points="158.9,304.9 152.2,304.9 152.2,326.4 149.8,326.4 149.8,304.9 143.2,304.9 143.2,302.9 
		158.9,302.9 	"/>
	<polygon fill="#FFFFFF" points="172.5,304.9 169.3,304.9 169.3,324.3 172.5,324.3 172.5,326.4 163.6,326.4 163.6,324.3 
		166.9,324.3 166.9,304.9 163.6,304.9 163.6,302.9 172.5,302.9 	"/>
	<path fill="#FFFFFF" d="M189.5,307.9c0-2-1.5-3.5-3.5-3.5c-5,0-5.3,6.8-5.3,10.4c0,3.5,0.3,10,5.1,10c2.4,0,3.9-1.8,3.9-4.2h2.4
		c-0.2,3.8-2.5,6.2-6.6,6.2c-6.5,0-7.5-7.2-7.5-12.1c0-5.2,1-12.5,7.7-12.5c3.2,0,5.8,2.3,5.9,5.5H189.5z"/>
	<path fill="#FFFFFF" d="M213.3,326.4h-2.7l-2.1-6.9h-7.2l-2.1,6.9h-2.7l8.3-25.6L213.3,326.4z M202,317.4h6l-3-9.6L202,317.4z"/>
	<polygon fill="#FFFFFF" points="222.3,324.3 232.4,324.3 232.4,326.4 219.7,326.4 219.7,302.9 222.3,302.9 	"/>
	<path fill="#FFFFFF" d="M266.9,326.4h-2.7l-2.1-6.9h-7.2l-2.1,6.9h-2.7l8.3-25.6L266.9,326.4z M255.5,317.4h6l-3-9.6L255.5,317.4z"
		/>
	<path fill="#FFFFFF" d="M271.9,326.4v-23.7h5c2.8,0,7.4,0.3,7.4,6c0,2.3-1.2,4-3.1,5.1c2.7,1.3,4.2,3.1,4.2,6.1
		c0,3.5-2.5,6.5-6.6,6.5H271.9z M274.3,304.9v8.2h2.9c2.2,0,4.6-1.6,4.6-4.4c0-3.9-3.2-3.8-4.8-3.8h-0.6H274.3z M278.5,324.3
		c2.2-0.1,4.3-1.3,4.3-4.3c0-2.7-1.6-5-5.4-5h-3.1v9.2H278.5z"/>
	<path fill="#FFFFFF" d="M297.9,302.4c6.9,0,7.3,7.8,7.3,12.2c0,3.1,0.2,12.2-7.3,12.2c-7.3,0-7.3-8.9-7.3-12.2
		C290.6,304.7,293.8,302.4,297.9,302.4 M302.6,314.6c0-2.2,0.3-10.2-4.8-10.2c-5.3,0-4.8,8.9-4.8,10.2c0,2.7-0.1,10.2,4.8,10.2
		C300.3,324.8,302.6,323.2,302.6,314.6"/>
	<path fill="#FFFFFF" d="M324.1,302.9v17.4c0,4.5-3.3,6.7-6.6,6.7c-2.5,0-6.6-1.5-6.6-8v-16.2h2.4v17.4c0,3.5,2.2,4.6,4.2,4.6
		c3,0,4-2.2,4-4.8V303h2.5V302.9z"/>
	<polygon fill="#FFFFFF" points="345.1,304.9 338.4,304.9 338.4,326.4 336,326.4 336,304.9 329.4,304.9 329.4,302.9 345.1,302.9 	
		"/>
	<polygon fill="#FFFFFF" points="379.5,304.9 369.3,304.9 369.3,313.1 377,313.1 377,315.2 369.3,315.2 369.3,326.4 366.8,326.4 
		366.8,302.9 379.5,302.9 	"/>
	<polygon fill="#FFFFFF" points="395.2,304.9 392,304.9 392,324.3 395.2,324.3 395.2,326.4 386.3,326.4 386.3,324.3 389.4,324.3 
		389.4,304.9 386.3,304.9 386.3,302.9 395.2,302.9 	"/>
	<polygon fill="#FFFFFF" points="406.2,324.3 416.4,324.3 416.4,326.4 403.6,326.4 403.6,302.9 406.2,302.9 	"/>
	<polygon fill="#FFFFFF" points="433,302.9 435.5,302.9 435.5,326.4 433,326.4 433,308.5 432.9,308.5 428.1,320.1 423.2,308.5 
		423.2,308.5 423.2,326.4 420.8,326.4 420.8,302.9 423.1,302.9 428.1,314.6 	"/>
	<polygon fill="#FFFFFF" points="84.1,304.9 73.8,304.9 73.8,313.1 81.5,313.1 81.5,315.2 73.8,315.2 73.8,326.4 71.4,326.4 
		71.4,302.9 84.1,302.9 	"/>
	<path fill="#FFFFFF" d="M101.1,326.4h-2.7l-2.1-6.9h-7.2l-2.1,6.9h-2.8l8.3-25.6L101.1,326.4z M89.6,317.4h6l-3-9.6L89.6,317.4z"/>
	<polygon fill="#FFFFFF" points="107,302.9 109.7,302.9 117,320.5 117.1,320.5 117.1,302.9 119.5,302.9 119.5,326.6 117.2,326.6 
		109.5,307.6 109.4,307.7 109.4,326.4 107,326.4 	"/>
	<path fill="#FFFFFF" d="M142.4,326.4h-2.7l-2.1-6.9h-7.2l-2.1,6.9h-2.7l8.3-25.6L142.4,326.4z M131.1,317.4h6l-3-9.6L131.1,317.4z"
		/>
	<polygon fill="#FFFFFF" points="158.9,304.9 152.2,304.9 152.2,326.4 149.8,326.4 149.8,304.9 143.2,304.9 143.2,302.9 
		158.9,302.9 	"/>
	<polygon fill="#FFFFFF" points="172.5,304.9 169.3,304.9 169.3,324.3 172.5,324.3 172.5,326.4 163.6,326.4 163.6,324.3 
		166.9,324.3 166.9,304.9 163.6,304.9 163.6,302.9 172.5,302.9 	"/>
	<path fill="#FFFFFF" d="M189.5,307.9c0-2-1.5-3.5-3.5-3.5c-5,0-5.3,6.8-5.3,10.4c0,3.5,0.3,10,5.1,10c2.4,0,3.9-1.8,3.9-4.2h2.4
		c-0.2,3.8-2.5,6.2-6.6,6.2c-6.5,0-7.5-7.2-7.5-12.1c0-5.2,1-12.5,7.7-12.5c3.2,0,5.8,2.3,5.9,5.5H189.5z"/>
	<path fill="#FFFFFF" d="M213.3,326.4h-2.7l-2.1-6.9h-7.2l-2.1,6.9h-2.7l8.3-25.6L213.3,326.4z M202,317.4h6l-3-9.6L202,317.4z"/>
	<polygon fill="#FFFFFF" points="222.3,324.3 232.4,324.3 232.4,326.4 219.7,326.4 219.7,302.9 222.3,302.9 	"/>
	<path fill="#FFFFFF" d="M266.9,326.4h-2.7l-2.1-6.9h-7.2l-2.1,6.9h-2.7l8.3-25.6L266.9,326.4z M255.5,317.4h6l-3-9.6L255.5,317.4z"
		/>
	<path fill="#FFFFFF" d="M271.9,326.4v-23.7h5c2.8,0,7.4,0.3,7.4,6c0,2.3-1.2,4-3.1,5.1c2.7,1.3,4.2,3.1,4.2,6.1
		c0,3.5-2.5,6.5-6.6,6.5H271.9z M274.3,304.9v8.2h2.9c2.2,0,4.6-1.6,4.6-4.4c0-3.9-3.2-3.8-4.8-3.8h-0.6H274.3z M278.5,324.3
		c2.2-0.1,4.3-1.3,4.3-4.3c0-2.7-1.6-5-5.4-5h-3.1v9.2H278.5z"/>
	<path fill="#FFFFFF" d="M297.9,302.4c6.9,0,7.3,7.8,7.3,12.2c0,3.1,0.2,12.2-7.3,12.2c-7.3,0-7.3-8.9-7.3-12.2
		C290.6,304.7,293.8,302.4,297.9,302.4 M302.6,314.6c0-2.2,0.3-10.2-4.8-10.2c-5.3,0-4.8,8.9-4.8,10.2c0,2.7-0.1,10.2,4.8,10.2
		C300.3,324.8,302.6,323.2,302.6,314.6"/>
	<path fill="#FFFFFF" d="M324.1,302.9v17.4c0,4.5-3.3,6.7-6.6,6.7c-2.5,0-6.6-1.5-6.6-8v-16.2h2.4v17.4c0,3.5,2.2,4.6,4.2,4.6
		c3,0,4-2.2,4-4.8V303h2.5V302.9z"/>
	<polygon fill="#FFFFFF" points="345.1,304.9 338.4,304.9 338.4,326.4 336,326.4 336,304.9 329.4,304.9 329.4,302.9 345.1,302.9 	
		"/>
	<polygon fill="#FFFFFF" points="379.5,304.9 369.3,304.9 369.3,313.1 377,313.1 377,315.2 369.3,315.2 369.3,326.4 366.8,326.4 
		366.8,302.9 379.5,302.9 	"/>
	<polygon fill="#FFFFFF" points="395.2,304.9 392,304.9 392,324.3 395.2,324.3 395.2,326.4 386.3,326.4 386.3,324.3 389.4,324.3 
		389.4,304.9 386.3,304.9 386.3,302.9 395.2,302.9 	"/>
	<polygon fill="#FFFFFF" points="406.2,324.3 416.4,324.3 416.4,326.4 403.6,326.4 403.6,302.9 406.2,302.9 	"/>
	<polygon fill="#FFFFFF" points="433,302.9 435.5,302.9 435.5,326.4 433,326.4 433,308.5 432.9,308.5 428.1,320.1 423.2,308.5 
		423.2,308.5 423.2,326.4 420.8,326.4 420.8,302.9 423.1,302.9 428.1,314.6 	"/>
	<path fill="#FFFFFF" d="M112.3,286.9H87l-15.8-15.8v-69.6L87,185.7h25.3l15.8,15.8v69.6L112.3,286.9z M109.2,202.8h-19v67.1H109
		v-67.1H109.2z M192.8,286.9h-41.1V185.7h41.1l15.8,15.8v69.6L192.8,286.9z M189.7,202.8h-18.9v67.1h18.9V202.8z M232.3,286.9V185.7
		h47.4v17.1h-28.5v23.4H275v17.1h-23.8v26.5h28.5v17.1H232.3z M338.5,286.9h-25.3l-15.8-15.8v-69.6l15.8-15.8h25.3l15.8,15.8v69.6
		L338.5,286.9z M335.3,202.8h-18.9v67.1h18.9V202.8z M416.7,286.9l-21.8-60.6h-0.2l0.8,60.6H378V185.7h18.9l21.8,60.6h0.2l-0.8-60.6
		h17.4v101.2C435.6,286.9,416.7,286.9,416.7,286.9z"/>
</g>
</svg>
