<?xml version="1.0" encoding="utf-8"?>
<!-- Generator: Adobe Illustrator 18.1.1, SVG Export Plug-In . SVG Version: 6.00 Build 0)  -->
<svg version="1.1" id="Layer_1" xmlns="http://www.w3.org/2000/svg" xmlns:xlink="http://www.w3.org/1999/xlink" x="0px" y="0px"
	 viewBox="0 0 512 512" enable-background="new 0 0 512 512" xml:space="preserve">
<g>
	<polygon fill-rule="evenodd" clip-rule="evenodd" fill="#646469" points="32,172.8 474.8,172.8 474.8,339.6 32,339.6 32,172.8 	"/>
	<polygon fill-rule="evenodd" clip-rule="evenodd" fill="#FFFFFF" points="246.2,206.2 246.2,201.7 209.3,201.7 209.3,276.8 
		214.1,276.8 214.1,241 244.8,241 244.8,236.4 214.1,236.4 214.1,206.2 246.2,206.2 	"/>
	<path fill-rule="evenodd" clip-rule="evenodd" fill="#FFFFFF" d="M99.1,200.9c-21.1,0-38.8,17.4-38.8,38.5
		c0,21.1,17.6,38.5,38.8,38.5c21.1,0,38.8-17.4,38.8-38.5C137.9,218.3,120.2,200.9,99.1,200.9L99.1,200.9z M99.1,205.4
		c18.7,0,34.2,15.5,34.2,34c0,18.4-15.5,34-34.2,34c-18.7,0-34-15.5-34-34C65.2,220.9,80.4,205.4,99.1,205.4L99.1,205.4z"/>
	<path fill-rule="evenodd" clip-rule="evenodd" fill="#FFFFFF" d="M390.5,277.3h13.9c11.8,0,21.1-2.1,29.7-10.2
		c8-7.5,12-17.4,12-27.8c0-11-4.3-21.1-12.3-28.6c-8.8-7.8-17.9-9.4-29.4-9.4h-13.9V277.3L390.5,277.3z M395.3,272.8V206h9.1
		c9.9,0,17.9,1.6,25.4,8.3c7.5,6.4,11.5,15.5,11.5,25.1c0,9.1-3.7,17.6-10.4,24.1c-7.5,7.2-16,9.4-26.5,9.4H395.3L395.3,272.8z"/>
	<path fill-rule="evenodd" clip-rule="evenodd" fill="#FFFFFF" d="M354.7,202.2c11.5,0,19.8,8.8,19.8,19.5c0,9.4-6.7,17.1-15.8,19
		l32.1,29.1v7.5L347,237.2c1.1,0.3,2.9,0.3,4,0.3c11,0,18.7-5.9,18.4-15.5c-0.3-11-7-15.5-19-15.5h-14.7v69.8h-5.3v-74.1H354.7
		L354.7,202.2z"/>
	<path fill-rule="evenodd" clip-rule="evenodd" fill="#FFFFFF" d="M255.5,238.8c0-14.2,11.5-25.4,25.7-25.4
		c14.2,0,25.9,11.5,25.9,25.4c0,14.2-11.8,25.7-25.9,25.7C267,264.5,255.5,253,255.5,238.8L255.5,238.8z M293,263.7
		c-4.5,2.9-10.2,5.1-16,5.1c-16.8,0-30.7-13.4-30.7-29.9c0-16.6,13.9-29.9,30.7-29.9c5.6,0,10.7,2.1,15.2,4.5
		c-2.9-1.1-6.4-2.1-9.9-2.1c-16,0-28.9,12.6-28.9,27.8c0,15.2,12.8,27.5,28.9,27.5C285.7,266.7,290,264.8,293,263.7L293,263.7z
		 M243.8,238.8c0-20.6,16.6-37.2,37.4-37.2c20.6,0,37.4,16.6,37.4,37.2c0,20.6-16.8,37.2-37.4,37.2
		C260.3,276,243.8,259.4,243.8,238.8L243.8,238.8z"/>
	<polygon fill-rule="evenodd" clip-rule="evenodd" fill="#FFFFFF" points="162.8,239.4 130.7,276.5 137.1,276.5 166.2,242.9 
		194.8,276.5 200.4,276.5 169.2,239.1 200.7,202.2 194.8,202.2 165.7,235.6 136.6,202.2 130.9,202.2 162.8,239.4 	"/>
	<polygon fill-rule="evenodd" clip-rule="evenodd" fill="#FFFFFF" points="69.2,311 74.3,311 74.3,288 69.2,288 69.2,311 	"/>
	<polygon fill-rule="evenodd" clip-rule="evenodd" fill="#FFFFFF" points="93.5,311 98.6,311 98.6,295.5 98.6,295.5 112.5,311.3 
		116.2,311.3 116.2,288 111.2,288 111.2,303.5 111.2,303.5 97.3,287.5 93.5,287.5 93.5,311 	"/>
	<path fill-rule="evenodd" clip-rule="evenodd" fill="#FFFFFF" d="M150.5,289.9c-1.6-1.3-5.1-2.4-7.2-2.4c-4.5,0-7.8,2.9-7.8,7
		c0,3.5,2.4,4.8,5.9,6.1c2.1,0.5,4.5,1.3,4.5,3.7c0,1.6-1.3,3.2-3.5,3.2c-2.1,0-4-1.6-4.5-3.2l-3.5,2.7c1.9,2.7,4.5,4.5,8,4.5
		c5.6,0,8.8-3.2,8.8-7.8c0-7.8-10.4-6.1-10.4-9.9c0-1.6,1.6-2.7,3.2-2.7c1.6,0,2.9,0.8,4,1.9L150.5,289.9L150.5,289.9z"/>
	<polygon fill-rule="evenodd" clip-rule="evenodd" fill="#FFFFFF" points="178,292.1 183.3,292.1 183.3,288 167.6,288 167.6,292.1 
		172.9,292.1 172.9,311 178,311 178,292.1 	"/>
	<path fill-rule="evenodd" clip-rule="evenodd" fill="#FFFFFF" d="M211.1,301.4c3.5-0.5,5.3-3.5,5.3-6.4c0-4.8-3.5-7-8.8-7h-7v23
		h5.1v-9.4h0.3l6.1,9.4h6.4L211.1,301.4L211.1,301.4z M205.8,291.8h0.8c2.7,0,4.8,0.5,4.8,3.2c0,2.9-2.1,3.5-4.8,3.5h-0.8V291.8
		L205.8,291.8z"/>
	<path fill-rule="evenodd" clip-rule="evenodd" fill="#FFFFFF" d="M235.7,301.7c0,5.6,2.7,9.9,9.6,9.9c7.2,0,9.9-4.3,9.9-9.9V288
		h-5.1v12.8c0,2.9-0.5,6.7-4.8,6.7c-4.3,0-4.5-3.7-4.5-6.7V288h-5.1V301.7L235.7,301.7z"/>
	<polygon fill-rule="evenodd" clip-rule="evenodd" fill="#FFFFFF" points="296.2,311 301.2,311 297.2,287.5 293.8,287.5 
		287.3,302.5 280.9,287.5 277.2,287.5 272.9,311 278,311 280.4,296.9 280.4,296.9 286.3,311.3 287.9,311.3 294,296.9 294,296.9 
		296.2,311 	"/>
	<polygon fill-rule="evenodd" clip-rule="evenodd" fill="#FFFFFF" points="332.8,292.1 332.8,288 319.2,288 319.2,311 332.8,311 
		332.8,307 324.2,307 324.2,300.9 332.5,300.9 332.5,296.9 324.2,296.9 324.2,292.1 332.8,292.1 	"/>
	<polygon fill-rule="evenodd" clip-rule="evenodd" fill="#FFFFFF" points="351.8,311 356.8,311 356.8,295.5 356.8,295.5 
		370.8,311.3 374.5,311.3 374.5,288 369.4,288 369.4,303.5 369.1,303.5 355.2,287.5 351.8,287.5 351.8,311 	"/>
	<polygon fill-rule="evenodd" clip-rule="evenodd" fill="#FFFFFF" points="402.3,292.1 407.6,292.1 407.6,288 391.9,288 
		391.9,292.1 397.2,292.1 397.2,311 402.3,311 402.3,292.1 	"/>
	<path fill-rule="evenodd" clip-rule="evenodd" fill="#FFFFFF" d="M439.7,289.9c-1.6-1.3-4.8-2.4-7.2-2.4c-4.3,0-7.5,2.9-7.5,7
		c0,3.5,2.4,4.8,5.9,6.1c1.9,0.5,4.5,1.3,4.5,3.7c0,1.6-1.3,3.2-3.5,3.2c-2.1,0-4-1.6-4.8-3.2L424,307c1.9,2.7,4.5,4.5,8,4.5
		c5.3,0,8.8-3.2,8.8-7.8c0-7.8-10.7-6.1-10.7-9.9c0-1.6,1.6-2.7,3.2-2.7c1.9,0,3.2,0.8,4,1.9L439.7,289.9L439.7,289.9z"/>
</g>
</svg>
