<?xml version="1.0" encoding="utf-8"?>
<!-- Generator: Adobe Illustrator 18.0.0, SVG Export Plug-In . SVG Version: 6.00 Build 0)  -->
<!DOCTYPE svg PUBLIC "-//W3C//DTD SVG 1.1//EN" "http://www.w3.org/Graphics/SVG/1.1/DTD/svg11.dtd">
<svg version="1.1" id="Layer_1" xmlns="http://www.w3.org/2000/svg" xmlns:xlink="http://www.w3.org/1999/xlink" x="0px" y="0px"
	 viewBox="0 0 512 512" enable-background="new 0 0 512 512" xml:space="preserve">
<g>
	<path fill-rule="evenodd" clip-rule="evenodd" fill="#646469" d="M460.5,226c0,7.8-6.9,13.4-14.6,12c-2.4-0.4-4.9-0.5-7.4-0.6
		c-8.3-0.4-16.6-0.9-24.9-1.2c-10.7-0.4-21.4-0.7-32.1-1c-9-0.2-18-0.5-27-0.6c-14.5-0.2-29.1-0.4-43.6-0.3
		c-12.4,0-24.8,0.2-37.2,0.6c-11.6,0.4-23.2,1.2-34.7,1.9c-9.6,0.6-19.2,1.3-28.8,2c-10.3,0.8-20.7,1.6-31,2.5c-9,0.7-18,1.5-27,2.2
		c-8.6,0.7-17.3,1.5-25.9,2.3c-8.3,0.7-16.7,1.5-25,2.2c-9.4,0.9-18.8,1.8-28.2,2.7c-3.9,0.4-7.9,0.8-11.8,1c-2.1,0.1-4.1-0.5-6-1.6
		c-4.1-2.5-4.8-7.9-1.3-11.2c1.9-1.7,4-3.2,6.2-4.6c10.1-6.5,20.8-12.1,31.3-17.7c23.1-12.3,47.2-22,71.9-30.6
		c1.8-0.6,3.6-1.3,5.4-1.9c0.9-0.3,1.6-0.8,2.1-1.6c3.6-5.1,7.1-10.2,10.7-15.3c5.4-7.7,10.9-15.5,16.4-23.2c0.7-1,1.6-2,2.5-2.9
		c1.2-1.5,2.8-2.2,4.8-2.4c9.4-1.3,18.9-2.7,28.3-4.1c10.3-1.5,20.7-3.1,31-4.6c11.2-1.7,22.4-3.4,33.6-5c9.2-1.3,18.3-2.7,27.5-3.9
		c4.6-0.6,8.2,1.4,9.9,5.8c1.3,3.5,2.1,7.1,3,10.7c2.3,9,4.4,18.1,6.7,27.1c0.9,3.4,1,3.3,4.2,4.5c14.6,5.5,29.3,11,43.9,16.4
		c9.1,3.4,17.8,7.5,26.5,11.9c9.4,4.7,18.9,9.3,27.9,14.7c3.6,2.2,7.3,4.5,10.2,7.6C459.3,221.4,460.6,223.4,460.5,226z"/>
	<path fill-rule="evenodd" clip-rule="evenodd" fill="#646469" d="M355.1,290.9c2-0.3,3.7-0.7,5.5-0.9c0.7-0.1,1.4-0.1,2,0.1
		c1,0.3,1.3,1.2,0.7,2c-0.5,0.7-1.1,1.3-1.7,1.7c-2.6,1.3-5.3,2.6-8,3.7c-0.8,0.4-1.4,0.8-1.7,1.7c-1.7,5.1-3.4,10.2-5.3,15.2
		c-1.1,2.9-2.4,5.7-4.6,8c-2.5,2.6-5.5,3.4-8.3,2c-1.3-0.6-2-1.5-2.4-2.8c-0.7-2.5-0.4-5,0.3-7.5c0.9-3.3,2-6.6,3.1-9.9
		c0.1-0.3,0.2-0.6,0.4-1.1c-1.8,0.4-3.5,0.8-5.1,1.1c-4.5,0.7-8.9,1.4-13.4,2.1c-0.7,0.1-1.1,0.4-1.3,1c-2.3,5.2-4.5,10.4-6.8,15.5
		c-1.2,2.9-2.5,5.7-4.6,8.1c-1.1,1.3-2.4,2.4-3.8,3.3c-1.5,1-3.3,1-5,0.5c-2.5-0.7-3.8-2.6-3.8-5.8c0-3.5,0.8-6.9,2.1-10.1
		c1.6-4.3,3.5-8.5,5.3-12.8c-0.6-0.2-1.4-0.4-2.1-0.6c-2.2-0.6-4.3-1.5-6.1-3c-0.3-0.2-0.5-0.4-0.7-0.7c-2.5-2.7-1.9-5.4,1.4-6.9
		c2.2-1,4.5-1.3,6.8-1.3c2.4-0.1,4.8-0.1,7.3-0.1c0.7,0,1-0.2,1.4-0.8c4.7-7.5,9.6-14.8,15.5-21.4c2.1-2.4,4.4-4.5,6.8-6.7
		c0.9-0.8,2.1-1.4,3.2-1.8c1.8-0.7,3.1,0.1,3.2,2c0.1,1.4-0.2,2.8-0.6,4.1c-1.4,4.4-3.6,8.3-5.8,12.3c-1.9,3.6-3.9,7.3-5.8,10.9
		c-0.2,0.3-0.3,0.7-0.5,1.2c1.8,0,3.5,0.1,5.2,0c3.7-0.1,7.5-0.4,11.2-0.5c1,0,1.6-0.4,2.1-1.3c3.8-7.2,7.9-14.1,13.2-20.3
		c1.2-1.4,2.7-2.7,4.1-3.9c0.6-0.6,1.5-0.9,2.3-1.2c1.9-0.6,3.6,0.8,3.3,2.8c-0.3,1.5-0.7,3-1.3,4.4c-2.2,5.3-4.4,10.6-6.6,16
		C355.6,289.6,355.4,290.1,355.1,290.9z"/>
	<path fill-rule="evenodd" clip-rule="evenodd" fill="#646469" d="M255.9,312.3c-3.2,1.8-6.2,3.6-9.4,5.1c-3.4,1.7-7,2.7-10.9,2.6
		c-2.2,0-4.3-0.4-6.3-1.4c-2.5,3.6-6.4,4.7-10.3,5.5c-4.8,1-9.7,0.7-14.6,0.3c-4.9-0.3-9.8-0.6-14.7-0.8c-1.6-0.1-3.1,0.3-4.7,0.4
		c-0.8,0-1.7,0-2.5-0.2c-1.3-0.5-1.8-2-1.4-3.7c0.6-2.5,2.1-4.5,3.8-6.3c3.3-3.6,7.3-6.4,11.3-9.3c4.3-3,8.6-6,13-9.1
		c0.3-0.2,0.6-0.4,0.8-0.8c-1.2,0.1-2.4,0.2-3.6,0.2c-3.5,0.1-7.1,0.1-10.6,0.1c-2,0-4-0.5-5.7-1.5c-2.2-1.4-3.2-3.5-2.7-6
		c0.4-2.2,2.4-3.8,4.6-3.1c3,0.9,5.8,0.4,8.8,0.2c5.5-0.3,10.9-0.9,16.4-1.1c2.4-0.1,4.9,0.1,7.2,1.3c3,1.5,3.9,4.2,2.6,7.2
		c-0.8,1.9-2.3,3.4-3.8,4.7c-6.4,5.6-12.8,11.2-19.2,16.8c-0.3,0.2-0.5,0.4-1,0.8c4.1,0.8,8,1.6,11.9,2.3c3.1,0.6,6.2,0.7,9.4,0
		c0.8-0.2,1.5-0.5,2.3-0.7c-2.2-5.5-0.1-10.1,3.2-14.2c4.8-6.1,11.1-9.9,18.3-12.5c4.3-1.5,8.7-2.3,13.2-2c0.4,0,0.8,0.1,1.3,0.1
		c1.6,0.2,3.1,0.6,4.9,0c1.9-0.7,4,1,4,3.1c0,1.2-0.1,2.4-0.5,3.5c-0.8,2.3-1.8,4.6-2.7,6.8c-0.4,0.9-0.7,1.8-0.9,2.8
		c-0.5,2.2,0.6,3.8,2.8,4.4c1.3,0.3,2.6,0.6,3.8,1c0.8,0.3,1.6,0.7,2.2,1.2c1.3,1.1,1.3,2.6,0,3.7c-0.5,0.4-1,0.7-1.5,0.9
		c-4.4,1.8-8.9,2.3-13.6,1.1C258.9,315.1,257,314.2,255.9,312.3z M257.6,296.2c-0.2,0-0.3-0.1-0.4-0.1c-4.2,0.7-8.1,2.1-11.5,4.6
		c-2.2,1.6-3.9,3.5-5.1,6c-0.5,1-0.3,1.4,0.9,1.3c0.5,0,1-0.1,1.6-0.2c3.7-0.8,7.1-2.3,10.5-3.8c0.6-0.3,0.9-0.7,1.1-1.3
		c0.2-0.8,0.6-1.7,0.9-2.5C256.2,298.9,256.9,297.6,257.6,296.2z"/>
	<path fill-rule="evenodd" clip-rule="evenodd" fill="#646469" d="M99.7,275.5c-0.5,4.2-2.3,7.7-4.1,11.3
		c-4.6,9.4-10,18.5-15.4,27.5c-4.1,6.9-8.3,13.8-12.6,20.6c-1.5,2.3-3.4,4.4-5.2,6.5c-0.7,0.8-1.7,1.5-2.8,2c-2.1,1-4.2,0.1-4.6-2.2
		c-0.3-1.6-0.2-3.4,0.1-5.1c0.9-5,2.9-9.7,5-14.3c5.4-12.2,11.8-23.9,20.1-34.4c3.1-3.9,6.5-7.5,9.8-11.3c0.2-0.3,0.5-0.5,0.9-0.8
		c-1.6,0.1-3,0.2-4.5,0.3c-3.2,0.1-4.4-1.5-3.8-4.9c0.3-1.9,1.6-3.3,3.2-4.3c2.4-1.7,5.2-2.5,8-3c6.8-1.3,13.4-1.1,19.9,1.5
		c5.6,2.2,10.2,5.8,12.7,11.4c3.5,7.6,2.1,14.7-3.1,21.1c-4.9,6.1-11.6,9.5-19.2,11.3c-4.3,1-8.7,1.6-13.1,1
		c-1.4-0.2-2.8-0.8-4.1-1.4c-0.6-0.3-1.2-0.9-0.9-1.7c0.2-0.5,0.8-1.1,1.3-1.2c2.1-0.5,4.2-0.8,6.4-1.2c6.1-1.3,11.8-3.6,16.5-7.8
		c2.3-2.1,4-4.7,4.1-8c0.2-4.2-1.9-7.1-5.3-9.3C106.3,277.1,103.1,276.1,99.7,275.5z"/>
	<path fill-rule="evenodd" clip-rule="evenodd" fill="#646469" d="M158.1,324.9c0.8,0,1.3,0,1.7,0c7.9-0.3,15.6,1,23.2,2.8
		c3.5,0.9,7.1,1.7,10.7,2.1c4.7,0.6,9.3,0.2,13.9-1c0.7-0.2,1.4-0.3,2.1-0.3c1.7,0.1,2.6,1.8,1.7,3.2c-0.5,0.8-1.3,1.4-2.1,1.9
		c-3.1,2-6.6,3-10.2,3.6c-6,1-12,0.5-18-0.2c-6-0.7-12.1-1.2-18.1-1.6c-7.4-0.4-14.6,0.3-21.9,1.7c-0.9,0.2-1.8,0.3-2.6,0.2
		c-3.1-0.2-4.9-2.8-4.2-5.9c0.7-3.1,2.6-5.4,5-7.4c4.8-3.9,9.7-7.7,14.5-11.6c4.5-3.5,9-7,13.5-10.5c0.2-0.2,0.4-0.4,0.6-0.6
		c-2.9,0.1-5.7,0.3-8.6,0.3c-3,0-6-0.2-8.9-1.2c-1-0.4-2-0.9-2.9-1.5c-1-0.7-1.6-1.8-1.7-3.1c-0.2-1.9,0.8-3.5,2.6-3.9
		c0.6-0.2,1.3-0.3,1.9-0.2c4.7,0.9,9.4,0.4,14.1,0.5c5.1,0.1,10.2,0.1,15.3,0.1c4.3,0,6,2.4,4.6,6.5c-0.8,2.3-2.3,4-3.8,5.8
		c-4,4.5-8.7,8.3-13.3,12.2C164.4,319.6,161.3,322.1,158.1,324.9z"/>
	<path fill-rule="evenodd" clip-rule="evenodd" fill="#646469" d="M409.4,296.6c-1.8-0.5-3.6-1-5.3-1.6c-1-0.4-2-0.9-2.8-1.5
		c-1.8-1.4-2.4-3.5-1.6-5.2c0.9-1.9,2.8-2.8,5.1-2.4c2.1,0.4,4.2,0.8,6.3,1.2c1.4,0.2,2.8,0.3,4.2,0.3c0.4,0,1-0.4,1.2-0.7
		c3.5-4.4,7.3-8.6,11.5-12.4c1-0.9,2.1-1.7,3.6-1.7c2,0,3.4,1.3,3.5,3.2c0.1,1.6-0.4,3.1-1.2,4.5c-1.2,1.9-2.4,3.7-3.7,5.6
		c-0.2,0.3-0.4,0.6-0.7,1c2.1-0.1,4.1-0.2,6.1-0.3c3.8-0.2,7.5-0.3,11.3-0.4c2.5-0.1,5-0.1,7.5-0.1c0.7,0,1.4,0.1,2,0.4
		c0.5,0.2,1,0.8,1,1.2c0,0.5-0.4,1.1-0.8,1.4c-0.7,0.4-1.6,0.7-2.4,0.9c-8.5,2.3-17.2,4-25.9,5.5c-1.3,0.2-2.6,0.4-4,0.6
		c-0.7,0.1-1.1,0.4-1.4,1c-6.2,11.2-12.4,22.4-18.6,33.6c-0.5,0.9-1.1,1.9-1.9,2.6c-1.4,1.3-3,0.9-3.3-1c-0.3-1.9-0.3-3.8-0.1-5.7
		c0.9-10.3,4.7-19.7,9.8-28.5c0.2-0.4,0.4-0.7,0.6-1.1C409.4,296.7,409.4,296.6,409.4,296.6z"/>
	<path fill-rule="evenodd" clip-rule="evenodd" fill="#646469" d="M382.3,319.1c-1.5,1.3-2.9,2.5-4.2,3.6c-3.5,2.9-7.2,5.4-11.6,6.8
		c-2.4,0.8-4.9,1-7.4,0.6c-4.4-0.8-6.5-4.2-6.2-8.4c0.2-3.5,1.8-6.5,3.4-9.5c1.1-2.1,2.3-4.3,3.4-6.4c0.7-1.4,0.6-2-0.8-3
		c0,0-0.1,0-0.1-0.1c-0.8-0.6-1.7-1.1-1.5-2.2c0.2-1.1,1.2-1.4,2.1-1.7c1.8-0.6,3.7-0.7,5.5-0.4c3,0.6,5,2.9,5.3,6
		c0.3,3.7-0.7,7.2-1.9,10.6c-0.4,1.1-0.9,2.2-1.4,3.6c1-0.4,1.8-0.6,2.5-1c8.5-3.7,15.8-9.1,21.7-16.3c0.6-0.8,1.4-1.5,2.2-2.1
		c0.6-0.4,1.2-0.8,1.9-1c2.2-0.5,3.8,0.7,3.7,2.9c-0.1,1.5-0.3,2.9-0.7,4.3c-1.7,6.1-3.6,12.2-5.3,18.3c-0.6,2.1-1,4.3-0.4,6.6
		c0.3,1,0.2,2.1-0.8,2.8c-1,0.7-2,0.6-3,0.1c-0.8-0.5-1.7-1.1-2.3-1.8C383.4,327.9,381.8,324,382.3,319.1z"/>
	<path fill-rule="evenodd" clip-rule="evenodd" fill="#646469" d="M141.4,294.8c0.1,4.6-1.5,8.8-3.8,12.6c-3,4.8-6.3,9.3-9.4,14
		c-1.6,2.4-3.2,4.9-4.7,7.3c-0.2,0.3-0.3,0.8-0.3,1.1c0.3,2-1.6,3.7-4.1,3.2c-1.6-0.3-2.8-1.2-3.6-2.6c-2-3.6-2.1-7.4-1-11.2
		c1.3-4.9,4.1-9,7.4-12.7c3.8-4.2,7.8-8.2,11.7-12.3c0.8-0.9,1.6-1.9,2.4-2.8c1.2-1.5,2.7-1.9,4.1-1.1c1.1,0.6,1.3,1.7,1.4,2.8
		C141.4,293.6,141.4,294.2,141.4,294.8z"/>
	<path fill-rule="evenodd" clip-rule="evenodd" fill="#646469" d="M351.4,390.5c-2,0-3.8,0-5.7,0c0-8.6,0-17.1,0-25.8
		c1.7,0,3.4,0.1,5.1,0c2-0.2,3,0.5,4,2.2c2.9,5,5.9,9.8,8.9,14.7c0.2,0.3,0.3,0.5,0.7,1c0-6.1,0-11.9,0-17.8c1.9,0,3.8,0,5.7,0
		c0,8.6,0,17.1,0,25.7c-2.4,0-4.7,0-7.1,0c-0.3,0-0.6-0.4-0.8-0.8c-3.3-5.3-6.5-10.7-9.8-16c-0.3-0.4-0.5-0.8-1-1.2
		C351.4,378.5,351.4,384.5,351.4,390.5z"/>
	<path fill-rule="evenodd" clip-rule="evenodd" fill="#646469" d="M283,390.5c-2,0-3.8,0-5.7,0c0-8.6,0-17.1,0-25.7
		c0.3,0,0.6-0.1,0.9-0.1c3.2,0,6.4,0,9.6,0c1.2,0,2.4,0.2,3.6,0.4c4,0.9,6.1,4.1,5.6,8.2c-0.4,3.1-1.9,5.3-5.1,6.1
		c-0.1,0-0.2,0.1-0.4,0.2c2.1,3.6,4.3,7.1,6.5,10.8c-1.6,0-3-0.2-4.3,0c-2,0.3-3-0.5-3.7-2.3c-1.1-2.4-2.5-4.8-3.7-7.2
		c-0.3-0.7-0.7-1-1.5-0.9c-0.5,0.1-1.1,0-1.8,0C283,383.7,283,387.1,283,390.5z M283,375.5c2-0.1,4-0.1,5.9-0.3
		c1.5-0.2,2.2-1.2,2.2-2.6c0-1.3-0.7-2.5-2.1-2.7c-2-0.3-4-0.3-6.1-0.5C283,371.6,283,373.4,283,375.5z"/>
	<path fill-rule="evenodd" clip-rule="evenodd" fill="#646469" d="M90.9,380.3c0,3.5,0,6.8,0,10.2c-1.9,0-3.7,0-5.6,0
		c0-8.6,0-17.1,0-25.6c0.1,0,0.1-0.1,0.2-0.1c4.3,0.1,8.5,0,12.8,0.2c3.5,0.2,5.8,2.2,6.5,5.2c0.5,1.9,0.4,3.8-0.3,5.6
		c-0.9,2.2-2.6,3.4-5,3.9c2.2,3.6,4.3,7.2,6.5,10.9c-2.3,0-4.4,0-6.5,0c-0.3,0-0.6-0.4-0.7-0.7c-1.5-2.9-3-5.7-4.5-8.6
		c-0.4-0.8-0.8-1.1-1.6-1C92.1,380.3,91.5,380.3,90.9,380.3z M90.9,375.5c2.1-0.1,4.1-0.1,6.1-0.4c1.4-0.2,2-1.1,2.1-2.5
		c0.1-1.3-0.5-2.3-1.8-2.7c-0.6-0.2-1.3-0.3-1.9-0.4c-1.5-0.1-3,0-4.4,0C90.9,371.6,90.9,373.4,90.9,375.5z"/>
	<path fill-rule="evenodd" clip-rule="evenodd" fill="#646469" d="M136.1,385.4c0,1.8,0,3.4,0,5.1c-6,0-12,0-18.1,0
		c0-8.5,0-17.1,0-25.7c5.8,0,11.6,0,17.5,0c0,1.7,0,3.4,0,5.2c-3.9,0-7.8,0-11.8,0c0,1.6,0,3.2,0,4.8c3.7,0,7.4,0,11.1,0
		c0,1.8,0,3.5,0,5.2c-3.7,0-7.3,0-11.1,0c0,1.7,0,3.3,0,4.9c0,0.2,0.6,0.4,0.9,0.4c3.4,0,6.9,0,10.3,0
		C135.2,385.4,135.6,385.4,136.1,385.4z"/>
	<path fill-rule="evenodd" clip-rule="evenodd" fill="#646469" d="M241.6,364.8c1.9,0,3.7,0,5.6,0c0,0.4,0,0.7,0,1c0,5,0,10,0,14.9
		c0,2.2,1,3.9,3,4.8c2,0.9,3.9,0.6,5.5-0.8c1.5-1.3,1.9-3,1.9-4.9c0-4.5,0-9,0-13.6c0-0.5,0-0.9,0-1.5c1.9,0,3.7,0,5.7,0
		c0,0.4,0,0.7,0,1.1c0,4.9,0,9.8,0,14.6c0,6.7-4.4,10.9-11.1,10.7c-3-0.1-5.8-0.8-8-3c-1.7-1.8-2.7-4-2.7-6.5
		c-0.1-5.5,0-11.1,0-16.6C241.5,365.1,241.5,365,241.6,364.8z"/>
	<path fill-rule="evenodd" clip-rule="evenodd" fill="#646469" d="M334.1,390.6c-2,0-4,0-5.9,0c-0.2,0-0.6-0.4-0.7-0.7
		c-0.6-1.3-1.1-2.7-1.7-4.1c-0.1-0.3-0.6-0.6-0.9-0.6c-2.9,0-5.8,0-8.6,0c-0.5,0-0.8,0.2-1,0.7c-0.5,1.4-1,2.7-1.6,4.1
		c-0.1,0.3-0.4,0.6-0.6,0.6c-1.9,0-3.8,0-5.9,0c1-2.4,2-4.6,3-6.9c2.6-6,5.2-12,7.8-18c0.3-0.7,0.6-1,1.4-1c1,0.1,2,0,3,0
		c0.3,0,0.8,0.3,0.9,0.6c3.6,8.2,7.1,16.4,10.7,24.5C334,390.1,334,390.3,334.1,390.6z M320.4,372.3c-1.1,2.8-2.1,5.4-3.1,7.9
		c2.1,0,4.1,0,6.2,0C322.5,377.6,321.5,375.1,320.4,372.3z"/>
	<path fill-rule="evenodd" clip-rule="evenodd" fill="#646469" d="M229.9,390.6c-2,0-3.9,0-5.9,0c-0.2,0-0.6-0.4-0.7-0.6
		c-0.6-1.3-1.2-2.7-1.7-4.1c-0.2-0.5-0.4-0.7-1-0.7c-2.9,0-5.8,0-8.6,0c-0.6,0-0.8,0.2-1,0.7c-0.5,1.4-1,2.7-1.6,4.1
		c-0.1,0.3-0.5,0.6-0.7,0.6c-1.9,0-3.7,0-5.7,0c0.2-0.4,0.2-0.8,0.4-1.1c3.4-8,6.9-16,10.3-24c0.3-0.6,0.5-0.9,1.2-0.8
		c1.1,0.1,2.2,0,3.2,0c0.3,0,0.8,0.3,0.9,0.5c3.6,8.3,7.2,16.5,10.8,24.8C229.9,390.2,229.9,390.3,229.9,390.6z M219.4,380.3
		c-1-2.6-2.1-5.2-3.2-8c-1.1,2.8-2.1,5.4-3.1,8C215.3,380.3,217.3,380.3,219.4,380.3z"/>
	<path fill-rule="evenodd" clip-rule="evenodd" fill="#646469" d="M166.1,366.8c-1.3,1.4-2.5,2.8-3.8,4.2c-1.6-1.4-3.4-1.9-5.4-1.5
		c-0.5,0.1-1,0.3-1.4,0.6c-1.5,0.9-1.6,2.9-0.1,3.8c1.2,0.7,2.5,1,3.8,1.5c1.6,0.7,3.4,1.2,4.8,2.2c3.5,2.7,3,8.8-0.8,11.7
		c-4.1,3.1-11.9,2.5-15.6-1.3c1.3-1.4,2.6-2.9,4-4.4c1.1,1.2,2.4,2,3.9,2.3c1.3,0.2,2.5,0.1,3.6-0.5c1.8-1,1.9-3.1,0.1-4.1
		c-1.3-0.7-2.8-1.2-4.2-1.7c-0.8-0.3-1.7-0.5-2.5-0.9c-4.7-2.2-5.7-7.9-2.1-11.6C154.1,363.2,162.4,363.1,166.1,366.8z"/>
	<path fill-rule="evenodd" clip-rule="evenodd" fill="#646469" d="M426.7,371c-1.9-1.6-3.9-2.1-6.2-1.3c-1,0.4-1.8,1-1.8,2.2
		c0,1.1,0.6,1.9,1.6,2.3c1.4,0.6,2.9,1,4.3,1.5c0.4,0.1,0.8,0.2,1.1,0.4c2.6,1,4.6,2.7,4.9,5.7c0.3,3.2-0.7,6-3.5,7.8
		c-4.3,2.8-11.4,2.1-15.1-1.6c1.3-1.4,2.6-2.9,4-4.4c1.1,1.2,2.3,2.2,3.9,2.3c1.2,0.1,2.5,0,3.5-0.5c2-0.8,2.1-3.1,0.3-4.1
		c-1.3-0.8-2.8-1.2-4.2-1.7c-0.8-0.3-1.6-0.5-2.4-0.9c-4.9-2.3-5.8-8.4-1.7-12.1c1.4-1.3,3.1-2,5-2.3c3.3-0.5,6.5-0.2,9.4,1.8
		c0.3,0.2,0.6,0.4,0.9,0.7C429.3,368.2,428,369.6,426.7,371z"/>
	<path fill-rule="evenodd" clip-rule="evenodd" fill="#646469" d="M159.2,264.4c0.6,0,1.1,0,1.7,0.1c1.7,0.2,2.3,1.3,1.6,2.8
		c-0.5,0.9-1.1,1.7-1.7,2.5c-3.9,4.1-7.8,8.2-11.7,12.2c-1.1,1.1-2.5,2-3.9,2.8c-0.7,0.4-1.5,0.7-2.3,0.8c-4.1,0.6-6.7-2.3-5.6-6.4
		c0.7-2.7,2.3-5,4.4-6.8C146.6,267.7,152.5,265.2,159.2,264.4z"/>
	<path fill-rule="evenodd" clip-rule="evenodd" fill="#646469" d="M381.9,364.8c6.8,0,13.5,0,20.3,0c0,1.6,0,3.2,0,4.9
		c-2.4,0-4.8,0-7.3,0c0,7,0,13.9,0,20.8c-1.9,0-3.7,0-5.7,0c0-6.9,0-13.8,0-20.8c-2.5,0-4.9,0-7.3,0
		C381.9,368,381.9,366.5,381.9,364.8z"/>
	<path fill-rule="evenodd" clip-rule="evenodd" fill="#646469" d="M189.9,369.7c0,7,0,13.9,0,20.8c-1.9,0-3.7,0-5.7,0
		c0-0.4,0-0.7,0-1.1c0-6.2,0-12.4,0-18.6c0-0.9-0.3-1.1-1.1-1.1c-2.1,0.1-4.1,0-6.2,0c0-1.7,0-3.2,0-4.9c6.8,0,13.5,0,20.4,0
		c0,1.6,0,3.2,0,4.9C194.8,369.7,192.4,369.7,189.9,369.7z"/>
	<path fill-rule="evenodd" clip-rule="evenodd" fill="#646469" d="M360.5,122.2c-0.1,2.2-0.2,4.1-0.4,6.2c-0.5,0-0.9,0-1.4,0
		c0.1-1.2,0.1-2.5,0.2-3.7c0.1-1.2,0.2-2.4,0.3-3.8c0.6,0,1.3-0.1,1.9,0c0.3,0,0.5,0.4,0.7,0.7c0.5,1.5,1,3,1.6,4.5
		c0.5-1.4,1-2.7,1.4-4.1c0.3-0.9,0.7-1.3,1.7-1.1c0.3,0,0.6,0,1,0c0.2,2.5,0.4,4.9,0.6,7.4c-0.5,0-0.9,0-1.5,0
		c-0.1-1.9-0.3-3.8-0.4-5.8c0,0-0.1,0-0.1,0c-0.6,1.7-1.1,3.4-1.6,5.1c-0.2,0.6-0.5,0.7-1,0.7c-0.6,0-0.9-0.1-1.1-0.7
		C361.6,125.9,361.1,124.1,360.5,122.2z"/>
	<path fill-rule="evenodd" clip-rule="evenodd" fill="#646469" d="M452.9,266.6c2.8,0,4.8,2,4.8,4.7c0,2.7-2.1,4.8-4.8,4.8
		c-2.7,0-5-2.1-4.9-4.8C448,268.6,450.2,266.6,452.9,266.6z M449.3,271.3c0,2.1,1.6,3.8,3.7,3.8c2,0,3.7-1.7,3.7-3.8
		c0-2.1-1.6-3.7-3.6-3.8C450.9,267.4,449.3,269.1,449.3,271.3z"/>
	<path fill-rule="evenodd" clip-rule="evenodd" fill="#646469" d="M358.2,122.1c-0.2,0-0.3,0.1-0.4,0.1c-1.9,0.1-1.9,0.1-1.9,2
		c0,1.4,0,2.7,0,4.2c-0.5,0-0.9,0-1.5,0c0-2,0-4,0-6.1c-0.8,0-1.6-0.1-2.4-0.1c0-0.3,0-0.7,0-1.1c2.1,0,4.2,0,6.3,0
		C358.2,121.3,358.2,121.7,358.2,122.1z"/>
	<path fill-rule="evenodd" clip-rule="evenodd" fill="#646469" d="M452.1,273.7c-0.4,0-0.6,0-0.9,0c0-1.5,0-3.1,0-4.7
		c0.7,0,1.5-0.2,2.2-0.1c0.6,0.1,1.3,0.5,1.5,0.9c0.2,0.4-0.2,1.1-0.4,1.8c0.2,0.5,0.5,1.2,0.7,2c-0.8,0.3-1.4,0.2-1.5-0.7
		c-0.1-0.9-0.6-1.2-1.6-0.9C452.1,272.5,452.1,273.1,452.1,273.7z M452.2,271.1c0.8-0.1,1.5,0.1,1.6-0.8c0-0.2-0.6-0.7-1-0.6
		C451.8,269.7,452.3,270.5,452.2,271.1z"/>
</g>
</svg>
