<?xml version="1.0" encoding="utf-8"?>
<!-- Generator: Adobe Illustrator 18.0.0, SVG Export Plug-In . SVG Version: 6.00 Build 0)  -->
<!DOCTYPE svg PUBLIC "-//W3C//DTD SVG 1.1//EN" "http://www.w3.org/Graphics/SVG/1.1/DTD/svg11.dtd">
<svg version="1.1" id="Layer_1" xmlns="http://www.w3.org/2000/svg" xmlns:xlink="http://www.w3.org/1999/xlink" x="0px" y="0px"
	 viewBox="0 0 512 512" enable-background="new 0 0 512 512" xml:space="preserve">
<g>
	<path fill="#656565" d="M334.6,277c-112.3-5.7-204.5,13.4-246.9,24.5c-6.8-10.3-22.8-35.1-24.8-41.5c0,0-1.1-3.1-2.7-4.8
		c1.6,0,3.4-0.1,5.5-0.2c0,0,13.4-0.3,19.1-10.6c1.6-2.8,4.6-12.6-7-24.8c0,0-14.6-17.4-47.8-19.6c0,0-9-4.2-26.1,9.9
		c0,0-6.4,5.1-2.8,6.3c1.7,0.5,2.8,0.5,4.3,0.1c0,0,27.7-9.4,62.2,10.4c0,0,13.6,8.6,5.1,17.2c0,0-3.4,3.7-11.9,5.1
		c0,0-2,0.4-6.1,0.8c0,0-2,0.2-4.7,0.3c0,0-3.5,0-3.8,1c-0.2,0.6,0.4,0.9,2.3,1.8c-3.6,0.4-4.9,0.9-5.8,1.9c0,0-0.7,0.8-0.3,1.8
		c2.2,5.9,11.8,28.7,32.8,48.4c-8.2,2.4-12.7,3.9-12.7,3.9c-3.4,0.8-4.1,2.1-4.7,2.9c-2.9,3.5,7.3,1.3,7.3,1.3
		c5.5-1,10.8-1.9,16.1-2.8c2.8,2.1,14,10.3,16.8,7.9c0.9-0.8-1.8-4.4-5.7-9.8c111.7-18.4,167.1-15.9,167.1-15.9
		c23.1,1.6,17.5-4,17.5-4c62.7,1.3,46.8-4.9,46.8-4.9c6.6,0.1,8.3-0.2,8.3-0.2c5-0.3,7.6-0.4,9-2.7C343.4,276.6,334.6,277,334.6,277
		z"/>
	<path fill="#656565" d="M401.6,258.5c-4-2.4-14.9-24.5-14.9-24.5c-2.5-3.8-6.9,0.8-6.9,0.8c-3,2.3-7,9.4-9.1,13.6
		c-2.8,4.8-2.1-1.5-2.1-1.5c0.1-1.7,0.6-4.4,2.5-5.6c0,0,1.5,1.2,3.1-4.4c0,0,3.1-7.4-4.5-9.3c0,0-5.5-4.6-9.3,6.5
		c0,0-5.2,16.1-3.1,26.2c0,0,1,11.8,10.9,2.6c1-0.9,2.1-2.4,3.2-3.9c2-3.2,2.6-4.3,4-7.6c2.5-5.7,6.7-10.9,7.5-11.7
		c-0.6,6.7,7.2,24.4,7.2,24.4c2.7,9,7.1,8.7,7.1,8.7C419.7,273.5,401.6,258.5,401.6,258.5z"/>
	<path fill="#656565" d="M272.4,243c5.4-4.2,9.2-7.1,9.2-7.1c10.1,18.6-5.3,23.6-5.3,23.6c-2,0.8-2.5,1.7-2.5,2.9
		c0.1,1.6,2.6,1.7,2.6,1.7c23.8,0.5,25.7-13.9,25.7-13.9c1.1-6.4-5.5-12.5-9.5-15.3c-2.9-1.8-6.2-8.6-3.7-11.9
		c1.1-1.4,3.4-2.7,3.1-4.7c-0.7-4.4-8.4,0-9.9,5.3c-2.9,8-11.5,13-11.5,13c-1.4,1.2-1.7,4.5-1.7,4.5
		C268.7,247.1,272.4,243,272.4,243z"/>
	<path fill="#656565" d="M339.5,235.6c0,0-1.9-3.8-4.3-2.3c0,0-2.2,1-1.5,5c0,0-0.2,0.1,0.9,3.4c0,0,2.7,8.2,1.1,8.4
		c0,0-0.7,0.1-1.6,0.9c-0.5,0.5-1.5,1.6-2.6,2.3c0,0-7.5,5.1-5.9-2.1c0,0,1-4.3,2.1-7c0,0,4.2-11.8,8.8-18.1c0,0,4.5-5.4-1-5
		c-0.3,0-1.2,0.3-1.6,0.1c0,0-2.9-2.5-7.1,3c0,0-16.5,24.5-16.4,32.7c0,0-0.7,7.5,7.9,7.2c0,0,8.6-0.5,14.8-5.6c0,0,4-4,6.3-4.4
		c0,0,5.6,0.6,3.8-6.9C343.5,247.2,341.6,238.8,339.5,235.6z"/>
	<path fill="#656565" d="M96.4,283.5c0,0,8.4,0.1,14.7-5.9c0,0,1.9-1.7,3.9-4.2c0.1,0.8,0.2,1.8,0.5,2.7c0,0.2,0.1,0.4,0.1,0.5
		c0,0,0.2,1.6,1.5,2.8c1,0.9,2.5,1.6,5,1.2c0.2-0.1,0.5-0.1,0.8-0.2c0,0,8.9-2.1,8.7-5.9c-0.1-1.9,0.6-2.2,0.6-2.2s0.6-0.3,0.4-1
		c0,0,7.1-4.7,6.8-7.7c0,0,0-0.3-0.3-0.5c-0.6-0.4-3.8,1-6.9,2.9c-0.5,0.3-0.9,0.6-1.4,0.8c-1.1,0.7-2.3,1.4-2.7,1.8
		c0,0-2,1.6-1.8-2c0-0.1,0-0.1,0-0.1h0c0-0.8,0.2-1.8,0.2-2.9c0,0,2.8-11,3.9-14.1c0,0,0.7-2.9,1.7-6.2c0,0,4.7-4.9-3.9-6.5
		c0,0-4.1-10.1-8.5,5.8c0,0,0,0,0,0c-0.3-1.6-1.8-4.2-4.1-5.2c-0.5-0.3-1.1-0.5-2-0.5c-0.3,0-0.6,0.1-1.3,0c0,0-4.1-1.4-8.6,4.1
		c-4.7,5.2-18.4,21.6-15.3,35.4C88.3,276.4,90,283.5,96.4,283.5z M101.1,270.2c0,0,0.3-4.6,1.9-9c0,0,4.5-11.4,11.4-18
		c0.6-0.6,1.2-0.7,1.5-0.2c1,1.3,1.1,2.8,1.9,4.1c0.2,0.3,0.4,0.7,0.6,1c-0.8,4.3-3,12.3-3.3,18.4c-0.3,0.8-0.9,1.6-1.4,2.4
		c-0.7,1.2-1.4,2.5-3.3,3.7C110.4,272.6,100.7,278.6,101.1,270.2z"/>
	<path fill="#656565" d="M45.5,231.7c0,0,2.5-5.4,0.6-8.8c-0.6-1.2-2.1-0.5-5.5,5c0,0-29.4,49.6-35.3,73.1c0,0-6.5,16.2,2.2,22.1
		c0,0,1.9,3.1,4.3,3.6c0.7,3.5,1.9,6.8,4.3,5.7c0.8-0.4,1-3.3,0.9-6.1l0,0c-0.1-2.3,0.2-4.4,0.5-6c0.2-0.7,0.4-1.4,0.6-2.1
		c0,0,0.1-0.5,0.4-1.5c0.1-0.3,0.2-0.5,0.2-0.5l-0.1,0C21.3,305.6,34.7,253.7,45.5,231.7z"/>
	<path fill="#656565" d="M170,268.6c0,0,2.6-1.6,5.6-4.6c-0.6,2.5-1.5,4.1-1.6,6.7c0,0-0.9,5.3,1.5,6.6c0.9,0.5,1.9-0.2,4-5.3
		c0,0,17.2-44.2,18.1-62.4c0,0,6.1-9.1-8.1-26.2c0,0-7.7-9.7-6.4,1.5c0,0,1.1,23.4-2.8,52.6c-0.4-1.1-1-2.3-1.9-3.4
		c0,0-6.7-9-14.3-6.5c0,0-9.6,3-15.2,17.6c0,0-3.9,10.1-2.8,17.6C146.2,262.8,145.8,282.7,170,268.6z M157.9,256.3
		c0,0,0.5-9.3,6.8-16.7c0,0,1.8-2.2,3.2-2.5c0.5-0.1,1.2,0.6,1.6,3.4c0.1,0.7-1.9,0.8-1.2,3.1c0,0,3.4,8.5,10.4,4.7
		c-0.3,1.7-0.6,3.5-0.9,5.3c-3.7,5.1-11.4,13.9-18.2,9.3C159.6,262.8,157.8,261.7,157.9,256.3z"/>
	<path fill="#656565" d="M216.6,214.4c1.5,0.4,6.4-2.6,8.7-4.3c1.6-1,2.8-2.9,3.1-5.1c0.4-3.6-1.8-6.7-4.9-7c-3-0.3-5.7,2.1-6.2,5.5
		c-0.3,1.4-0.3,2.6-0.4,4.2C216.8,209,215,213.9,216.6,214.4z"/>
	<path fill="#656565" d="M226.2,255.4L226.2,255.4c6.3-6.3,15.9-17.5,15.9-17.5c10.1,18.6-5.3,23.6-5.3,23.6
		c-5.8,3.8,0.1,4.6,0.1,4.6c23.8,0.5,25.7-13.9,25.7-13.9c0.6-10.3-13.4-25.2-13.4-25.2c-3.8-8.2-6.5-1.3-6.5-1.3
		c-2.6,7.1-18.6,25.2-21.8,28.4c-13.4,11.6-8.8,4.4-9.8-0.8c0,0,0.6-9.5,3.2-11.6c0,0,1.4,0.6,2.5-5.1c0,0,3.2-7.5-5.4-8.9
		c0,0-5.9-4-8.6,7.4c0,0-5.1,21.6,1.8,31.5C204.5,266.6,208.1,273.1,226.2,255.4z"/>
	<path fill="#656565" d="M369,279c-7.4-0.7-12.7-0.8-17.5-1.1c-2.9,0-4.3,0.7-5,1.8c-1.1,1.8-1.7,3.3,3.5,3.5
		c2.6,0.1,6.5,0.1,6.6,2.1c0.2,3.2,6.2,3,8.9,3.1c2.4,0.1,4-0.3,6.6-0.9c5.2-1,8.1-3.4,7.3-5.6C378.8,279.3,372.9,279.3,369,279z"/>
	<path fill="#656565" d="M512,198.8c0-1.5-1.2-2.7-2.7-2.7l-86.1,0c-1.5,0-2.7,1.2-2.7,2.7l0,86.1c0,1.5,1.2,2.7,2.7,2.7l86.1,0
		c1.5,0,2.7-1.2,2.7-2.7L512,198.8z M499.7,254.5c-1.4-3.3-1.8-7.4-2-10.8c-3.2,7.2-8.1,18.3-13.6,17.4c-3.3-0.5-3.5-6.2-2.7-11.7
		c-2.2,4.7-4.2,9.5-6.7,12.4c0,0-0.2,0.2-0.6,0.7c-0.6,0.7-2.1,2.4-3.5,2.8c-0.1,0-0.3,0.1-0.4,0.1c-0.4,0.1-0.9,0-1.3-0.1
		c-1.1-0.3-2.1-1.4-3-3.5c-0.2-0.4-0.3-0.8-0.4-1.2c-0.1-0.6-0.2-1.1-0.3-1.6c-1,1.6-2.1,3-3.3,4.2c-4,3.9-8.3,6.3-13.4,7.8
		c-4.6,1.3-10.2,2.4-14.8,0.2c-4.6-2.3-5.4-7.6-3.4-12.1c0.8-1.7,1.2-0.7,0.9,1.3c-0.1,0.7-0.2,1.4-0.3,2.1
		c-0.4,11.6,17.7,6.1,22.6,3.2c3.7-2.1,5.2-3.7,7-5.6c2.4-2.5,4.2-6.7,4.6-10.4c1-8.7-9.8-8.6-14.9-8.4c-0.2,0-0.3,0-0.5-0.1
		c-0.6,1.6-1.2,3.2-1.8,4.7c-1.2,3-2.4,5.6-3.6,8.6c-1,2.5-2.6,5.8-4.2,8c-0.9,1.3-1.7,0.9-1.6-0.7c0.1-2.7,1.6-5.8,2.6-8.2
		c1.2-2.8,2.4-5.6,3.6-8.4c2.3-5.5,4.6-11.2,5.9-17.1c0.4-1.7,2.8-1.5,2.5,0.4c-0.3,2.1-0.8,4.2-1.3,6.2c1.6-2.2,3.3-4.5,4.8-6.9
		c1.4-2.5,4.5-9.1,0.7-11.1c-3.2-1.7-7.4,1-9.9,3c-2.7,2.2-5.7,5-7.9,8.5c-1,1.3-1.7,0.5-1.2-0.5c2-4,5.6-7.8,9-10.3
		c3.1-2.3,8.1-5.5,11.8-2.8c4.2,3,2.6,9.2,0.6,13.1c-1.9,3.8-4.4,7-6.8,10.4c5,0,11.1,0.7,13.9,5.3c0.3,0.5,0.6,1,0.8,1.5
		c1.2-3.4,2.6-6.2,3.6-8.3c3.7-8.2,5.7-11.8,10.6-18.9c0.7-1,1.7,0.1,1.1,1.1c-6.8,11.9-11.3,21.1-14.1,32.3
		c-0.2,0.9-0.4,1.9-0.5,2.4c0,0,0,0.1,0,0.1c-0.3,2.1-0.4,4.9,0.5,6.6c0.2,0.4,0.4,0.6,0.6,0.8c0,0,0,0,0,0c1.2,0.9,2.7-0.7,3.5-1.8
		c2-2.5,3.7-5.4,5.3-8.4c2.5-5,5.1-10.4,6.7-16.1c0.5-1.8,2.6-1.4,2.5,0.6c-0.2,3.3-1,6.4-1.7,9.6c-0.4,2.2-3.2,15.3,1.1,11.2
		c4.7-4.4,7.7-11.6,10.8-17.9c0.6-1.1,2.1-0.9,2.3,0.6c0.6,4.9,0.7,9.3,2.2,13.9C502.7,255,500.5,256.6,499.7,254.5z"/>
</g>
</svg>
