<?xml version="1.0" encoding="utf-8"?>
<!-- Generator: Adobe Illustrator 18.0.0, SVG Export Plug-In . SVG Version: 6.00 Build 0)  -->
<!DOCTYPE svg PUBLIC "-//W3C//DTD SVG 1.1//EN" "http://www.w3.org/Graphics/SVG/1.1/DTD/svg11.dtd">
<svg version="1.1" id="Layer_1" xmlns="http://www.w3.org/2000/svg" xmlns:xlink="http://www.w3.org/1999/xlink" x="0px" y="0px"
	 viewBox="0 0 512 512" enable-background="new 0 0 512 512" xml:space="preserve">
<g>
	<g>
		<path fill="#646469" d="M344.2,176.3h-17.3v34c0,11.1,11.8,20.5,26.5,20.5c14.6,0,27.4-9.6,27.4-20.5v-34h-17.3V207
			c0,5.1-4.3,9.1-9.6,9.1c-5.4,0-9.7-4.1-9.7-9.3V176.3z"/>
	</g>
	<g>
		<path fill="#646469" d="M69.5,157.6v70.6h-18v-85.1h32.4c14.1,0,25.6,11.4,25.6,25.3c0,11.8-8.3,21.7-19.5,24.3l25,35.5H93.6
			l-18-27.9V180h4.2c6.7,0,12-4.9,12-11.1c0-6.1-5.1-11.3-11.7-11.3H69.5z"/>
	</g>
	<g>
		<path fill="#646469" d="M234.8,228.2V139h-17v42.1c-4.5-4.4-10.2-6.9-16.8-6.9c-14,0-25.4,12.4-25.4,27.8
			c0,15.3,11.4,27.8,25.4,27.8c6.7,0,12.9-2.6,16.8-7.3v5.8H234.8z M205.9,215.2c-6.9,0-12.5-6.1-12.5-13.7
			c0-7.5,5.6-13.7,12.5-13.7c6.9,0,12.5,6.1,12.5,13.7C218.2,209,212.6,215.2,205.9,215.2"/>
	</g>
	<g>
		<path fill="#646469" d="M306.2,181.9c4.6-4.3,7.5-10.1,7.5-16.5c0-5.8-2.3-11.1-6.1-15.3c-4.1-4.4-11.2-7.1-20.9-7.1h-28.9v85.1
			h37.4c14.3-0.2,25.9-11.1,25.9-24.4C321.1,194.1,317.6,187.2,306.2,181.9 M291.8,213.5h-16.2v-55.1H287c4.9,0,9.1,3.8,9.1,8.8
			c0,5.1-4.2,9.1-9.1,9.1h-6v15.4H292c6,0,10.5,4.9,10.5,11C302.4,208.7,298.4,213.1,291.8,213.5"/>
	</g>
	<g>
		<path fill="#646469" d="M130,195.6c0-5.7,4.6-10.3,10.3-10.3c5.7,0,10.3,4.6,10.3,10.3H130z M167.5,205.3c0.1-1.2,0.2-2.4,0.2-3.6
			c0.2-18.4-11.8-28.4-27.3-28.4c-15.5,0-28.1,12.7-28.1,28.4s12.6,28.4,28.1,28.4c11.8,0,21.1-5.4,25.8-13.8l-13.8-6.3
			c-1.7,3.8-5.8,6.5-10.6,6.5c-6.3,0-11.6-4.8-11.6-11.2C130.6,205.3,167.5,205.3,167.5,205.3"/>
	</g>
	<g>
		<rect x="388.7" y="139" fill="#646469" width="17" height="89.2"/>
	</g>
	<g>
		<rect x="417.7" y="139" fill="#646469" width="17" height="89.2"/>
	</g>
	<g>
		<path fill="#646469" d="M344.4,307.6c0.7-0.6,1.3-1.2,2-1.2c0,0,0,0,0,0C345.6,306.3,345,306.9,344.4,307.6
			c-0.2,0.1-0.4,0.3-0.5,0.4l-0.4,0.1l0.5-0.1C344.1,307.8,344.2,307.7,344.4,307.6z"/>
		<path fill="#646469" d="M279.7,263.7C279.7,263.7,279.7,263.7,279.7,263.7l0.2,0.7L279.7,263.7z"/>
		<path fill="#646469" d="M251.3,311.7L251.3,311.7c0,0,0-0.1,0-0.2C251.3,311.6,251.3,311.7,251.3,311.7z"/>
		<path fill="#646469" d="M337.6,291.9c-0.3-0.1-0.7-0.2-1-0.2C337,291.7,337.3,291.9,337.6,291.9c0.3,0.1,0.6,0.2,1,0.2
			c1.5,0,2.8-0.2,4-0.6c-1.1,0.4-2.4,0.6-3.9,0.6C338.3,292.1,338,292,337.6,291.9z"/>
		<path fill="#646469" d="M341,302.8c0.4,0.8,0.6,1.6,0.9,2.5c0.1,0.2,0.1,0.4,0.2,0.6c0.1,0.2,0.1,0.4,0.2,0.6
			c0.1,0.2,0.1,0.4,0.2,0.6l0.1,0.2c0,0,0,0.1,0,0.2c0-0.1,0.1-0.1,0.1-0.2l-0.1-0.2c-0.1-0.2-0.1-0.4-0.2-0.6
			c-0.1-0.2-0.1-0.4-0.2-0.6c-0.1-0.2-0.2-0.4-0.2-0.6C341.6,304.4,341.3,303.6,341,302.8c-0.5-1-1.7-1-2.9-1
			C339.3,301.8,340.4,301.8,341,302.8z"/>
		<path fill="#646469" d="M336,297.6c0,0.3-0.2,0.5-0.3,0.8c0.1-0.3,0.4-0.6,0.4-0.9c0.3-1.7,0.3-3.7,0-5.2l-0.1-0.7l0.1,0.7
			C336.4,293.9,336.3,295.9,336,297.6z"/>
		<path fill="#646469" d="M238.9,311.7c0.3,0,0.6,0,0.9,0c0.5,0,0.9-0.1,1.2-0.3c-0.3,0.1-0.6,0.3-1.2,0.3
			C239.6,311.7,239.2,311.7,238.9,311.7z"/>
		<path fill="#646469" d="M250.5,310.8C250.5,310.8,250.5,310.8,250.5,310.8c-0.1,0.2-0.2,0.4-0.2,0.6
			C250.3,311.2,250.4,311,250.5,310.8z"/>
		<path fill="#646469" d="M220,311c-1.2,0.4-2.4,0.8-3.3,0.8l-0.2,0c-1.2,0-2-0.4-2.5-1.1c-0.5-0.7-0.6-1.8-0.6-2.5
			c0,0.7,0.1,1.8,0.6,2.6c0.4,0.7,1.3,1.2,2.5,1.2c0,0,0,0,0,0l0.2-0.1C217.6,311.8,218.8,311.4,220,311c0.9-0.3,1.7-0.5,2.4-0.7
			c0.4-0.1,0.8-0.1,1.2-0.1c-0.4,0-0.8,0-1.2,0.1C221.6,310.5,220.8,310.7,220,311z"/>
		<path fill="#646469" d="M230.1,308.9c-0.5,0.3-1.1,0.8-2,1.2c-0.5,0.2-1,0.3-1.8,0.3c0,0,0,0,0,0c0.8,0,1.4-0.1,1.8-0.3
			C229,309.7,229.7,309.2,230.1,308.9c0.5-0.3,0.8-0.6,1.1-0.6h0C230.9,308.3,230.6,308.5,230.1,308.9z"/>
		<path fill="#646469" d="M340.6,272.4L340.6,272.4l1-0.2c0.4-0.1,0.8-0.2,1.2-0.3c-0.4,0.1-0.7,0.2-1.1,0.3L340.6,272.4z"/>
		<path fill="#646469" d="M283.2,313c0.1,0,0.2,0,0.4,0c0.2,0,0.5,0,0.7,0c-0.2,0-0.4,0-0.7,0C283.4,313,283.3,313,283.2,313z"/>
		<path fill="#646469" d="M274.5,311.7L274.5,311.7c-1,0-2.2-0.4-3.3-0.9c-1.1-0.4-2.2-0.9-3.1-0.9c0,0,0,0,0,0c0.9,0,1.9,0.4,3,0.9
			C272.3,311.3,273.5,311.8,274.5,311.7L274.5,311.7L274.5,311.7c1.2,0,1.8-0.7,2.1-1.2c0.5-0.7,0.6-1.5,0.6-2.2
			c0,0.7,0,1.5-0.6,2.2C276.3,311,275.7,311.7,274.5,311.7z"/>
		<path fill="#646469" d="M342.9,263.9c1.1-0.2,2.3-0.4,3.2-1.3c0.3-0.2,0.5-0.5,0.7-0.8c0.2-0.3,0.4-0.6,0.6-0.6c0.1,0,0.1,0,0.2,0
			c0.1,0.1,0.2,0.2,0.3,0.3c-0.1-0.1-0.2-0.2-0.3-0.3c0,0-0.1,0-0.2,0c-0.2,0-0.4,0.3-0.6,0.6c-0.2,0.3-0.4,0.6-0.7,0.8
			C345.2,263.5,344,263.7,342.9,263.9c-0.5,0.1-1,0.2-1.5,0.4c-0.3,0.1-0.6,0.2-1,0.3c0.4-0.1,0.7-0.3,1-0.3
			C341.9,264.1,342.4,264,342.9,263.9z"/>
		<path fill="#646469" d="M300.4,312.2c0,0-0.2,0-0.3,0c-0.3,0-1.1,0-1.2,0.8c-0.4,1.6-2,3.2-3.7,3.6c-0.7,0.1-1.4,0-2-0.2
			c-2.3-0.8-4.5-1.4-6.8-2.1c-0.4-0.1-0.8-0.5-1.2-0.8c-0.2-0.2-0.5-0.4-0.7-0.6c0.2,0.2,0.5,0.4,0.7,0.6c0.4,0.3,0.8,0.7,1.2,0.8
			c2.3,0.6,4.5,1.3,6.8,2c0.6,0.2,1.4,0.3,2,0.2c1.7-0.4,3.3-1.9,3.7-3.6c0.1-0.8,0.9-0.8,1.2-0.8
			C300.2,312.2,300.4,312.2,300.4,312.2c0.8-0.7,1.3-1.5,1.8-2.4c0.3-0.5,0.6-1,1-1.5c-0.4,0.5-0.7,1-1,1.5
			C301.7,310.7,301.2,311.5,300.4,312.2z"/>
		<path fill="#646469" d="M252.3,310.3l1.9-1.7l0,0l0,0l0,0L252.3,310.3c-0.3,0.3-0.5,0.5-0.7,0.7c-0.1,0.2-0.2,0.4-0.3,0.5
			c0,0,0,0,0,0c0-0.1,0.1-0.3,0.3-0.5C251.8,310.8,252,310.6,252.3,310.3z"/>
		<path fill="#646469" d="M284.5,261.4c-0.3,0-0.6,0-0.9,0.1c-1,0.3-2,0.9-3,1.7c1-0.7,2.1-1.4,3.1-1.7
			C283.9,261.5,284.2,261.5,284.5,261.4z"/>
		<path fill="#646469" d="M252.8,313c-0.9,0-2.1-0.2-2.4-1c-0.1-0.2-0.1-0.4-0.1-0.5c0-0.2,0.1-0.4,0.2-0.6c-0.3,0-0.6,0.1-0.9,0.1
			c-1.9,0-2.4-1.1-2.6-1.5c-0.1-0.2-0.1-0.4-0.1-0.6c0-0.6,0.2-1.2,0.6-1.6c0.1-0.1,0.2-0.2,0.4-0.3c0.5-0.4,1.2-0.8,2.6-2.2
			c3.3-3.4,4.3-8.1,5.5-13.1c1.2-5.2,2.4-10.6,6.3-14.9c2.9-3.2,5.2-5,11.3-9.3c1.1-0.7,2.2-1.7,3.2-2.6c0.9-0.8,1.8-1.5,2.7-2.2
			c-7.6-10.4-19.8-17.1-33.6-17.1c-13.6,0-25.6,6.5-33.2,16.5c0.6,0.3,1.3,0.6,2,1.1c2.6,1.8,4.5,3.4,7.8,6.2l2.2,1.9
			c1,1,2,2.3,2.9,3.4c0.5,0.6,0.9,1.2,1.4,1.7l0.1,0.1c2.6,3.2,4.4,5.5,4.8,8.3c0.8,5.4,1.5,8.4,3.5,13.8c0.1,0.3,0.5,0.7,0.9,1.1
			c0.2,0.2,0.4,0.5,0.6,0.7c0.5,0.6,0.8,1.3,1.2,2c0.7,1.3,1.4,2.6,2.8,3.5l0.6,0.3c0.8,0.5,1,0.6,1.4,0.9c0.4,0.3,0.5,0.8,0.3,1.3
			c-0.3,0.7-1.2,1.6-3,1.7c0.2,0.4,0.3,0.8,0.2,1.3c-0.2,0.9-1.1,1.5-2.5,1.6c-4.9,0.2-8-2.6-8.7-3.3c-0.1,0.1-0.3,0.2-0.4,0.3
			c-0.5,0.4-1.2,0.9-2.2,1.3c-0.6,0.3-1.3,0.4-2.2,0.4c-0.5,0-1,0-1.5-0.1c-0.8-0.1-1.7-0.1-2.3,0c-0.7,0.1-1.4,0.4-2.3,0.6
			c-1.2,0.4-2.5,0.8-3.6,0.9l-0.2,0c-1.5,0-2.6-0.5-3.3-1.6c-0.3-0.5-0.5-1.1-0.6-1.6c-0.3,0.7-0.6,1.2-0.7,1.2
			c0,0.1-0.1,0.1-0.1,0.2c7.5,10.7,20,17.7,34.1,17.7c13.9,0,26.2-6.8,33.8-17.3c-0.5-0.8-0.8-1.8-1.1-2.7c-0.1,0.9-0.4,1.8-1,2.5
			c-0.5,0.7-1.5,1.5-3,1.5c-0.1,0-0.1,0-0.2,0c-1.1,0-2.4-0.5-3.7-1c-1-0.4-2-0.8-2.7-0.8c-0.4,0-0.9,0-1.5,0.1
			c-0.6,0.1-1.2,0.1-1.9,0.1c-1.1,0-2.6-0.2-3.8-1.6c-2.7,2.9-5.7,3.5-7.7,3.5C253.1,313.1,252.9,313,252.8,313L252.8,313z"/>
		<path fill="#646469" d="M215.2,299.5c-1.1,0.1-1.9,0.3-2.8,0.5c-0.4,0.1-0.9,0.2-1.3,0.3c0.2,1,0.7,1.9,1.4,2.9
			c0.4-1,1.1-1.7,1.7-2.4C214.6,300.4,214.9,300,215.2,299.5z"/>
		<path fill="#646469" d="M277.6,300.2c0.4,0.7,0.7,1.4,1.1,2.1c0.2,0.4,0.4,0.7,0.6,1.1c0.6-1.1,1.2-2.2,1.7-3.1
			c-0.2,0-0.5,0-0.8,0C279.2,300.3,278.4,300.3,277.6,300.2z"/>
		<path fill="#646469" d="M213.2,304.3C213.2,304.3,213.2,304.3,213.2,304.3l-0.3,1.1l-0.6-0.9c-1.2-1.6-2.1-3-2.2-4.7l0-0.5
			l0.5-0.1c0.6-0.1,1.1-0.2,1.7-0.3c1.1-0.2,2.3-0.5,3.8-0.5l0.8,0l-0.2,0.7c-0.3,0.9-0.6,1.6-1.2,2.3c-0.6,0.7-1.3,1.4-1.3,2.4v4.4
			c0,0.7-0.2,1.7,0.3,2.5c0.4,0.7,1.2,1.1,2.3,1.1l0.1,0c1-0.1,2.2-0.4,3.3-0.8c0.8-0.3,1.6-0.5,2.4-0.7c0.4-0.1,0.8-0.1,1.2-0.1
			c0.4,0,0.9,0,1.4,0.1c0.5,0,1,0.1,1.4,0.1c0.8,0,1.4-0.1,1.8-0.3c0.9-0.3,1.5-0.8,2-1.2c0.5-0.3,0.8-0.6,1.1-0.6h0h0
			c0.2,0,0.4,0.1,0.5,0.2c0.1,0.2,2.7,3,7.2,3.2c0.3,0,0.6,0,0.9,0c0.5,0,0.9-0.1,1.2-0.3c0.3-0.1,0.4-0.3,0.4-0.5
			c0.1-0.4-0.2-0.9-0.8-1.1l-2.7-1.3l3,0.4c1.8,0.2,2.9-0.3,3.3-0.8c0.1-0.2,0.1-0.3,0.1-0.3c-0.3-0.2-0.5-0.3-1.3-0.8l-0.6-0.3
			c-1.7-1-2.5-2.5-3.2-3.9c-0.4-0.7-0.7-1.3-1.1-1.8c-0.2-0.2-0.4-0.4-0.6-0.6c-0.5-0.5-0.9-1-1.1-1.4c-2-5.5-2.8-8.5-3.6-14
			c-0.3-2.5-2.1-4.8-4.5-7.8l-0.1-0.1c-0.4-0.5-0.9-1.1-1.4-1.7c-0.9-1.1-1.9-2.4-2.8-3.3l-2.2-1.8c-3.3-2.8-5.1-4.3-7.7-6.1
			c-0.7-0.4-1.3-0.7-2-1l-0.9-0.4c-0.9-0.4-2-0.6-3.4-0.7c-0.1,0-0.2,0-0.3,0c-2.3,0-4.4,0.8-6.6,2.5c-1.8,1.2-3.7,1.8-5.6,2.4
			c-2.3,0.7-4.6,1.4-6.5,3.1c-0.3,0.2-0.6,0.5-0.8,0.8c-0.5,0.5-1,1.1-1.6,1.4l-0.2,0c-1.2,0.1-2.3,0.2-3.5,0.4
			c-2.7,0.7-4.9,2.5-6.5,4.1c-1.3,1.1-2.7,1.7-4.2,2.1c-3.7,0.1-6.6,1-8.8,2.7c-2.5,1.9-5.4,4-8.6,5.3c-0.8,0.3-1.6,0.5-2.4,0.5
			c-1.3,0-2.5-0.4-3.3-1.2c-1.3-1.1-1.7-2.7-1.2-4.6c0.9-1.9,2.5-3.6,5-5.4c3.1-2.4,4.2-4.8,3.6-7.4c-1-3.1-3.8-3.8-6.8-4.6
			c-0.8-0.2-1.7-0.4-2.5-0.7l-0.8-0.5c-0.6-0.3-1-0.6-1.4-0.9c-0.5-0.4-0.9-0.7-1.6-1c-0.2-0.1-0.3,0-0.6,0.3
			c-0.9,1.6-1.1,3.1-0.8,4.6c0.6,2.5,3.2,4.9,5.8,5.3c0.3,0.1,0.7,0.1,1,0.2c0.4,0,0.8,0.1,1.1,0.2l0.9,0.3l-0.7,0.6
			c-2,1.6-3.8,3.3-5.3,5.1c-1.9,2.3-2.4,6.2-1.2,8.9c1.1,2.8,3.9,5.1,6.7,5.5c1.6,0.3,3.5,0.2,5.2,0l1.2-0.1l0,0.5
			c0.1,2,0.3,4.7,1.4,6.8l0.1,0.2l0.1,0.9l-0.2,0.2c-0.8,0.9-2,1.4-3.2,1.8c-0.6,0.1-0.9,0-1.4,0c-0.4,0-0.7-0.1-1.1,0
			c-0.7,0-1.2,0.6-1.7,1.7c-0.3,0.5-0.4,1-0.6,1.5c-0.2,1-0.5,2-1.8,2.6l-0.3,0.1l-2.1-1.8c-1-0.5-2.1,0.1-3.2,0.9
			c-0.3,0.2-0.7,0.5-1.1,0.7c-0.6,0.4-1.1,1-1.1,1.7l0,0.3l-0.3,0.1c-1.4,0.6-2.3,1.3-2.7,2.2c-0.2,0.5-0.3,1.1-0.3,1.7
			c0,0.3,0,0.5-0.1,0.7l0,0.2c-0.1,0.2-0.2,0.4-0.4,0.7c-0.3,0.4-0.5,0.8-0.5,1.1l0,0c0.1,0.4,0.2,0.7,0.4,1c1,0.6,2.1,0.9,3.2,1.2
			c0,0,0,0,0.1,0c0.2,0,0.3-0.1,0.6-0.2c0.2-0.1,0.3-0.2,0.5-0.3l0.2-0.1l0.2,0c1.1,0.3,2.4,0.6,3.6,0.6c0.6,0,1.2-0.1,1.7-0.2
			c1-0.3,1.5-1.2,2.1-2.1c0.3-0.5,0.6-1,1-1.4l0.1-0.1l0.1,0c0.6-0.1,1.2,0,1.8,0.1c0.3,0.1,0.7,0.2,0.9,0.2c0.8-0.1,1.5-0.5,2.3-1
			c0.5-0.3,1-0.6,1.5-0.8c0.4-0.3,0.8-0.6,1.2-1c0.4-0.4,0.9-0.8,1.3-1l0.1-0.1c1-0.4,1.7-0.5,2.7-0.4c1.3,0.2,2.8,0.5,4.1,0.5
			c1.2,0,2.2-0.2,3-0.7c0.4-0.2,0.7-0.4,1.1-0.7c0.8-0.5,1.6-1.1,2.7-1.3c1-0.5,1.4-1.5,1.9-2.5c0.3-0.7,0.7-1.4,1.2-2l1-2.1
			l0.4,0.1c1.1,0.2,2.4,0,3.6-0.3c1.4-0.3,3-0.6,4.4-0.2c1.9,0.3,4,0.7,6.1,0.7c1.2,0,2.3-0.1,3.3-0.4l0.3-0.1l0.2,0.2
			c0.2,0.2,0.4,0.4,0.6,0.5c0.4,0.3,0.8,0.6,1.1,1.1l0.4,0.6l-0.7,0.1c-0.3,0.1-0.6,0.1-0.8,0.1c-0.8,0.1-1.4,0.2-1.9,0.7l-0.2,0.3
			l-0.3-0.1c-1-0.4-2.4-0.3-3.8-0.1c-0.5,0.1-0.9,0.1-1.4,0.1c-0.7,0-1.6,0.3-1.9,1c-0.1,0.4-0.1,1,0,1.4l2.4,4
			c0.2,0.3,0.5,0.5,0.8,0.5c0.7,0.2,1.4,0,2,0.2l0.2,0.1l0.1,0.2c0.5,0.9,1,1.8,1.9,2.5c1,0.8,2.7,1.2,4.2,0.9l1.4-0.5
			c2.3-0.8,4.5-1.5,6.7-2.5l0.1,0l3.4-0.4c1-0.4,1.5-1.4,1.9-2.3c0-0.1,1.1-2,1.4-3.2L213.2,304.3z"/>
		<path fill="#646469" d="M278.1,306.3 M278.4,306.3l0.5-1.6c-0.4-0.7-0.7-1.3-1-2c-0.5-1-1-2-1.6-3l-0.7-1l1.2,0.3
			c1,0.2,2.1,0.3,3.5,0.3c0.4,0,0.8,0,1,0c0.6,0,0.8-0.1,1.1,0.2l0.3,0.3l-0.3,0.4c-0.7,0.9-1.5,2.3-2.3,3.8l-0.5,1l-0.1,0.8l0,1.5
			c0.4,1.8,0.9,3.3,1.5,4l0.1,0.2c0.1,0.4,0.4,0.9,0.5,1l0.1,0.1c0.1,0.2,0.3,0.3,0.6,0.3c0.2,0,0.3,0.1,0.6,0.1c0.1,0,0.2,0,0.4,0
			c0.1,0,0.2,0,0.4,0c0.2,0,0.5,0,0.7,0h0.2l0.1,0.1c0.2,0.2,0.5,0.3,0.7,0.5c0.4,0.3,0.8,0.7,1.2,0.8c2.3,0.6,4.5,1.3,6.8,2
			c0.6,0.2,1.4,0.3,2,0.2c1.7-0.4,3.3-1.9,3.7-3.6c0.1-0.8,0.9-0.8,1.2-0.8c0.1,0,0.3,0,0.3,0c0.8-0.7,1.3-1.5,1.8-2.4
			c0.3-0.5,0.6-1,1-1.5c0.2-0.3,0.2-0.7,0-1.1c-0.1-0.3-0.5-0.6-0.7-0.7c-0.9-0.2-1.9-0.2-2.9-0.2l-1,0c-0.7,0-1.4,0-2.1-0.1l-0.2,0
			l-0.6-0.6c-0.2-0.2-0.5-0.3-0.9-0.3c-0.1,0-0.2,0-0.3-0.1l-1.1-0.2l2.3-1.6l0.2,0c2.3,0.1,4.7-0.1,7-0.5c1.6-0.4,3.6-0.8,5.7-0.7
			c0.5,0,0.9,0,1.4,0.1c0.9,0.1,1.9,0.1,2.8,0.1c1.2,0,2.1-0.1,3-0.3l0.5-0.1l0.1,0.5c0.2,0.6,0.3,1.2,0.4,1.8
			c0.3,1.6,0.6,3,1.8,4.3c0.8,1.1,1.8,1.6,2.8,2.2c0.5,0.3,1,0.6,1.5,0.9c1.2,0.5,3.1,0.2,4.6-0.1l0.2,0l0.4,0
			c3.7,0,6.4,2.1,9.1,4.1c0.4,0.2,0.9,0.4,1.4,0.4c1,0,2-0.4,2.4-0.6l0.4-0.2l0.2,0.4c0.5,0.9,1,1.5,1.7,2.1
			c0.9,0.8,2.1,0.9,3.2,0.9c0.4,0,0.8,0,1.2,0c0.4,0,0.8,0,1.2,0c0.2,0,0.4,0,0.6,0l0.2,0l0.1,0.1c0.3,0.3,0.5,0.4,0.6,0.4l3.9-1.2
			l0.3-0.2c0.3-0.5,0-1.1-0.3-1.8c-0.1-0.2-0.2-0.4-0.3-0.7c-0.1-0.5-0.2-0.9-0.2-1.3c0-0.4-0.1-0.8-0.1-1.2c-0.2-0.8-1-1.5-2.5-2.1
			l-0.3-0.1l-0.1-0.3c-0.1-0.5-0.2-0.8-0.4-1c-0.6-0.5-1.2-0.9-1.9-1.4s-1.3-0.9-1.9-1.3c-0.1,0-0.2,0-0.3,0c-0.7,0-1.4,0.6-2,1.2
			c-0.1,0.1-0.3,0.3-0.4,0.4l-0.5,0.1l-0.4,0v0c0,0-0.4-0.4-0.6-0.6c0-0.1,0-0.1,0-0.2l-0.1-0.2c-0.1-0.2-0.1-0.4-0.2-0.6
			c-0.1-0.2-0.1-0.4-0.2-0.6c-0.1-0.2-0.1-0.4-0.2-0.6c-0.3-0.8-0.5-1.6-0.9-2.4c-0.5-1-1.7-0.9-2.9-0.9c0,0,0,0,0,0h-0.5
			c0,0,0,0,0,0h-0.1c-0.6,0-1.5-0.2-2.1-0.9l-0.3-0.3v-0.2c0-0.7,0.4-1.4,0.6-2c0-0.1,0-0.1,0.1-0.2c0.1-0.3,0.3-0.6,0.3-0.8
			c0.3-1.7,0.4-4.1,0.1-5.6L336,291h0.6c0.4,0,0.7,0.5,1,0.6c0.3,0.1,0.7,0.3,1,0.3c1.5,0,2.8-0.1,3.9-0.5c0.4-0.1,0.7-0.3,1-0.4
			c2.8-1.6,4.4-4.2,4.4-7.2c0,0,0,0,0,0c0-1.5-0.3-2.7-1.1-4.2c-1.1-2.1-2.8-4.5-5.5-6.7l-0.8-0.8h0l0,0.2l1-0.1
			c0.4-0.1,0.8-0.1,1.1-0.2c0.5-0.1,1-0.3,1.4-0.5c0.5-0.2,0.7-0.4,1.2-0.7c2.4-1.5,2.6-3.8,2.6-5.9c0,0,0,0,0,0
			c0-0.5,0.2-0.9,0.2-1.4c-0.1-0.7,0-1.5-0.3-1.9c-0.1-0.1-0.1-0.2-0.3-0.3c0,0-0.1,0-0.2,0c-0.2,0-0.4,0.3-0.6,0.6
			c-0.2,0.3-0.4,0.6-0.7,0.8c-0.9,0.9-2.1,1.1-3.2,1.3c-0.5,0.1-1,0.2-1.5,0.4c-0.3,0.1-0.6,0.2-1,0.3s-0.8,0.3-1.2,0.5
			c-0.2,0.1-0.3,0.2-0.5,0.3c-0.3,0.2-0.7,0.4-1,0.6c-0.3,0.2-0.7,0.5-1,0.7c-0.3,0.3-0.6,0.6-0.9,0.9c-0.5,0.6-0.9,1.3-1.1,2.2
			c-0.4,2.8,1.7,4.8,4,6.9c0.8,0.7,1.5,1.5,2.2,2.2c1.3,1.6,2.5,3.1,2.3,5.2c-0.3,1-1.1,1.9-2.1,2.2c-0.7,0.2-1.3,0.3-2,0.3
			c-1.2,0-2.4-0.3-3.5-0.8c-1.1-0.5-2.1-1.1-3-1.6c-4.4-3.1-8.5-5.8-13.3-6.3c-2.2-0.4-3.9-1.6-5.5-2.7c-0.4-0.3-0.9-0.6-1.4-0.9
			c-1.7-1-3.5-1.6-5.5-2c-1.3-0.2-2.3-1-3.2-1.7c-0.4-0.3-0.8-0.7-1.3-0.9c-2.2-1.4-4.3-2.2-6.5-2.6c-0.4-0.1-0.6-0.2-0.9-0.3
			c-0.6-0.2-1.3-0.3-1.9-0.9c-0.9-1.2-1.8-2-2.7-2.6c-1.9-1.3-3.9-1.9-6-1.9c-0.3,0-0.6,0-0.8,0.1c-1,0.3-2.2,0.9-3.2,1.7l-0.4,0.1
			v0.8c0,0.1,0.3-0.9,0.1-0.8l-0.5,0.4c-0.7,0.5-1.4,1.2-2.1,1.8c-1.1,0.9-2.2,1.9-3.3,2.7c-6.1,4.3-8.3,6-11.1,9.2
			c-3.7,4.1-4.9,9.4-6.1,14.4c-1.2,5.1-2.3,9.9-5.7,13.5c-1.5,1.5-2.2,2-2.7,2.4c-0.1,0.1-0.3,0.2-0.4,0.3c-0.2,0.1-0.3,0.6-0.2,1.1
			c0.2,0.6,0.8,0.9,1.8,0.8c0.6,0,1.3-0.2,2-0.4l2.4-0.8l0,0l0,0l0,0l0,0l0,0l-1.9,1.7c-0.3,0.3-0.5,0.5-0.7,0.7
			c-0.1,0.2-0.2,0.4-0.3,0.5c0,0,0,0,0,0c0,0.1,0,0.1,0,0.2c0.1,0.3,0.6,0.5,1.3,0.5c0.2,0,0.3,0,0.3,0v0c3,0,5.4-1.3,7.5-3.7
			l0.5-0.5v0l0.4,0.5c0.8,1.1,1.8,1.5,3.4,1.5h0c0.6,0,1.2,0.1,1.7,0c0.6-0.1,1.1,0,1.6,0c0,0,0,0,0,0c0,0,0,0,0,0
			c0.9,0,1.9,0.4,3.1,0.9c1.2,0.5,2.4,0.9,3.3,0.9l0.1,0c1.2,0,1.9-0.7,2.3-1.2c0.5-0.7,1-1.5,1-2.2c0,0,0,0,0,0
			c0-0.2,0.4-0.7,0.3-0.8L278.4,306.3L278.4,306.3 M278.4,303.9"/>
	</g>
	<g>
		<polygon fill="#646469" points="73,373.5 88,373.5 88,370.4 76.5,370.4 76.5,359.9 87.5,359.9 87.5,356.7 76.5,356.7 76.5,349 
			88,349 88,345.9 73,345.9 		"/>
	</g>
	<g>
		<polygon fill="#646469" points="102.6,373.5 106,373.5 106,352.9 126.9,374.7 126.9,345.9 123.5,345.9 123.5,366.3 102.6,344.5 		
			"/>
	</g>
	<g>
		<polygon fill="#646469" points="141.8,373.5 156.6,373.5 156.6,370.4 145.2,370.4 145.2,359.9 156.3,359.9 156.3,356.7 
			145.2,356.7 145.2,349 156.6,349 156.6,345.9 141.8,345.9 		"/>
	</g>
	<g>
		<path fill="#646469" d="M179.2,361.5c4-0.4,6.7-3.8,6.7-7.7c0-2.7-1.3-5.3-3.7-6.7c-2.2-1.3-4.8-1.3-7.3-1.3h-4.2v27.8h3.4v-11.7
			h1.4l8.2,11.7h4.2L179.2,361.5z M174.1,348.9h1c3.4,0,7.5,0.6,7.5,4.9c0,4.4-3.9,5.1-7.3,5.1h-1.1v-10H174.1z"/>
	</g>
	<g>
		<path fill="#646469" d="M212.8,359.5v3.1h7.2c-0.1,4.5-4.7,8.2-9,8.2c-6,0-10.8-5.5-10.8-11.3c0-6.2,4.8-11.3,11.1-11.3
			c3.4,0,6.8,1.8,8.7,4.5l2.5-2.4c-2.7-3.4-7-5.4-11.3-5.4c-8,0-14.4,6.6-14.4,14.5c0,7.6,6.2,14.4,14,14.4
			c7.7,0,13.1-5.8,13.1-13.4v-1.1h-11.1V359.5z"/>
	</g>
	<g>
		<polygon fill="#646469" points="242.8,361.5 242.8,373.5 246.2,373.5 246.2,361.5 255.2,345.9 251.3,345.9 244.5,357.7 
			237.6,345.9 233.6,345.9 		"/>
	</g>
	<g>
		<path fill="#646469" d="M279,373.5h5.6c8.7,0,15.7-4.5,15.7-14c0-9.3-7.1-13.8-15.6-13.8H279V373.5z M282.5,349h1.2
			c7.1,0,13.1,2.6,13.1,10.8c0,8.1-6.1,10.6-13.1,10.6h-1.2V349z"/>
	</g>
	<g>
		<path fill="#646469" d="M321.9,361.5c4-0.4,6.7-3.8,6.7-7.7c0-2.7-1.3-5.3-3.7-6.7c-2.2-1.3-4.8-1.3-7.3-1.3h-4.2v27.8h3.4v-11.7
			h1.4l8.2,11.7h4.2L321.9,361.5z M316.9,348.9h1c3.4,0,7.5,0.6,7.5,4.9c0,4.4-3.9,5.1-7.3,5.1H317v-10H316.9z"/>
	</g>
	<g>
		<rect x="341.5" y="345.9" fill="#646469" width="3.4" height="27.8"/>
	</g>
	<g>
		<polygon fill="#646469" points="358.8,373.5 362.3,373.5 362.3,352.9 383,374.7 383,345.9 379.6,345.9 379.6,366.3 358.8,344.5 		
			"/>
	</g>
	<g>
		<polygon fill="#646469" points="400.5,357.8 400.5,345.9 397,345.9 397,373.5 400.5,373.5 400.5,362 401.9,360.6 412.3,373.5 
			416.9,373.5 404.2,358.2 416.7,345.9 412.2,345.9 		"/>
	</g>
	<g>
		<path fill="#646469" d="M452.4,138.5c1.9,0,3.6,0.6,4.8,2c1.3,1.3,2,3,2,4.8c0,1.9-0.6,3.6-2,4.8c-1.3,1.4-3,2-4.8,2
			c-1.9,0-3.5-0.6-4.9-2c-1.3-1.3-2-3-2-4.8c0-1.9,0.6-3.5,2-4.8C448.9,139.2,450.5,138.5,452.4,138.5 M460.5,145.4
			c0-2.2-0.8-4.1-2.4-5.7c-1.6-1.5-3.4-2.4-5.7-2.4c-2.3,0-4.1,0.8-5.7,2.4c-1.6,1.6-2.4,3.4-2.4,5.7c0,2.3,0.8,4.1,2.4,5.7
			c1.6,1.6,3.4,2.4,5.7,2.4c2.3,0,4.1-0.8,5.7-2.4C459.6,149.6,460.5,147.6,460.5,145.4 M454.6,143.6c0,0.6-0.3,1.2-1,1.4
			c-0.3,0.1-0.9,0.2-1.5,0.2h-1.4V142h1.3c0.9,0,1.5,0.1,1.9,0.3C454.4,142.7,454.6,143,454.6,143.6 M449.2,140.9v8.8h1.5v-3.4h1.2
			c0.9,0,1.4,0.1,1.7,0.3c0.5,0.3,0.9,1,0.9,2v0.6v0.2v0.1v0.1h1.5l-0.1-0.1c0-0.1-0.1-0.2-0.1-0.4c0-0.2,0-0.4,0-0.6v-0.6
			c0-0.4-0.2-0.9-0.4-1.4c-0.3-0.4-0.9-0.8-1.5-0.9c0.5-0.1,1-0.2,1.3-0.4c0.5-0.3,0.9-1,0.9-1.7c0-1.1-0.4-1.8-1.4-2.3
			c-0.5-0.2-1.3-0.3-2.5-0.3H449.2z"/>
	</g>
</g>
</svg>
