<?xml version="1.0" encoding="utf-8"?>
<!-- Generator: Adobe Illustrator 18.0.0, SVG Export Plug-In . SVG Version: 6.00 Build 0)  -->
<!DOCTYPE svg PUBLIC "-//W3C//DTD SVG 1.1//EN" "http://www.w3.org/Graphics/SVG/1.1/DTD/svg11.dtd">
<svg version="1.1" id="Layer_1" xmlns="http://www.w3.org/2000/svg" xmlns:xlink="http://www.w3.org/1999/xlink" x="0px" y="0px"
	 viewBox="0 0 512 512" enable-background="new 0 0 512 512" xml:space="preserve">
<g>
	<path fill="#646469" d="M340.4,287.7c-14.1,0-27.2-5.3-37-15c-9.8-9.7-15.1-22.6-15.1-36.4c0-13.8,5.4-26.7,15.1-36.4
		c9.8-9.7,22.9-15,37-15c15.2,0,26.9,4.8,37.1,15.2l0.2,0.2l-13.7,13.5l-0.2-0.3c-6.3-7.3-13.7-10.7-23.4-10.7
		c-18.9,0-31.7,13.5-31.7,33.5c0,20,12.7,33.5,31.7,33.5c9.5,0,17.3-3.6,23.4-10.7l0.2-0.3l13.7,13.5l-0.2,0.2
		C369.1,282.2,355.5,287.7,340.4,287.7"/>
	<path fill="#646469" d="M482.5,314c0,7.2-21.9,13.1-49.1,13.1c-27.1,0-49-5.9-49-13.1c0-7.2,21.9-12.7,49-12.7
		C460.6,301.3,482.5,306.8,482.5,314"/>
	<path fill="#646469" d="M166.1,287.7c-25.6,0-46.9-19.8-49.5-46c-0.2-1.8-0.3-3.6-0.3-5.4c0-13.8,5.1-26.7,14.4-36.4
		c9.4-9.7,21.9-15,35.4-15c17.6,0,33.5,9.2,42.6,24.5c4.7,7.9,6.4,18.4,6.4,25.7c0,2.2-0.1,4.4-0.3,6.7l0,0.3l-78.1,0
		c1.5,17,13.8,28.3,30.7,28.3c10,0,18.3-3.9,25.3-11.9l0.2-0.3l14.2,12.7l-0.2,0.3C197.7,281.8,183.2,287.7,166.1,287.7
		 M137.2,226.3h57.3c-0.6-4.5-1.8-8-3.7-11.2c-5.4-8.6-14.2-13.4-24.7-13.4c-14.1,0-25.1,8.7-28.6,22.6
		C137.4,225.1,137.3,225.8,137.2,226.3"/>
	<path fill="#646469" d="M67,287.8c-7.4,0-14.7-1.5-21.7-4.3c-7.1-2.9-13-7.3-17.6-13.2l-1-1.3l-0.2-0.3l14.7-12.6l1.2,1.8
		c2.5,3.7,6,6.8,10.4,9.3c4.4,2.5,9.3,3.8,14.6,3.8c2.4,0,4.7-0.2,6.9-0.7c2.2-0.5,4.1-1.2,5.9-2.3c1.7-1,3.1-2.4,4.1-4
		c1-1.6,1.5-3.8,1.5-6.3c0-4.2-2-7.3-6-9.3c-4.2-2.1-10.5-4.2-18.6-6c-3.3-0.8-6.6-1.8-9.9-3c-3.4-1.2-6.5-2.8-9.2-4.9
		c-2.8-2.1-5.1-4.7-6.8-7.8c-1.7-3.1-2.6-7-2.6-11.6c0-5.2,1.1-9.8,3.2-13.6c2.1-3.8,5-6.9,8.4-9.4c3.4-2.4,7.4-4.2,11.8-5.4
		c4.4-1.2,8.9-1.7,13.6-1.7c7,0,13.8,1.4,20.3,4.1c6.5,2.7,11.6,6.8,15.2,12l0.4,0.5l-14.3,12.1l-0.4-0.7c-2.1-3.4-5.1-6.2-8.9-8.4
		c-3.8-2.2-8.1-3.3-12.8-3.3c-2.1,0-4.2,0.2-6.3,0.7c-2.1,0.5-4,1.2-5.6,2.1c-1.6,1-2.9,2.2-3.8,3.6c-0.9,1.4-1.4,3.3-1.4,5.4
		c0,3.8,1.7,6.6,5.1,8.4c3.6,1.9,9,3.7,16.3,5.3c4.6,1.1,9,2.4,12.9,3.9c4,1.5,7.5,3.4,10.4,5.7c3,2.3,5.3,5.1,7,8.2
		c1.7,3.2,2.5,7,2.5,11.3c0,5.8-1.1,10.7-3.3,14.7c-2.2,4-5.2,7.3-8.8,9.9c-3.6,2.5-7.8,4.4-12.5,5.5
		C76.8,287.2,71.9,287.8,67,287.8"/>
	<path fill="#646469" d="M433.4,287.7c-14.1,0-27.2-5.3-37-15c-9.7-9.7-15.1-22.6-15.1-36.4c0-13.8,5.4-26.7,15.1-36.4
		c9.8-9.7,22.9-15,37-15c14.1,0,27.2,5.3,37,15c9.7,9.7,15.1,22.6,15.1,36.4c0,13.8-5.4,26.8-15.1,36.4
		C460.6,282.4,447.5,287.7,433.4,287.7 M433.4,202.8c-18.9,0-31.7,13.5-31.7,33.5c0,20,12.7,33.5,31.7,33.5
		c18.9,0,31.7-13.5,31.7-33.5C465.1,216.3,452.4,202.8,433.4,202.8"/>
	<path fill="#646469" d="M289.3,187.3c-3.6-1.7-8.3-2.5-11.1-2.5c-11.6,0-23.8,7.8-29,17.8H249v-15.3h-19.2v98H249v-46.8
		c0-21.3,10-33.6,27.6-33.6c2.7,0,5.2,0.6,8.1,1.4l0.3,0.1l4.6-18.9L289.3,187.3z"/>
</g>
</svg>
