<?xml version="1.0" encoding="utf-8"?>
<!-- Generator: Adobe Illustrator 18.0.0, SVG Export Plug-In . SVG Version: 6.00 Build 0)  -->
<!DOCTYPE svg PUBLIC "-//W3C//DTD SVG 1.1//EN" "http://www.w3.org/Graphics/SVG/1.1/DTD/svg11.dtd">
<svg version="1.1" id="Layer_1" xmlns="http://www.w3.org/2000/svg" xmlns:xlink="http://www.w3.org/1999/xlink" x="0px" y="0px"
	 viewBox="0 0 512 512" enable-background="new 0 0 512 512" xml:space="preserve">
<g>
	<path fill="#646469" d="M135.4,116.7c0,5.2-0.4,10.4-1.1,15.5c-2.6,18.4-9.1,30.6-11.8,35.1c-0.3,0.6-0.4,1.3,0,1.8
		c0.3,0.6,0.9,0.9,1.6,0.9c0,0,0,0,0,0c20.9-0.1,40.2-14.9,46.9-35.8c0.4-1.3,1.3-2.1,2.1-2.1c0.6,0,1.3,0.4,1.7,1.2
		c11,18.8,50,48.6,107.9,48.6c3.7,0,7.4-0.1,11.2-0.4c45.6-2.9,68.2-30.7,77.6-47.1c0,0,0,0,0,0c5.7-9.9,7.7-17.4,7.7-17.5
		c0.1-0.3,0-0.6,0-0.8c-0.2-0.6-17.1-60.1-85.3-64.4c-3.7-0.2-7.5-0.4-11.2-0.4c-57.9,0-96.9,29.8-107.9,48.6
		c-0.5,0.8-1.1,1.2-1.7,1.2c-0.9,0-1.7-0.9-2.1-2.1c-6.7-20.9-26-35.6-46.9-35.8c0,0,0,0,0,0c-0.7,0-1.3,0.4-1.6,0.9
		c-0.3,0.6-0.3,1.3,0,1.8C126.4,72.6,135.4,90.2,135.4,116.7z M293.6,178c-3.7,0.2-7.3,0.4-10.9,0.4c-63.1,0-97.6-34.7-104.8-46.9
		c-1.1-1.9-2.9-3-4.8-3c-2.5,0-4.7,1.8-5.6,4.6c-5.9,18.4-22.1,31.6-40.2,33.1c3.4-6.2,8-16.8,10.3-31.5c0.6,0.1,1.2,0.3,1.8,0.4
		c0.2,0,0.4,0.1,0.5,0.1c0.5,0.1,1,0.1,1.5,0.2c0.2,0,0.4,0,0.6,0c0.7,0,1.4,0.1,2.1,0.1c11.6,0,16.8-6.1,20.7-10.6
		c2.9-3.3,4.6-5.2,7.3-5.2c2.7,0,4.5,1.9,7.3,5.2c3.9,4.5,9.1,10.6,20.7,10.6c11.6,0,16.8-6.1,20.7-10.6c2.9-3.3,4.6-5.2,7.3-5.2
		c2.7,0,4.5,1.9,7.3,5.2c3.9,4.5,9.1,10.6,20.7,10.6c11.6,0,16.8-6.1,20.7-10.6c0.4-0.5,0.8-0.9,1.1-1.3c1.6-1.8,2.9-3,4.3-3.6
		c0.6-0.2,1.2-0.3,1.9-0.3c2.7,0,4.5,1.9,7.3,5.2c3.9,4.5,9.1,10.6,20.7,10.6c9.3,0,14.5-3.9,18.2-7.8c0.9-0.9,1.7-1.9,2.5-2.8
		c1.8-2.1,3.1-3.6,4.6-4.4c0.9-0.5,1.7-0.8,2.8-0.8c2.7,0,4.5,1.9,7.3,5.2c0.5,0.6,1,1.1,1.5,1.7c0,0,0,0,0,0
		c0.3,0.3,0.5,0.6,0.8,0.8c0.1,0.1,0.1,0.1,0.2,0.2c0.2,0.2,0.4,0.5,0.7,0.7c0.1,0.1,0.2,0.2,0.3,0.3c0.2,0.2,0.4,0.4,0.6,0.6
		c0.1,0.1,0.2,0.2,0.3,0.3c0.2,0.2,0.4,0.4,0.6,0.5c0.1,0.1,0.3,0.2,0.4,0.3c0.2,0.2,0.4,0.3,0.7,0.5c0.1,0.1,0.3,0.2,0.4,0.3
		c0.2,0.2,0.4,0.3,0.7,0.5c0.2,0.1,0.3,0.2,0.5,0.3c0.2,0.1,0.5,0.3,0.7,0.4c0.2,0.1,0.4,0.2,0.5,0.3c0.2,0.1,0.5,0.3,0.8,0.4
		c0.2,0.1,0.4,0.2,0.6,0.3c0.3,0.1,0.5,0.2,0.8,0.3c0.2,0.1,0.4,0.2,0.6,0.2c0.3,0.1,0.6,0.2,0.9,0.3c0.2,0.1,0.4,0.1,0.7,0.2
		c0.3,0.1,0.6,0.2,1,0.2c0.2,0.1,0.5,0.1,0.7,0.2c0.3,0.1,0.7,0.1,1.1,0.2c0.2,0,0.5,0.1,0.7,0.1c0.4,0.1,0.8,0.1,1.2,0.1
		c0.2,0,0.5,0.1,0.7,0.1c0,0,0.1,0,0.1,0C355.2,154.1,333.4,175.5,293.6,178z"/>
	<path fill="#646469" d="M316.1,402.2c0-3-2.4-5.4-5.4-5.4c-3,0-5.4,2.4-5.4,5.4c0,3,2.4,5.4,5.4,5.4
		C313.8,407.5,316.1,405.1,316.1,402.2z M310.8,406.3c-2.3,0-4.1-1.7-4.1-4.1c0-2.4,1.7-4.1,4.1-4.1c2.3,0,4.1,1.7,4.1,4.1
		C314.9,404.5,313.1,406.3,310.8,406.3z"/>
	<path fill="#646469" d="M313.5,401c0-1.5-0.9-1.7-2.2-1.7h-2.7v5.6h1.2v-2.4h0.9l1.2,2.4h1.4l-1.4-2.4
		C313,402.4,313.5,402,313.5,401z M311.4,401.7h-1.5v-1.4h1.2c0.5,0,1.3,0,1.3,0.6C312.4,401.5,312,401.7,311.4,401.7z"/>
	<polygon fill="#646469" points="212.9,260.9 212.9,213.9 225.7,213.9 225.7,200.6 184.4,200.6 184.4,213.9 197.3,213.9 
		197.3,260.9 	"/>
	<polygon fill="#646469" points="284.9,200.6 269.3,200.6 269.3,223.9 246.8,223.9 246.8,200.6 231.2,200.6 231.2,260.9 
		246.8,260.9 246.8,236.2 269.3,236.2 269.3,260.9 284.9,260.9 	"/>
	<polygon fill="#646469" points="327.1,213.9 327.1,200.6 293,200.6 293,260.9 327.1,260.9 327.1,247.6 308.6,247.6 308.6,237.2 
		326.1,237.2 326.1,224 308.6,224 308.6,213.9 	"/>
	<path fill="#646469" d="M202.8,406.4c-5.7,5.9-8.8,13.8-8.8,22.1c0,9,3,16.8,9.6,22.8c6.2,5.7,14.2,8.9,22.5,8.9
		c4.9,0,8.6-1.2,13.8-2.8v-18.8c-3.3,3.9-8.4,6.4-13.4,6.4c-9.7,0-16.2-6.9-16.2-16.4c0-9.4,6.4-16.7,16-16.7
		c5.3,0,10.5,2.3,13.7,6.6v-18.8c-4.6-1.9-9.2-3-14.2-3C217.2,396.6,208.6,400.3,202.8,406.4z"/>
	<path fill="#646469" d="M277.3,396.2c-17.3,0-33.2,12.8-33.2,31c0,19.5,13.9,33.3,33.2,33.3c19.2,0,33.2-13.8,33.2-33.3
		C310.4,409,294.5,396.2,277.3,396.2z M277.3,445.3c-9.3,0-16.9-7.6-16.9-18c0-8.3,7.6-15.9,16.9-15.9c9.3,0,16.9,7.6,16.9,15.9
		C294.2,437.7,286.6,445.3,277.3,445.3z"/>
	<path fill="#646469" d="M322.1,441.4c-5.2,0-9.3,4.2-9.3,9.4c0,5.1,4.1,9.4,9.3,9.4c5.2,0,9.3-4.2,9.3-9.4
		C331.4,445.5,327.2,441.4,322.1,441.4z"/>
	<polygon fill="#646469" points="205.9,355.7 188.8,355.7 188.8,345.6 207.7,345.6 207.7,332.3 173.2,332.3 173.2,392.6 
		188.8,392.6 188.8,368.9 205.9,368.9 	"/>
	<rect x="214.2" y="332.3" fill="#646469" width="15.6" height="60.3"/>
	<path fill="#646469" d="M255.7,380.9c-5.3,0-9.9-2.8-13.8-6.2l-6.7,12.6c6.1,4.3,13.5,6.9,21.1,6.9c6,0,12.3-1.7,17-5.7
		c4.8-4.1,6.2-10.2,6.2-16.2c0-9.8-6.4-14-14.8-16.5l-4-1.2c-2.7-0.9-6.9-2.2-6.9-5.8c0-3.4,3.8-5,6.7-5c3.8,0,7.5,1.6,10.3,4
		l6.2-12.2c-5.3-3-12.7-5-18.8-5c-12,0-20.7,8-20.7,20.2c0,11.7,6.4,14.2,16.2,17c3.3,1,9.5,2.5,9.5,6.9
		C263.3,379.1,259.4,380.9,255.7,380.9z"/>
	<polygon fill="#646469" points="323.1,355.6 300.6,355.6 300.6,332.3 285,332.3 285,392.6 300.6,392.6 300.6,367.9 323.1,367.9 
		323.1,392.6 338.7,392.6 338.7,332.3 323.1,332.3 	"/>
	<path fill="#646469" d="M149,290l-4-1.2c-2.7-0.9-6.9-2.2-6.9-5.8c0-3.4,3.8-5,6.7-5c3.8,0,7.5,1.6,10.3,4l6.2-12.2
		c-5.3-3-12.7-5-18.8-5c-12,0-20.7,8-20.7,20.2c0,11.7,6.4,14.2,16.2,17c3.3,1,9.5,2.5,9.5,6.9c0,4.2-3.9,6.1-7.6,6.1
		c-5.3,0-9.9-2.8-13.8-6.2l-6.7,12.6c6.1,4.3,13.5,6.9,21.1,6.9c6,0,12.3-1.7,17-5.7c4.8-4.1,6.2-10.2,6.2-16.2
		C163.8,296.7,157.4,292.4,149,290z"/>
	<path fill="#646469" d="M184.1,316.3h21.5l3.9,10.5h16.6l-22.6-60.3h-17l-23.1,60.3H180L184.1,316.3z M194.9,285.1h0.2l6.4,19.2
		h-13L194.9,285.1z"/>
	<path fill="#646469" d="M252.9,328.3c7,0,14.9-1.8,19.9-6.7c6-5.8,6.3-13.5,6.3-21.3v-33.9h-15.6v31.7c0,7.8-0.6,16.4-10.6,16.4
		c-10,0-10.6-8.6-10.6-16.4v-31.7h-15.6v33.9c0,7.8,0.3,15.4,6.3,21.3C238,326.6,245.9,328.3,252.9,328.3z"/>
	<path fill="#646469" d="M316.2,280.1c5.3,0,10.5,2.3,13.7,6.6v-18.8c-4.6-1.9-9.2-3-14.2-3c-8.4,0-16.9,3.7-22.8,9.8
		c-5.7,5.9-8.8,13.8-8.8,22.1c0,9,3,16.8,9.6,22.8c6.2,5.7,14.2,8.9,22.5,8.9c4.9,0,8.6-1.2,13.8-2.8v-18.8
		c-3.3,3.9-8.4,6.4-13.4,6.4c-9.7,0-16.2-6.9-16.2-16.4C300.2,287.4,306.7,280.1,316.2,280.1z"/>
	<polygon fill="#646469" points="373.8,266.5 362.6,282.9 351.4,266.5 332.7,266.5 354.8,297.8 354.8,326.7 370.4,326.7 
		370.4,297.8 392.5,266.5 	"/>
</g>
</svg>
