<?xml version="1.0" encoding="utf-8"?>
<!-- Generator: Adobe Illustrator 18.1.1, SVG Export Plug-In . SVG Version: 6.00 Build 0)  -->
<svg version="1.1" id="Layer_1" xmlns="http://www.w3.org/2000/svg" xmlns:xlink="http://www.w3.org/1999/xlink" x="0px" y="0px"
	 viewBox="0 0 1440 810" enable-background="new 0 0 1440 810" xml:space="preserve">
<g id="_x30_WiRGf_2_">
	<g>
		<g>
			<path fill="#656565" d="M949.3,308c0,64.1,0,128.1,0,192.2c-153.2,0-306.5,0-460,0c0-64,0-128,0-192.2
				C642.6,308,795.8,308,949.3,308z M840,454.8c0-23.3,0-46.4,0-69.4c1.1,4.6,1.7,9.2,2.4,13.8c1.1,7.3,2.3,14.6,3.3,21.8
				c1.5,10.8,3,21.5,4.4,32.3c0.1,1.1,0.7,1.7,1.9,1.6c1.3-0.1,2.6-0.2,3.9,0c2.2,0.3,3-0.6,3.2-2.8c1.1-8.9,2.4-17.8,3.6-26.7
				c1.1-7.9,2.3-15.8,3.5-23.7c0.8-5.6,1.5-11.2,2.3-16.8c0.1,0,0.2,0,0.4,0c0,23.2,0,46.5,0,69.9c2.7,0,5.2-0.1,7.7,0
				c1.6,0.1,2.2-0.5,2.1-2.1c-0.1-5.9,0-11.7,0-17.6c0-24.7,0-49.4,0-74.1c0-1.9-0.4-2.7-2.5-2.6c-2.6,0.2-5.2,0-7.8,0
				c-3.7,0-3.8,0-4.3,3.8c-1.9,12.4-3.7,24.9-5.6,37.3c-1.2,8.2-2.4,16.3-3.6,24.5c-0.2,0-0.3,0-0.5,0c-3.2-21.9-6.5-43.8-9.7-65.5
				c-5,0-9.5,0-14.1,0c0,32.1,0,64,0,96C833.6,454.8,836.6,454.8,840,454.8z M660.2,458.7c0-0.9,0-1.7,0-2.5c0-14.1,0-28.1,0-42.2
				c0-3.8,0.2-7.6-3.9-10.1c3.9-2.5,3.9-6,3.9-9.8c-0.1-12.3,0-24.6,0-36.9c0-0.7,0-1.4-0.2-2.1c-1.1-4.7-4-7-9.9-7.2
				c-6.8-0.2-13.6-0.1-20.4,0c-0.6,0-1.1,0.1-1.7,0.1c0,37,0,73.8,0,110.7c3.6,0,7,0,10.7,0c0-16.7,0-33.3,0-49.8
				c3.8,0,7.4,0,11.2,0c0,16.7,0,33.3,0,49.9C653.3,458.7,656.6,458.7,660.2,458.7z M772,346.2c-2.8,0-5.3,0-7.8,0c-3,0-3,0-3,2.9
				c0,26.4,0,52.9,0,79.3c0,6.9,0,13.8,0,20.6c0,6.2,3.9,10,10,10c4.5,0,9,0,13.5,0c4.5,0,7.8-2.5,8.8-6.8c0.4-1.6,0.4-3.3,0.4-5
				c0-26.4,0-52.9,0-79.3c0-6.6-0.1-13.2,0-19.8c0-1.6-0.5-2.2-2.1-2.1c-2,0.1-3.9,0.1-5.9,0c-2-0.2-2.7,0.5-2.7,2.6
				c0.1,29.8,0,59.6,0,89.3c0,3.3,0,6.7,0,10c0,1.6-0.7,2.4-2.4,2.3c-1.9-0.1-3.8-0.2-5.6,0c-2.3,0.2-3-1-3.1-2.9
				c-0.1-0.8,0-1.6,0-2.4c0-31.9,0-63.9,0-95.8C772,348.4,772,347.5,772,346.2z M712.3,402c5.4,0,10.6-0.1,15.7,0c1.5,0,2.1-0.5,2-2
				c0-0.6,0-1.2,0-1.7c0-4.9,0.6-4.2-4.3-4.2c-4.4-0.1-8.8,0-13.2,0c0-15.7,0-31.2,0-46.7c0.5-0.1,0.9-0.1,1.2-0.1
				c4.8,0,9.6-0.1,14.3,0c1.5,0,2.1-0.4,2-2c-0.1-2-0.1-4.1,0-6.1c0.1-1.9-0.6-2.5-2.5-2.4c-8,0.1-15.9,0.1-23.9,0
				c-2.1,0-2.7,0.5-2.7,2.6c0.1,42.9,0,85.8,0,128.7c0,0.8,0,1.5,0,2.3c3.9,0,7.5,0,11.3,0C712.3,447.6,712.3,425,712.3,402z
				 M569,358.7c0,32.2,0,64.1,0,96.3c0.9,0,1.7,0,2.6,0c5.1,0,10.1,0,15.2,0c5.6,0,5.6,0,5.5-5.7c0-1.5-0.4-2-2-2
				c-3.6,0.1-7.2,0-10.9,0c0-12.8,0-25.5,0-38.3c3.8,0,7.4,0,11,0c0.6,0,1.7-0.6,1.7-0.9c0.2-2.4,0.1-4.7,0.1-7.5
				c-4.5,0-8.6,0-12.8,0c0-11.6,0-22.9,0-34.3c2.5,0,4.8,0,7.1,0c6.9-0.2,5.6,1.3,5.6-6.1c0-0.5-0.9-1.5-1.4-1.5
				C583.6,358.6,576.4,358.7,569,358.7z M516.3,449.9c0-12.9,0-25.4,0-38.2c3.4,0,6.6,0.2,9.7-0.1c1.9-0.2,4.1-0.6,5.7-1.6
				c2.6-1.5,3.2-4.3,3.2-7.1c0-9.5,0-19,0-28.5c0-5.9-3-8.9-8.9-8.9c-5.4,0-10.9,0-16.3,0c-0.7,0-1.4,0.1-2.2,0.1c0,0.7,0,1.2,0,1.7
				c0,26.8,0,53.6,0,80.4c0,0.3-0.1,0.7,0,0.9c0.4,0.5,0.8,1.2,1.3,1.3C511.2,450,513.6,449.9,516.3,449.9z M933.5,402.1
				c-4,0-7.5,0-11.3,0c0-9.3,0-18.4,0-27.8c1.8,0,3.6,0,5.4,0c7.2-0.1,5.6,0.6,5.9-5.9c0.1-1.8-0.7-2.2-2.3-2.2
				c-5.6,0.1-11.2,0-16.7,0c-0.5,0-1.1,0.2-1.6,0.2c0,28.1,0,56,0,83.9c6.9,0,13.7,0,20.4,0c0-2.7,0-5.2,0-7.8c-3.2,0-6.1-0.1-9.1,0
				c-1.8,0.1-2.2-0.6-2.2-2.2c0.1-9.4,0-18.8,0-28.2c0-0.7,0.1-1.4,0.1-2.2c3.3,0,6.4,0.1,9.6-0.1c0.6,0,1.6-0.7,1.6-1.1
				C933.5,406.7,933.5,404.5,933.5,402.1z"/>
			<path fill="#656565" d="M1024.5,404.2c0.1-4.8,1.6-8.9,5.4-11.8c6.8-5.3,17.1-1.3,19.2,7.4c1,4.1,0.8,8.2-1.2,12.1
				c-2.4,4.6-7.5,7.4-12.2,6.7c-5.6-0.8-9.7-4.7-10.8-10.2C1024.8,406.9,1024.7,405.5,1024.5,404.2z M1028.9,404
				c0.3,1.5,0.4,3,1,4.4c2,5.4,8.2,7,12.4,3.3c4.1-3.7,4-11.6-0.2-15.2c-2.9-2.5-6.9-2.5-9.7-0.1
				C1030.1,398.5,1029.1,401,1028.9,404z"/>
			<path fill="#656565" d="M998.9,390.6c4.3-0.4,4.3-0.4,4.3,3.8c0,1.5,0,3,0,4.6c0,1.2,0.4,1.8,1.7,1.9c6.8,0.4,6.8,0.5,6.8-6.3
				c0-0.5,0.1-1,0-1.5c-0.3-1.9,0.4-2.7,2.5-2.6c1.6,0.1,2.3,0.4,2.3,2.2c-0.1,7.4-0.1,14.8,0,22.1c0,2.2-1.2,1.9-2.6,2.1
				c-1.7,0.2-2.2-0.5-2.1-2.1c0.1-2.5,0-4.9,0-7.4c0-1.5-0.5-2.2-2-2.1c-1.5,0.1-3,0.1-4.6,0c-1.5-0.1-2.1,0.6-2.1,2
				c0,2.7,0,5.4,0,8c0,1.7-1.1,1.5-2.2,1.5c-1.1,0-2.5,0.4-2.5-1.5c0-8,0.1-16.1,0.1-24.1C998.7,391,998.8,390.9,998.9,390.6z"/>
			<path fill="#656565" d="M431.1,390.6c1.7,0,3,0,4.6,0c0,0.9,0.1,1.6,0.1,2.4c0,7.2-0.1,14.3,0,21.5c0,1.8-0.6,2.4-2.4,2.4
				c-1.7,0-2.5-0.4-2.4-2.3c0.1-2.5,0-4.9,0.1-7.4c0-1.4-0.4-1.9-1.9-2c-6.6-0.3-6.6-0.4-6.6,6.1c0,0.9,0,1.7,0,2.6
				c0,2.8-1,3.6-3.7,2.8c-0.4-0.1-0.9-0.9-0.9-1.4c-0.1-7.8-0.1-15.7,0-23.5c0-2.2,1.7-1.2,2.7-1.4c1.1-0.2,2,0,1.9,1.5
				c-0.1,2.3,0.1,4.6,0,7c-0.1,1.5,0.5,1.9,1.9,1.9c1.6-0.1,3.2-0.1,4.8,0c1.3,0.1,1.8-0.5,1.8-1.8
				C431,396.3,431.1,393.6,431.1,390.6z"/>
			<path fill="#656565" d="M447.6,390.6c4.7,0,9,0,13.6,0c0,1.3,0,2.6,0,4.1c-2.2,0-4.3,0.1-6.5,0c-1.7-0.1-2.4,0.4-2.4,2.3
				c0.1,4.6-0.1,4,4,4c1.6,0,3.2,0,4.9,0c0,1.5,0,2.7,0,4.2c-2.4,0-4.7,0.1-7,0c-1.4-0.1-1.9,0.4-1.9,1.9c-0.1,5.4-0.1,5.4,5.3,5.4
				c0.4,0,0.7,0,1.1,0c2.4,0,3.5,1.4,2.5,3.7c-0.2,0.4-0.9,0.7-1.3,0.8c-3.6,0.1-7.2,0.1-10.9,0c-0.5,0-1.4-1-1.4-1.5
				C447.6,407.1,447.6,399,447.6,390.6z"/>
			<path fill="#656565" d="M1058.5,404.3c0-4.1,0-8.1,0-12.2c0-1.3,0.4-1.8,1.7-1.8c1.7,0.1,3.5,0.1,5.2,0c6.5-0.4,9.3,5.1,7.7,10.8
				c-1,3.7-3.4,5.4-7.9,5.4c-2.3,0-2.9,0.7-2.7,2.9c0.2,2.3,0,4.6,0.1,6.9c0.1,1.6-0.7,1.8-2,1.8c-1.2,0-2.3,0.1-2.3-1.7
				C1058.6,412.4,1058.5,408.4,1058.5,404.3z M1062.6,398.1c0,3.8,0,3.8,2.5,3.8c2.7,0,4.1-1.3,4.1-3.6c-0.1-2.4-1.5-3.5-4.5-3.6
				C1061.5,394.6,1063,396.9,1062.6,398.1z"/>
			<path fill="#656565" d="M973.2,413.8c1.4-1.5,2.2-2.4,2.9-3.2c1.6,1.1,2.9,2.4,4.4,2.9c1,0.4,2.6,0.1,3.5-0.5
				c1.3-0.8,1.2-2.5,0.4-3.7c-0.7-1-1.6-1.8-2.5-2.6c-1.5-1.3-3.2-2.3-4.5-3.7c-2.7-2.8-2.7-7.7-0.2-10.6c2.4-2.7,6.8-3.2,10.1-0.9
				c0.8,0.5,1.7,1.1,0.8,2.2c-0.8,0.9-1,2.9-3,1.8c-0.4-0.2-0.7-0.5-1.2-0.6c-1.4-0.3-3-0.5-3.9,1c-0.9,1.5-0.4,2.8,0.8,3.9
				c1.4,1.2,2.8,2.2,4.3,3.3c3.8,2.7,5.1,7.6,3.1,11.8c-1.5,3.3-5.6,4.8-9.2,3.1C977,416.9,975.3,415.3,973.2,413.8z"/>
			<path fill="#656565" d="M390.4,394.7c-0.1-1-0.1-1.6-0.1-2.3c-0.2-1.5,0.5-2,2-2c3.8,0.1,7.5,0,11.3,0c3.5,0,3.7,0.2,2.9,4.2
				c-1,0-2.1,0.1-3.1,0c-1.9-0.2-2.5,0.5-2.5,2.4c0.1,5.7,0,11.4,0,17.2c0,2.3-2.1,3.6-4,2.4c-0.4-0.3-0.6-1.2-0.6-1.9
				c0-5.8-0.1-11.6,0-17.4c0-2-0.5-3-2.6-2.7C392.7,394.8,391.7,394.7,390.4,394.7z"/>
			<path fill="#656565" d="M638.7,356.6c3.7,0,7.2,0,10.9,0c0,14,0,27.9,0,42c-3.6,0-7.2,0-10.9,0
				C638.7,384.6,638.7,370.7,638.7,356.6z"/>
			<path fill="#656565" d="M525.8,404.2c-3.2,0-6.2,0-9.4,0c0-10.4,0-20.7,0-31.1c3.1,0,6.1,0,9.4,0
				C525.8,383.4,525.8,393.7,525.8,404.2z"/>
		</g>
	</g>
</g>
<path fill="#656565" d="M487.3,310v188.2H284.2V310H487.3 M489.3,308H282.2v192.2h207.2V308L489.3,308z"/>
<path fill="#656565" d="M1154.5,310v188.2H951.3V310H1154.5 M1156.5,308H949.3v192.2h207.2V308L1156.5,308z"/>
</svg>
