<?xml version="1.0" encoding="utf-8"?>
<!-- Generator: Adobe Illustrator 18.0.0, SVG Export Plug-In . SVG Version: 6.00 Build 0)  -->
<!DOCTYPE svg PUBLIC "-//W3C//DTD SVG 1.1//EN" "http://www.w3.org/Graphics/SVG/1.1/DTD/svg11.dtd">
<svg version="1.1" id="Layer_1" xmlns="http://www.w3.org/2000/svg" xmlns:xlink="http://www.w3.org/1999/xlink" x="0px" y="0px"
	 viewBox="0 0 512 512" enable-background="new 0 0 512 512" xml:space="preserve">
<g>
	<g>
		<path fill="#646469" d="M255.5,390.3c-0.1-18.9,15.2-34.1,34.2-34.2c18.6,0,33.8,15.3,34.2,34.2c-0.4,18.7-15.6,33.9-34.2,34.2
			C270.7,424.3,255.5,409,255.5,390.3 M289.7,411.9c10.3-0.2,18.8-9.8,18.9-21.6c-0.1-12-8.6-21.7-18.9-21.6
			c-10.7-0.1-19.2,9.6-18.9,21.6C270.5,402.1,279,411.8,289.7,411.9"/>
		<polyline fill="#646469" points="362.6,370.6 362.6,422.7 348.2,422.7 348.2,370.6 327.5,370.6 327.5,358.9 382.4,358.9 
			382.4,370.6 		"/>
		<path fill="#646469" d="M399.4,408.3l-5.4,14.4H377l27-63.9h18l26.1,63.9h-17.1l-5.4-14.4 M412.9,397.5h9l-9-23.4l-9,23.4H412.9"
			/>
		<polyline fill="#646469" points="98.2,370.6 98.2,422.7 83.8,422.7 83.8,370.6 64,370.6 64,358.9 117.9,358.9 117.9,370.6 		"/>
		<path fill="#646469" d="M121.5,390.3c0-18.9,15.3-34.1,34.2-34.2c18.7,0,33.9,15.3,34.2,34.2c-0.3,18.7-15.5,33.9-34.2,34.2
			C136.8,424.3,121.6,409,121.5,390.3 M155.7,411.9c10.4-0.2,18.9-9.8,18.9-21.6c0-12-8.5-21.7-18.9-21.6
			c-10.6-0.1-19.1,9.6-18.9,21.6C136.6,402.1,145.1,411.8,155.7,411.9"/>
		<polygon fill="#646469" points="222.3,422.7 229.5,422.7 229.5,398.4 254.6,358.9 238.5,358.9 222.3,385.9 207,358.9 189.9,358.9 
			215.1,398.4 215.1,422.7 		"/>
	</g>
	<path fill="#646469" d="M374,119.1c-29.8-20.4-71.7-31.6-118-31.6c-46.3,0-88.2,11.2-118,31.6c-29.9,20.5-46.4,49.3-46.4,81.2
		c0,31.5,17.2,60.3,48.4,81.2c30.4,20.4,71.6,31.6,116,31.6c44.4,0,85.5-11.2,116-31.6c31.2-20.9,48.4-49.7,48.4-81.2
		C420.4,168.4,403.9,139.6,374,119.1 M353,142.7c0,3.8-2.6,7.6-7,10.5c-9.1,6-25.4,10.7-45.8,13.3h-0.1c-1,0.1-1.4-0.2-1.6-1
		c-3.2-22.1-9.5-40.1-18.2-51.9c0,0-0.1-0.1-0.1-0.1c0,0-0.1-0.1-0.1-0.2c0,0-0.1-0.1-0.1-0.1c-1-1.3-0.4-2,1.1-1.8
		C322.6,116,353,131.2,353,142.7 M256,137.1c6.3,0,12.4,12.1,15.5,30.4c0.1,0.8-0.1,1.4-1.1,1.4c0,0,0,0,0,0
		c-4.7,0.2-9.5,0.3-14.4,0.3c-4.9,0-9.7-0.1-14.4-0.3c-1-0.1-1.2-0.7-1-1.4C243.6,149.2,249.7,137.1,256,137.1 M231.5,111.4
		c1.4-0.2,2.1,0.5,1.1,1.9c0,0,0,0.1-0.1,0.1c-8.9,11.7-15.6,30.1-18.8,52c0,0,0,0.1,0,0.1c-0.1,0.8-0.6,1.3-1.6,1.1
		c-20.8-2.7-37.2-7.5-46.3-13.6c-4.2-2.9-6.7-6.6-6.7-10.3C159,131.1,189.6,115.9,231.5,111.4 M122.5,200c0-10.8,2.5-21.5,7.3-31.8
		c0.6-1.2,1.4-0.8,1.9,0c0.1,0.1,0.1,0.1,0.1,0.1c11.8,16,40.3,28.5,78,33.8c0.1,0,0.1,0,0.2,0c0.8,0.1,1.4,0.4,1.4,1.6
		c0,0.1,0,0.2,0,0.2c0.9,34.6,8.8,65.4,21.4,83h0c0.7,1,0.5,1.8-1.1,1.6c-30-3.6-57.2-14-77-29.6C133.9,242.6,122.5,221.7,122.5,200
		 M256,253.3c-8,0-15.6-20.9-17.3-47.2c0-0.8,0.5-1.3,1.3-1.3h0.1c5.2,0.2,10.6,0.4,15.9,0.4c5.4,0,10.7-0.1,16-0.4h0.1
		c0.8,0,1.3,0.4,1.3,1.3C271.6,232.4,264,253.3,256,253.3 M357.3,259c-19.8,15.6-46.9,26-76.8,29.6c0,0-0.1,0-0.1,0
		c-1.6,0.2-1.8-0.6-1.1-1.6l0,0c12.6-17.6,20.5-48.4,21.4-83c0-0.1,0-0.1,0-0.2c0-1.1,0.6-1.4,1.4-1.6c0.1,0,0.1,0,0.1,0
		c37.8-5.3,66.2-17.7,78.1-33.8c0,0,0.1-0.1,0.1-0.1c0.6-0.8,1.3-1.2,1.9,0c4.8,10.3,7.3,21,7.3,31.8
		C389.5,221.7,378.1,242.6,357.3,259"/>
</g>
</svg>
