<?xml version="1.0" encoding="utf-8"?>
<!-- Generator: Adobe Illustrator 18.1.1, SVG Export Plug-In . SVG Version: 6.00 Build 0)  -->
<svg version="1.1" id="Layer_1" xmlns="http://www.w3.org/2000/svg" xmlns:xlink="http://www.w3.org/1999/xlink" x="0px" y="0px"
	 viewBox="0 0 512 512" enable-background="new 0 0 512 512" xml:space="preserve">
<g>
	<path fill="#646469" d="M202.2,188.3h-39.7V147h120v41.4h-41.9l0,104.2h-38.5L202.2,188.3z M291.9,250.7l0,41.9h-36.8v-81h66.4
		c7.6,0.1,12.8-4.6,12.6-11.6c-0.3-10.4-8-11.7-13.9-11.7h-26.3l0-41.2h26.5c30.4,0,51.9,24.6,51.3,52.2
		c-0.6,25.6-20.7,51.2-50,51.3L291.9,250.7z M196.8,346.7c74.2,34.4,162.1,2.1,196.5-72c34.4-74.2,2.1-162.1-72-196.5
		c-74.2-34.4-162.1-2.1-196.5,72C90.4,224.3,122.7,312.3,196.8,346.7z"/>
	<g>
		<path fill="#646469" d="M106.6,405.7H72.7v7.6h12.4v33.5H94v-33.5h12.6V405.7z"/>
		<path fill="#646469" d="M122.9,416.6c-0.7-0.1-1.5-0.2-1.8-0.2c-4.3,0-7.5,2-9.6,6.2V417h-7.7v29.8h8.2v-12.4
			c0-3.3,0.3-5.2,1.1-6.7c1.3-2.5,3.8-3.9,6.8-3.9c0.9,0,1.7,0.1,3.2,0.3V416.6z"/>
		<path fill="#646469" d="M144,435.7c0,4.1-2.7,6.7-7.2,6.7c-2.7,0-4.5-1.5-4.5-4c0-2.7,1.4-3.7,6-4.5c3.7-0.6,4.3-0.7,5.7-1.6
			V435.7z M152.9,446.8c-0.7-2-1-3.7-1-8l0.1-12.2c0-4.3-0.5-5.8-2.6-7.5c-2.2-1.9-5.8-2.8-10.6-2.8c-8.5,0-13.2,3.3-13.6,9.9h7.7
			c0.6-3.2,2.1-4.4,5.7-4.4c3.7,0,5.5,1.2,5.5,3.8c0,2.4-0.8,2.8-7.2,3.6c-4.2,0.6-6,0.9-7.6,1.6c-3.6,1.4-5.4,4.1-5.4,7.9
			c0,5.5,3.9,9,10.1,9c4.3,0,7.5-1.2,10.1-3.7c0,1.2,0.1,1.6,0.6,2.9H152.9z"/>
		<path fill="#646469" d="M183.8,417h-8.2l-6.3,20.4l-6.5-20.4h-8.6l10.3,29.8h9.1L183.8,417z"/>
		<path fill="#646469" d="M194,417h-8.2v29.8h8.2V417z M194,405.7h-8.2v7h8.2V405.7z"/>
		<path fill="#646469" d="M224.8,425.7c-0.5-6.2-4.8-9.4-12.9-9.4c-8.4,0-13.1,3.2-13.1,9.1c0,2.8,1.3,5.2,3.6,6.5
			c1.8,1,3.1,1.4,8.7,2.7c5.6,1.2,6.7,1.9,6.7,3.9c0,2.3-2.2,3.7-5.5,3.7c-4.1,0-5.9-1.5-6.3-5h-7.8c0.4,6.9,5.2,10.5,14,10.5
			c8.5,0,13.8-3.8,13.8-10c0-5.1-3-7.5-11.6-9.2c-6.5-1.3-7.3-1.7-7.3-3.8c0-1.8,1.7-2.8,4.7-2.8c3.5,0,5.1,1.1,5.5,3.9H224.8z"/>
		<path fill="#646469" d="M254,413.3h7.5c5.2,0,7.7,1.9,7.7,5.7c0,4.1-2.2,6-7.1,6H254V413.3z M245.1,405.7v41.1h8.9V432h9.2
			c9.4,0,14.6-4.7,14.6-13.1c0-4.7-1.8-8.6-5.3-10.9c-2.6-1.7-5.3-2.3-11-2.3H245.1z"/>
		<path fill="#646469" d="M288,428.8c0.4-4.2,3-6.7,6.7-6.7c3.6,0,5.9,2.4,6.4,6.7H288z M301,437.6c-1.2,3-3.1,4.2-6.1,4.2
			c-4.4,0-6.8-2.7-7-7.7h21.4v-1.2c0-10-5.8-16.6-14.6-16.6c-8.7,0-15.1,6.7-15.1,15.7c0,9.4,6.1,15.6,15.2,15.6
			c7,0,12.4-3.9,14-10.1H301z"/>
		<path fill="#646469" d="M332.4,416.6c-0.7-0.1-1.5-0.2-1.8-0.2c-4.3,0-7.5,2-9.6,6.2V417h-7.7v29.8h8.2v-12.4
			c0-3.3,0.3-5.2,1.1-6.7c1.3-2.5,3.8-3.9,6.8-3.9c0.9,0,1.7,0.1,3.2,0.3V416.6z"/>
		<path fill="#646469" d="M363.2,417h-9.6l-10.5,10.6v-22H335v41.1h8.2v-10.1l3.3-3.2l8.2,13.2h9.9L352,428.1L363.2,417z"/>
		<path fill="#646469" d="M374.5,417h-8.2v29.8h8.2V417z M374.5,405.7h-8.2v7h8.2V405.7z"/>
		<path fill="#646469" d="M387.6,417h-7.7v29.8h8.2v-15.4c0-2.6,0.2-4,0.7-5.2c1-2,3.2-3.2,5.6-3.2c3.9,0,5.2,1.7,5.2,6.8v17.1h8.2
			v-18.7c0-3.9-0.4-5.8-1.6-7.7c-1.7-2.6-4.7-4.1-8.6-4.1c-4.3,0-7.4,1.5-10,4.9V417z"/>
		<path fill="#646469" d="M438.1,425.7c-0.5-6.2-4.8-9.4-12.9-9.4c-8.4,0-13.1,3.2-13.1,9.1c0,2.8,1.3,5.2,3.6,6.5
			c1.8,1,3.1,1.4,8.7,2.7c5.6,1.2,6.7,1.9,6.7,3.9c0,2.3-2.2,3.7-5.5,3.7c-4.1,0-5.9-1.5-6.3-5h-7.8c0.4,6.9,5.2,10.5,14,10.5
			c8.5,0,13.8-3.8,13.8-10c0-5.1-3-7.5-11.6-9.2c-6.5-1.3-7.3-1.7-7.3-3.8c0-1.8,1.7-2.8,4.7-2.8c3.5,0,5.1,1.1,5.5,3.9H438.1z"/>
	</g>
</g>
</svg>
