<?xml version="1.0" encoding="utf-8"?>
<!-- Generator: Adobe Illustrator 18.0.0, SVG Export Plug-In . SVG Version: 6.00 Build 0)  -->
<!DOCTYPE svg PUBLIC "-//W3C//DTD SVG 1.1//EN" "http://www.w3.org/Graphics/SVG/1.1/DTD/svg11.dtd">
<svg version="1.1" id="Layer_1" xmlns="http://www.w3.org/2000/svg" xmlns:xlink="http://www.w3.org/1999/xlink" x="0px" y="0px"
	 viewBox="0 0 512 512" enable-background="new 0 0 512 512" xml:space="preserve">
<g>
	<path fill="#646469" d="M108.6,448c20.3,0.4,28.5-19.3,29.3-35.6c0.6-12,0.4-20.3-1.4-26.7c-1.4-4.2-2.8-6-6.4-5
		c-3.2,1-6.7,5.4-5.7,12c0.5,3,2.1,7.1,2.7,8.9c1,3.2,2.2,8.2,0.6,18.5c-2,13-6.8,21.9-17.5,21.7c-7.2,0-13.8-5.6-14.5-19.9
		c-0.8-13.5,0.2-19.3,2.4-31.3c1-5.4,1.4-10-3-9.2c-5.6,1.2-7.2,3.4-9,9.6c-3.4,11.5-4,19.7-3.6,27.9
		C83.4,436.3,91.1,447.6,108.6,448z"/>
	<path fill="#646469" d="M210.5,376.5c-3.8,0-7.3,4-7,9c0.2,3.3,2.2,6,6,6c4.4,0,7.6-5,7.1-9.6C216.4,378.7,213.9,376.5,210.5,376.5
		z"/>
	<path fill="#646469" d="M419,403.4c-18.7,0-22.7,28.1-25.7,28.1c-5,0-3.4-22.5-7-22.5c-3.2,0-4.8,3.8-5.2,5.6
		c-2.5,10.2-10,25.3-21.1,25.3c-2.6,0-7.2-1-7.2-3.6c0-2.8,17.5-3.2,17.5-16.5c0-5-4.6-12-11.4-12c-9,0-17.7,9.8-17.7,23.3
		c0,12.1,7.5,16.1,15.1,16.1c13.2,0,21.1-10.8,25.3-19.7c2,6,3.2,19.7,8.2,19.7c2,0,3.4-1,5.8-6.4c6-13.4,11.7-28.7,19.7-28.7
		c3,0,1.2,5.4,8.4,5.4c3.4,0,5.8-2.8,5.8-6C429.6,407,425.4,403.4,419,403.4z M356.5,415.8c4.2,0,5.4,5,4.4,8c-1,3-4.6,6.4-10.2,7.4
		C349.5,428.1,348.9,415.8,356.5,415.8z"/>
	<path fill="#646469" d="M143.9,447c5,0.5,23.2-21.9,29-21.9c7.4,0,9.2,22.1,17.5,22.1c5,0,9.6-12.7,12.5-12.7
		c3.4,0,5,12.7,14.5,12.7c12,0,15.9-7.8,19.5-7.8c3,0,6.2,7.6,13.5,7.6c4.6,0,8.6-1.4,13.3-4.6c2.8,3.2,6.2,4.8,9.4,4.8
		c19.7,0,25.3-17.7,29.3-17.7c3.6,0,2.8,17.5,13,17.5c13.5,0,22.7-23.7,22.7-36.5c0-3.4-1-6.2-3.8-6.2c-4.6,0-8,5.4-8,11.7
		c0,5.8,1.4,6.2,1.4,10.2c0,5.4-2.8,12.3-6.2,12.3c-7.9,0-9.9-31.5-14.7-31.5c-2.8,0-4.2,3.4-5,5.8c-4.4,12.6-10.3,26.3-21.7,26.3
		c-2.2,0-4.8-1-6.2-2.4c8-5,13.3-10.2,13.3-16.5c0-5.4-3.6-13.6-9.8-13.6c-7.8,0-16.7,11.8-16.7,25.7c0,2.6,0.4,4.4,0.8,5.8
		c-0.6,0.8-3,1.8-5,1.8c-5.4,0-11.1-5.7-11.8-9.1c4-8.7,12-18.7,10.6-42.8c-0.5-9.2-5.3-14.8-11.3-14.4c-8.1,0.5-15.6,18.7-14.4,38
		c0.2,3.8,1.9,14.1,4.2,19.3c-4,6.5-9.2,7.4-12.2,7.4c-4.2,0-10.6-2.4-10.6-12.1c3-8.2,1-17.5-3.2-17.5c-6,0-8,10.5-8.2,17.9
		c-2,4.4-4.2,8-7.2,8c-9,0-9.7-27.9-16.3-27.9c-5.4,0-14.6,17.7-17.4,17.7c-1.6,0-3-5-4-9.9c-0.3-1.4-0.5-3-1.4-3.1
		c-1.8-0.2-4,1.4-4.8,3.5c-0.8,2.1-2.3,8.8-3.9,14.8c-1,3.5-3.3,10.9-3.6,13.6C141,445.3,141.9,446.8,143.9,447z M274.6,416.3
		c2.2,0,4,2.8,4,6.2c0,4-1.6,8.8-7.4,10.6c-0.8-1-2.6-3.4-2.6-8.4C268.7,418.3,272.8,416.3,274.6,416.3z M244.4,385.7
		c3-0.2,4.3,2.3,4.7,7.9c0.8,12.3-4.5,27.6-6.7,27.7c-1.2,0.1-2.5-1.2-3-9.8C238.6,398.4,240.4,385.9,244.4,385.7z"/>
	<path fill="#646469" d="M374.4,117.7c0-1.5-0.7-3-3-3c-3.5,0-8,3.3-12.8,3.3c-1.5,0-3.4,0-5.2-0.5c1.8,1.4,1.5,4.4,2.4,6.3
		c1.2,2.3,3.3,2.3,4.8,2.3C365,126.1,374.4,122.3,374.4,117.7z"/>
	<path fill="#646469" d="M382.8,165.8c2.8-0.2,3.8-13.1,3.8-23.2c0-5.8,0.3-10.4-2.7-11.4c-4.9,9.8-17.6,11.8-21.8,11.4
		C363.4,152.5,378.6,166.1,382.8,165.8z"/>
	<path fill="#646469" d="M362.9,138.1c11,0,21-8.8,21-16.5c0-3.6-1.7-6.6-6-7.1c0.7,1,1.1,1.7,1.1,3.4c0,5.8-8.9,12.3-18.5,12.3
		c-3.5,0-4.6,2.4-4.6,3.7C355.9,136.8,358.8,138.1,362.9,138.1z"/>
	<path fill="#646469" d="M139.6,288.4c11-20-21.1-17.7-9.8-40.3c2.5,5.3,5.3,5.9,12,6.3c-4.1-3.6-4.6-6.5-4.6-9.4
		c0-5.6,5.6-15.6,9.2-22.6c4.7-9,9.9-22.4,9.9-28.1c0-2.4-1-3.6-2-3.6c-1.2,0-2.4,1.6-3.4,4.6c-1.7,5.7-7,17.1-9.6,17.1
		c-0.5,0-0.7-0.5-0.7-1.2c0-4.1,6.4-18.7,6.4-23.8c0-1.4-0.6-2.7-2-2.7c-4.3,0-8.8,24.2-11.3,24.2c-1,0-1.5-0.6-1.5-2.6
		c0-4,2.4-11.3,2.4-16.3c0-1.7-0.4-3.1-1.8-3.1c-5.8,0-5.1,22-8.7,22c-1,0-2.1-0.4-2.1-5.4c0-4.7,0.4-7.4,0.4-8.8
		c0-0.8-0.3-1.5-1.3-1.5c-3.3,0-5.9,11.7-5.9,23.4c0,13.1,2.5,21.2,5.8,21.2c3.3,0,7.9-7.9,7.9-10.9c0-1.3-0.7-2.1-1.6-3.5
		c-2.5-4.1-0.1-8.8,1.9-8.8c2.7,0,2.9,2.4,6.3,5.4c1.4,1.2,1.9,2.4,1.9,3.9c0,7.5-15.8,18.1-15.8,36.1
		C121.7,281.2,137.6,284.9,139.6,288.4z"/>
	<path fill="#646469" d="M150.3,233.6c-2.4,0-3.1-2.2-3.9-2.2c-0.6,0-1,1.9-1,2.4c0,3.9,2.7,6.1,5.6,6.1c4.4,0,8-3.3,8-10.6v-10.8
		c0-4.1,0.4-8.8,3.2-12c-0.3,1.4-0.3,2.9-0.3,4.2c0,9.1,5.1,15.3,5.1,24.1c0,3.3-0.9,5.1-3.5,5.1c-2.4,0-2.2-2.2-2.7-2.2
		c-0.4,0-1.1,1.4-1.1,2.9c0,2.2,1.6,5.7,6,5.7c3.8,0,6.9-3.5,6.9-7.4c0-9.5-7.4-20.1-7.4-30.2c0-4.4,1.2-7.4,2.1-9.7
		c0,21,17.9,36.4,17.9,45.1c0,2-1.5,3.6-3.7,3.6c-2.4,0-3.6-1.9-3.6-3.4c0-0.7-0.1-0.9-0.4-0.9c-0.6,0-2.5,2.1-2.5,4.9
		c0,3.5,2.8,7.7,8.1,7.7c6,0,9.3-5.1,9.3-9.6c0-11.1-21.7-27.9-21.7-45.9c0-3.1,0.5-8,2.7-11.8c-14,9-18.3,20.9-18.3,31.4
		C155.2,229.1,154.9,233.6,150.3,233.6z"/>
	<path fill="#646469" d="M329,116.9c-0.8,0-1.8,0.2-2.7,0.7c-7.7,3.8-13.7,2.4-15,3.3c-0.3,0.2-0.6,0.4-0.6,1.1
		c0,7.9,8.5,20.2,22.5,20.2c9.6,0,17.7-3.3,17.7-8.7c0-4.7-4.5-14.6-7.7-14.6c-2,0-5.4,2.2-8,2.2C331.7,121.2,332.7,116.9,329,116.9
		z M340.4,130.3c1.4,0,2,0.3,2,0.7c0,1.3-3.5,3.4-8.1,3.4c-7.8,0-12.9-4.2-12.9-7c0-0.3,0.2-0.5,0.6-0.5c1.3,0,4.7,1.7,9.1,2.4
		C336.3,130.2,339,130.3,340.4,130.3z"/>
	<path fill="#646469" d="M173.6,321.1c15.4,0,19.2-10.7,19.2-17.9c0-16-9.8-27.2-22.6-27.2c-7,0-13.2,5.1-13.2,12.6
		c0,7,5.3,17.4,17.9,17.4c5.9,0,9.4-4.2,9.4-9.1c0-4.8-4.3-11.3-10.7-11.3c-1.9,0-3.3,1.3-3.3,3.3c0,2.5,3.5,5.1,7.8,5.1
		c1.1,0,1.9-0.2,2.3-0.4c0.2,0.3,0.3,0.8,0.3,1.3c0,2.4-2.3,3.9-5.9,3.9c-5.4,0-10.6-4-10.6-10.4c0-3.8,3.3-6.5,8-6.5
		c9.4,0,15,8.3,15,16.7c0,7.5-4.1,11.8-12.6,11.8c-16.9,0-25.2-15.2-21.5-30.7c-3.5,0.8-9.1,6.3-9.1,15
		C144.3,305.1,155.4,321.1,173.6,321.1z"/>
	<path fill="#646469" d="M226.5,320.4c-0.7,6.2-5.6,7.8-9.4,7.8c-2.7,0-7.1-1-7.3-2c-1.6-9-8.4-14-11.3-15.2c0.1,1,0.2,2,0.2,2.9
		c0,7.6-5.2,12.4-14.9,12.4c-1.6,0-3.6-0.1-5.1-0.4c11.1,12.4,19,7.8,24.2,10.1c6.8,3.1,12.3,12.5,33.9,12.5c7.9,0,16-3.1,21.2-6.4
		c1,3.2,4.2,6,9.6,6c9.2,0,14.4-2.9,14.4-5.2c0-0.6-0.1-1.6-1.7-1.6c-1.6,0-1.3,0.4-6.4,0.4c-5.9,0-15.4-2.3-19.7-12.5
		c-0.7-1.7-2-1.7-2.4-1.7c-3,0-7.5,10.5-26.1,10.5c-7.8,0-11.4-2.9-11.4-3.6c0-0.1,0-0.2,0.4-0.2c0.7,0,3.6,0.3,7.2,0.3
		c11.7,0,21.2-5.4,26.9-11.6c2-2.2,3-2.5,4.6-2.5c1.5,0,3.1,1.3,3.8,3.3c2.6,6.8,8.7,12.1,15.2,12.1c8.9,0,9-15.2,11.1-15.9
		c0.3,0.1,0.8,0.2,1.3,0.2c1.1,0,2.8-0.7,2.8-2.8c0-2.1-2.6-2.7-3.2-3.8c-1.1-2-0.2-5.5-3.4-5.5c-2.1,0-2.3,1.7-2.5,3.1
		c-4.5-1.4-8.3-2-11.7-2c-2.4,0-4.5,0.3-6.3,1c-1.3-2.1-6.4-6.2-11-7.7C247.7,311.8,239.1,319.3,226.5,320.4z M270,316.3
		c2.3,0,4.2,1.9,4.2,4.2c0,2.3-1.9,4.2-4.2,4.2c-2.3,0-4.2-1.9-4.2-4.2C265.8,318.3,267.7,316.3,270,316.3z"/>
	<path fill="#646469" d="M364.3,282.3c0-13.1-9.5-18.9-18.1-18.9c-15.5,0-11.5,13.6-29.7,17.8c-3.4,0.7-4.3,1.8-4.3,3.3
		c0,2.7,1.6,6.3,3.5,6.3c7.9,0,20.2-16.4,22.4-16.4c0.8,0,1.9,0.1,1.9,2.3c0,5.9-17.1,13.7-17.1,18c0,2.5,6,7.9,12,7.9
		c8.6,0,16.3-17.5,18.1-17.5c1.4,0,1.9,1,1.9,2.1c0,4.8-5.8,14.1-15.9,18.1c-2.1,0.8-2.4,1.8-2.4,2.5c0,2.3,2.6,5.8,5.1,5.8
		C344.4,313.6,364.3,296.3,364.3,282.3z M353.3,278.5c-1.2,0-2.3-0.4-3.1-0.9c-1.4-0.6-3.8-2.6-3.8-5.8c0-2.9,1.6-4,3.1-4
		c4.5,0,9.3,4,9.3,7.3C358.8,277.7,356.3,278.5,353.3,278.5z"/>
	<path fill="#646469" d="M145.9,144.2c-1.3-1.8-0.8-3.5-1.7-4.3c-0.5-0.5-2-0.5-3.9-0.7c-0.6-0.1-1.5-0.1-2.3-0.1
		c-3.5,0-7.6,0.4-12.3,3.4c-9.2,5.9-7.8,15.5-9.3,18c-0.2,0.3-0.3,0.7-0.3,1.2c0,1,1.1,2,2,2c0.8,0,1.4-0.2,1.8-0.2
		c2.5,0,5.4,1.8,9.5,1.8c2.4,0,5.3-0.7,8.9-2.5c7.6-3.8,10.6-13.2,10.6-14.8C148.9,145.8,147.3,146.1,145.9,144.2z M131.6,160.2
		c-3.5,0-7.3-4.3-7.3-8.2c0-2.1,1.6-4.8,2.7-4.8c0.4,0,0.6,0.3,0.7,1.1c0.6,5.2,4,8.1,7.2,9.6c0.3,0.2,0.5,0.3,0.5,0.5
		C135.5,159.1,133.5,160.2,131.6,160.2z M141.5,153.6c-3.7,0-6.7-5.6-6.7-8.8c0-2,1.2-2.2,2.7-2.2c0.7,0,1.1,0.1,1.6,0.4
		c1,0.5,1,2.6,2.1,4.2c0.7,1,2.8,2.2,2.8,3C144,151.7,143.2,153.6,141.5,153.6z"/>
	<path fill="#646469" d="M150.8,131.7c-2.3,0-4.2,1.9-4.2,4.2c0,2.3,1.9,4.2,4.2,4.2c2.3,0,4.2-1.9,4.2-4.2
		C155,133.6,153.1,131.7,150.8,131.7z"/>
	<path fill="#646469" d="M120,187.6c3.4,0,7.9-2.4,13.3-7.1c-4.1,1-7.3,1.6-10.1,1.6c-3.8,0-6.8-1.5-9.9-6.3
		C113.2,183.8,115.6,187.6,120,187.6z"/>
	<path fill="#646469" d="M141.5,127.4c0-5.1-2.3-12.8-9.5-12.8c-4.1,0-7.1,3.3-7.1,7.2c0,8.4,8.4,11.7,15.6,11.7
		C141.1,131.8,141.5,129.7,141.5,127.4z"/>
	<path fill="#646469" d="M122.1,138.2c3.8,0,6.9-2.3,6.9-2.3c-6.1-1.8-9.5-6.3-9.5-12.4c0-0.6,0-1.2,0.1-1.8
		c-3.9,1.7-5.6,5.1-5.6,8.4C113.9,134.8,117.5,138.2,122.1,138.2z"/>
	<path fill="#646469" d="M152.1,145.5c0,2.3,1.9,4.2,4.2,4.2c2.3,0,4.2-1.9,4.2-4.2c0-2.3-1.9-4.2-4.2-4.2
		C154,141.2,152.1,143.1,152.1,145.5z"/>
	<path fill="#646469" d="M116.9,166.4c-0.1,0.5-0.1,1.1-0.1,1.6c0,5,2.6,7.7,6.1,7.7c2.6,0,5.7-1.6,8.4-5.1
		c-1.2,0.2-2.5,0.3-3.8,0.3C123.7,170.9,119.4,169.9,116.9,166.4z"/>
	<path fill="#646469" d="M135.3,173.8c0,3.8,3,6.2,6.7,6.2c1.9,0,3.3-0.4,4.1-1.1c-3-2.9-4-6-4-9.2c0-2.2,0.3-3.6,0.7-4.9
		C140.3,165.5,135.3,168.5,135.3,173.8z"/>
	<path fill="#646469" d="M155.7,178.8c5.2,0,7.6-4.4,7.6-9c0-7.1-6.4-12.1-11.7-13.6c-2.3,2.7-4.8,7.4-4.8,12.2
		C146.8,174,150.3,178.8,155.7,178.8z"/>
	<path fill="#646469" d="M290.4,186.8c0,2.3,1.9,4.2,4.2,4.2c2.3,0,4.2-1.9,4.2-4.2c0-2.3-1.9-4.2-4.2-4.2
		C292.3,182.6,290.4,184.5,290.4,186.8z"/>
	<path fill="#646469" d="M302.4,172.9c0-3.6-2.9-6.4-6.5-6.4c-3.6,0-6.4,2.9-6.4,6.4c0,3.6,2.9,6.4,6.4,6.4
		C299.6,179.4,302.4,176.5,302.4,172.9z"/>
	<path fill="#646469" d="M298.1,159.2c0-2.2-1.8-4-4-4c-2.2,0-4,1.8-4,4c0,2.2,1.8,4,4,4C296.3,163.2,298.1,161.4,298.1,159.2z"/>
	<path fill="#646469" d="M307.6,200.5c4,0,7.3-3.3,7.3-7.3c0-4-3.3-7.3-7.3-7.3c-4,0-7.3,3.3-7.3,7.3
		C300.3,197.2,303.6,200.5,307.6,200.5z"/>
	<path fill="#646469" d="M319.7,166.5c-2.4,0-4.4,2-4.4,4.4c0,2.4,2,4.4,4.4,4.4c2.4,0,4.4-2,4.4-4.4
		C324.1,168.5,322.1,166.5,319.7,166.5z"/>
	<path fill="#646469" d="M301.3,162.1c0,3.7,3.1,6.8,6.8,6.8c3.7,0,6.8-3.1,6.8-6.8c0-3.7-3.1-6.8-6.8-6.8
		C304.4,155.3,301.3,158.4,301.3,162.1z"/>
	<path fill="#646469" d="M284.1,160.6c-2.3,0-4.2,1.9-4.2,4.2c0,2.3,1.9,4.2,4.2,4.2c2.3,0,4.2-1.9,4.2-4.2
		C288.3,162.5,286.4,160.6,284.1,160.6z"/>
	<path fill="#646469" d="M282.3,173.7c-3.3,0-6,2.8-6,6c0,3.3,2.7,6,6,6c3.3,0,6-2.7,6-6C288.3,176.4,285.5,173.7,282.3,173.7z"/>
	<path fill="#646469" d="M309.2,149.1c0,2.2,1.8,4,4,4c2.2,0,4-1.8,4-4c0-2.2-1.8-4-4-4C311,145,309.2,146.8,309.2,149.1z"/>
	<path fill="#646469" d="M320.5,179.3c-2.7,0-5,2.2-5,5c0,2.8,2.2,5,5,5c2.7,0,5-2.2,5-5C325.5,181.5,323.3,179.3,320.5,179.3z"/>
	<path fill="#646469" d="M312.7,178.3c0-2.3-1.9-4.2-4.2-4.2c-2.3,0-4.2,1.9-4.2,4.2c0,2.3,1.9,4.2,4.2,4.2
		C310.8,182.6,312.7,180.7,312.7,178.3z"/>
	<path fill="#646469" d="M320.9,201.5c2.3,0,4.1-1.7,4.1-4.1c0-2.1-1.8-3.9-4.1-3.9c-2.1,0-4,1.8-4,3.9
		C316.9,199.8,318.8,201.5,320.9,201.5z"/>
	<path fill="#646469" d="M309.9,298.1c-7.7,0-11.9,3.5-11.9,5v4.9c0,2,5,4,10.7,4c4.5,0,8.6-1.2,11.3-3.5c0.9-0.7,1-1.9,1-3.1v-2.4
		C321,299.9,316.3,298.1,309.9,298.1z"/>
	<path fill="#646469" d="M326,309.6c-2.7,2.1-9.2,6.9-19.9,6.9c-5.7,0-8.2-1.8-9.1-1.8c-1.1,0-2.2,1.1-3.4,2.4
		c-2.5,3-5.8,8.5-5.8,14.5c0,4.2,3.3,8.4,9.4,8.4c19.8,0,34.6-12.4,34.6-22.4C331.8,311.9,328.4,309.6,326,309.6z M316,328.9
		c-2.6,1.8-6.2,3.3-11.5,3.4c0.8-2.5,1.5-5.8,1.5-8.3c0-0.8-0.1-1-0.2-3h1.4c8.4,0,12-2.7,12.6-2.7c0.5,0,1.2,0.6,1.2,2.5
		C320.8,323.1,319.8,326.5,316,328.9z"/>
	<path fill="#646469" d="M331,207.3c-1.6,0-3.9,4.2-5.6,4.2c-1.1,0-3.3-5.2-4.9-5.2c-0.4,0-0.5,0.8-0.5,1.9c0,1.5,0.2,3.4,0.2,4.3
		c0,1.3-1.6,1.4-3.2,1.4c-1.1,0-3.6,0-3.6,0.8c0,0.8,2.2,1.9,4.2,3.2c3.9,2.5,9.8,5.2,9.8,11.3c0,5.5-7.9,9.4-13.3,10.4
		c-2.5,0.4-5.3,1-5.3,1.7c0,1.3,7,1.5,7,3.1c0,0.8-3.1,5-3.1,6.2c0,0.2,0.2,0.3,0.4,0.3c1.2,0,4.5-2.9,6.1-2.9c2.1,0,1.7,6,3.3,6
		c1.7,0,1.2-9,1.9-11.3c1.3-4,4.1-8,6.7-8c3.1,0,3.4,5.5,3.4,8c0,5.4-3.9,10.9-3.9,13.3c0,0.3,0.2,0.6,0.5,0.6
		c1.2,0,3.9-3.5,5.2-3.5c1.5,0,4.6,5.8,5.8,5.8c0.6,0,0.7-0.6,0.7-1.2c0-1.7-0.8-4.5-0.8-6.4c0-2.1,6.7-1,6.7-2.2c0-0.6-3-1.8-4.7-3
		c-3.9-2.3-8-7.2-8-11.4c0-1.6,0.8-2.5,2-2.5c8.1,0,11.7,12.5,13.1,12.5c1.5,0,0.5-5.6,1.3-6.4c0.3-0.4,1.1-0.5,1.9-0.5
		c1.4,0,3.2,0.3,4.3,0.3c0.7,0,1.2-0.1,1.3-0.4c0.1-1.1-6.5-3.2-6.5-5c0-1.6,3.6-5.1,3.6-6.1c0-0.3-0.2-0.5-0.5-0.5
		c-1.6,0-6.6,3.8-13.6,3.8c-3,0-5.1-0.4-5.1-2.5c0-2.1,1.8-3.7,4.8-5c3.1-1.4,9.5-1.4,9.5-3c0-1.1-6.1-1.3-6.1-2.4
		c0-1.4,2.4-4.9,2.4-6.5c0-0.1-0.1-0.5-0.4-0.5c-1.2,0-4,3.5-5.9,3.5c-1.7,0-3.2-4.3-4.8-4.4c-0.4,0-0.7,0.3-0.7,1.1
		c0,1.7,0.7,5,0.7,9.2c0,3.7-1.9,7.1-4.1,7.1c-2.6,0-3.5-3.1-3.5-5.7c0-3.8,2-8.2,2-12.2C331.7,207.6,331.5,207.3,331,207.3z"/>
	<path fill="#646469" d="M272.4,237.7c13.9-1.2,14.9-11.5,18.8-11.5c1.3,0,1.7,0.8,1.7,1.4c0,1.8-3,4.8-3,7.7c0,3.7,4.3,5.9,7.2,5.9
		c3.4,0,4.7-1.3,4.7-3.4c0-2.6-4.7-6.1-4.7-9c0-1.6,1.5-1.8,3.5-1.8c4.2,0,5.8,0.6,5.8,1.6c0,1.3-1.8,3.5-1.8,4.2
		c0,0.4,0.2,1.2,1.3,1.2c3.5,0,15.5-2.4,15.5-4.9c0-2.6-11.4-11.3-13.7-11.3c-0.5,0-0.8,0.4-0.8,0.8c0,0.7,0.2,1.9,0.2,3
		c0,1.9-0.7,2.2-3,2.2c-2.4,0-6.1-0.8-6.1-4.5c0-7.4,14-5.6,15.3-12.4c-6,0-9.1-4.1-13.1-4.1c-1.6,0-4.2,0.8-4.2,4.5
		c0,1.2,0.4,3.3,0.4,5c0,1.7-0.4,3-2.2,3c-1.8,0-2-2-2-4.3c0-2,0.4-4.3,0.4-5.9c0-10.9-12.1-6.3-13.2-15.3
		c-2.9,5.3-3.9,9.1-3.9,12.1c0,11.3,15.4,10.1,15.4,18.2c0,1.9-1.5,3.2-2.9,3.2c-2.5,0-4.5-5.5-8.4-5.5c-2.1,0-3.6,1.6-3.6,4.8
		c0,2.4,0.5,4.2,0.5,6.4C276.6,233.5,274.7,235.7,272.4,237.7z"/>
	<path fill="#646469" d="M281.2,242.1c-18.1,0-31.3,14.7-31.3,30.8c0,14.6,10.6,30.4,30.3,30.4c19,0,28.1-15.3,28.2-26.9
		c-3.5,3.2-12.9,4.1-17.7,4.1c-14.6,0-18.4-7.4-20.4-7.4c-2,0-2,3.3-2,4.4c0,1.2-0.1,1.6-0.7,1.6c-0.7,0-1.6-0.4-2.2-0.4
		c-0.6,0-1.1,0.5-1.1,1.5c0,4.4,5.6,7.7,11.3,7.7c7.3,0,10.9-3.1,12.8-3.1c0.8,0,1.3,1,1.3,1.5c0,1.2-1.3,2.5-1.3,3.3
		c0,1.7,3.6,0.3,3.6,2.3c0,2.5-4.3,4.8-11.1,4.8c-13.1,0-21.8-9.1-21.8-17.4c0-15.8,17-10.7,17-16.8c0-2.1-2-3.1-3.4-3.3
		c1.9-2.2,4.2-2.7,6.6-2.7c1.8,0,3.5,0.3,5,0.3c2,0,4.1-0.7,4.1-3.1c0-1.4-1.2-3.1-6-3.7c0.5-3.3,7.4-1.6,7.4-4.3
		C289.8,243.6,285.9,242.1,281.2,242.1z"/>
	<path fill="#646469" d="M293.9,244.4c1.5,1.8,2,3.6,2,5.4c0,4.5-3.5,9.2-3.5,13.6c0,5.9,3.9,9.6,9.3,9.6c5.9,0,9.3-5,9.3-10.3
		C311,254.8,305,246.5,293.9,244.4z M301.9,261.1c-1.5,0-2.5-1.2-2.5-2.6c0-0.8,0.5-2.1,0.6-3.2c0.2-1.4-0.1-2.6,0.7-2.6
		c1.9,0,3.9,3.1,3.9,5.3C304.7,259.6,303.6,261.1,301.9,261.1z"/>
	<path fill="#646469" d="M320.5,274.1c4.3,0,7.3-3.5,7.3-7.6c0-5.6-5.1-10.4-13-10.9c0.7,1.2,1.1,2.3,1.1,3.4c0,3-2,5.7-2,8.8
		C313.9,271.2,316.5,274.1,320.5,274.1z"/>
	<path fill="#646469" d="M285.1,275.3c3,0,5-2.3,5-5.1c0-4-4.1-7.9-10.3-7.9c1.1,1.1,1.4,2.1,1.4,3.2c0,1.6-0.7,3.3-0.7,5.1
		C280.5,273.1,282.4,275.3,285.1,275.3z"/>
	<path fill="#646469" d="M173.6,145.4c-5.2,0-2.9-8.7-5.5-8.7c-2.2,0-2.9,4.6-2.9,6.4c0,6,3.9,12.4,12.6,12.4
		c9.3,0,14.5-4.3,20.1-10.3c1.1,6.3,4.5,17.2,13.8,17.2c5.1,0,8.7-4.2,9.1-9.1c-0.6,0.6-1.6,1.2-2.6,1.2c-1.9,0-2.3-2.8-2.3-5.2
		c0-3.9,1.2-8.1,3-8.1c1,0,1.5,0.6,1.7,3.5c0.2,2.2,0,4.7,1.4,4.7c1.4,0,2.2-4.3,2.2-7.3c0-6.8-3.2-12.8-10.1-12.8
		c-5.4,0-10.4,4.5-14,10.5c0.2-1.2,0.3-2.4,0.3-3.6c0-8.2-4.4-15.6-12.8-15.6c-6.8,0-12.9,3.9-15.4,11.5c0.7-0.7,3-2.1,4.8-2.1
		c2.1,0,2.7,1.8,2.7,4.6c0,1.9-0.4,4.1-1.2,6.2C177.2,144.3,174.9,145.4,173.6,145.4z M213.4,136.2c0.6,0,0.8,1.5,0.8,2.9
		c0,6.3-3,16.5-5.6,16.5c-0.6,0-1.2-1-1.2-3.2C207.4,146.6,211.1,136.2,213.4,136.2z M205,139.6c0.4,0,0.8,0.4,0.8,2.2
		c0,3.7-1.7,7.4-2.9,7.4c-1.1,0-1.7-1.7-1.9-5.5C202.8,140.8,204,139.6,205,139.6z M194.9,133.1c1.3,0,2.1,2.3,2.1,4.4
		c0,1.6,0,2.9-0.2,4.2c-2.8,3.1-4.2,4.3-5.4,4.3c-0.6,0-1.3-1.1-1.3-2.3C190.1,141.6,191.7,133.1,194.9,133.1z M189.4,125.5
		c0.7,0,1.1,0.6,1.1,1.5c0,3.3-4.1,22.7-7.7,22.7c-1,0-1.2-0.8-1.2-1.6C181.6,144,186.1,125.5,189.4,125.5z"/>
	<path fill="#646469" d="M162.1,192.4c3.7-8.2,13.5-11.9,19.9-11.9c1.3,0,2.2,0.1,3,0.2c-3.3,3-4,8.1-4.2,11.6
		c-0.1,1.7-0.7,1.8-1.9,1.8c0,3.5,2.8,8.7,2.8,11.3c0,1-0.5,1.8-1.1,2c0,4.7,4.6,8,4.6,11c0,0.7-0.2,1.4-0.5,1.7
		c0.3,1.9,5.4,5.1,6.1,6.7c0.8,1.9,1.7,2.3,2.3,2.3c1.8,0,4.6-2.1,4.6-4c0-0.6-0.5-1.4-0.9-1.7c-2-1.5-3.1-4.6-3.9-6.8
		c-0.7,0-1.7-0.3-2-1.6c-0.6-2.2-0.6-6.3-1.5-8.7c-1.4-0.3-2-0.8-2-3.7c0-1.4,0.8-6.8,0.8-8.7c-0.6,0-1.5-0.4-1.5-1.7
		c0-3.4,3.4-6,4.3-10.4c6,4.4,7.5,9,7.5,13c0,2.1-0.3,4.1-0.7,6c4.4-2.2,11.1-5.5,11.1-12.2c0-3.9-1.8-8.2-13.7-9.9
		c3.7-1.4,8.4-2.1,12.3-2.1c6.8,0,10.7,2.1,11.5,6.9c1.4-2.1,2.4-4.5,2.4-6.8c0-5.2-4.3-8.6-9.8-8.6c-6.4,0-12.2,3.4-18.3,7.5
		c2.8-5.7,4.6-9.1,8-9.1c0.5,0,1.1,0.1,1.6,0.2c-1.3-4.7-6-9.2-8.6-9.2c-4.5,0-4.8,5.5-4.8,16.6c-3.4-7.3-9-15.1-15.5-15.1
		c-4.4,0-6.1,3-6.1,8.1c0,1.1,0.1,2.6,0.3,3.6c0.5-1.8,2.2-2.5,4.3-2.5c4.6,0,10,3.5,13.6,8.2c-4.1-0.7-8.1-1.5-11.5-1.5
		c-2.1,0-4,0.2-5.6,1c-3.1,1.4-7.2,5.9-7.2,12.8C161.8,190,161.9,191.1,162.1,192.4z"/>
	<path fill="#646469" d="M370.6,273c7.2-6.3,11.2-15.6,11.2-24.2c0-8-4.2-14.9-9.5-14.9c-4.6,0-7.2,3.7-7.2,7.7c0,2.4,1,5,2.9,6.8
		c-1.9-1.9-4.5-2.9-7.9-2.9c-3.8,0-7,3-7,7.4C353.1,263.3,370.5,258.8,370.6,273z"/>
	<path fill="#646469" d="M275.2,143.1c0,5.7,2.2,11.1,4.6,11.5c1.4,0.1,1.3-3.9,3.3-3.9c0.6,0,3.2,1.7,8.3,1.7
		c7.8,0,16.3-4.4,16.3-16c0-1.6-0.7-5.1-2-6.8c0,9.5-6.9,13.3-12.9,13.3c-1.5,0-2.9-0.2-4.1-0.7c1.3-1.1,2.3-3,2.3-4.1
		c0-0.7-0.6-1.2-1.6-1.2c-0.7,0-2.1,0.3-3.3,0.3c-3,0-5.4-1.2-8.1-3.8C276,136.2,275.2,139.8,275.2,143.1z"/>
	<path fill="#646469" d="M291.6,129.1c0,0.6,0.3,1.3,1.1,1.6c2.7,1.3,4.4,3.3,5.3,5.1c4.8-2.6,6.7-9.9,6.7-14.2c0-1.3,0-3.1-1.2-3.1
		c-0.8,0-1.9,1.1-3,1.1c-1,0-3.6-3.6-10.3-3.6c-7.7,0-10.9,5.7-10.9,10.4c0,1.3,0.3,2.5,0.7,3.6c0.6-3,3.8-6.2,8.5-6.2
		c1.5,0,4.6,0.7,5.5,2.1C292.6,126.4,291.6,127.9,291.6,129.1z"/>
	<path fill="#646469" d="M143.8,77.7c0,0.7,0.8,1.1,1.9,1.1c2.3,0,6-1.1,8.7-1.1c1.5,0,2.9,0.3,2.9,1.7c0,2.6-5.7,7.4-5.7,9.5
		c0,0.6,0.5,0.8,1.1,0.8c2.1,0,5.7-5.4,9.1-5.4c5.6,0,1.9,11.9,5,11.9c3.2,0,1.8-11.7,6.3-11.7c3.7,0,6.4,8.1,9,8.1
		c0.6,0,1.2-0.5,1.2-1.3c0-2.2-3.2-6.8-3.2-9.7c0-1.8,1.3-2.6,3-2.6c2.4,0,5.7,1.5,7.5,1.5c0.6,0,1.3-0.2,1.3-1
		c0-2.5-9.4-5.3-9.4-8.6c0-3.3,5.2-3.3,5.2-4.8c0-0.6-3.2-1.3-7.5-1.3c-6.9,0-5.9,5.7-11.2,5.7c-5.5,0-4.1-5.9-11.1-5.9
		c-4.2,0-8.1,0.7-8.1,1.7c0,1.3,5,0.7,5,4.2C154.5,74.5,143.8,75.5,143.8,77.7z"/>
	<path fill="#646469" d="M114,84.8c0,3.2,20.7,0.2,20.7,3.5c0,3.6-18.1,19.1-18.1,24.3c0,1.2,0.8,1.7,2,1.7
		c5.5,0,19.8-10.5,23.7-10.5c1.4,0,1.5,1.7,1.5,3.2c0,2.8-0.9,7-0.9,10c0,2.4,0.6,4.1,2.7,4.1c3.9,0,7.5-6.7,10.2-6.7
		c3.4,0,1.4,19.6,6.4,19.6c4.3,0,6.1-21.1,8.9-21.1c2.7,0,5,6.1,7.5,6.1c3.2,0,1.7-10.7,5.1-10.7c3.7,0,14.3,12.7,19,12.7
		c1.5,0,2-1.2,2-2.6c0-5.6-7.8-18.3-7.8-22.3c0-1.1,0.3-1.4,1.5-1.4c4.1,0,16.2,5.7,21.9,5.7c1.9,0,3.1-1.1,3.1-2.4
		c0-6.3-17.1-17.9-17.3-22.8c0-0.5,0.2-0.9,0.6-1.3c2.9-3.1,15.1-5.4,15.1-8c0-1.4-2.5-1.4-3.8-1.4c-9.8,0-24.2,3.6-24.2,7.1
		c0,3.6,12.9,12.4,12.9,16.7c0,1.2-0.7,1.6-1.9,1.6c-3.6,0-11.4-4.3-15.1-4.3c-1.7,0-2.3,1.2-2.3,2.9c0,5.1,6,14.7,6,17.5
		c0,0.3-0.1,0.7-0.5,0.7c-1.9,0-10.6-10.6-13.8-10.6c-1.2,0-1,1.6-1,3.9v3.6c0,2.4-0.4,3.9-1.5,3.9c-2.8,0-4.2-7.7-6.8-7.7
		c-2.7,0-3.3,13.7-6,13.7c-3.1,0-0.5-15.1-3.4-15.1c-3.3,0-7,10-9.3,10c-0.8,0-1.1-0.8-1.1-1.6c0-3.1,1.8-8,1.8-11
		c0-1.5-0.4-2.3-1.7-2.3c-3.3,0-10.5,5.3-13.2,5.3c-0.4,0-1-0.2-1-0.6c0-2.5,11.5-10.6,11.5-14.2c0-3.5-15.9-1.2-15.9-5.2
		c0-3.4,11.3-6.9,11.3-10.4c0-3.1-13.4-4.4-18.6-4.4c-6.2,0-9.6,0.7-9.6,2.5c0,2.7,14.2,3.6,14.2,6C128.7,75,114,81.2,114,84.8z"/>
	<path fill="#646469" d="M223.9,117.7c0-0.8-0.2-1.7-0.6-2.3c-1.9-2.6-15.3-13.2-18.3-13.2c-0.3,0-0.5,0.3-0.5,0.6
		c0,3.7,13.2,21.8,15.7,21.8C222.4,124.5,223.9,120.9,223.9,117.7z"/>
	<path fill="#646469" d="M220.2,74.9c-3.5,0-7.9,1-7.9,2.2c0,1.9,6.7,6,9.7,6c1.8,0,2.3-2.4,2.3-5C224.4,75,223,74.9,220.2,74.9z"/>
	<path fill="#646469" d="M123.7,90.7c-2.4,0-5.6,0.6-7,1.9c-1.2,1-2.1,3.9-2.1,6c0,1.2,0.3,2.4,1.4,2.4c2.8,0,10.9-7.1,10.9-9.2
		C126.8,91,125.1,90.7,123.7,90.7z"/>
	<path fill="#646469" d="M333.3,109.2c0,0.5,0.2,0.7,1.1,0.8c5.5,0.8,11.1,1.3,16.4,1.3c19.1,0,34.8-5.9,34.8-22.6
		c0-9.1-2.9-12.2-2.9-16.6c0-1.5,1.1-4.5,3.9-6.2c-5.3,0-6.1-1.6-9.7-1.6c-4.3,0-7.4,3-7.4,7.4c0,1.5,0.5,3.8,0.5,6.9
		c0,3.7-0.7,7.2-4,7.2c-3.1,0-4.2-2-4.2-4.3c0-4.2,2.2-7.1,2.2-9.8c0-5-6.1-6.4-12.7-6.4c-7.8,0-16.3,2.1-16.3,3.2
		c0,1.8,11.3,0.7,19.2,10.9C349,79.3,339,81.6,339,83c0,1.7,17.9,3.6,17.9,11.1c0,4.9-3.9,5.4-5.5,5.4c-5.9,0-9.1-6.1-10.7-6.1
		c-0.4,0-0.8,0.3-0.8,0.8c0,0.9,0.8,3.5,0.8,6.1C340.8,107.1,333.3,107.8,333.3,109.2z M376.8,68.1c1.5,0,2.6,1.2,2.6,2.6
		c0,1.5-1.2,2.6-2.6,2.6c-1.5,0-2.6-1.2-2.6-2.6C374.2,69.3,375.4,68.1,376.8,68.1z M374.8,83.4c2.8,0.8,4.4,3.6,4.4,6.7
		c0,5.5-5.3,12-19.8,12c-1.3,0-2.5,0-3.9-0.1C368,100,374.8,92.8,374.8,83.4z"/>
	<path fill="#646469" d="M383.6,210.7c-5,0-7.8,8.7-12.7,9.2c3-12.7,15.6-19.2,15.6-31.1c0-13.4-11.3-18.2-16.1-21.1
		c-7.8-11.2-13.4-20-26.1-20c-5.4,0-8.8,1-12.5,1c-7.2,0-9.4-2.8-9.9-2.8c-0.1,0-0.2,0.1-0.2,0.5c0,9.8,5.2,32.3,27.9,32.3
		c12.2,0,17.3-4.6,20.2-4.6c3,0,12.9,3.4,12.9,14.6c0,6.2-5,12.6-6.8,12.6c-1.7,0-3.6-2.9-3.6-5.8c0-3.3,1.8-9.4,1.8-13.2
		c0-1.4-0.2-2.1-1.1-2.1c-1.9,0-11,5.7-11,13c0,6.2,9.2,10,12.7,11.8c-3.5,5.7-5.6,9.4-7.3,14.7c0-4-3.8-12.2-5-15.4
		c-5.7-15.9-7.8-18.8-19.9-20.2c1.8,6.3,22.5,21.7,22.5,37.3c0,1-0.1,2.3-0.2,2.8c-6.2-18.3-17-22.5-20.9-26.9
		c-6.2-7-2.6-13.7-12.8-17.5c0.6,0.8,0.9,1.9,0.9,3.1c0,3.4-1.9,7.6-1.9,10.6c0,11,12.9,7.7,20.4,13.7c7.4,5.9,11.5,15.6,14.6,26.4
		c3-4.7,4.7-10.5,9.9-10.5c3.4,0,4.6,4.2,4.6,7.2c0,0.6,0,1.2-0.1,1.6c5.1-4.3,7.7-11.3,7.7-16C387.3,212.7,386.1,210.7,383.6,210.7
		z M363.6,169.2c-1.1,0-3.1-0.5-4.4-0.5c-3.6,0-6.1,5-8,5c-0.6,0-1-0.6-1-1.2c0-2,3.6-4.4,3.6-5.8c0-1-1.6-1.3-2.2-1.3
		c-3.6,0-8.7,5-11.5,5c-0.5,0-1.2-0.3-1.2-0.9c0-1.4,3.8-3.3,3.8-4.8c0-1.4-1.6-1.6-2.6-1.6c-1.8,0-5.3,0.9-7.5,0.9
		c-1.3,0-2.2-0.3-2.2-1.3c0-2.1,6.9-0.7,6.9-3.3c0-1.2-2.1-3.5-2.1-4.8c0-0.5,0.5-0.8,1.1-0.8c2.4,0,5,6.7,7.8,6.7
		c1.3,0,1.6-1,1.6-2.3c0-1.4-0.2-2.1-0.2-3.3c0-1.3,0.5-1.6,0.9-1.6c1.8,0,3.4,9.5,8.2,9.5c2.1,0,0.6-5.8,2.5-5.8
		c1.2,0,1.5,1.7,1.6,2.6c0.5,6.2,6.1,6.4,6.1,8.7C364.8,168.7,364.5,169.2,363.6,169.2z"/>
	<path fill="#646469" d="M288,66.8c0,1.2,0,4.9-1.3,4.9c-2.5,0-12.4-7.3-12.4-4.7c0,2.4,6.5,9.8,6.5,11.7c0,1.9-6.4,3.7-6.4,5
		c0,2.3,6.9,2.7,6.9,5.7c0,3-7.2,5.3-7.2,7.5c0,1.8,7.2,0.5,7.2,2.7c0,2.2-5.3,9.6-5.3,11.7c0,0.5,0.1,0.5,0.5,0.5
		c2,0,8-6.9,9.5-6.9c1.7,0,2,4.1,2.3,6.6c0.2,1.3,0.4,1.4,1,1.4c1.3,0,3.3-4.9,4.6-4.9c2,0,7.4,5.6,16.4,5.6
		c12.8,0,24.8-9,24.8-24.8c0-15.3-10.8-24.3-25.7-24.3c-7.1,0-12.3,3.5-15,3.5c-1.7,0.1-4.2-4.1-5.5-4.1C288.5,64,288,65,288,66.8z
		 M309.4,69.6c10.4,0,16.7,7.2,16.7,19.2c0,15.2-10.7,19-16.4,19c-7.4,0-12.3-3.7-12.3-5.6c0-1,0.6-1.6,1.5-1.6
		c2.3,0,7.4,3.6,9.1,3.6c0.4,0,0.7-0.2,0.7-0.8c0-1.9-1.8-5.1-1.8-6.7c0-0.4,0.3-0.7,1-0.7c2.9,0,7.1,1.2,9.3,1.2
		c0.7,0,0.9-0.4,0.9-0.8c0-2.3-6.9-6.9-6.9-8.2c0-1.3,8.5-3.2,8.5-5.2c0-2.1-11.6-0.6-11.6-2.6c0-1.5,2.2-4,2.2-5.2
		c0-0.5-0.4-0.7-1.2-0.7c-1,0-6,2-8.1,2c-1.1,0-2.3-0.2-2.3-1.7C298.9,72.2,303,69.6,309.4,69.6z M290.3,83.2c1.4,0,1.6-5.9,2.6-5.9
		c0.7,0,2,5.6,3.2,5.6c1.4,0,3.9-1.6,5-1.6c0.2,0,0.4,0.1,0.4,0.3c0,0.7-2.6,3.6-2.6,4.4c0,1,5.9,2.1,5.9,3c0,1.1-6,1-6,1.9
		c0,0.7,2.2,3.7,2.2,4.6c0,0.2-0.1,0.3-0.3,0.3c-0.8,0-4.1-1.5-5.1-1.5c-1.2,0-3,4.3-4,4.3c-0.3,0-0.5-0.4-0.5-1l-0.2-4.2
		c0-0.4-0.2-0.8-0.7-0.8c-1.3,0-3.7-0.1-4.5-0.1c-0.5,0-0.7-0.1-0.7-0.3c0-0.8,4.2-3.8,4.2-4.5c0-1.2-4.1-3.4-4.1-4.6
		c0-0.2,0.2-0.3,0.5-0.3C286.7,82.8,288.7,83.2,290.3,83.2z"/>
	<path fill="#646469" d="M248.8,289c0-1.8-1.3-3.5-3.4-3.5c-1,0-1.6,0.3-2.3,1c-0.2-1.9-1.3-3.7-3.3-3.7c-1.6,0-2.7,1.2-2.7,3
		c0,1.7,1.2,3.1,1.2,4.9c0,1-0.3,2-1.2,3.1c-1.2-2.1-4.4-3.2-5.9-3.2c-10.9,0-6.8,15.7-18.4,15.7c-4.9,0-5.3-0.6-7.1-0.6
		c-0.7,0-1.2,0.3-1.2,1c0,2.8,3.9,9.5,14.8,9.5c10.9,0,21.3-6.7,21.3-14.9c0-1.4-0.3-2.8-1-4.3c0.4-0.6,1.5-1.1,2.4-1.1
		c1.7,0,2.6,1.9,4.2,1.9c1.7,0,3-1.3,3-3c0-1.4-0.7-2.3-2-3C248.1,291.2,248.8,290.1,248.8,289z"/>
	<path fill="#646469" d="M180.4,261.3c-3.7,0-7.8,2-7.8,5c0,1.8,1,3.1,7.7,4.8c8.5,2.1,12.7,6.6,13.5,12c0.8,5.2,1.9,9.4,3.9,11.5
		c2.6,3,7.8,5.6,12.4,5.6c3.8,0,6.9-1.3,6.9-4.7c0-3.8-5.2-12.4-12.8-12.4c-0.7,0-1.7,0.1-2.7,0.1c-1,0-2.3-0.2-3.2-1
		c-1.7-1.5-2.2-9.4-5.4-14.2C189.4,262.8,185.6,261.3,180.4,261.3z M204.5,287c2.6,0,7.4,3.3,7.4,6c0,0.7-0.5,1.7-2.1,1.7
		c-3.2,0-7.9-3.4-7.9-5.3C201.8,287.8,203.3,287,204.5,287z"/>
	<path fill="#646469" d="M216.7,215.7c0-4.5,7.6-7.9,7.6-15.2c0-4.2-4.1-9.4-9.7-12.5c1,1.8,1.5,4.2,1.5,5.6
		c0,8.4-16.1,11.9-16.1,18.7c0,8.4,15.5,11.9,15.5,15.9c0,1.3-0.7,2.1-2.4,2.1c-1.9,0-4.9-1.7-7.8-4.2c-3.4,3.3-5.6,7.8-5.6,13
		c0,10.5,11,19.2,21.7,19.2c1.8,0,3.5-0.3,5.4-0.7c-5.8-0.7-9.6-5.2-9.6-10.6c0-7,7.7-13.2,7.7-18.6
		C224.9,221.9,216.7,221,216.7,215.7z"/>
	<path fill="#646469" d="M234.9,248.1c-4.8-1.8-7-4.7-7.9-10.2c-2.3,3.3-3.5,6.3-3.5,8.1c0,7.2,9.8,7.3,9.8,12c0,2.9-5,5.6-11.7,5.6
		c-7.5,0-12.7-1.3-17.4-6c-1.3-1.3-1.8-2.5-3.4-2.5c-1.8,0-2.5,3.2-2.5,6c0,10.4,9.8,22.6,23.6,22.6c17.1,0,23.8-11.8,23.8-21.3
		C245.6,256.8,244.3,251.6,234.9,248.1z M230.1,276.9c-1.5,0-1.7-0.7-1.7-2c0-1,0.3-2.7,0.3-4.1c0-3.7,1.4-3.4,5.1-5.1
		c2.5-1.2,3.5-2.8,4.3-2.8c1,0,1.8,0.6,1.8,2.1C239.9,270.5,233.9,276.9,230.1,276.9z"/>
	<path fill="#646469" d="M138.8,264.6c0.4,3.6,3.8,6.3,7.6,5.9c1.4-0.2,2.6-0.5,3.5-1.1c0.8,3.4,3.7,5.6,7.5,5.1
		c3.9-0.5,6.5-3.6,6.1-7.5c-0.1-1.1-0.3-1.7-0.6-2.4c0,0,0.5-0.1,0.9-0.1c3.8-0.7,6.4-3.8,6.1-7.5c-0.4-3.8-3.8-6.6-7.4-6.2
		c-1.4,0.2-2.6,0.7-3.5,1.4c-1-3.2-3.9-5.9-8-5.2c-3.7,0.6-6.1,3.7-5.7,7.7c0.1,0.6,0.2,1.4,0.5,2.1c0,0-0.6,0.1-1.1,0.2
		C141.6,257.4,138.3,260.5,138.8,264.6z M154,256.9c2.2-0.3,4.2,1.3,4.5,3.5c0.3,2.2-1.3,4.2-3.5,4.5c-2.2,0.3-4.2-1.3-4.5-3.5
		C150.3,259.1,151.8,257.1,154,256.9z"/>
</g>
</svg>
