<?xml version="1.0" encoding="utf-8"?>
<!-- Generator: Adobe Illustrator 18.1.1, SVG Export Plug-In . SVG Version: 6.00 Build 0)  -->
<svg version="1.1" id="Layer_1" xmlns="http://www.w3.org/2000/svg" xmlns:xlink="http://www.w3.org/1999/xlink" x="0px" y="0px"
	 viewBox="0 0 512 512" enable-background="new 0 0 512 512" xml:space="preserve">
<path fill="#646469" d="M255,63.5C148.7,63.5,62.6,149.7,62.6,256c0,106.3,86.2,192.5,192.5,192.5c106.3,0,192.5-86.2,192.5-192.5
	C447.5,149.7,361.3,63.5,255,63.5z M255,431.2c-96.8,0-175.2-78.4-175.2-175.2c0-96.8,78.4-175.2,175.2-175.2
	c96.8,0,175.2,78.4,175.2,175.2C430.2,352.8,351.8,431.2,255,431.2z"/>
<path fill="#646469" d="M216.7,125.1c12.2-3.6,25-5.5,38.4-5.5c13.3,0,26.2,1.9,38.3,5.5L255,210L216.7,125.1z"/>
<path fill="#646469" d="M328.2,140.9c14.4,9.2,26.9,20.9,36.9,34.7l-62.9,139.2l-24.3-54h-46l-24.3,54L145,175.5
	c10-13.7,22.5-25.4,36.8-34.5L232,252.3h46.1L328.2,140.9z"/>
<path fill="#646469" d="M123.3,220.7c-3,11.3-4.6,23.1-4.6,35.3c0,53.4,30.7,99.7,75.5,122.1L123.3,220.7z"/>
<path fill="#646469" d="M217.3,387.1c12,3.4,24.6,5.3,37.7,5.3c13.1,0,25.7-1.8,37.7-5.3L255,303.4L217.3,387.1z"/>
<path fill="#646469" d="M315.9,378.1c44.8-22.4,75.5-68.6,75.5-122.1c0-12.1-1.6-23.8-4.5-35L315.9,378.1z"/>
</svg>
