<?xml version="1.0" encoding="utf-8"?>
<!-- Generator: Adobe Illustrator 19.0.0, SVG Export Plug-In . SVG Version: 6.00 Build 0)  -->
<svg version="1.1" id="Layer_1" xmlns="http://www.w3.org/2000/svg" xmlns:xlink="http://www.w3.org/1999/xlink" x="0px" y="0px"
	 viewBox="0 0 512 512" enable-background="new 0 0 512 512" xml:space="preserve">
<g>
	<path fill-rule="evenodd" clip-rule="evenodd" fill="#656565" d="M147.9,275.4c0.2,0,0.2,0,0.2-0.2l9.3-32.8c0-0.2,0.2-0.5,0.5-0.5
		h3.6c0.2,0,0.5,0.2,0.5,0.5l-11.8,40c0,0.2-0.2,0.5-0.5,0.5h-4.3c-0.2,0-0.5-0.2-0.5-0.5l-11.5-32.8c0-0.2-0.2-0.2-0.2,0
		l-10.9,32.8c0,0.2-0.2,0.5-0.5,0.5h-4.1c-0.2,0-0.5-0.2-0.7-0.5l-12.2-40c0-0.2,0-0.5,0.2-0.5h4.7c0.2,0,0.5,0.2,0.7,0.5l9.5,33
		c0.2,0,0.2,0,0.5,0l10.2-33c0-0.2,0.2-0.5,0.5-0.5h5.4c0.2,0,0.5,0.2,0.5,0.5L147.9,275.4L147.9,275.4z"/>
	<path fill-rule="evenodd" clip-rule="evenodd" fill="#656565" d="M166.2,262.9c-0.2,0-0.2-0.2-0.2-0.5l6.6-15.4
		c0-0.2,0.2-0.2,0.2,0l6.3,15.4c0.2,0.2,0,0.5-0.2,0.5H166.2L166.2,262.9z M157.4,282.8c0.2,0,0.7-0.2,0.7-0.5l6.3-15.4
		c0-0.2,0.2-0.5,0.5-0.5h15.6c0.2,0,0.5,0.2,0.5,0.5l6.3,15.4c0.2,0.2,0.5,0.5,0.7,0.5h4.5c0.2,0,0.5-0.2,0.5-0.5l-16.3-40.2
		c0-0.2-0.5-0.2-0.7-0.2h-5c-0.2,0-0.5,0-0.5,0.2l-17.2,40.2c-0.2,0.2,0,0.5,0.2,0.5H157.4L157.4,282.8z"/>
	<path fill-rule="evenodd" clip-rule="evenodd" fill="#656565" d="M282.5,262.9c-0.2,0-0.2-0.2-0.2-0.5l6.6-15.4
		c0-0.2,0.2-0.2,0.2,0l6.3,15.4c0.2,0.2,0,0.5-0.2,0.5H282.5L282.5,262.9z M273.6,282.8c0.2,0,0.5-0.2,0.7-0.5l6.1-15.4
		c0.2-0.2,0.5-0.5,0.7-0.5h15.6c0.2,0,0.5,0.2,0.5,0.5l6.3,15.4c0.2,0.2,0.5,0.5,0.7,0.5h4.5c0.2,0,0.5-0.2,0.2-0.5l-16.1-40.2
		c-0.2-0.2-0.5-0.2-0.7-0.2h-5c-0.2,0-0.5,0-0.7,0.2l-17,40.2c-0.2,0.2,0,0.5,0.2,0.5H273.6L273.6,282.8z"/>
	<path fill-rule="evenodd" clip-rule="evenodd" fill="#656565" d="M229.8,272.9c-0.5,3.4-2.3,5.7-2.9,6.3c-1.6,1.6-2.9,2.3-6.3,3.2
		c-1.8,0.7-5.2,1.4-7.2,1.4c-3.4,0.2-3.4,0.2-7.5-0.2c-1.1-0.2-5.2-1.1-6.3-1.6c-1.8-0.9-3.6-2-4.3-2.9c-0.7-0.9-1.1-1.1-1.8-2.7
		c-1.6-3.6-1.8-7.5-2-13.1c-0.2-6.1-0.5-12.7,2-16.1c2.7-3.8,6.3-4.5,7.5-5c2-0.5,2.5-0.7,5.2-0.9c2.5-0.5,5.2-0.2,6.8-0.2
		c2.7,0,6.3,0.7,8.6,1.4c2.3,0.9,4.1,2.3,5.9,4.1c1.8,2,2,5.9,2,9h-5c-0.7-6.3-2.5-7.7-3.6-8.6c-1.6-1.6-5.4-2.5-7.5-2.7
		c-4.3-0.5-10.4,0.5-13.3,3.2c-3.8,3.4-3.2,10.2-3.2,15.8c0,2.7,0.5,9.3,1.8,12c1.4,2.5,3.8,4.1,7.5,4.7c2.3,0.5,4.1,0.7,7.2,0.5
		c1.6-0.2,3.6-0.5,5.2-1.1c1.6-0.7,3.6-1.6,4.5-3.4c1.4-2.3,1.6-7.2,1.6-7.2c0-0.5,0.2-0.5,0.5-0.5h4.3c0.2,0,0.7,0,0.7,0.2
		C230,268.4,230,268.4,229.8,272.9L229.8,272.9z"/>
	<path fill-rule="evenodd" clip-rule="evenodd" fill="#656565" d="M265.7,267.9c-0.2,3.4-0.7,5.7-1.1,7c-0.9,1.6-2,2.3-2.5,2.7
		c-1.6,1.4-3.6,1.8-5.4,2.3c-1.6,0.5-4.1,0.5-5.7,0.7c-1.6,0-3.8-0.5-5.7-0.9c-1.6-0.7-3.4-1.6-5-2.9c-0.9-0.9-2.5-3.2-2.7-8.4
		c-0.2-2.9,0-3.4,0-6.1c0-1.8-0.2-3.6,0-5.7c0-2,0.5-4.3,0.9-5.7c0.5-2.3,1.6-3.2,2-3.6c2.9-2.7,7-3.4,10.4-3.2
		c3.4,0,7.2,0.5,10.2,2c0.7,0.2,2.3,1.8,3.2,3.2c0.7,1.1,0.9,1.8,1.1,4.7c0,1.8,0.2,5,0.2,6.8C265.7,262.9,265.9,265.9,265.7,267.9
		L265.7,267.9z M271.1,258.2c0-1.8-0.2-4.7-0.7-7c-0.5-2.5-1.4-4.3-3.2-6.1c-1.4-1.1-3.4-2.3-4.7-2.7c-1.6-0.5-4.1-1.1-5.7-1.1
		c-2.9-0.5-3.6-0.2-5.9-0.2c-5.2,0-11.8,0.7-16.1,5.4c-2.7,2.7-2.7,9.7-2.7,11.3c0,2.7,0,6.8,0,7.5c0,0.9,0,3.4,0.2,5
		c0.2,1.8,0.2,3.8,0.9,5c1.1,2.7,1.1,2.7,2.7,4.3c1.6,1.4,3.8,2.3,6.3,3.2c2.5,0.7,5.4,0.9,8.6,0.9c3.2,0,6.3,0,8.8-0.7
		c2.3-0.5,4.5-1.1,7.7-3.6c1.6-1.1,2.7-3.8,3.2-5.7c0.5-2.5,0.5-7.5,0.5-8.4c0.2-0.9,0.2-1.8,0.2-2.9
		C271.4,261.1,271.4,259.8,271.1,258.2L271.1,258.2z"/>
	<path fill-rule="evenodd" clip-rule="evenodd" fill="#656565" d="M393.9,272.9c-0.5,3.4-2.3,5.7-2.7,6.3c-1.8,1.6-3.2,2.3-6.6,3.2
		c-1.8,0.7-5,1.4-7.2,1.4c-3.4,0.2-3.4,0.2-7.5-0.2c-1.1-0.2-5.2-1.1-6.3-1.6c-1.6-0.9-3.6-2-4.3-2.9c-0.7-0.9-1.1-1.1-1.8-2.7
		c-1.4-3.6-1.8-7.5-2-13.1c-0.2-6.1-0.5-12.7,2-16.1c2.7-3.8,6.3-4.5,7.5-5c2-0.5,2.5-0.7,5.2-0.9c2.5-0.5,5.2-0.2,6.8-0.2
		c2.7,0,6.3,0.7,8.6,1.4c2.3,0.9,4.1,2.3,5.9,4.1c1.8,2,2,5.9,2,9h-5c-0.7-6.3-2.5-7.7-3.6-8.6c-1.6-1.6-5.4-2.5-7.5-2.7
		c-4.3-0.5-10.4,0.5-13.3,3.2c-3.8,3.4-3.2,10.2-3.2,15.8c0,2.7,0.5,9.3,1.8,12c1.6,2.5,3.8,4.1,7.5,4.7c2.3,0.5,4.1,0.7,7.2,0.5
		c1.6-0.2,3.8-0.5,5.4-1.1c1.4-0.7,3.4-1.6,4.5-3.4c1.1-2.3,1.4-7.2,1.4-7.2c0-0.5,0.2-0.5,0.5-0.5h4.3c0.2,0,0.7,0,0.7,0.2
		C394.2,268.4,394.4,268.4,393.9,272.9L393.9,272.9z"/>
	<path fill-rule="evenodd" clip-rule="evenodd" fill="#656565" d="M430.1,267.9c-0.5,3.4-0.9,5.7-1.4,7c-0.7,1.6-1.8,2.3-2.5,2.7
		c-1.6,1.4-3.6,1.8-5.4,2.3c-1.6,0.5-4.1,0.5-5.7,0.7c-1.6,0-3.6-0.5-5.7-0.9c-1.6-0.7-3.4-1.6-4.7-2.9c-1.1-0.9-2.7-3.2-2.9-8.4
		c-0.2-2.9,0-3.4,0-6.1c0-1.8,0-3.6,0-5.7c0.2-2,0.5-4.3,0.9-5.7c0.5-2.3,1.8-3.2,2.3-3.6c2.7-2.7,6.8-3.4,10.2-3.2
		c3.6,0,7.2,0.5,10.2,2c0.7,0.2,2.5,1.8,3.2,3.2c0.7,1.1,0.9,1.8,1.1,4.7c0.2,1.8,0.2,5,0.2,6.8
		C429.9,262.9,430.1,265.9,430.1,267.9L430.1,267.9z M435.3,258.2c0-1.8-0.2-4.7-0.7-7c-0.2-2.5-1.1-4.3-3.2-6.1
		c-1.4-1.1-3.4-2.3-4.7-2.7c-1.6-0.5-3.8-1.1-5.7-1.1c-2.9-0.5-3.6-0.2-5.9-0.2c-5.2,0-11.8,0.7-16.1,5.4c-2.7,2.7-2.7,9.7-2.7,11.3
		c0.2,2.7,0,6.8,0,7.5c0,0.9,0,3.4,0.2,5c0.2,1.8,0.2,3.8,0.9,5c1.1,2.7,1.1,2.7,2.7,4.3c1.8,1.4,3.8,2.3,6.6,3.2
		c2.3,0.7,5.2,0.9,8.4,0.9c3.2,0,6.3,0,8.8-0.7c2.3-0.5,4.5-1.1,7.7-3.6c1.8-1.1,2.7-3.8,3.2-5.7c0.5-2.5,0.5-7.5,0.5-8.4
		c0.2-0.9,0.2-1.8,0.2-2.9C435.5,261.1,435.5,259.8,435.3,258.2L435.3,258.2z"/>
	<path fill-rule="evenodd" clip-rule="evenodd" fill="#656565" d="M311.2,282.8c-0.2,0-0.5-0.2-0.5-0.5l-0.2-36.6c0-2,0-3.6,0.2-3.8
		l0,0h5l0.2,0.2v36.4c0,0.2,0.2,0.5,0.5,0.5h21.9c0.2,0,0.7,0.2,0.7,0.9v1.8c0,0.7-0.5,1.1-0.7,1.1H311.2L311.2,282.8z"/>
	<path fill-rule="evenodd" clip-rule="evenodd" fill="#656565" d="M311.2,282.8c-0.2,0-0.5-0.2-0.5-0.5l-0.2-36.6c0-2,0-3.6,0.2-3.8
		l0,0h5l0.2,0.2v36.4l0.5,0.5h21.9c0,0,0.7,0.2,0.7,0.9v1.8c0,0.7-0.7,1.1-0.7,1.1H311.2L311.2,282.8z"/>
	<path fill-rule="evenodd" clip-rule="evenodd" fill="#656565" d="M501.1,247.1c1.6,1.8,1.8,2.9,2,6.3c0,5-0.9,6.1-2.3,7.5
		c0,0-2,2-8.6,2.7h-10.4c-0.2,0-0.5-0.2-0.5-0.5v-17.6c0-0.2,0.2-0.5,0.5-0.5h12C496.8,245.1,500,245.8,501.1,247.1L501.1,247.1z
		 M506.1,262.5c2-1.8,2-5.9,2-8.8c0-2-0.2-5.7-1.1-7.2c-1.1-1.8-3.6-2.9-5-3.4c-2.3-0.9-5-1.1-8.1-1.1h-17.4c-0.2,0-0.5,0.2-0.5,0.5
		v40.2c0,0.2,0.2,0.2,0.5,0.2h4.5c0.2,0,0.5,0,0.5-0.2v-15.4c0-0.2,0-0.5,0.2-0.5l12.7-0.2C501.8,266.1,504,264.1,506.1,262.5
		L506.1,262.5z"/>
	<path fill-rule="evenodd" clip-rule="evenodd" fill="#656565" d="M504.7,282.8c0.9,0,1.8-0.9,1.8-1.8v-2c0-1.1-0.9-1.8-1.8-1.8
		h-2.3c-0.9,0-1.8,0.7-1.8,1.8v2c0,0.9,0.9,1.8,1.8,1.8H504.7L504.7,282.8z"/>
	<path fill-rule="evenodd" clip-rule="evenodd" fill="#656565" d="M444.6,282.4c0,0.2-0.2,0.5-0.5,0.5h-4.1c-0.2,0-0.5-0.2-0.5-0.5
		v-40c0-0.2,0.2-0.5,0.5-0.5h20.3c0.2,0,0.5,0,0.7,0c0,0,8.4,0,10.4,4.3c0.7,1.4,1.4,2.3,1.4,6.6c0.5,7.5-4.1,9.7-10.6,10.6
		c0,0,0.2,0,0.5,0c0,0,9,0.7,9.3,8.6l0.7,10.4c0,0.2-0.2,0.5-0.5,0.5h-4.5c-0.2,0-0.5-0.2-0.5-0.5c0,0,0-5-0.2-5.7
		c-0.5-5,0.2-11.5-12.9-11.5h-9c-0.2,0-0.5,0.2-0.5,0.5V282.4L444.6,282.4z M455.4,260.9c10.9-0.5,12.4-3.8,12.4-8.4
		c0-5-2.9-7.7-9.9-7.7H445c-0.2,0-0.5,0.2-0.5,0.5v15.1c0,0.2,0.2,0.5,0.5,0.5H455.4L455.4,260.9z"/>
	<path fill-rule="evenodd" clip-rule="evenodd" fill="#656565" d="M3.9,242.1c0,0,4.7,1.4,7.9,7.5c0,0,12,24.2,12.2,24.4
		c0.2,0.2,4.1,8.8,14.5,8.8c10.6,0,10.9,0,10.9,0s-5.7-2-8.8-8.4c-3.4-6.3-11.5-22.8-11.5-22.8s-3.6-8.8-11.5-9.5H3.9L3.9,242.1z"/>
	<path fill-rule="evenodd" clip-rule="evenodd" fill="#656565" d="M15.4,228.3c0,0,5.4,2,7.9,7.2c2.7,5.9,18.1,36.9,18.1,36.9
		s4.7,10.4,14.9,10.4l12-0.7c0,0-6.3-0.7-9.3-7.2l-19-38.4c0,0-4.7-8.1-13.8-8.1C16.8,228.1,15.4,228.3,15.4,228.3L15.4,228.3z"/>
	<path fill-rule="evenodd" clip-rule="evenodd" fill="#656565" d="M60,272.4l-8.1-16.7l9.9-19.9c0,0,4.5-7.7,15.1-7.7
		c10.4,0,9.3,0,9.3,0s-4.7,1.4-8.1,7.7C74.9,242.1,60,272.4,60,272.4L60,272.4z"/>
	<path fill-rule="evenodd" clip-rule="evenodd" fill="#656565" d="M98.2,242.1c0,0-5.4,1.1-8.8,7.9l-12.9,25.8c0,0-4.1,7.7-11.5,3.6
		c0,0-3.4-2.3-3.8-5.2l12-24c0,0,3.4-7.5,12-8.1H98.2L98.2,242.1z"/>
</g>
</svg>
