<?xml version="1.0" encoding="utf-8"?>
<!-- Generator: Adobe Illustrator 19.0.0, SVG Export Plug-In . SVG Version: 6.00 Build 0)  -->
<svg version="1.1" xmlns="http://www.w3.org/2000/svg" xmlns:xlink="http://www.w3.org/1999/xlink" x="0px" y="0px"
	 viewBox="0 0 1259.9 841.9" enable-background="new 0 0 1259.9 841.9" xml:space="preserve">
<g id="Layer_1">
	<path fill-rule="evenodd" clip-rule="evenodd" fill="#FF8300" d="M859.4,501h24l-12,21L859.4,501z"/>
	<path fill-rule="evenodd" clip-rule="evenodd" fill="#FF8300" d="M1141.4,704l23-40h25l-13-20l12-21l12,21l-36,60H1141.4z"/>
	<path fill-rule="evenodd" clip-rule="evenodd" fill="#FF8300" d="M1177.4,563l11,19l11-19H1177.4z"/>
	<path fill-rule="evenodd" clip-rule="evenodd" fill="#FF8300" d="M1141.4,583l12,20l12-20H1141.4z"/>
	<path fill-rule="evenodd" clip-rule="evenodd" fill="#FF8300" d="M1118.4,542l12,21l12-21H1118.4z"/>
	<path fill-rule="evenodd" clip-rule="evenodd" fill="#FF8300" d="M1094.4,664l-12,20h24L1094.4,664z"/>
	<path fill-rule="evenodd" clip-rule="evenodd" fill="#FF8300" d="M1118.4,623l-24,41l-12-20h-23l-11-20h-24l-12,20h-24l-22-41
		l11-20h23l12-21h70L1118.4,623z"/>
	<path fill-rule="evenodd" clip-rule="evenodd" fill="#FF8300" d="M942.4,481l-12,20h-23l11,21l12-20l23,41l12-21L942.4,481z"/>
	<path fill-rule="evenodd" clip-rule="evenodd" fill="#FF8300" d="M977.4,502l-12,19l13,21l22-40h24l12-21l-12-20l-24-1l-12,22h24
		l-12,20H977.4z"/>
	<path fill-rule="evenodd" clip-rule="evenodd" fill="#FF8300" d="M1035.4,522h47l12,20h24l-12,22l-12-22h-46L1035.4,522z"/>
	<path fill-rule="evenodd" clip-rule="evenodd" fill="#FF8300" d="M1012.4,522l-11,20h23L1012.4,522z"/>
	<path fill-rule="evenodd" clip-rule="evenodd" fill="#FF8300" d="M1036.4,400l-12,21h23l12-21h24l23-41l-12-20l-35,61H1036.4z"/>
	<path fill-rule="evenodd" clip-rule="evenodd" fill="#FF8300" d="M509.4,218l11,20h47l-12-20H509.4z"/>
	<path fill-rule="evenodd" clip-rule="evenodd" fill="#FF8300" d="M578.4,258l-11,20l12,20h-24l12,21l12-21l12,21h22L578.4,258z"/>
	<path fill-rule="evenodd" clip-rule="evenodd" fill="#FF8300" d="M566.4,360h24l35-61h47l12-21h23l-11-20h-24l23-40h-23l-23,40
		l12,20h-48l12-20l-12-21h24l36-62h46l24,43h-24l12,20l24-42h23l11-20h-23l47-81h23l12,20h-23l-24,41l12,20h24l-12-21h23h23l12-19
		h23l24-41h24l11,20h24l-12,20l12,21h47l12,21l23-41l11,20h24l11,20h24l12,21h47l23,41h-47l12,20l-12,20h-24l-22,41l-13-20l25-42
		h-24l-12,22h-24l-11,19l11,21l12,20h-23l-12,20l-23,1l-12,19h-23l11,21l-23,40h-23l-12,21l12,20h-24l-12-20h-23l-12-20l-36,60
		l-34-60h-24l-23-41h-23l23,41h23l-12,20h-23l-11,20l-36-60h-24l36,61h47l-24,40h-23l-12,20h24l-24,41l12,20l-24,41h-23l-47-81
		l12-21l-24-40h-23l-12,20h-23l-24-40l12-21l-12-20l12-21h23l12-20h47l11,21h47l12-21l-12-20h-46l-12-20h-24l-11,20h-24L566.4,360z"
		/>
	<path fill-rule="evenodd" clip-rule="evenodd" fill="#FF8300" d="M63.4,175l-24,43h23l-11,19l-12,21l12,21l24-1l-13,21h-23l12,20
		l11-20l24-1l12-19h47l47,81l-12,20l24,41h23l23,40h23l13,21h23l24,40l-12,21l23,40h24l-12,21l11,20l-23,40l12,20l-12,21l24,41h23
		l12-21h-24l-12-20l24-41h24l35-61h23l36-61l-12-20h-47l-12-20h-24l-11-20h-70l-25-42h-23l12-19h24l23,40h47l-12-20h-23l-23-41h23
		l23-40h24l-12-21l12-20l23,41l12-21l-47-81h-24l12-20h24l-48-83h-46l-12-19h-47l-12,20h-23l-11-20h-24l12,20l-12,20h23l12,20h-70
		l-12-20L63.4,175z"/>
	<path fill-rule="evenodd" clip-rule="evenodd" fill="#FF8300" d="M438.4,339"/>
	<path fill-rule="evenodd" clip-rule="evenodd" fill="#FF8300" d="M754.4,563l-12,19l12,21h24l-13-21l13-19H754.4z"/>
	<path fill-rule="evenodd" clip-rule="evenodd" fill="#FF8300" d="M438.4,339"/>
</g>
<g id="Layer_2">
	<polygon id="XMLID_47_" opacity="0.3" fill-rule="evenodd" clip-rule="evenodd" points="625.4,502 649.4,542 695.4,542 683.4,522 
		707.4,482 684.4,482 672.4,461 578.4,461 555,420.7 543.4,441 555.4,461 543.4,482 567.4,522 590.4,522 614.2,482 636.4,482 	"/>
	<polygon id="XMLID_45_" opacity="0.3" fill-rule="evenodd" clip-rule="evenodd" points="682.4,563 659.4,563 648.2,581.6 
		660.6,603 683.4,603 694.4,583 	"/>
	<polygon id="XMLID_40_" opacity="0.3" fill-rule="evenodd" clip-rule="evenodd" points="730.9,522.8 731.4,522 754.4,522 
		778.4,482 753.4,482 730.4,522 	"/>
	<polygon id="XMLID_41_" opacity="0.3" fill-rule="evenodd" clip-rule="evenodd" points="836.4,380 824.4,400 836.4,420 882.4,420 
		894.4,400 882.4,380 	"/>
	<path id="XMLID_38_" opacity="0.3" fill-rule="evenodd" clip-rule="evenodd" d="M907.4,461l23-41l12,20l-12,21H907.4z"/>
	<polygon id="XMLID_35_" opacity="0.3" fill-rule="evenodd" clip-rule="evenodd" points="695.4,298 742.4,298 730.4,279 706.4,279 	
		"/>
	<path id="XMLID_32_" opacity="0.3" fill-rule="evenodd" clip-rule="evenodd" d="M378.4,482l-12.1,20h48.1l-11-20H378.4z"/>
</g>
</svg>
